M48
; DRILL file {KiCad 7.0.5} date Fri Jul  7 01:58:02 2023
; FORMAT={-:-/ absolute / inch / decimal}
; #@! TF.CreationDate,2023-07-07T01:58:02+07:00
; #@! TF.GenerationSoftware,Kicad,Pcbnew,7.0.5
; #@! TF.FileFunction,Plated,1,2,PTH
FMAT,2
INCH
; #@! TA.AperFunction,Plated,PTH,ViaDrill
T1C0.0157
; #@! TA.AperFunction,Plated,PTH,ViaDrill
T2C0.0315
; #@! TA.AperFunction,Plated,PTH,ComponentDrill
T3C0.0402
; #@! TA.AperFunction,Plated,PTH,ComponentDrill
T4C0.0520
%
G90
G05
T1
X5.8281Y-2.7392
X5.8915Y-2.4223
X5.8915Y-2.4857
X5.9549Y-2.4223
X5.9549Y-2.4857
X6.0Y-2.09
X6.0183Y-1.0912
X6.0183Y-1.1546
X6.0183Y-2.4223
X6.0183Y-2.4857
X6.08Y-2.2
X6.0817Y-1.0912
X6.0817Y-1.1546
X6.0817Y-2.3589
X6.0817Y-2.4223
X6.0817Y-2.4857
X6.1451Y-1.0912
X6.1451Y-1.1546
X6.1451Y-2.3589
X6.1451Y-2.4223
X6.1451Y-2.4857
X6.1451Y-2.7392
X6.2085Y-1.0912
X6.2085Y-1.1546
X6.2085Y-2.3589
X6.2085Y-2.4223
X6.2085Y-2.4857
X6.2085Y-2.7392
X6.2085Y-2.8026
X6.2719Y-1.0912
X6.2719Y-1.1546
X6.2719Y-2.3589
X6.2719Y-2.4223
X6.2719Y-2.4857
X6.2719Y-2.8026
X6.28Y-2.04
X6.3352Y-1.0912
X6.3352Y-1.1546
X6.3352Y-2.3589
X6.3352Y-2.4223
X6.3352Y-2.4857
X6.3986Y-1.0912
X6.3986Y-1.1546
X6.3986Y-2.5491
X6.3986Y-2.6125
X6.3986Y-2.6758
X6.462Y-1.0912
X6.462Y-1.1546
X6.462Y-2.5491
X6.462Y-2.6125
X6.462Y-2.6758
X6.462Y-2.7392
X6.52Y-1.9943
X6.5254Y-1.0912
X6.5254Y-1.1546
X6.5254Y-2.1054
X6.5254Y-2.1688
X6.5254Y-2.5491
X6.5254Y-2.6125
X6.5888Y-1.0912
X6.5888Y-1.1546
X6.5888Y-2.5491
X6.6522Y-1.0912
X6.6522Y-1.1546
X6.68Y-1.95
X6.7156Y-1.0912
X6.7156Y-1.1546
X6.7789Y-1.0912
X6.7789Y-1.1546
X6.8423Y-1.0912
X6.8423Y-1.1546
X6.88Y-2.22
X6.9057Y-1.0912
X6.9057Y-1.1546
X6.9691Y-1.0912
X6.9691Y-1.1546
X6.9691Y-2.7392
X6.9691Y-2.8026
X6.9691Y-2.866
X6.9691Y-2.9294
X7.0325Y-1.0912
X7.0325Y-1.1546
X7.0325Y-2.6758
X7.0325Y-2.7392
X7.0325Y-2.8026
X7.0325Y-2.866
X7.0325Y-2.9294
X7.0959Y-1.0912
X7.0959Y-1.1546
X7.0959Y-2.6125
X7.0959Y-2.6758
X7.0959Y-2.7392
X7.0959Y-2.8026
X7.0959Y-2.866
X7.0959Y-2.9294
X7.1593Y-2.6125
X7.1593Y-2.6758
X7.1593Y-2.7392
X7.2226Y-2.6125
X7.2226Y-2.6758
X7.2226Y-2.7392
X7.286Y-1.218
X7.286Y-1.2814
X7.286Y-1.3447
X7.286Y-1.4081
X7.286Y-1.4715
X7.286Y-1.5349
X7.286Y-1.5983
X7.286Y-1.6617
X7.286Y-2.6125
X7.286Y-2.6758
X7.286Y-2.7392
T2
X6.314Y-1.816
X7.06Y-2.38
T3
X6.1004Y-2.93
X6.2004Y-2.93
X6.3004Y-2.93
T4
X6.3911Y-1.4
X6.5731Y-2.84
X6.588Y-1.4
X6.77Y-2.84
T0
M30
