%TF.GenerationSoftware,KiCad,Pcbnew,7.0.5*%
%TF.CreationDate,2023-07-07T02:12:31+07:00*%
%TF.ProjectId,snaaur_v1,736e6161-7572-45f7-9631-2e6b69636164,rev?*%
%TF.SameCoordinates,Original*%
%TF.FileFunction,Soldermask,Bot*%
%TF.FilePolarity,Negative*%
%FSLAX46Y46*%
G04 Gerber Fmt 4.6, Leading zero omitted, Abs format (unit mm)*
G04 Created by KiCad (PCBNEW 7.0.5) date 2023-07-07 02:12:31*
%MOMM*%
%LPD*%
G01*
G04 APERTURE LIST*
G04 Aperture macros list*
%AMRoundRect*
0 Rectangle with rounded corners*
0 $1 Rounding radius*
0 $2 $3 $4 $5 $6 $7 $8 $9 X,Y pos of 4 corners*
0 Add a 4 corners polygon primitive as box body*
4,1,4,$2,$3,$4,$5,$6,$7,$8,$9,$2,$3,0*
0 Add four circle primitives for the rounded corners*
1,1,$1+$1,$2,$3*
1,1,$1+$1,$4,$5*
1,1,$1+$1,$6,$7*
1,1,$1+$1,$8,$9*
0 Add four rect primitives between the rounded corners*
20,1,$1+$1,$2,$3,$4,$5,0*
20,1,$1+$1,$4,$5,$6,$7,0*
20,1,$1+$1,$6,$7,$8,$9,0*
20,1,$1+$1,$8,$9,$2,$3,0*%
G04 Aperture macros list end*
%ADD10C,3.601600*%
%ADD11RoundRect,0.050800X0.850000X-0.850000X0.850000X0.850000X-0.850000X0.850000X-0.850000X-0.850000X0*%
%ADD12O,1.801600X1.801600*%
%ADD13RoundRect,0.050800X1.980000X-0.990000X1.980000X0.990000X-1.980000X0.990000X-1.980000X-0.990000X0*%
%ADD14O,4.061600X2.081600*%
%ADD15RoundRect,0.050800X-0.850000X-0.850000X0.850000X-0.850000X0.850000X0.850000X-0.850000X0.850000X0*%
%ADD16RoundRect,0.050800X-0.865000X1.015000X-0.865000X-1.015000X0.865000X-1.015000X0.865000X1.015000X0*%
%ADD17O,1.831600X2.131600*%
%ADD18RoundRect,0.050800X-0.850000X0.850000X-0.850000X-0.850000X0.850000X-0.850000X0.850000X0.850000X0*%
G04 APERTURE END LIST*
D10*
%TO.C,H3*%
X107950000Y-89050000D03*
%TD*%
%TO.C,H2*%
X190500000Y-89050000D03*
%TD*%
D11*
%TO.C,J2*%
X177062500Y-58095000D03*
D12*
X179602500Y-58095000D03*
X182142500Y-58095000D03*
X184682500Y-58095000D03*
%TD*%
D13*
%TO.C,J1*%
X115102000Y-82133000D03*
D14*
X115102000Y-77133000D03*
%TD*%
D15*
%TO.C,J11*%
X110316000Y-65771000D03*
D12*
X110316000Y-68311000D03*
X110316000Y-70851000D03*
%TD*%
D10*
%TO.C,H1*%
X190500000Y-58925000D03*
%TD*%
D16*
%TO.C,J9*%
X171196000Y-58166000D03*
D17*
X168656000Y-58166000D03*
X166116000Y-58166000D03*
%TD*%
D18*
%TO.C,J5*%
X118917000Y-89274000D03*
D12*
X116377000Y-89274000D03*
%TD*%
D18*
%TO.C,J6*%
X136946000Y-89274000D03*
D12*
X134406000Y-89274000D03*
X131866000Y-89274000D03*
X129326000Y-89274000D03*
X126786000Y-89274000D03*
X124246000Y-89274000D03*
%TD*%
D11*
%TO.C,J3*%
X143031500Y-58095000D03*
D12*
X145571500Y-58095000D03*
X148111500Y-58095000D03*
%TD*%
D10*
%TO.C,H4*%
X107950000Y-58925000D03*
%TD*%
D18*
%TO.C,J4*%
X136666500Y-58095000D03*
D12*
X134126500Y-58095000D03*
X131586500Y-58095000D03*
X129046500Y-58095000D03*
X126506500Y-58095000D03*
X123966500Y-58095000D03*
X121426500Y-58095000D03*
X118886500Y-58095000D03*
X116346500Y-58095000D03*
X113806500Y-58095000D03*
%TD*%
D16*
%TO.C,J10*%
X159766000Y-58166000D03*
D17*
X157226000Y-58166000D03*
X154686000Y-58166000D03*
%TD*%
D11*
%TO.C,J7*%
X161833000Y-89274000D03*
D12*
X164373000Y-89274000D03*
%TD*%
D18*
%TO.C,J8*%
X155996000Y-89274000D03*
D12*
X153456000Y-89274000D03*
X150916000Y-89274000D03*
X148376000Y-89274000D03*
X145836000Y-89274000D03*
X143296000Y-89274000D03*
%TD*%
M02*
