%TF.GenerationSoftware,KiCad,Pcbnew,7.0.5*%
%TF.CreationDate,2023-07-07T02:12:31+07:00*%
%TF.ProjectId,snaaur_v1,736e6161-7572-45f7-9631-2e6b69636164,rev?*%
%TF.SameCoordinates,Original*%
%TF.FileFunction,Other,Comment*%
%FSLAX46Y46*%
G04 Gerber Fmt 4.6, Leading zero omitted, Abs format (unit mm)*
G04 Created by KiCad (PCBNEW 7.0.5) date 2023-07-07 02:12:31*
%MOMM*%
%LPD*%
G01*
G04 APERTURE LIST*
%ADD10C,0.150000*%
G04 APERTURE END LIST*
D10*
X103632000Y-54610000D02*
X194564000Y-54610000D01*
X194564000Y-92964000D01*
X103632000Y-92964000D01*
X103632000Y-54610000D01*
X224634588Y-53033819D02*
X224063160Y-53033819D01*
X224348874Y-53033819D02*
X224348874Y-52033819D01*
X224348874Y-52033819D02*
X224253636Y-52176676D01*
X224253636Y-52176676D02*
X224158398Y-52271914D01*
X224158398Y-52271914D02*
X224063160Y-52319533D01*
X225063160Y-52938580D02*
X225110779Y-52986200D01*
X225110779Y-52986200D02*
X225063160Y-53033819D01*
X225063160Y-53033819D02*
X225015541Y-52986200D01*
X225015541Y-52986200D02*
X225063160Y-52938580D01*
X225063160Y-52938580D02*
X225063160Y-53033819D01*
X225396493Y-52033819D02*
X225967921Y-52033819D01*
X225682207Y-53033819D02*
X225682207Y-52033819D01*
X226444112Y-53033819D02*
X226348874Y-52986200D01*
X226348874Y-52986200D02*
X226301255Y-52938580D01*
X226301255Y-52938580D02*
X226253636Y-52843342D01*
X226253636Y-52843342D02*
X226253636Y-52557628D01*
X226253636Y-52557628D02*
X226301255Y-52462390D01*
X226301255Y-52462390D02*
X226348874Y-52414771D01*
X226348874Y-52414771D02*
X226444112Y-52367152D01*
X226444112Y-52367152D02*
X226586969Y-52367152D01*
X226586969Y-52367152D02*
X226682207Y-52414771D01*
X226682207Y-52414771D02*
X226729826Y-52462390D01*
X226729826Y-52462390D02*
X226777445Y-52557628D01*
X226777445Y-52557628D02*
X226777445Y-52843342D01*
X226777445Y-52843342D02*
X226729826Y-52938580D01*
X226729826Y-52938580D02*
X226682207Y-52986200D01*
X226682207Y-52986200D02*
X226586969Y-53033819D01*
X226586969Y-53033819D02*
X226444112Y-53033819D01*
X227206017Y-52367152D02*
X227206017Y-53367152D01*
X227206017Y-52414771D02*
X227301255Y-52367152D01*
X227301255Y-52367152D02*
X227491731Y-52367152D01*
X227491731Y-52367152D02*
X227586969Y-52414771D01*
X227586969Y-52414771D02*
X227634588Y-52462390D01*
X227634588Y-52462390D02*
X227682207Y-52557628D01*
X227682207Y-52557628D02*
X227682207Y-52843342D01*
X227682207Y-52843342D02*
X227634588Y-52938580D01*
X227634588Y-52938580D02*
X227586969Y-52986200D01*
X227586969Y-52986200D02*
X227491731Y-53033819D01*
X227491731Y-53033819D02*
X227301255Y-53033819D01*
X227301255Y-53033819D02*
X227206017Y-52986200D01*
X228825065Y-52986200D02*
X228920303Y-53033819D01*
X228920303Y-53033819D02*
X229110779Y-53033819D01*
X229110779Y-53033819D02*
X229206017Y-52986200D01*
X229206017Y-52986200D02*
X229253636Y-52890961D01*
X229253636Y-52890961D02*
X229253636Y-52843342D01*
X229253636Y-52843342D02*
X229206017Y-52748104D01*
X229206017Y-52748104D02*
X229110779Y-52700485D01*
X229110779Y-52700485D02*
X228967922Y-52700485D01*
X228967922Y-52700485D02*
X228872684Y-52652866D01*
X228872684Y-52652866D02*
X228825065Y-52557628D01*
X228825065Y-52557628D02*
X228825065Y-52510009D01*
X228825065Y-52510009D02*
X228872684Y-52414771D01*
X228872684Y-52414771D02*
X228967922Y-52367152D01*
X228967922Y-52367152D02*
X229110779Y-52367152D01*
X229110779Y-52367152D02*
X229206017Y-52414771D01*
X229825065Y-53033819D02*
X229729827Y-52986200D01*
X229729827Y-52986200D02*
X229682208Y-52938580D01*
X229682208Y-52938580D02*
X229634589Y-52843342D01*
X229634589Y-52843342D02*
X229634589Y-52557628D01*
X229634589Y-52557628D02*
X229682208Y-52462390D01*
X229682208Y-52462390D02*
X229729827Y-52414771D01*
X229729827Y-52414771D02*
X229825065Y-52367152D01*
X229825065Y-52367152D02*
X229967922Y-52367152D01*
X229967922Y-52367152D02*
X230063160Y-52414771D01*
X230063160Y-52414771D02*
X230110779Y-52462390D01*
X230110779Y-52462390D02*
X230158398Y-52557628D01*
X230158398Y-52557628D02*
X230158398Y-52843342D01*
X230158398Y-52843342D02*
X230110779Y-52938580D01*
X230110779Y-52938580D02*
X230063160Y-52986200D01*
X230063160Y-52986200D02*
X229967922Y-53033819D01*
X229967922Y-53033819D02*
X229825065Y-53033819D01*
X230729827Y-53033819D02*
X230634589Y-52986200D01*
X230634589Y-52986200D02*
X230586970Y-52890961D01*
X230586970Y-52890961D02*
X230586970Y-52033819D01*
X231539351Y-53033819D02*
X231539351Y-52033819D01*
X231539351Y-52986200D02*
X231444113Y-53033819D01*
X231444113Y-53033819D02*
X231253637Y-53033819D01*
X231253637Y-53033819D02*
X231158399Y-52986200D01*
X231158399Y-52986200D02*
X231110780Y-52938580D01*
X231110780Y-52938580D02*
X231063161Y-52843342D01*
X231063161Y-52843342D02*
X231063161Y-52557628D01*
X231063161Y-52557628D02*
X231110780Y-52462390D01*
X231110780Y-52462390D02*
X231158399Y-52414771D01*
X231158399Y-52414771D02*
X231253637Y-52367152D01*
X231253637Y-52367152D02*
X231444113Y-52367152D01*
X231444113Y-52367152D02*
X231539351Y-52414771D01*
X232396494Y-52986200D02*
X232301256Y-53033819D01*
X232301256Y-53033819D02*
X232110780Y-53033819D01*
X232110780Y-53033819D02*
X232015542Y-52986200D01*
X232015542Y-52986200D02*
X231967923Y-52890961D01*
X231967923Y-52890961D02*
X231967923Y-52510009D01*
X231967923Y-52510009D02*
X232015542Y-52414771D01*
X232015542Y-52414771D02*
X232110780Y-52367152D01*
X232110780Y-52367152D02*
X232301256Y-52367152D01*
X232301256Y-52367152D02*
X232396494Y-52414771D01*
X232396494Y-52414771D02*
X232444113Y-52510009D01*
X232444113Y-52510009D02*
X232444113Y-52605247D01*
X232444113Y-52605247D02*
X231967923Y-52700485D01*
X232872685Y-53033819D02*
X232872685Y-52367152D01*
X232872685Y-52557628D02*
X232920304Y-52462390D01*
X232920304Y-52462390D02*
X232967923Y-52414771D01*
X232967923Y-52414771D02*
X233063161Y-52367152D01*
X233063161Y-52367152D02*
X233158399Y-52367152D01*
X234253638Y-53033819D02*
X234253638Y-52367152D01*
X234253638Y-52462390D02*
X234301257Y-52414771D01*
X234301257Y-52414771D02*
X234396495Y-52367152D01*
X234396495Y-52367152D02*
X234539352Y-52367152D01*
X234539352Y-52367152D02*
X234634590Y-52414771D01*
X234634590Y-52414771D02*
X234682209Y-52510009D01*
X234682209Y-52510009D02*
X234682209Y-53033819D01*
X234682209Y-52510009D02*
X234729828Y-52414771D01*
X234729828Y-52414771D02*
X234825066Y-52367152D01*
X234825066Y-52367152D02*
X234967923Y-52367152D01*
X234967923Y-52367152D02*
X235063162Y-52414771D01*
X235063162Y-52414771D02*
X235110781Y-52510009D01*
X235110781Y-52510009D02*
X235110781Y-53033819D01*
X236015542Y-53033819D02*
X236015542Y-52510009D01*
X236015542Y-52510009D02*
X235967923Y-52414771D01*
X235967923Y-52414771D02*
X235872685Y-52367152D01*
X235872685Y-52367152D02*
X235682209Y-52367152D01*
X235682209Y-52367152D02*
X235586971Y-52414771D01*
X236015542Y-52986200D02*
X235920304Y-53033819D01*
X235920304Y-53033819D02*
X235682209Y-53033819D01*
X235682209Y-53033819D02*
X235586971Y-52986200D01*
X235586971Y-52986200D02*
X235539352Y-52890961D01*
X235539352Y-52890961D02*
X235539352Y-52795723D01*
X235539352Y-52795723D02*
X235586971Y-52700485D01*
X235586971Y-52700485D02*
X235682209Y-52652866D01*
X235682209Y-52652866D02*
X235920304Y-52652866D01*
X235920304Y-52652866D02*
X236015542Y-52605247D01*
X236444114Y-52986200D02*
X236539352Y-53033819D01*
X236539352Y-53033819D02*
X236729828Y-53033819D01*
X236729828Y-53033819D02*
X236825066Y-52986200D01*
X236825066Y-52986200D02*
X236872685Y-52890961D01*
X236872685Y-52890961D02*
X236872685Y-52843342D01*
X236872685Y-52843342D02*
X236825066Y-52748104D01*
X236825066Y-52748104D02*
X236729828Y-52700485D01*
X236729828Y-52700485D02*
X236586971Y-52700485D01*
X236586971Y-52700485D02*
X236491733Y-52652866D01*
X236491733Y-52652866D02*
X236444114Y-52557628D01*
X236444114Y-52557628D02*
X236444114Y-52510009D01*
X236444114Y-52510009D02*
X236491733Y-52414771D01*
X236491733Y-52414771D02*
X236586971Y-52367152D01*
X236586971Y-52367152D02*
X236729828Y-52367152D01*
X236729828Y-52367152D02*
X236825066Y-52414771D01*
X237301257Y-53033819D02*
X237301257Y-52033819D01*
X237396495Y-52652866D02*
X237682209Y-53033819D01*
X237682209Y-52367152D02*
X237301257Y-52748104D01*
X224063160Y-53739057D02*
X224110779Y-53691438D01*
X224110779Y-53691438D02*
X224206017Y-53643819D01*
X224206017Y-53643819D02*
X224444112Y-53643819D01*
X224444112Y-53643819D02*
X224539350Y-53691438D01*
X224539350Y-53691438D02*
X224586969Y-53739057D01*
X224586969Y-53739057D02*
X224634588Y-53834295D01*
X224634588Y-53834295D02*
X224634588Y-53929533D01*
X224634588Y-53929533D02*
X224586969Y-54072390D01*
X224586969Y-54072390D02*
X224015541Y-54643819D01*
X224015541Y-54643819D02*
X224634588Y-54643819D01*
X225063160Y-54548580D02*
X225110779Y-54596200D01*
X225110779Y-54596200D02*
X225063160Y-54643819D01*
X225063160Y-54643819D02*
X225015541Y-54596200D01*
X225015541Y-54596200D02*
X225063160Y-54548580D01*
X225063160Y-54548580D02*
X225063160Y-54643819D01*
X225396493Y-53643819D02*
X225967921Y-53643819D01*
X225682207Y-54643819D02*
X225682207Y-53643819D01*
X226444112Y-54643819D02*
X226348874Y-54596200D01*
X226348874Y-54596200D02*
X226301255Y-54548580D01*
X226301255Y-54548580D02*
X226253636Y-54453342D01*
X226253636Y-54453342D02*
X226253636Y-54167628D01*
X226253636Y-54167628D02*
X226301255Y-54072390D01*
X226301255Y-54072390D02*
X226348874Y-54024771D01*
X226348874Y-54024771D02*
X226444112Y-53977152D01*
X226444112Y-53977152D02*
X226586969Y-53977152D01*
X226586969Y-53977152D02*
X226682207Y-54024771D01*
X226682207Y-54024771D02*
X226729826Y-54072390D01*
X226729826Y-54072390D02*
X226777445Y-54167628D01*
X226777445Y-54167628D02*
X226777445Y-54453342D01*
X226777445Y-54453342D02*
X226729826Y-54548580D01*
X226729826Y-54548580D02*
X226682207Y-54596200D01*
X226682207Y-54596200D02*
X226586969Y-54643819D01*
X226586969Y-54643819D02*
X226444112Y-54643819D01*
X227206017Y-53977152D02*
X227206017Y-54977152D01*
X227206017Y-54024771D02*
X227301255Y-53977152D01*
X227301255Y-53977152D02*
X227491731Y-53977152D01*
X227491731Y-53977152D02*
X227586969Y-54024771D01*
X227586969Y-54024771D02*
X227634588Y-54072390D01*
X227634588Y-54072390D02*
X227682207Y-54167628D01*
X227682207Y-54167628D02*
X227682207Y-54453342D01*
X227682207Y-54453342D02*
X227634588Y-54548580D01*
X227634588Y-54548580D02*
X227586969Y-54596200D01*
X227586969Y-54596200D02*
X227491731Y-54643819D01*
X227491731Y-54643819D02*
X227301255Y-54643819D01*
X227301255Y-54643819D02*
X227206017Y-54596200D01*
X229015541Y-54643819D02*
X228920303Y-54596200D01*
X228920303Y-54596200D02*
X228872684Y-54500961D01*
X228872684Y-54500961D02*
X228872684Y-53643819D01*
X229825065Y-54643819D02*
X229825065Y-54120009D01*
X229825065Y-54120009D02*
X229777446Y-54024771D01*
X229777446Y-54024771D02*
X229682208Y-53977152D01*
X229682208Y-53977152D02*
X229491732Y-53977152D01*
X229491732Y-53977152D02*
X229396494Y-54024771D01*
X229825065Y-54596200D02*
X229729827Y-54643819D01*
X229729827Y-54643819D02*
X229491732Y-54643819D01*
X229491732Y-54643819D02*
X229396494Y-54596200D01*
X229396494Y-54596200D02*
X229348875Y-54500961D01*
X229348875Y-54500961D02*
X229348875Y-54405723D01*
X229348875Y-54405723D02*
X229396494Y-54310485D01*
X229396494Y-54310485D02*
X229491732Y-54262866D01*
X229491732Y-54262866D02*
X229729827Y-54262866D01*
X229729827Y-54262866D02*
X229825065Y-54215247D01*
X230206018Y-53977152D02*
X230444113Y-54643819D01*
X230682208Y-53977152D02*
X230444113Y-54643819D01*
X230444113Y-54643819D02*
X230348875Y-54881914D01*
X230348875Y-54881914D02*
X230301256Y-54929533D01*
X230301256Y-54929533D02*
X230206018Y-54977152D01*
X231444113Y-54596200D02*
X231348875Y-54643819D01*
X231348875Y-54643819D02*
X231158399Y-54643819D01*
X231158399Y-54643819D02*
X231063161Y-54596200D01*
X231063161Y-54596200D02*
X231015542Y-54500961D01*
X231015542Y-54500961D02*
X231015542Y-54120009D01*
X231015542Y-54120009D02*
X231063161Y-54024771D01*
X231063161Y-54024771D02*
X231158399Y-53977152D01*
X231158399Y-53977152D02*
X231348875Y-53977152D01*
X231348875Y-53977152D02*
X231444113Y-54024771D01*
X231444113Y-54024771D02*
X231491732Y-54120009D01*
X231491732Y-54120009D02*
X231491732Y-54215247D01*
X231491732Y-54215247D02*
X231015542Y-54310485D01*
X231920304Y-54643819D02*
X231920304Y-53977152D01*
X231920304Y-54167628D02*
X231967923Y-54072390D01*
X231967923Y-54072390D02*
X232015542Y-54024771D01*
X232015542Y-54024771D02*
X232110780Y-53977152D01*
X232110780Y-53977152D02*
X232206018Y-53977152D01*
X224015541Y-55253819D02*
X224634588Y-55253819D01*
X224634588Y-55253819D02*
X224301255Y-55634771D01*
X224301255Y-55634771D02*
X224444112Y-55634771D01*
X224444112Y-55634771D02*
X224539350Y-55682390D01*
X224539350Y-55682390D02*
X224586969Y-55730009D01*
X224586969Y-55730009D02*
X224634588Y-55825247D01*
X224634588Y-55825247D02*
X224634588Y-56063342D01*
X224634588Y-56063342D02*
X224586969Y-56158580D01*
X224586969Y-56158580D02*
X224539350Y-56206200D01*
X224539350Y-56206200D02*
X224444112Y-56253819D01*
X224444112Y-56253819D02*
X224158398Y-56253819D01*
X224158398Y-56253819D02*
X224063160Y-56206200D01*
X224063160Y-56206200D02*
X224015541Y-56158580D01*
X225063160Y-56158580D02*
X225110779Y-56206200D01*
X225110779Y-56206200D02*
X225063160Y-56253819D01*
X225063160Y-56253819D02*
X225015541Y-56206200D01*
X225015541Y-56206200D02*
X225063160Y-56158580D01*
X225063160Y-56158580D02*
X225063160Y-56253819D01*
X225872683Y-55730009D02*
X226015540Y-55777628D01*
X226015540Y-55777628D02*
X226063159Y-55825247D01*
X226063159Y-55825247D02*
X226110778Y-55920485D01*
X226110778Y-55920485D02*
X226110778Y-56063342D01*
X226110778Y-56063342D02*
X226063159Y-56158580D01*
X226063159Y-56158580D02*
X226015540Y-56206200D01*
X226015540Y-56206200D02*
X225920302Y-56253819D01*
X225920302Y-56253819D02*
X225539350Y-56253819D01*
X225539350Y-56253819D02*
X225539350Y-55253819D01*
X225539350Y-55253819D02*
X225872683Y-55253819D01*
X225872683Y-55253819D02*
X225967921Y-55301438D01*
X225967921Y-55301438D02*
X226015540Y-55349057D01*
X226015540Y-55349057D02*
X226063159Y-55444295D01*
X226063159Y-55444295D02*
X226063159Y-55539533D01*
X226063159Y-55539533D02*
X226015540Y-55634771D01*
X226015540Y-55634771D02*
X225967921Y-55682390D01*
X225967921Y-55682390D02*
X225872683Y-55730009D01*
X225872683Y-55730009D02*
X225539350Y-55730009D01*
X226682207Y-56253819D02*
X226586969Y-56206200D01*
X226586969Y-56206200D02*
X226539350Y-56158580D01*
X226539350Y-56158580D02*
X226491731Y-56063342D01*
X226491731Y-56063342D02*
X226491731Y-55777628D01*
X226491731Y-55777628D02*
X226539350Y-55682390D01*
X226539350Y-55682390D02*
X226586969Y-55634771D01*
X226586969Y-55634771D02*
X226682207Y-55587152D01*
X226682207Y-55587152D02*
X226825064Y-55587152D01*
X226825064Y-55587152D02*
X226920302Y-55634771D01*
X226920302Y-55634771D02*
X226967921Y-55682390D01*
X226967921Y-55682390D02*
X227015540Y-55777628D01*
X227015540Y-55777628D02*
X227015540Y-56063342D01*
X227015540Y-56063342D02*
X226967921Y-56158580D01*
X226967921Y-56158580D02*
X226920302Y-56206200D01*
X226920302Y-56206200D02*
X226825064Y-56253819D01*
X226825064Y-56253819D02*
X226682207Y-56253819D01*
X227301255Y-55587152D02*
X227682207Y-55587152D01*
X227444112Y-55253819D02*
X227444112Y-56110961D01*
X227444112Y-56110961D02*
X227491731Y-56206200D01*
X227491731Y-56206200D02*
X227586969Y-56253819D01*
X227586969Y-56253819D02*
X227682207Y-56253819D01*
X227872684Y-55587152D02*
X228253636Y-55587152D01*
X228015541Y-55253819D02*
X228015541Y-56110961D01*
X228015541Y-56110961D02*
X228063160Y-56206200D01*
X228063160Y-56206200D02*
X228158398Y-56253819D01*
X228158398Y-56253819D02*
X228253636Y-56253819D01*
X228729827Y-56253819D02*
X228634589Y-56206200D01*
X228634589Y-56206200D02*
X228586970Y-56158580D01*
X228586970Y-56158580D02*
X228539351Y-56063342D01*
X228539351Y-56063342D02*
X228539351Y-55777628D01*
X228539351Y-55777628D02*
X228586970Y-55682390D01*
X228586970Y-55682390D02*
X228634589Y-55634771D01*
X228634589Y-55634771D02*
X228729827Y-55587152D01*
X228729827Y-55587152D02*
X228872684Y-55587152D01*
X228872684Y-55587152D02*
X228967922Y-55634771D01*
X228967922Y-55634771D02*
X229015541Y-55682390D01*
X229015541Y-55682390D02*
X229063160Y-55777628D01*
X229063160Y-55777628D02*
X229063160Y-56063342D01*
X229063160Y-56063342D02*
X229015541Y-56158580D01*
X229015541Y-56158580D02*
X228967922Y-56206200D01*
X228967922Y-56206200D02*
X228872684Y-56253819D01*
X228872684Y-56253819D02*
X228729827Y-56253819D01*
X229491732Y-56253819D02*
X229491732Y-55587152D01*
X229491732Y-55682390D02*
X229539351Y-55634771D01*
X229539351Y-55634771D02*
X229634589Y-55587152D01*
X229634589Y-55587152D02*
X229777446Y-55587152D01*
X229777446Y-55587152D02*
X229872684Y-55634771D01*
X229872684Y-55634771D02*
X229920303Y-55730009D01*
X229920303Y-55730009D02*
X229920303Y-56253819D01*
X229920303Y-55730009D02*
X229967922Y-55634771D01*
X229967922Y-55634771D02*
X230063160Y-55587152D01*
X230063160Y-55587152D02*
X230206017Y-55587152D01*
X230206017Y-55587152D02*
X230301256Y-55634771D01*
X230301256Y-55634771D02*
X230348875Y-55730009D01*
X230348875Y-55730009D02*
X230348875Y-56253819D01*
X231729827Y-56253819D02*
X231634589Y-56206200D01*
X231634589Y-56206200D02*
X231586970Y-56110961D01*
X231586970Y-56110961D02*
X231586970Y-55253819D01*
X232539351Y-56253819D02*
X232539351Y-55730009D01*
X232539351Y-55730009D02*
X232491732Y-55634771D01*
X232491732Y-55634771D02*
X232396494Y-55587152D01*
X232396494Y-55587152D02*
X232206018Y-55587152D01*
X232206018Y-55587152D02*
X232110780Y-55634771D01*
X232539351Y-56206200D02*
X232444113Y-56253819D01*
X232444113Y-56253819D02*
X232206018Y-56253819D01*
X232206018Y-56253819D02*
X232110780Y-56206200D01*
X232110780Y-56206200D02*
X232063161Y-56110961D01*
X232063161Y-56110961D02*
X232063161Y-56015723D01*
X232063161Y-56015723D02*
X232110780Y-55920485D01*
X232110780Y-55920485D02*
X232206018Y-55872866D01*
X232206018Y-55872866D02*
X232444113Y-55872866D01*
X232444113Y-55872866D02*
X232539351Y-55825247D01*
X232920304Y-55587152D02*
X233158399Y-56253819D01*
X233396494Y-55587152D02*
X233158399Y-56253819D01*
X233158399Y-56253819D02*
X233063161Y-56491914D01*
X233063161Y-56491914D02*
X233015542Y-56539533D01*
X233015542Y-56539533D02*
X232920304Y-56587152D01*
X234158399Y-56206200D02*
X234063161Y-56253819D01*
X234063161Y-56253819D02*
X233872685Y-56253819D01*
X233872685Y-56253819D02*
X233777447Y-56206200D01*
X233777447Y-56206200D02*
X233729828Y-56110961D01*
X233729828Y-56110961D02*
X233729828Y-55730009D01*
X233729828Y-55730009D02*
X233777447Y-55634771D01*
X233777447Y-55634771D02*
X233872685Y-55587152D01*
X233872685Y-55587152D02*
X234063161Y-55587152D01*
X234063161Y-55587152D02*
X234158399Y-55634771D01*
X234158399Y-55634771D02*
X234206018Y-55730009D01*
X234206018Y-55730009D02*
X234206018Y-55825247D01*
X234206018Y-55825247D02*
X233729828Y-55920485D01*
X234634590Y-56253819D02*
X234634590Y-55587152D01*
X234634590Y-55777628D02*
X234682209Y-55682390D01*
X234682209Y-55682390D02*
X234729828Y-55634771D01*
X234729828Y-55634771D02*
X234825066Y-55587152D01*
X234825066Y-55587152D02*
X234920304Y-55587152D01*
X224539350Y-57197152D02*
X224539350Y-57863819D01*
X224301255Y-56816200D02*
X224063160Y-57530485D01*
X224063160Y-57530485D02*
X224682207Y-57530485D01*
X225063160Y-57768580D02*
X225110779Y-57816200D01*
X225110779Y-57816200D02*
X225063160Y-57863819D01*
X225063160Y-57863819D02*
X225015541Y-57816200D01*
X225015541Y-57816200D02*
X225063160Y-57768580D01*
X225063160Y-57768580D02*
X225063160Y-57863819D01*
X225872683Y-57340009D02*
X226015540Y-57387628D01*
X226015540Y-57387628D02*
X226063159Y-57435247D01*
X226063159Y-57435247D02*
X226110778Y-57530485D01*
X226110778Y-57530485D02*
X226110778Y-57673342D01*
X226110778Y-57673342D02*
X226063159Y-57768580D01*
X226063159Y-57768580D02*
X226015540Y-57816200D01*
X226015540Y-57816200D02*
X225920302Y-57863819D01*
X225920302Y-57863819D02*
X225539350Y-57863819D01*
X225539350Y-57863819D02*
X225539350Y-56863819D01*
X225539350Y-56863819D02*
X225872683Y-56863819D01*
X225872683Y-56863819D02*
X225967921Y-56911438D01*
X225967921Y-56911438D02*
X226015540Y-56959057D01*
X226015540Y-56959057D02*
X226063159Y-57054295D01*
X226063159Y-57054295D02*
X226063159Y-57149533D01*
X226063159Y-57149533D02*
X226015540Y-57244771D01*
X226015540Y-57244771D02*
X225967921Y-57292390D01*
X225967921Y-57292390D02*
X225872683Y-57340009D01*
X225872683Y-57340009D02*
X225539350Y-57340009D01*
X226682207Y-57863819D02*
X226586969Y-57816200D01*
X226586969Y-57816200D02*
X226539350Y-57768580D01*
X226539350Y-57768580D02*
X226491731Y-57673342D01*
X226491731Y-57673342D02*
X226491731Y-57387628D01*
X226491731Y-57387628D02*
X226539350Y-57292390D01*
X226539350Y-57292390D02*
X226586969Y-57244771D01*
X226586969Y-57244771D02*
X226682207Y-57197152D01*
X226682207Y-57197152D02*
X226825064Y-57197152D01*
X226825064Y-57197152D02*
X226920302Y-57244771D01*
X226920302Y-57244771D02*
X226967921Y-57292390D01*
X226967921Y-57292390D02*
X227015540Y-57387628D01*
X227015540Y-57387628D02*
X227015540Y-57673342D01*
X227015540Y-57673342D02*
X226967921Y-57768580D01*
X226967921Y-57768580D02*
X226920302Y-57816200D01*
X226920302Y-57816200D02*
X226825064Y-57863819D01*
X226825064Y-57863819D02*
X226682207Y-57863819D01*
X227301255Y-57197152D02*
X227682207Y-57197152D01*
X227444112Y-56863819D02*
X227444112Y-57720961D01*
X227444112Y-57720961D02*
X227491731Y-57816200D01*
X227491731Y-57816200D02*
X227586969Y-57863819D01*
X227586969Y-57863819D02*
X227682207Y-57863819D01*
X227872684Y-57197152D02*
X228253636Y-57197152D01*
X228015541Y-56863819D02*
X228015541Y-57720961D01*
X228015541Y-57720961D02*
X228063160Y-57816200D01*
X228063160Y-57816200D02*
X228158398Y-57863819D01*
X228158398Y-57863819D02*
X228253636Y-57863819D01*
X228729827Y-57863819D02*
X228634589Y-57816200D01*
X228634589Y-57816200D02*
X228586970Y-57768580D01*
X228586970Y-57768580D02*
X228539351Y-57673342D01*
X228539351Y-57673342D02*
X228539351Y-57387628D01*
X228539351Y-57387628D02*
X228586970Y-57292390D01*
X228586970Y-57292390D02*
X228634589Y-57244771D01*
X228634589Y-57244771D02*
X228729827Y-57197152D01*
X228729827Y-57197152D02*
X228872684Y-57197152D01*
X228872684Y-57197152D02*
X228967922Y-57244771D01*
X228967922Y-57244771D02*
X229015541Y-57292390D01*
X229015541Y-57292390D02*
X229063160Y-57387628D01*
X229063160Y-57387628D02*
X229063160Y-57673342D01*
X229063160Y-57673342D02*
X229015541Y-57768580D01*
X229015541Y-57768580D02*
X228967922Y-57816200D01*
X228967922Y-57816200D02*
X228872684Y-57863819D01*
X228872684Y-57863819D02*
X228729827Y-57863819D01*
X229491732Y-57863819D02*
X229491732Y-57197152D01*
X229491732Y-57292390D02*
X229539351Y-57244771D01*
X229539351Y-57244771D02*
X229634589Y-57197152D01*
X229634589Y-57197152D02*
X229777446Y-57197152D01*
X229777446Y-57197152D02*
X229872684Y-57244771D01*
X229872684Y-57244771D02*
X229920303Y-57340009D01*
X229920303Y-57340009D02*
X229920303Y-57863819D01*
X229920303Y-57340009D02*
X229967922Y-57244771D01*
X229967922Y-57244771D02*
X230063160Y-57197152D01*
X230063160Y-57197152D02*
X230206017Y-57197152D01*
X230206017Y-57197152D02*
X230301256Y-57244771D01*
X230301256Y-57244771D02*
X230348875Y-57340009D01*
X230348875Y-57340009D02*
X230348875Y-57863819D01*
X231539351Y-57816200D02*
X231634589Y-57863819D01*
X231634589Y-57863819D02*
X231825065Y-57863819D01*
X231825065Y-57863819D02*
X231920303Y-57816200D01*
X231920303Y-57816200D02*
X231967922Y-57720961D01*
X231967922Y-57720961D02*
X231967922Y-57673342D01*
X231967922Y-57673342D02*
X231920303Y-57578104D01*
X231920303Y-57578104D02*
X231825065Y-57530485D01*
X231825065Y-57530485D02*
X231682208Y-57530485D01*
X231682208Y-57530485D02*
X231586970Y-57482866D01*
X231586970Y-57482866D02*
X231539351Y-57387628D01*
X231539351Y-57387628D02*
X231539351Y-57340009D01*
X231539351Y-57340009D02*
X231586970Y-57244771D01*
X231586970Y-57244771D02*
X231682208Y-57197152D01*
X231682208Y-57197152D02*
X231825065Y-57197152D01*
X231825065Y-57197152D02*
X231920303Y-57244771D01*
X232539351Y-57863819D02*
X232444113Y-57816200D01*
X232444113Y-57816200D02*
X232396494Y-57768580D01*
X232396494Y-57768580D02*
X232348875Y-57673342D01*
X232348875Y-57673342D02*
X232348875Y-57387628D01*
X232348875Y-57387628D02*
X232396494Y-57292390D01*
X232396494Y-57292390D02*
X232444113Y-57244771D01*
X232444113Y-57244771D02*
X232539351Y-57197152D01*
X232539351Y-57197152D02*
X232682208Y-57197152D01*
X232682208Y-57197152D02*
X232777446Y-57244771D01*
X232777446Y-57244771D02*
X232825065Y-57292390D01*
X232825065Y-57292390D02*
X232872684Y-57387628D01*
X232872684Y-57387628D02*
X232872684Y-57673342D01*
X232872684Y-57673342D02*
X232825065Y-57768580D01*
X232825065Y-57768580D02*
X232777446Y-57816200D01*
X232777446Y-57816200D02*
X232682208Y-57863819D01*
X232682208Y-57863819D02*
X232539351Y-57863819D01*
X233444113Y-57863819D02*
X233348875Y-57816200D01*
X233348875Y-57816200D02*
X233301256Y-57720961D01*
X233301256Y-57720961D02*
X233301256Y-56863819D01*
X234253637Y-57863819D02*
X234253637Y-56863819D01*
X234253637Y-57816200D02*
X234158399Y-57863819D01*
X234158399Y-57863819D02*
X233967923Y-57863819D01*
X233967923Y-57863819D02*
X233872685Y-57816200D01*
X233872685Y-57816200D02*
X233825066Y-57768580D01*
X233825066Y-57768580D02*
X233777447Y-57673342D01*
X233777447Y-57673342D02*
X233777447Y-57387628D01*
X233777447Y-57387628D02*
X233825066Y-57292390D01*
X233825066Y-57292390D02*
X233872685Y-57244771D01*
X233872685Y-57244771D02*
X233967923Y-57197152D01*
X233967923Y-57197152D02*
X234158399Y-57197152D01*
X234158399Y-57197152D02*
X234253637Y-57244771D01*
X235110780Y-57816200D02*
X235015542Y-57863819D01*
X235015542Y-57863819D02*
X234825066Y-57863819D01*
X234825066Y-57863819D02*
X234729828Y-57816200D01*
X234729828Y-57816200D02*
X234682209Y-57720961D01*
X234682209Y-57720961D02*
X234682209Y-57340009D01*
X234682209Y-57340009D02*
X234729828Y-57244771D01*
X234729828Y-57244771D02*
X234825066Y-57197152D01*
X234825066Y-57197152D02*
X235015542Y-57197152D01*
X235015542Y-57197152D02*
X235110780Y-57244771D01*
X235110780Y-57244771D02*
X235158399Y-57340009D01*
X235158399Y-57340009D02*
X235158399Y-57435247D01*
X235158399Y-57435247D02*
X234682209Y-57530485D01*
X235586971Y-57863819D02*
X235586971Y-57197152D01*
X235586971Y-57387628D02*
X235634590Y-57292390D01*
X235634590Y-57292390D02*
X235682209Y-57244771D01*
X235682209Y-57244771D02*
X235777447Y-57197152D01*
X235777447Y-57197152D02*
X235872685Y-57197152D01*
X236206019Y-57863819D02*
X236206019Y-57197152D01*
X236206019Y-57292390D02*
X236253638Y-57244771D01*
X236253638Y-57244771D02*
X236348876Y-57197152D01*
X236348876Y-57197152D02*
X236491733Y-57197152D01*
X236491733Y-57197152D02*
X236586971Y-57244771D01*
X236586971Y-57244771D02*
X236634590Y-57340009D01*
X236634590Y-57340009D02*
X236634590Y-57863819D01*
X236634590Y-57340009D02*
X236682209Y-57244771D01*
X236682209Y-57244771D02*
X236777447Y-57197152D01*
X236777447Y-57197152D02*
X236920304Y-57197152D01*
X236920304Y-57197152D02*
X237015543Y-57244771D01*
X237015543Y-57244771D02*
X237063162Y-57340009D01*
X237063162Y-57340009D02*
X237063162Y-57863819D01*
X237967923Y-57863819D02*
X237967923Y-57340009D01*
X237967923Y-57340009D02*
X237920304Y-57244771D01*
X237920304Y-57244771D02*
X237825066Y-57197152D01*
X237825066Y-57197152D02*
X237634590Y-57197152D01*
X237634590Y-57197152D02*
X237539352Y-57244771D01*
X237967923Y-57816200D02*
X237872685Y-57863819D01*
X237872685Y-57863819D02*
X237634590Y-57863819D01*
X237634590Y-57863819D02*
X237539352Y-57816200D01*
X237539352Y-57816200D02*
X237491733Y-57720961D01*
X237491733Y-57720961D02*
X237491733Y-57625723D01*
X237491733Y-57625723D02*
X237539352Y-57530485D01*
X237539352Y-57530485D02*
X237634590Y-57482866D01*
X237634590Y-57482866D02*
X237872685Y-57482866D01*
X237872685Y-57482866D02*
X237967923Y-57435247D01*
X238396495Y-57816200D02*
X238491733Y-57863819D01*
X238491733Y-57863819D02*
X238682209Y-57863819D01*
X238682209Y-57863819D02*
X238777447Y-57816200D01*
X238777447Y-57816200D02*
X238825066Y-57720961D01*
X238825066Y-57720961D02*
X238825066Y-57673342D01*
X238825066Y-57673342D02*
X238777447Y-57578104D01*
X238777447Y-57578104D02*
X238682209Y-57530485D01*
X238682209Y-57530485D02*
X238539352Y-57530485D01*
X238539352Y-57530485D02*
X238444114Y-57482866D01*
X238444114Y-57482866D02*
X238396495Y-57387628D01*
X238396495Y-57387628D02*
X238396495Y-57340009D01*
X238396495Y-57340009D02*
X238444114Y-57244771D01*
X238444114Y-57244771D02*
X238539352Y-57197152D01*
X238539352Y-57197152D02*
X238682209Y-57197152D01*
X238682209Y-57197152D02*
X238777447Y-57244771D01*
X239253638Y-57863819D02*
X239253638Y-56863819D01*
X239348876Y-57482866D02*
X239634590Y-57863819D01*
X239634590Y-57197152D02*
X239253638Y-57578104D01*
X224586969Y-58473819D02*
X224110779Y-58473819D01*
X224110779Y-58473819D02*
X224063160Y-58950009D01*
X224063160Y-58950009D02*
X224110779Y-58902390D01*
X224110779Y-58902390D02*
X224206017Y-58854771D01*
X224206017Y-58854771D02*
X224444112Y-58854771D01*
X224444112Y-58854771D02*
X224539350Y-58902390D01*
X224539350Y-58902390D02*
X224586969Y-58950009D01*
X224586969Y-58950009D02*
X224634588Y-59045247D01*
X224634588Y-59045247D02*
X224634588Y-59283342D01*
X224634588Y-59283342D02*
X224586969Y-59378580D01*
X224586969Y-59378580D02*
X224539350Y-59426200D01*
X224539350Y-59426200D02*
X224444112Y-59473819D01*
X224444112Y-59473819D02*
X224206017Y-59473819D01*
X224206017Y-59473819D02*
X224110779Y-59426200D01*
X224110779Y-59426200D02*
X224063160Y-59378580D01*
X225063160Y-59378580D02*
X225110779Y-59426200D01*
X225110779Y-59426200D02*
X225063160Y-59473819D01*
X225063160Y-59473819D02*
X225015541Y-59426200D01*
X225015541Y-59426200D02*
X225063160Y-59378580D01*
X225063160Y-59378580D02*
X225063160Y-59473819D01*
X225872683Y-58950009D02*
X226015540Y-58997628D01*
X226015540Y-58997628D02*
X226063159Y-59045247D01*
X226063159Y-59045247D02*
X226110778Y-59140485D01*
X226110778Y-59140485D02*
X226110778Y-59283342D01*
X226110778Y-59283342D02*
X226063159Y-59378580D01*
X226063159Y-59378580D02*
X226015540Y-59426200D01*
X226015540Y-59426200D02*
X225920302Y-59473819D01*
X225920302Y-59473819D02*
X225539350Y-59473819D01*
X225539350Y-59473819D02*
X225539350Y-58473819D01*
X225539350Y-58473819D02*
X225872683Y-58473819D01*
X225872683Y-58473819D02*
X225967921Y-58521438D01*
X225967921Y-58521438D02*
X226015540Y-58569057D01*
X226015540Y-58569057D02*
X226063159Y-58664295D01*
X226063159Y-58664295D02*
X226063159Y-58759533D01*
X226063159Y-58759533D02*
X226015540Y-58854771D01*
X226015540Y-58854771D02*
X225967921Y-58902390D01*
X225967921Y-58902390D02*
X225872683Y-58950009D01*
X225872683Y-58950009D02*
X225539350Y-58950009D01*
X226682207Y-59473819D02*
X226586969Y-59426200D01*
X226586969Y-59426200D02*
X226539350Y-59378580D01*
X226539350Y-59378580D02*
X226491731Y-59283342D01*
X226491731Y-59283342D02*
X226491731Y-58997628D01*
X226491731Y-58997628D02*
X226539350Y-58902390D01*
X226539350Y-58902390D02*
X226586969Y-58854771D01*
X226586969Y-58854771D02*
X226682207Y-58807152D01*
X226682207Y-58807152D02*
X226825064Y-58807152D01*
X226825064Y-58807152D02*
X226920302Y-58854771D01*
X226920302Y-58854771D02*
X226967921Y-58902390D01*
X226967921Y-58902390D02*
X227015540Y-58997628D01*
X227015540Y-58997628D02*
X227015540Y-59283342D01*
X227015540Y-59283342D02*
X226967921Y-59378580D01*
X226967921Y-59378580D02*
X226920302Y-59426200D01*
X226920302Y-59426200D02*
X226825064Y-59473819D01*
X226825064Y-59473819D02*
X226682207Y-59473819D01*
X227301255Y-58807152D02*
X227682207Y-58807152D01*
X227444112Y-58473819D02*
X227444112Y-59330961D01*
X227444112Y-59330961D02*
X227491731Y-59426200D01*
X227491731Y-59426200D02*
X227586969Y-59473819D01*
X227586969Y-59473819D02*
X227682207Y-59473819D01*
X227872684Y-58807152D02*
X228253636Y-58807152D01*
X228015541Y-58473819D02*
X228015541Y-59330961D01*
X228015541Y-59330961D02*
X228063160Y-59426200D01*
X228063160Y-59426200D02*
X228158398Y-59473819D01*
X228158398Y-59473819D02*
X228253636Y-59473819D01*
X228729827Y-59473819D02*
X228634589Y-59426200D01*
X228634589Y-59426200D02*
X228586970Y-59378580D01*
X228586970Y-59378580D02*
X228539351Y-59283342D01*
X228539351Y-59283342D02*
X228539351Y-58997628D01*
X228539351Y-58997628D02*
X228586970Y-58902390D01*
X228586970Y-58902390D02*
X228634589Y-58854771D01*
X228634589Y-58854771D02*
X228729827Y-58807152D01*
X228729827Y-58807152D02*
X228872684Y-58807152D01*
X228872684Y-58807152D02*
X228967922Y-58854771D01*
X228967922Y-58854771D02*
X229015541Y-58902390D01*
X229015541Y-58902390D02*
X229063160Y-58997628D01*
X229063160Y-58997628D02*
X229063160Y-59283342D01*
X229063160Y-59283342D02*
X229015541Y-59378580D01*
X229015541Y-59378580D02*
X228967922Y-59426200D01*
X228967922Y-59426200D02*
X228872684Y-59473819D01*
X228872684Y-59473819D02*
X228729827Y-59473819D01*
X229491732Y-59473819D02*
X229491732Y-58807152D01*
X229491732Y-58902390D02*
X229539351Y-58854771D01*
X229539351Y-58854771D02*
X229634589Y-58807152D01*
X229634589Y-58807152D02*
X229777446Y-58807152D01*
X229777446Y-58807152D02*
X229872684Y-58854771D01*
X229872684Y-58854771D02*
X229920303Y-58950009D01*
X229920303Y-58950009D02*
X229920303Y-59473819D01*
X229920303Y-58950009D02*
X229967922Y-58854771D01*
X229967922Y-58854771D02*
X230063160Y-58807152D01*
X230063160Y-58807152D02*
X230206017Y-58807152D01*
X230206017Y-58807152D02*
X230301256Y-58854771D01*
X230301256Y-58854771D02*
X230348875Y-58950009D01*
X230348875Y-58950009D02*
X230348875Y-59473819D01*
X231539351Y-59426200D02*
X231634589Y-59473819D01*
X231634589Y-59473819D02*
X231825065Y-59473819D01*
X231825065Y-59473819D02*
X231920303Y-59426200D01*
X231920303Y-59426200D02*
X231967922Y-59330961D01*
X231967922Y-59330961D02*
X231967922Y-59283342D01*
X231967922Y-59283342D02*
X231920303Y-59188104D01*
X231920303Y-59188104D02*
X231825065Y-59140485D01*
X231825065Y-59140485D02*
X231682208Y-59140485D01*
X231682208Y-59140485D02*
X231586970Y-59092866D01*
X231586970Y-59092866D02*
X231539351Y-58997628D01*
X231539351Y-58997628D02*
X231539351Y-58950009D01*
X231539351Y-58950009D02*
X231586970Y-58854771D01*
X231586970Y-58854771D02*
X231682208Y-58807152D01*
X231682208Y-58807152D02*
X231825065Y-58807152D01*
X231825065Y-58807152D02*
X231920303Y-58854771D01*
X232396494Y-59473819D02*
X232396494Y-58807152D01*
X232396494Y-58473819D02*
X232348875Y-58521438D01*
X232348875Y-58521438D02*
X232396494Y-58569057D01*
X232396494Y-58569057D02*
X232444113Y-58521438D01*
X232444113Y-58521438D02*
X232396494Y-58473819D01*
X232396494Y-58473819D02*
X232396494Y-58569057D01*
X232872684Y-59473819D02*
X232872684Y-58473819D01*
X232967922Y-59092866D02*
X233253636Y-59473819D01*
X233253636Y-58807152D02*
X232872684Y-59188104D01*
X233825065Y-59473819D02*
X233729827Y-59426200D01*
X233729827Y-59426200D02*
X233682208Y-59330961D01*
X233682208Y-59330961D02*
X233682208Y-58473819D01*
X234158399Y-59426200D02*
X234253637Y-59473819D01*
X234253637Y-59473819D02*
X234444113Y-59473819D01*
X234444113Y-59473819D02*
X234539351Y-59426200D01*
X234539351Y-59426200D02*
X234586970Y-59330961D01*
X234586970Y-59330961D02*
X234586970Y-59283342D01*
X234586970Y-59283342D02*
X234539351Y-59188104D01*
X234539351Y-59188104D02*
X234444113Y-59140485D01*
X234444113Y-59140485D02*
X234301256Y-59140485D01*
X234301256Y-59140485D02*
X234206018Y-59092866D01*
X234206018Y-59092866D02*
X234158399Y-58997628D01*
X234158399Y-58997628D02*
X234158399Y-58950009D01*
X234158399Y-58950009D02*
X234206018Y-58854771D01*
X234206018Y-58854771D02*
X234301256Y-58807152D01*
X234301256Y-58807152D02*
X234444113Y-58807152D01*
X234444113Y-58807152D02*
X234539351Y-58854771D01*
X235444113Y-59426200D02*
X235348875Y-59473819D01*
X235348875Y-59473819D02*
X235158399Y-59473819D01*
X235158399Y-59473819D02*
X235063161Y-59426200D01*
X235063161Y-59426200D02*
X235015542Y-59378580D01*
X235015542Y-59378580D02*
X234967923Y-59283342D01*
X234967923Y-59283342D02*
X234967923Y-58997628D01*
X234967923Y-58997628D02*
X235015542Y-58902390D01*
X235015542Y-58902390D02*
X235063161Y-58854771D01*
X235063161Y-58854771D02*
X235158399Y-58807152D01*
X235158399Y-58807152D02*
X235348875Y-58807152D01*
X235348875Y-58807152D02*
X235444113Y-58854771D01*
X235872685Y-59473819D02*
X235872685Y-58807152D01*
X235872685Y-58997628D02*
X235920304Y-58902390D01*
X235920304Y-58902390D02*
X235967923Y-58854771D01*
X235967923Y-58854771D02*
X236063161Y-58807152D01*
X236063161Y-58807152D02*
X236158399Y-58807152D01*
X236872685Y-59426200D02*
X236777447Y-59473819D01*
X236777447Y-59473819D02*
X236586971Y-59473819D01*
X236586971Y-59473819D02*
X236491733Y-59426200D01*
X236491733Y-59426200D02*
X236444114Y-59330961D01*
X236444114Y-59330961D02*
X236444114Y-58950009D01*
X236444114Y-58950009D02*
X236491733Y-58854771D01*
X236491733Y-58854771D02*
X236586971Y-58807152D01*
X236586971Y-58807152D02*
X236777447Y-58807152D01*
X236777447Y-58807152D02*
X236872685Y-58854771D01*
X236872685Y-58854771D02*
X236920304Y-58950009D01*
X236920304Y-58950009D02*
X236920304Y-59045247D01*
X236920304Y-59045247D02*
X236444114Y-59140485D01*
X237729828Y-59426200D02*
X237634590Y-59473819D01*
X237634590Y-59473819D02*
X237444114Y-59473819D01*
X237444114Y-59473819D02*
X237348876Y-59426200D01*
X237348876Y-59426200D02*
X237301257Y-59330961D01*
X237301257Y-59330961D02*
X237301257Y-58950009D01*
X237301257Y-58950009D02*
X237348876Y-58854771D01*
X237348876Y-58854771D02*
X237444114Y-58807152D01*
X237444114Y-58807152D02*
X237634590Y-58807152D01*
X237634590Y-58807152D02*
X237729828Y-58854771D01*
X237729828Y-58854771D02*
X237777447Y-58950009D01*
X237777447Y-58950009D02*
X237777447Y-59045247D01*
X237777447Y-59045247D02*
X237301257Y-59140485D01*
X238206019Y-58807152D02*
X238206019Y-59473819D01*
X238206019Y-58902390D02*
X238253638Y-58854771D01*
X238253638Y-58854771D02*
X238348876Y-58807152D01*
X238348876Y-58807152D02*
X238491733Y-58807152D01*
X238491733Y-58807152D02*
X238586971Y-58854771D01*
X238586971Y-58854771D02*
X238634590Y-58950009D01*
X238634590Y-58950009D02*
X238634590Y-59473819D01*
X224539350Y-60083819D02*
X224348874Y-60083819D01*
X224348874Y-60083819D02*
X224253636Y-60131438D01*
X224253636Y-60131438D02*
X224206017Y-60179057D01*
X224206017Y-60179057D02*
X224110779Y-60321914D01*
X224110779Y-60321914D02*
X224063160Y-60512390D01*
X224063160Y-60512390D02*
X224063160Y-60893342D01*
X224063160Y-60893342D02*
X224110779Y-60988580D01*
X224110779Y-60988580D02*
X224158398Y-61036200D01*
X224158398Y-61036200D02*
X224253636Y-61083819D01*
X224253636Y-61083819D02*
X224444112Y-61083819D01*
X224444112Y-61083819D02*
X224539350Y-61036200D01*
X224539350Y-61036200D02*
X224586969Y-60988580D01*
X224586969Y-60988580D02*
X224634588Y-60893342D01*
X224634588Y-60893342D02*
X224634588Y-60655247D01*
X224634588Y-60655247D02*
X224586969Y-60560009D01*
X224586969Y-60560009D02*
X224539350Y-60512390D01*
X224539350Y-60512390D02*
X224444112Y-60464771D01*
X224444112Y-60464771D02*
X224253636Y-60464771D01*
X224253636Y-60464771D02*
X224158398Y-60512390D01*
X224158398Y-60512390D02*
X224110779Y-60560009D01*
X224110779Y-60560009D02*
X224063160Y-60655247D01*
X225063160Y-60988580D02*
X225110779Y-61036200D01*
X225110779Y-61036200D02*
X225063160Y-61083819D01*
X225063160Y-61083819D02*
X225015541Y-61036200D01*
X225015541Y-61036200D02*
X225063160Y-60988580D01*
X225063160Y-60988580D02*
X225063160Y-61083819D01*
X225396493Y-60083819D02*
X225967921Y-60083819D01*
X225682207Y-61083819D02*
X225682207Y-60083819D01*
X226444112Y-61083819D02*
X226348874Y-61036200D01*
X226348874Y-61036200D02*
X226301255Y-60988580D01*
X226301255Y-60988580D02*
X226253636Y-60893342D01*
X226253636Y-60893342D02*
X226253636Y-60607628D01*
X226253636Y-60607628D02*
X226301255Y-60512390D01*
X226301255Y-60512390D02*
X226348874Y-60464771D01*
X226348874Y-60464771D02*
X226444112Y-60417152D01*
X226444112Y-60417152D02*
X226586969Y-60417152D01*
X226586969Y-60417152D02*
X226682207Y-60464771D01*
X226682207Y-60464771D02*
X226729826Y-60512390D01*
X226729826Y-60512390D02*
X226777445Y-60607628D01*
X226777445Y-60607628D02*
X226777445Y-60893342D01*
X226777445Y-60893342D02*
X226729826Y-60988580D01*
X226729826Y-60988580D02*
X226682207Y-61036200D01*
X226682207Y-61036200D02*
X226586969Y-61083819D01*
X226586969Y-61083819D02*
X226444112Y-61083819D01*
X227206017Y-60417152D02*
X227206017Y-61417152D01*
X227206017Y-60464771D02*
X227301255Y-60417152D01*
X227301255Y-60417152D02*
X227491731Y-60417152D01*
X227491731Y-60417152D02*
X227586969Y-60464771D01*
X227586969Y-60464771D02*
X227634588Y-60512390D01*
X227634588Y-60512390D02*
X227682207Y-60607628D01*
X227682207Y-60607628D02*
X227682207Y-60893342D01*
X227682207Y-60893342D02*
X227634588Y-60988580D01*
X227634588Y-60988580D02*
X227586969Y-61036200D01*
X227586969Y-61036200D02*
X227491731Y-61083819D01*
X227491731Y-61083819D02*
X227301255Y-61083819D01*
X227301255Y-61083819D02*
X227206017Y-61036200D01*
X228825065Y-61036200D02*
X228920303Y-61083819D01*
X228920303Y-61083819D02*
X229110779Y-61083819D01*
X229110779Y-61083819D02*
X229206017Y-61036200D01*
X229206017Y-61036200D02*
X229253636Y-60940961D01*
X229253636Y-60940961D02*
X229253636Y-60893342D01*
X229253636Y-60893342D02*
X229206017Y-60798104D01*
X229206017Y-60798104D02*
X229110779Y-60750485D01*
X229110779Y-60750485D02*
X228967922Y-60750485D01*
X228967922Y-60750485D02*
X228872684Y-60702866D01*
X228872684Y-60702866D02*
X228825065Y-60607628D01*
X228825065Y-60607628D02*
X228825065Y-60560009D01*
X228825065Y-60560009D02*
X228872684Y-60464771D01*
X228872684Y-60464771D02*
X228967922Y-60417152D01*
X228967922Y-60417152D02*
X229110779Y-60417152D01*
X229110779Y-60417152D02*
X229206017Y-60464771D01*
X229682208Y-61083819D02*
X229682208Y-60417152D01*
X229682208Y-60083819D02*
X229634589Y-60131438D01*
X229634589Y-60131438D02*
X229682208Y-60179057D01*
X229682208Y-60179057D02*
X229729827Y-60131438D01*
X229729827Y-60131438D02*
X229682208Y-60083819D01*
X229682208Y-60083819D02*
X229682208Y-60179057D01*
X230158398Y-61083819D02*
X230158398Y-60083819D01*
X230253636Y-60702866D02*
X230539350Y-61083819D01*
X230539350Y-60417152D02*
X230158398Y-60798104D01*
X231110779Y-61083819D02*
X231015541Y-61036200D01*
X231015541Y-61036200D02*
X230967922Y-60940961D01*
X230967922Y-60940961D02*
X230967922Y-60083819D01*
X231444113Y-61036200D02*
X231539351Y-61083819D01*
X231539351Y-61083819D02*
X231729827Y-61083819D01*
X231729827Y-61083819D02*
X231825065Y-61036200D01*
X231825065Y-61036200D02*
X231872684Y-60940961D01*
X231872684Y-60940961D02*
X231872684Y-60893342D01*
X231872684Y-60893342D02*
X231825065Y-60798104D01*
X231825065Y-60798104D02*
X231729827Y-60750485D01*
X231729827Y-60750485D02*
X231586970Y-60750485D01*
X231586970Y-60750485D02*
X231491732Y-60702866D01*
X231491732Y-60702866D02*
X231444113Y-60607628D01*
X231444113Y-60607628D02*
X231444113Y-60560009D01*
X231444113Y-60560009D02*
X231491732Y-60464771D01*
X231491732Y-60464771D02*
X231586970Y-60417152D01*
X231586970Y-60417152D02*
X231729827Y-60417152D01*
X231729827Y-60417152D02*
X231825065Y-60464771D01*
X232729827Y-61036200D02*
X232634589Y-61083819D01*
X232634589Y-61083819D02*
X232444113Y-61083819D01*
X232444113Y-61083819D02*
X232348875Y-61036200D01*
X232348875Y-61036200D02*
X232301256Y-60988580D01*
X232301256Y-60988580D02*
X232253637Y-60893342D01*
X232253637Y-60893342D02*
X232253637Y-60607628D01*
X232253637Y-60607628D02*
X232301256Y-60512390D01*
X232301256Y-60512390D02*
X232348875Y-60464771D01*
X232348875Y-60464771D02*
X232444113Y-60417152D01*
X232444113Y-60417152D02*
X232634589Y-60417152D01*
X232634589Y-60417152D02*
X232729827Y-60464771D01*
X233158399Y-61083819D02*
X233158399Y-60417152D01*
X233158399Y-60607628D02*
X233206018Y-60512390D01*
X233206018Y-60512390D02*
X233253637Y-60464771D01*
X233253637Y-60464771D02*
X233348875Y-60417152D01*
X233348875Y-60417152D02*
X233444113Y-60417152D01*
X234158399Y-61036200D02*
X234063161Y-61083819D01*
X234063161Y-61083819D02*
X233872685Y-61083819D01*
X233872685Y-61083819D02*
X233777447Y-61036200D01*
X233777447Y-61036200D02*
X233729828Y-60940961D01*
X233729828Y-60940961D02*
X233729828Y-60560009D01*
X233729828Y-60560009D02*
X233777447Y-60464771D01*
X233777447Y-60464771D02*
X233872685Y-60417152D01*
X233872685Y-60417152D02*
X234063161Y-60417152D01*
X234063161Y-60417152D02*
X234158399Y-60464771D01*
X234158399Y-60464771D02*
X234206018Y-60560009D01*
X234206018Y-60560009D02*
X234206018Y-60655247D01*
X234206018Y-60655247D02*
X233729828Y-60750485D01*
X235015542Y-61036200D02*
X234920304Y-61083819D01*
X234920304Y-61083819D02*
X234729828Y-61083819D01*
X234729828Y-61083819D02*
X234634590Y-61036200D01*
X234634590Y-61036200D02*
X234586971Y-60940961D01*
X234586971Y-60940961D02*
X234586971Y-60560009D01*
X234586971Y-60560009D02*
X234634590Y-60464771D01*
X234634590Y-60464771D02*
X234729828Y-60417152D01*
X234729828Y-60417152D02*
X234920304Y-60417152D01*
X234920304Y-60417152D02*
X235015542Y-60464771D01*
X235015542Y-60464771D02*
X235063161Y-60560009D01*
X235063161Y-60560009D02*
X235063161Y-60655247D01*
X235063161Y-60655247D02*
X234586971Y-60750485D01*
X235491733Y-60417152D02*
X235491733Y-61083819D01*
X235491733Y-60512390D02*
X235539352Y-60464771D01*
X235539352Y-60464771D02*
X235634590Y-60417152D01*
X235634590Y-60417152D02*
X235777447Y-60417152D01*
X235777447Y-60417152D02*
X235872685Y-60464771D01*
X235872685Y-60464771D02*
X235920304Y-60560009D01*
X235920304Y-60560009D02*
X235920304Y-61083819D01*
X245700779Y-53541819D02*
X245700779Y-52541819D01*
X245700779Y-52541819D02*
X246272207Y-53541819D01*
X246272207Y-53541819D02*
X246272207Y-52541819D01*
X246891255Y-53541819D02*
X246796017Y-53494200D01*
X246796017Y-53494200D02*
X246748398Y-53446580D01*
X246748398Y-53446580D02*
X246700779Y-53351342D01*
X246700779Y-53351342D02*
X246700779Y-53065628D01*
X246700779Y-53065628D02*
X246748398Y-52970390D01*
X246748398Y-52970390D02*
X246796017Y-52922771D01*
X246796017Y-52922771D02*
X246891255Y-52875152D01*
X246891255Y-52875152D02*
X247034112Y-52875152D01*
X247034112Y-52875152D02*
X247129350Y-52922771D01*
X247129350Y-52922771D02*
X247176969Y-52970390D01*
X247176969Y-52970390D02*
X247224588Y-53065628D01*
X247224588Y-53065628D02*
X247224588Y-53351342D01*
X247224588Y-53351342D02*
X247176969Y-53446580D01*
X247176969Y-53446580D02*
X247129350Y-53494200D01*
X247129350Y-53494200D02*
X247034112Y-53541819D01*
X247034112Y-53541819D02*
X246891255Y-53541819D01*
X247510303Y-52875152D02*
X247891255Y-52875152D01*
X247653160Y-52541819D02*
X247653160Y-53398961D01*
X247653160Y-53398961D02*
X247700779Y-53494200D01*
X247700779Y-53494200D02*
X247796017Y-53541819D01*
X247796017Y-53541819D02*
X247891255Y-53541819D01*
X248605541Y-53494200D02*
X248510303Y-53541819D01*
X248510303Y-53541819D02*
X248319827Y-53541819D01*
X248319827Y-53541819D02*
X248224589Y-53494200D01*
X248224589Y-53494200D02*
X248176970Y-53398961D01*
X248176970Y-53398961D02*
X248176970Y-53018009D01*
X248176970Y-53018009D02*
X248224589Y-52922771D01*
X248224589Y-52922771D02*
X248319827Y-52875152D01*
X248319827Y-52875152D02*
X248510303Y-52875152D01*
X248510303Y-52875152D02*
X248605541Y-52922771D01*
X248605541Y-52922771D02*
X248653160Y-53018009D01*
X248653160Y-53018009D02*
X248653160Y-53113247D01*
X248653160Y-53113247D02*
X248176970Y-53208485D01*
X246224588Y-55151819D02*
X245653160Y-55151819D01*
X245938874Y-55151819D02*
X245938874Y-54151819D01*
X245938874Y-54151819D02*
X245843636Y-54294676D01*
X245843636Y-54294676D02*
X245748398Y-54389914D01*
X245748398Y-54389914D02*
X245653160Y-54437533D01*
X246653160Y-55056580D02*
X246700779Y-55104200D01*
X246700779Y-55104200D02*
X246653160Y-55151819D01*
X246653160Y-55151819D02*
X246605541Y-55104200D01*
X246605541Y-55104200D02*
X246653160Y-55056580D01*
X246653160Y-55056580D02*
X246653160Y-55151819D01*
X247462683Y-54628009D02*
X247605540Y-54675628D01*
X247605540Y-54675628D02*
X247653159Y-54723247D01*
X247653159Y-54723247D02*
X247700778Y-54818485D01*
X247700778Y-54818485D02*
X247700778Y-54961342D01*
X247700778Y-54961342D02*
X247653159Y-55056580D01*
X247653159Y-55056580D02*
X247605540Y-55104200D01*
X247605540Y-55104200D02*
X247510302Y-55151819D01*
X247510302Y-55151819D02*
X247129350Y-55151819D01*
X247129350Y-55151819D02*
X247129350Y-54151819D01*
X247129350Y-54151819D02*
X247462683Y-54151819D01*
X247462683Y-54151819D02*
X247557921Y-54199438D01*
X247557921Y-54199438D02*
X247605540Y-54247057D01*
X247605540Y-54247057D02*
X247653159Y-54342295D01*
X247653159Y-54342295D02*
X247653159Y-54437533D01*
X247653159Y-54437533D02*
X247605540Y-54532771D01*
X247605540Y-54532771D02*
X247557921Y-54580390D01*
X247557921Y-54580390D02*
X247462683Y-54628009D01*
X247462683Y-54628009D02*
X247129350Y-54628009D01*
X248272207Y-55151819D02*
X248176969Y-55104200D01*
X248176969Y-55104200D02*
X248129350Y-55056580D01*
X248129350Y-55056580D02*
X248081731Y-54961342D01*
X248081731Y-54961342D02*
X248081731Y-54675628D01*
X248081731Y-54675628D02*
X248129350Y-54580390D01*
X248129350Y-54580390D02*
X248176969Y-54532771D01*
X248176969Y-54532771D02*
X248272207Y-54485152D01*
X248272207Y-54485152D02*
X248415064Y-54485152D01*
X248415064Y-54485152D02*
X248510302Y-54532771D01*
X248510302Y-54532771D02*
X248557921Y-54580390D01*
X248557921Y-54580390D02*
X248605540Y-54675628D01*
X248605540Y-54675628D02*
X248605540Y-54961342D01*
X248605540Y-54961342D02*
X248557921Y-55056580D01*
X248557921Y-55056580D02*
X248510302Y-55104200D01*
X248510302Y-55104200D02*
X248415064Y-55151819D01*
X248415064Y-55151819D02*
X248272207Y-55151819D01*
X249462683Y-55151819D02*
X249462683Y-54628009D01*
X249462683Y-54628009D02*
X249415064Y-54532771D01*
X249415064Y-54532771D02*
X249319826Y-54485152D01*
X249319826Y-54485152D02*
X249129350Y-54485152D01*
X249129350Y-54485152D02*
X249034112Y-54532771D01*
X249462683Y-55104200D02*
X249367445Y-55151819D01*
X249367445Y-55151819D02*
X249129350Y-55151819D01*
X249129350Y-55151819D02*
X249034112Y-55104200D01*
X249034112Y-55104200D02*
X248986493Y-55008961D01*
X248986493Y-55008961D02*
X248986493Y-54913723D01*
X248986493Y-54913723D02*
X249034112Y-54818485D01*
X249034112Y-54818485D02*
X249129350Y-54770866D01*
X249129350Y-54770866D02*
X249367445Y-54770866D01*
X249367445Y-54770866D02*
X249462683Y-54723247D01*
X249938874Y-55151819D02*
X249938874Y-54485152D01*
X249938874Y-54675628D02*
X249986493Y-54580390D01*
X249986493Y-54580390D02*
X250034112Y-54532771D01*
X250034112Y-54532771D02*
X250129350Y-54485152D01*
X250129350Y-54485152D02*
X250224588Y-54485152D01*
X250986493Y-55151819D02*
X250986493Y-54151819D01*
X250986493Y-55104200D02*
X250891255Y-55151819D01*
X250891255Y-55151819D02*
X250700779Y-55151819D01*
X250700779Y-55151819D02*
X250605541Y-55104200D01*
X250605541Y-55104200D02*
X250557922Y-55056580D01*
X250557922Y-55056580D02*
X250510303Y-54961342D01*
X250510303Y-54961342D02*
X250510303Y-54675628D01*
X250510303Y-54675628D02*
X250557922Y-54580390D01*
X250557922Y-54580390D02*
X250605541Y-54532771D01*
X250605541Y-54532771D02*
X250700779Y-54485152D01*
X250700779Y-54485152D02*
X250891255Y-54485152D01*
X250891255Y-54485152D02*
X250986493Y-54532771D01*
X252653160Y-55151819D02*
X252653160Y-54151819D01*
X252653160Y-55104200D02*
X252557922Y-55151819D01*
X252557922Y-55151819D02*
X252367446Y-55151819D01*
X252367446Y-55151819D02*
X252272208Y-55104200D01*
X252272208Y-55104200D02*
X252224589Y-55056580D01*
X252224589Y-55056580D02*
X252176970Y-54961342D01*
X252176970Y-54961342D02*
X252176970Y-54675628D01*
X252176970Y-54675628D02*
X252224589Y-54580390D01*
X252224589Y-54580390D02*
X252272208Y-54532771D01*
X252272208Y-54532771D02*
X252367446Y-54485152D01*
X252367446Y-54485152D02*
X252557922Y-54485152D01*
X252557922Y-54485152D02*
X252653160Y-54532771D01*
X253129351Y-55151819D02*
X253129351Y-54485152D01*
X253129351Y-54151819D02*
X253081732Y-54199438D01*
X253081732Y-54199438D02*
X253129351Y-54247057D01*
X253129351Y-54247057D02*
X253176970Y-54199438D01*
X253176970Y-54199438D02*
X253129351Y-54151819D01*
X253129351Y-54151819D02*
X253129351Y-54247057D01*
X253605541Y-55151819D02*
X253605541Y-54485152D01*
X253605541Y-54580390D02*
X253653160Y-54532771D01*
X253653160Y-54532771D02*
X253748398Y-54485152D01*
X253748398Y-54485152D02*
X253891255Y-54485152D01*
X253891255Y-54485152D02*
X253986493Y-54532771D01*
X253986493Y-54532771D02*
X254034112Y-54628009D01*
X254034112Y-54628009D02*
X254034112Y-55151819D01*
X254034112Y-54628009D02*
X254081731Y-54532771D01*
X254081731Y-54532771D02*
X254176969Y-54485152D01*
X254176969Y-54485152D02*
X254319826Y-54485152D01*
X254319826Y-54485152D02*
X254415065Y-54532771D01*
X254415065Y-54532771D02*
X254462684Y-54628009D01*
X254462684Y-54628009D02*
X254462684Y-55151819D01*
X255319826Y-55104200D02*
X255224588Y-55151819D01*
X255224588Y-55151819D02*
X255034112Y-55151819D01*
X255034112Y-55151819D02*
X254938874Y-55104200D01*
X254938874Y-55104200D02*
X254891255Y-55008961D01*
X254891255Y-55008961D02*
X254891255Y-54628009D01*
X254891255Y-54628009D02*
X254938874Y-54532771D01*
X254938874Y-54532771D02*
X255034112Y-54485152D01*
X255034112Y-54485152D02*
X255224588Y-54485152D01*
X255224588Y-54485152D02*
X255319826Y-54532771D01*
X255319826Y-54532771D02*
X255367445Y-54628009D01*
X255367445Y-54628009D02*
X255367445Y-54723247D01*
X255367445Y-54723247D02*
X254891255Y-54818485D01*
X255796017Y-54485152D02*
X255796017Y-55151819D01*
X255796017Y-54580390D02*
X255843636Y-54532771D01*
X255843636Y-54532771D02*
X255938874Y-54485152D01*
X255938874Y-54485152D02*
X256081731Y-54485152D01*
X256081731Y-54485152D02*
X256176969Y-54532771D01*
X256176969Y-54532771D02*
X256224588Y-54628009D01*
X256224588Y-54628009D02*
X256224588Y-55151819D01*
X256653160Y-55104200D02*
X256748398Y-55151819D01*
X256748398Y-55151819D02*
X256938874Y-55151819D01*
X256938874Y-55151819D02*
X257034112Y-55104200D01*
X257034112Y-55104200D02*
X257081731Y-55008961D01*
X257081731Y-55008961D02*
X257081731Y-54961342D01*
X257081731Y-54961342D02*
X257034112Y-54866104D01*
X257034112Y-54866104D02*
X256938874Y-54818485D01*
X256938874Y-54818485D02*
X256796017Y-54818485D01*
X256796017Y-54818485D02*
X256700779Y-54770866D01*
X256700779Y-54770866D02*
X256653160Y-54675628D01*
X256653160Y-54675628D02*
X256653160Y-54628009D01*
X256653160Y-54628009D02*
X256700779Y-54532771D01*
X256700779Y-54532771D02*
X256796017Y-54485152D01*
X256796017Y-54485152D02*
X256938874Y-54485152D01*
X256938874Y-54485152D02*
X257034112Y-54532771D01*
X257510303Y-55151819D02*
X257510303Y-54485152D01*
X257510303Y-54151819D02*
X257462684Y-54199438D01*
X257462684Y-54199438D02*
X257510303Y-54247057D01*
X257510303Y-54247057D02*
X257557922Y-54199438D01*
X257557922Y-54199438D02*
X257510303Y-54151819D01*
X257510303Y-54151819D02*
X257510303Y-54247057D01*
X258129350Y-55151819D02*
X258034112Y-55104200D01*
X258034112Y-55104200D02*
X257986493Y-55056580D01*
X257986493Y-55056580D02*
X257938874Y-54961342D01*
X257938874Y-54961342D02*
X257938874Y-54675628D01*
X257938874Y-54675628D02*
X257986493Y-54580390D01*
X257986493Y-54580390D02*
X258034112Y-54532771D01*
X258034112Y-54532771D02*
X258129350Y-54485152D01*
X258129350Y-54485152D02*
X258272207Y-54485152D01*
X258272207Y-54485152D02*
X258367445Y-54532771D01*
X258367445Y-54532771D02*
X258415064Y-54580390D01*
X258415064Y-54580390D02*
X258462683Y-54675628D01*
X258462683Y-54675628D02*
X258462683Y-54961342D01*
X258462683Y-54961342D02*
X258415064Y-55056580D01*
X258415064Y-55056580D02*
X258367445Y-55104200D01*
X258367445Y-55104200D02*
X258272207Y-55151819D01*
X258272207Y-55151819D02*
X258129350Y-55151819D01*
X258891255Y-54485152D02*
X258891255Y-55151819D01*
X258891255Y-54580390D02*
X258938874Y-54532771D01*
X258938874Y-54532771D02*
X259034112Y-54485152D01*
X259034112Y-54485152D02*
X259176969Y-54485152D01*
X259176969Y-54485152D02*
X259272207Y-54532771D01*
X259272207Y-54532771D02*
X259319826Y-54628009D01*
X259319826Y-54628009D02*
X259319826Y-55151819D01*
X260605541Y-55151819D02*
X260796017Y-55151819D01*
X260796017Y-55151819D02*
X260891255Y-55104200D01*
X260891255Y-55104200D02*
X260938874Y-55056580D01*
X260938874Y-55056580D02*
X261034112Y-54913723D01*
X261034112Y-54913723D02*
X261081731Y-54723247D01*
X261081731Y-54723247D02*
X261081731Y-54342295D01*
X261081731Y-54342295D02*
X261034112Y-54247057D01*
X261034112Y-54247057D02*
X260986493Y-54199438D01*
X260986493Y-54199438D02*
X260891255Y-54151819D01*
X260891255Y-54151819D02*
X260700779Y-54151819D01*
X260700779Y-54151819D02*
X260605541Y-54199438D01*
X260605541Y-54199438D02*
X260557922Y-54247057D01*
X260557922Y-54247057D02*
X260510303Y-54342295D01*
X260510303Y-54342295D02*
X260510303Y-54580390D01*
X260510303Y-54580390D02*
X260557922Y-54675628D01*
X260557922Y-54675628D02*
X260605541Y-54723247D01*
X260605541Y-54723247D02*
X260700779Y-54770866D01*
X260700779Y-54770866D02*
X260891255Y-54770866D01*
X260891255Y-54770866D02*
X260986493Y-54723247D01*
X260986493Y-54723247D02*
X261034112Y-54675628D01*
X261034112Y-54675628D02*
X261081731Y-54580390D01*
X261415065Y-54151819D02*
X262081731Y-54151819D01*
X262081731Y-54151819D02*
X261653160Y-55151819D01*
X262367446Y-55151819D02*
X262891255Y-54485152D01*
X262367446Y-54485152D02*
X262891255Y-55151819D01*
X263700779Y-54485152D02*
X263700779Y-55151819D01*
X263462684Y-54104200D02*
X263224589Y-54818485D01*
X263224589Y-54818485D02*
X263843636Y-54818485D01*
X264415065Y-54151819D02*
X264510303Y-54151819D01*
X264510303Y-54151819D02*
X264605541Y-54199438D01*
X264605541Y-54199438D02*
X264653160Y-54247057D01*
X264653160Y-54247057D02*
X264700779Y-54342295D01*
X264700779Y-54342295D02*
X264748398Y-54532771D01*
X264748398Y-54532771D02*
X264748398Y-54770866D01*
X264748398Y-54770866D02*
X264700779Y-54961342D01*
X264700779Y-54961342D02*
X264653160Y-55056580D01*
X264653160Y-55056580D02*
X264605541Y-55104200D01*
X264605541Y-55104200D02*
X264510303Y-55151819D01*
X264510303Y-55151819D02*
X264415065Y-55151819D01*
X264415065Y-55151819D02*
X264319827Y-55104200D01*
X264319827Y-55104200D02*
X264272208Y-55056580D01*
X264272208Y-55056580D02*
X264224589Y-54961342D01*
X264224589Y-54961342D02*
X264176970Y-54770866D01*
X264176970Y-54770866D02*
X264176970Y-54532771D01*
X264176970Y-54532771D02*
X264224589Y-54342295D01*
X264224589Y-54342295D02*
X264272208Y-54247057D01*
X264272208Y-54247057D02*
X264319827Y-54199438D01*
X264319827Y-54199438D02*
X264415065Y-54151819D01*
X265938875Y-55151819D02*
X265938875Y-54485152D01*
X265938875Y-54580390D02*
X265986494Y-54532771D01*
X265986494Y-54532771D02*
X266081732Y-54485152D01*
X266081732Y-54485152D02*
X266224589Y-54485152D01*
X266224589Y-54485152D02*
X266319827Y-54532771D01*
X266319827Y-54532771D02*
X266367446Y-54628009D01*
X266367446Y-54628009D02*
X266367446Y-55151819D01*
X266367446Y-54628009D02*
X266415065Y-54532771D01*
X266415065Y-54532771D02*
X266510303Y-54485152D01*
X266510303Y-54485152D02*
X266653160Y-54485152D01*
X266653160Y-54485152D02*
X266748399Y-54532771D01*
X266748399Y-54532771D02*
X266796018Y-54628009D01*
X266796018Y-54628009D02*
X266796018Y-55151819D01*
X267272208Y-55151819D02*
X267272208Y-54485152D01*
X267272208Y-54580390D02*
X267319827Y-54532771D01*
X267319827Y-54532771D02*
X267415065Y-54485152D01*
X267415065Y-54485152D02*
X267557922Y-54485152D01*
X267557922Y-54485152D02*
X267653160Y-54532771D01*
X267653160Y-54532771D02*
X267700779Y-54628009D01*
X267700779Y-54628009D02*
X267700779Y-55151819D01*
X267700779Y-54628009D02*
X267748398Y-54532771D01*
X267748398Y-54532771D02*
X267843636Y-54485152D01*
X267843636Y-54485152D02*
X267986493Y-54485152D01*
X267986493Y-54485152D02*
X268081732Y-54532771D01*
X268081732Y-54532771D02*
X268129351Y-54628009D01*
X268129351Y-54628009D02*
X268129351Y-55151819D01*
X245653160Y-55857057D02*
X245700779Y-55809438D01*
X245700779Y-55809438D02*
X245796017Y-55761819D01*
X245796017Y-55761819D02*
X246034112Y-55761819D01*
X246034112Y-55761819D02*
X246129350Y-55809438D01*
X246129350Y-55809438D02*
X246176969Y-55857057D01*
X246176969Y-55857057D02*
X246224588Y-55952295D01*
X246224588Y-55952295D02*
X246224588Y-56047533D01*
X246224588Y-56047533D02*
X246176969Y-56190390D01*
X246176969Y-56190390D02*
X245605541Y-56761819D01*
X245605541Y-56761819D02*
X246224588Y-56761819D01*
X246653160Y-56666580D02*
X246700779Y-56714200D01*
X246700779Y-56714200D02*
X246653160Y-56761819D01*
X246653160Y-56761819D02*
X246605541Y-56714200D01*
X246605541Y-56714200D02*
X246653160Y-56666580D01*
X246653160Y-56666580D02*
X246653160Y-56761819D01*
X247081731Y-55857057D02*
X247129350Y-55809438D01*
X247129350Y-55809438D02*
X247224588Y-55761819D01*
X247224588Y-55761819D02*
X247462683Y-55761819D01*
X247462683Y-55761819D02*
X247557921Y-55809438D01*
X247557921Y-55809438D02*
X247605540Y-55857057D01*
X247605540Y-55857057D02*
X247653159Y-55952295D01*
X247653159Y-55952295D02*
X247653159Y-56047533D01*
X247653159Y-56047533D02*
X247605540Y-56190390D01*
X247605540Y-56190390D02*
X247034112Y-56761819D01*
X247034112Y-56761819D02*
X247653159Y-56761819D01*
X248986493Y-56761819D02*
X248891255Y-56714200D01*
X248891255Y-56714200D02*
X248843636Y-56618961D01*
X248843636Y-56618961D02*
X248843636Y-55761819D01*
X249796017Y-56761819D02*
X249796017Y-56238009D01*
X249796017Y-56238009D02*
X249748398Y-56142771D01*
X249748398Y-56142771D02*
X249653160Y-56095152D01*
X249653160Y-56095152D02*
X249462684Y-56095152D01*
X249462684Y-56095152D02*
X249367446Y-56142771D01*
X249796017Y-56714200D02*
X249700779Y-56761819D01*
X249700779Y-56761819D02*
X249462684Y-56761819D01*
X249462684Y-56761819D02*
X249367446Y-56714200D01*
X249367446Y-56714200D02*
X249319827Y-56618961D01*
X249319827Y-56618961D02*
X249319827Y-56523723D01*
X249319827Y-56523723D02*
X249367446Y-56428485D01*
X249367446Y-56428485D02*
X249462684Y-56380866D01*
X249462684Y-56380866D02*
X249700779Y-56380866D01*
X249700779Y-56380866D02*
X249796017Y-56333247D01*
X250176970Y-56095152D02*
X250415065Y-56761819D01*
X250653160Y-56095152D02*
X250415065Y-56761819D01*
X250415065Y-56761819D02*
X250319827Y-56999914D01*
X250319827Y-56999914D02*
X250272208Y-57047533D01*
X250272208Y-57047533D02*
X250176970Y-57095152D01*
X251415065Y-56714200D02*
X251319827Y-56761819D01*
X251319827Y-56761819D02*
X251129351Y-56761819D01*
X251129351Y-56761819D02*
X251034113Y-56714200D01*
X251034113Y-56714200D02*
X250986494Y-56618961D01*
X250986494Y-56618961D02*
X250986494Y-56238009D01*
X250986494Y-56238009D02*
X251034113Y-56142771D01*
X251034113Y-56142771D02*
X251129351Y-56095152D01*
X251129351Y-56095152D02*
X251319827Y-56095152D01*
X251319827Y-56095152D02*
X251415065Y-56142771D01*
X251415065Y-56142771D02*
X251462684Y-56238009D01*
X251462684Y-56238009D02*
X251462684Y-56333247D01*
X251462684Y-56333247D02*
X250986494Y-56428485D01*
X251891256Y-56761819D02*
X251891256Y-56095152D01*
X251891256Y-56285628D02*
X251938875Y-56190390D01*
X251938875Y-56190390D02*
X251986494Y-56142771D01*
X251986494Y-56142771D02*
X252081732Y-56095152D01*
X252081732Y-56095152D02*
X252176970Y-56095152D01*
X245605541Y-57371819D02*
X246224588Y-57371819D01*
X246224588Y-57371819D02*
X245891255Y-57752771D01*
X245891255Y-57752771D02*
X246034112Y-57752771D01*
X246034112Y-57752771D02*
X246129350Y-57800390D01*
X246129350Y-57800390D02*
X246176969Y-57848009D01*
X246176969Y-57848009D02*
X246224588Y-57943247D01*
X246224588Y-57943247D02*
X246224588Y-58181342D01*
X246224588Y-58181342D02*
X246176969Y-58276580D01*
X246176969Y-58276580D02*
X246129350Y-58324200D01*
X246129350Y-58324200D02*
X246034112Y-58371819D01*
X246034112Y-58371819D02*
X245748398Y-58371819D01*
X245748398Y-58371819D02*
X245653160Y-58324200D01*
X245653160Y-58324200D02*
X245605541Y-58276580D01*
X246653160Y-58276580D02*
X246700779Y-58324200D01*
X246700779Y-58324200D02*
X246653160Y-58371819D01*
X246653160Y-58371819D02*
X246605541Y-58324200D01*
X246605541Y-58324200D02*
X246653160Y-58276580D01*
X246653160Y-58276580D02*
X246653160Y-58371819D01*
X247653159Y-58371819D02*
X247081731Y-58371819D01*
X247367445Y-58371819D02*
X247367445Y-57371819D01*
X247367445Y-57371819D02*
X247272207Y-57514676D01*
X247272207Y-57514676D02*
X247176969Y-57609914D01*
X247176969Y-57609914D02*
X247081731Y-57657533D01*
X248081731Y-58276580D02*
X248129350Y-58324200D01*
X248129350Y-58324200D02*
X248081731Y-58371819D01*
X248081731Y-58371819D02*
X248034112Y-58324200D01*
X248034112Y-58324200D02*
X248081731Y-58276580D01*
X248081731Y-58276580D02*
X248081731Y-58371819D01*
X248986492Y-57371819D02*
X248796016Y-57371819D01*
X248796016Y-57371819D02*
X248700778Y-57419438D01*
X248700778Y-57419438D02*
X248653159Y-57467057D01*
X248653159Y-57467057D02*
X248557921Y-57609914D01*
X248557921Y-57609914D02*
X248510302Y-57800390D01*
X248510302Y-57800390D02*
X248510302Y-58181342D01*
X248510302Y-58181342D02*
X248557921Y-58276580D01*
X248557921Y-58276580D02*
X248605540Y-58324200D01*
X248605540Y-58324200D02*
X248700778Y-58371819D01*
X248700778Y-58371819D02*
X248891254Y-58371819D01*
X248891254Y-58371819D02*
X248986492Y-58324200D01*
X248986492Y-58324200D02*
X249034111Y-58276580D01*
X249034111Y-58276580D02*
X249081730Y-58181342D01*
X249081730Y-58181342D02*
X249081730Y-57943247D01*
X249081730Y-57943247D02*
X249034111Y-57848009D01*
X249034111Y-57848009D02*
X248986492Y-57800390D01*
X248986492Y-57800390D02*
X248891254Y-57752771D01*
X248891254Y-57752771D02*
X248700778Y-57752771D01*
X248700778Y-57752771D02*
X248605540Y-57800390D01*
X248605540Y-57800390D02*
X248557921Y-57848009D01*
X248557921Y-57848009D02*
X248510302Y-57943247D01*
X250272207Y-58371819D02*
X250272207Y-57705152D01*
X250272207Y-57800390D02*
X250319826Y-57752771D01*
X250319826Y-57752771D02*
X250415064Y-57705152D01*
X250415064Y-57705152D02*
X250557921Y-57705152D01*
X250557921Y-57705152D02*
X250653159Y-57752771D01*
X250653159Y-57752771D02*
X250700778Y-57848009D01*
X250700778Y-57848009D02*
X250700778Y-58371819D01*
X250700778Y-57848009D02*
X250748397Y-57752771D01*
X250748397Y-57752771D02*
X250843635Y-57705152D01*
X250843635Y-57705152D02*
X250986492Y-57705152D01*
X250986492Y-57705152D02*
X251081731Y-57752771D01*
X251081731Y-57752771D02*
X251129350Y-57848009D01*
X251129350Y-57848009D02*
X251129350Y-58371819D01*
X251605540Y-58371819D02*
X251605540Y-57705152D01*
X251605540Y-57800390D02*
X251653159Y-57752771D01*
X251653159Y-57752771D02*
X251748397Y-57705152D01*
X251748397Y-57705152D02*
X251891254Y-57705152D01*
X251891254Y-57705152D02*
X251986492Y-57752771D01*
X251986492Y-57752771D02*
X252034111Y-57848009D01*
X252034111Y-57848009D02*
X252034111Y-58371819D01*
X252034111Y-57848009D02*
X252081730Y-57752771D01*
X252081730Y-57752771D02*
X252176968Y-57705152D01*
X252176968Y-57705152D02*
X252319825Y-57705152D01*
X252319825Y-57705152D02*
X252415064Y-57752771D01*
X252415064Y-57752771D02*
X252462683Y-57848009D01*
X252462683Y-57848009D02*
X252462683Y-58371819D01*
X253557921Y-57705152D02*
X253938873Y-57705152D01*
X253700778Y-57371819D02*
X253700778Y-58228961D01*
X253700778Y-58228961D02*
X253748397Y-58324200D01*
X253748397Y-58324200D02*
X253843635Y-58371819D01*
X253843635Y-58371819D02*
X253938873Y-58371819D01*
X254272207Y-58371819D02*
X254272207Y-57371819D01*
X254700778Y-58371819D02*
X254700778Y-57848009D01*
X254700778Y-57848009D02*
X254653159Y-57752771D01*
X254653159Y-57752771D02*
X254557921Y-57705152D01*
X254557921Y-57705152D02*
X254415064Y-57705152D01*
X254415064Y-57705152D02*
X254319826Y-57752771D01*
X254319826Y-57752771D02*
X254272207Y-57800390D01*
X255176969Y-58371819D02*
X255176969Y-57705152D01*
X255176969Y-57371819D02*
X255129350Y-57419438D01*
X255129350Y-57419438D02*
X255176969Y-57467057D01*
X255176969Y-57467057D02*
X255224588Y-57419438D01*
X255224588Y-57419438D02*
X255176969Y-57371819D01*
X255176969Y-57371819D02*
X255176969Y-57467057D01*
X256081730Y-58324200D02*
X255986492Y-58371819D01*
X255986492Y-58371819D02*
X255796016Y-58371819D01*
X255796016Y-58371819D02*
X255700778Y-58324200D01*
X255700778Y-58324200D02*
X255653159Y-58276580D01*
X255653159Y-58276580D02*
X255605540Y-58181342D01*
X255605540Y-58181342D02*
X255605540Y-57895628D01*
X255605540Y-57895628D02*
X255653159Y-57800390D01*
X255653159Y-57800390D02*
X255700778Y-57752771D01*
X255700778Y-57752771D02*
X255796016Y-57705152D01*
X255796016Y-57705152D02*
X255986492Y-57705152D01*
X255986492Y-57705152D02*
X256081730Y-57752771D01*
X256510302Y-58371819D02*
X256510302Y-57371819D01*
X256605540Y-57990866D02*
X256891254Y-58371819D01*
X256891254Y-57705152D02*
X256510302Y-58086104D01*
X257319826Y-57705152D02*
X257319826Y-58371819D01*
X257319826Y-57800390D02*
X257367445Y-57752771D01*
X257367445Y-57752771D02*
X257462683Y-57705152D01*
X257462683Y-57705152D02*
X257605540Y-57705152D01*
X257605540Y-57705152D02*
X257700778Y-57752771D01*
X257700778Y-57752771D02*
X257748397Y-57848009D01*
X257748397Y-57848009D02*
X257748397Y-58371819D01*
X258605540Y-58324200D02*
X258510302Y-58371819D01*
X258510302Y-58371819D02*
X258319826Y-58371819D01*
X258319826Y-58371819D02*
X258224588Y-58324200D01*
X258224588Y-58324200D02*
X258176969Y-58228961D01*
X258176969Y-58228961D02*
X258176969Y-57848009D01*
X258176969Y-57848009D02*
X258224588Y-57752771D01*
X258224588Y-57752771D02*
X258319826Y-57705152D01*
X258319826Y-57705152D02*
X258510302Y-57705152D01*
X258510302Y-57705152D02*
X258605540Y-57752771D01*
X258605540Y-57752771D02*
X258653159Y-57848009D01*
X258653159Y-57848009D02*
X258653159Y-57943247D01*
X258653159Y-57943247D02*
X258176969Y-58038485D01*
X259034112Y-58324200D02*
X259129350Y-58371819D01*
X259129350Y-58371819D02*
X259319826Y-58371819D01*
X259319826Y-58371819D02*
X259415064Y-58324200D01*
X259415064Y-58324200D02*
X259462683Y-58228961D01*
X259462683Y-58228961D02*
X259462683Y-58181342D01*
X259462683Y-58181342D02*
X259415064Y-58086104D01*
X259415064Y-58086104D02*
X259319826Y-58038485D01*
X259319826Y-58038485D02*
X259176969Y-58038485D01*
X259176969Y-58038485D02*
X259081731Y-57990866D01*
X259081731Y-57990866D02*
X259034112Y-57895628D01*
X259034112Y-57895628D02*
X259034112Y-57848009D01*
X259034112Y-57848009D02*
X259081731Y-57752771D01*
X259081731Y-57752771D02*
X259176969Y-57705152D01*
X259176969Y-57705152D02*
X259319826Y-57705152D01*
X259319826Y-57705152D02*
X259415064Y-57752771D01*
X259843636Y-58324200D02*
X259938874Y-58371819D01*
X259938874Y-58371819D02*
X260129350Y-58371819D01*
X260129350Y-58371819D02*
X260224588Y-58324200D01*
X260224588Y-58324200D02*
X260272207Y-58228961D01*
X260272207Y-58228961D02*
X260272207Y-58181342D01*
X260272207Y-58181342D02*
X260224588Y-58086104D01*
X260224588Y-58086104D02*
X260129350Y-58038485D01*
X260129350Y-58038485D02*
X259986493Y-58038485D01*
X259986493Y-58038485D02*
X259891255Y-57990866D01*
X259891255Y-57990866D02*
X259843636Y-57895628D01*
X259843636Y-57895628D02*
X259843636Y-57848009D01*
X259843636Y-57848009D02*
X259891255Y-57752771D01*
X259891255Y-57752771D02*
X259986493Y-57705152D01*
X259986493Y-57705152D02*
X260129350Y-57705152D01*
X260129350Y-57705152D02*
X260224588Y-57752771D01*
X246129350Y-59315152D02*
X246129350Y-59981819D01*
X245891255Y-58934200D02*
X245653160Y-59648485D01*
X245653160Y-59648485D02*
X246272207Y-59648485D01*
X246653160Y-59886580D02*
X246700779Y-59934200D01*
X246700779Y-59934200D02*
X246653160Y-59981819D01*
X246653160Y-59981819D02*
X246605541Y-59934200D01*
X246605541Y-59934200D02*
X246653160Y-59886580D01*
X246653160Y-59886580D02*
X246653160Y-59981819D01*
X247081731Y-59934200D02*
X247224588Y-59981819D01*
X247224588Y-59981819D02*
X247462683Y-59981819D01*
X247462683Y-59981819D02*
X247557921Y-59934200D01*
X247557921Y-59934200D02*
X247605540Y-59886580D01*
X247605540Y-59886580D02*
X247653159Y-59791342D01*
X247653159Y-59791342D02*
X247653159Y-59696104D01*
X247653159Y-59696104D02*
X247605540Y-59600866D01*
X247605540Y-59600866D02*
X247557921Y-59553247D01*
X247557921Y-59553247D02*
X247462683Y-59505628D01*
X247462683Y-59505628D02*
X247272207Y-59458009D01*
X247272207Y-59458009D02*
X247176969Y-59410390D01*
X247176969Y-59410390D02*
X247129350Y-59362771D01*
X247129350Y-59362771D02*
X247081731Y-59267533D01*
X247081731Y-59267533D02*
X247081731Y-59172295D01*
X247081731Y-59172295D02*
X247129350Y-59077057D01*
X247129350Y-59077057D02*
X247176969Y-59029438D01*
X247176969Y-59029438D02*
X247272207Y-58981819D01*
X247272207Y-58981819D02*
X247510302Y-58981819D01*
X247510302Y-58981819D02*
X247653159Y-59029438D01*
X248081731Y-59981819D02*
X248081731Y-59315152D01*
X248081731Y-58981819D02*
X248034112Y-59029438D01*
X248034112Y-59029438D02*
X248081731Y-59077057D01*
X248081731Y-59077057D02*
X248129350Y-59029438D01*
X248129350Y-59029438D02*
X248081731Y-58981819D01*
X248081731Y-58981819D02*
X248081731Y-59077057D01*
X248700778Y-59981819D02*
X248605540Y-59934200D01*
X248605540Y-59934200D02*
X248557921Y-59838961D01*
X248557921Y-59838961D02*
X248557921Y-58981819D01*
X249081731Y-59981819D02*
X249081731Y-58981819D01*
X249176969Y-59600866D02*
X249462683Y-59981819D01*
X249462683Y-59315152D02*
X249081731Y-59696104D01*
X249843636Y-59934200D02*
X249938874Y-59981819D01*
X249938874Y-59981819D02*
X250129350Y-59981819D01*
X250129350Y-59981819D02*
X250224588Y-59934200D01*
X250224588Y-59934200D02*
X250272207Y-59838961D01*
X250272207Y-59838961D02*
X250272207Y-59791342D01*
X250272207Y-59791342D02*
X250224588Y-59696104D01*
X250224588Y-59696104D02*
X250129350Y-59648485D01*
X250129350Y-59648485D02*
X249986493Y-59648485D01*
X249986493Y-59648485D02*
X249891255Y-59600866D01*
X249891255Y-59600866D02*
X249843636Y-59505628D01*
X249843636Y-59505628D02*
X249843636Y-59458009D01*
X249843636Y-59458009D02*
X249891255Y-59362771D01*
X249891255Y-59362771D02*
X249986493Y-59315152D01*
X249986493Y-59315152D02*
X250129350Y-59315152D01*
X250129350Y-59315152D02*
X250224588Y-59362771D01*
X251129350Y-59934200D02*
X251034112Y-59981819D01*
X251034112Y-59981819D02*
X250843636Y-59981819D01*
X250843636Y-59981819D02*
X250748398Y-59934200D01*
X250748398Y-59934200D02*
X250700779Y-59886580D01*
X250700779Y-59886580D02*
X250653160Y-59791342D01*
X250653160Y-59791342D02*
X250653160Y-59505628D01*
X250653160Y-59505628D02*
X250700779Y-59410390D01*
X250700779Y-59410390D02*
X250748398Y-59362771D01*
X250748398Y-59362771D02*
X250843636Y-59315152D01*
X250843636Y-59315152D02*
X251034112Y-59315152D01*
X251034112Y-59315152D02*
X251129350Y-59362771D01*
X251557922Y-59981819D02*
X251557922Y-59315152D01*
X251557922Y-59505628D02*
X251605541Y-59410390D01*
X251605541Y-59410390D02*
X251653160Y-59362771D01*
X251653160Y-59362771D02*
X251748398Y-59315152D01*
X251748398Y-59315152D02*
X251843636Y-59315152D01*
X252557922Y-59934200D02*
X252462684Y-59981819D01*
X252462684Y-59981819D02*
X252272208Y-59981819D01*
X252272208Y-59981819D02*
X252176970Y-59934200D01*
X252176970Y-59934200D02*
X252129351Y-59838961D01*
X252129351Y-59838961D02*
X252129351Y-59458009D01*
X252129351Y-59458009D02*
X252176970Y-59362771D01*
X252176970Y-59362771D02*
X252272208Y-59315152D01*
X252272208Y-59315152D02*
X252462684Y-59315152D01*
X252462684Y-59315152D02*
X252557922Y-59362771D01*
X252557922Y-59362771D02*
X252605541Y-59458009D01*
X252605541Y-59458009D02*
X252605541Y-59553247D01*
X252605541Y-59553247D02*
X252129351Y-59648485D01*
X253415065Y-59934200D02*
X253319827Y-59981819D01*
X253319827Y-59981819D02*
X253129351Y-59981819D01*
X253129351Y-59981819D02*
X253034113Y-59934200D01*
X253034113Y-59934200D02*
X252986494Y-59838961D01*
X252986494Y-59838961D02*
X252986494Y-59458009D01*
X252986494Y-59458009D02*
X253034113Y-59362771D01*
X253034113Y-59362771D02*
X253129351Y-59315152D01*
X253129351Y-59315152D02*
X253319827Y-59315152D01*
X253319827Y-59315152D02*
X253415065Y-59362771D01*
X253415065Y-59362771D02*
X253462684Y-59458009D01*
X253462684Y-59458009D02*
X253462684Y-59553247D01*
X253462684Y-59553247D02*
X252986494Y-59648485D01*
X253891256Y-59315152D02*
X253891256Y-59981819D01*
X253891256Y-59410390D02*
X253938875Y-59362771D01*
X253938875Y-59362771D02*
X254034113Y-59315152D01*
X254034113Y-59315152D02*
X254176970Y-59315152D01*
X254176970Y-59315152D02*
X254272208Y-59362771D01*
X254272208Y-59362771D02*
X254319827Y-59458009D01*
X254319827Y-59458009D02*
X254319827Y-59981819D01*
X255986494Y-59315152D02*
X255986494Y-59981819D01*
X255557923Y-59315152D02*
X255557923Y-59838961D01*
X255557923Y-59838961D02*
X255605542Y-59934200D01*
X255605542Y-59934200D02*
X255700780Y-59981819D01*
X255700780Y-59981819D02*
X255843637Y-59981819D01*
X255843637Y-59981819D02*
X255938875Y-59934200D01*
X255938875Y-59934200D02*
X255986494Y-59886580D01*
X256415066Y-59934200D02*
X256510304Y-59981819D01*
X256510304Y-59981819D02*
X256700780Y-59981819D01*
X256700780Y-59981819D02*
X256796018Y-59934200D01*
X256796018Y-59934200D02*
X256843637Y-59838961D01*
X256843637Y-59838961D02*
X256843637Y-59791342D01*
X256843637Y-59791342D02*
X256796018Y-59696104D01*
X256796018Y-59696104D02*
X256700780Y-59648485D01*
X256700780Y-59648485D02*
X256557923Y-59648485D01*
X256557923Y-59648485D02*
X256462685Y-59600866D01*
X256462685Y-59600866D02*
X256415066Y-59505628D01*
X256415066Y-59505628D02*
X256415066Y-59458009D01*
X256415066Y-59458009D02*
X256462685Y-59362771D01*
X256462685Y-59362771D02*
X256557923Y-59315152D01*
X256557923Y-59315152D02*
X256700780Y-59315152D01*
X256700780Y-59315152D02*
X256796018Y-59362771D01*
X257272209Y-59981819D02*
X257272209Y-59315152D01*
X257272209Y-58981819D02*
X257224590Y-59029438D01*
X257224590Y-59029438D02*
X257272209Y-59077057D01*
X257272209Y-59077057D02*
X257319828Y-59029438D01*
X257319828Y-59029438D02*
X257272209Y-58981819D01*
X257272209Y-58981819D02*
X257272209Y-59077057D01*
X257748399Y-59315152D02*
X257748399Y-59981819D01*
X257748399Y-59410390D02*
X257796018Y-59362771D01*
X257796018Y-59362771D02*
X257891256Y-59315152D01*
X257891256Y-59315152D02*
X258034113Y-59315152D01*
X258034113Y-59315152D02*
X258129351Y-59362771D01*
X258129351Y-59362771D02*
X258176970Y-59458009D01*
X258176970Y-59458009D02*
X258176970Y-59981819D01*
X259081732Y-59315152D02*
X259081732Y-60124676D01*
X259081732Y-60124676D02*
X259034113Y-60219914D01*
X259034113Y-60219914D02*
X258986494Y-60267533D01*
X258986494Y-60267533D02*
X258891256Y-60315152D01*
X258891256Y-60315152D02*
X258748399Y-60315152D01*
X258748399Y-60315152D02*
X258653161Y-60267533D01*
X259081732Y-59934200D02*
X258986494Y-59981819D01*
X258986494Y-59981819D02*
X258796018Y-59981819D01*
X258796018Y-59981819D02*
X258700780Y-59934200D01*
X258700780Y-59934200D02*
X258653161Y-59886580D01*
X258653161Y-59886580D02*
X258605542Y-59791342D01*
X258605542Y-59791342D02*
X258605542Y-59505628D01*
X258605542Y-59505628D02*
X258653161Y-59410390D01*
X258653161Y-59410390D02*
X258700780Y-59362771D01*
X258700780Y-59362771D02*
X258796018Y-59315152D01*
X258796018Y-59315152D02*
X258986494Y-59315152D01*
X258986494Y-59315152D02*
X259081732Y-59362771D01*
X260224590Y-58981819D02*
X260462685Y-59981819D01*
X260462685Y-59981819D02*
X260653161Y-59267533D01*
X260653161Y-59267533D02*
X260843637Y-59981819D01*
X260843637Y-59981819D02*
X261081733Y-58981819D01*
X261462685Y-59981819D02*
X261462685Y-58981819D01*
X261891256Y-59981819D02*
X261891256Y-59458009D01*
X261891256Y-59458009D02*
X261843637Y-59362771D01*
X261843637Y-59362771D02*
X261748399Y-59315152D01*
X261748399Y-59315152D02*
X261605542Y-59315152D01*
X261605542Y-59315152D02*
X261510304Y-59362771D01*
X261510304Y-59362771D02*
X261462685Y-59410390D01*
X262367447Y-59981819D02*
X262367447Y-59315152D01*
X262367447Y-58981819D02*
X262319828Y-59029438D01*
X262319828Y-59029438D02*
X262367447Y-59077057D01*
X262367447Y-59077057D02*
X262415066Y-59029438D01*
X262415066Y-59029438D02*
X262367447Y-58981819D01*
X262367447Y-58981819D02*
X262367447Y-59077057D01*
X262700780Y-59315152D02*
X263081732Y-59315152D01*
X262843637Y-58981819D02*
X262843637Y-59838961D01*
X262843637Y-59838961D02*
X262891256Y-59934200D01*
X262891256Y-59934200D02*
X262986494Y-59981819D01*
X262986494Y-59981819D02*
X263081732Y-59981819D01*
X263796018Y-59934200D02*
X263700780Y-59981819D01*
X263700780Y-59981819D02*
X263510304Y-59981819D01*
X263510304Y-59981819D02*
X263415066Y-59934200D01*
X263415066Y-59934200D02*
X263367447Y-59838961D01*
X263367447Y-59838961D02*
X263367447Y-59458009D01*
X263367447Y-59458009D02*
X263415066Y-59362771D01*
X263415066Y-59362771D02*
X263510304Y-59315152D01*
X263510304Y-59315152D02*
X263700780Y-59315152D01*
X263700780Y-59315152D02*
X263796018Y-59362771D01*
X263796018Y-59362771D02*
X263843637Y-59458009D01*
X263843637Y-59458009D02*
X263843637Y-59553247D01*
X263843637Y-59553247D02*
X263367447Y-59648485D01*
X246176969Y-60591819D02*
X245700779Y-60591819D01*
X245700779Y-60591819D02*
X245653160Y-61068009D01*
X245653160Y-61068009D02*
X245700779Y-61020390D01*
X245700779Y-61020390D02*
X245796017Y-60972771D01*
X245796017Y-60972771D02*
X246034112Y-60972771D01*
X246034112Y-60972771D02*
X246129350Y-61020390D01*
X246129350Y-61020390D02*
X246176969Y-61068009D01*
X246176969Y-61068009D02*
X246224588Y-61163247D01*
X246224588Y-61163247D02*
X246224588Y-61401342D01*
X246224588Y-61401342D02*
X246176969Y-61496580D01*
X246176969Y-61496580D02*
X246129350Y-61544200D01*
X246129350Y-61544200D02*
X246034112Y-61591819D01*
X246034112Y-61591819D02*
X245796017Y-61591819D01*
X245796017Y-61591819D02*
X245700779Y-61544200D01*
X245700779Y-61544200D02*
X245653160Y-61496580D01*
X246653160Y-61496580D02*
X246700779Y-61544200D01*
X246700779Y-61544200D02*
X246653160Y-61591819D01*
X246653160Y-61591819D02*
X246605541Y-61544200D01*
X246605541Y-61544200D02*
X246653160Y-61496580D01*
X246653160Y-61496580D02*
X246653160Y-61591819D01*
X247081731Y-61544200D02*
X247224588Y-61591819D01*
X247224588Y-61591819D02*
X247462683Y-61591819D01*
X247462683Y-61591819D02*
X247557921Y-61544200D01*
X247557921Y-61544200D02*
X247605540Y-61496580D01*
X247605540Y-61496580D02*
X247653159Y-61401342D01*
X247653159Y-61401342D02*
X247653159Y-61306104D01*
X247653159Y-61306104D02*
X247605540Y-61210866D01*
X247605540Y-61210866D02*
X247557921Y-61163247D01*
X247557921Y-61163247D02*
X247462683Y-61115628D01*
X247462683Y-61115628D02*
X247272207Y-61068009D01*
X247272207Y-61068009D02*
X247176969Y-61020390D01*
X247176969Y-61020390D02*
X247129350Y-60972771D01*
X247129350Y-60972771D02*
X247081731Y-60877533D01*
X247081731Y-60877533D02*
X247081731Y-60782295D01*
X247081731Y-60782295D02*
X247129350Y-60687057D01*
X247129350Y-60687057D02*
X247176969Y-60639438D01*
X247176969Y-60639438D02*
X247272207Y-60591819D01*
X247272207Y-60591819D02*
X247510302Y-60591819D01*
X247510302Y-60591819D02*
X247653159Y-60639438D01*
X248224588Y-61591819D02*
X248129350Y-61544200D01*
X248129350Y-61544200D02*
X248081731Y-61496580D01*
X248081731Y-61496580D02*
X248034112Y-61401342D01*
X248034112Y-61401342D02*
X248034112Y-61115628D01*
X248034112Y-61115628D02*
X248081731Y-61020390D01*
X248081731Y-61020390D02*
X248129350Y-60972771D01*
X248129350Y-60972771D02*
X248224588Y-60925152D01*
X248224588Y-60925152D02*
X248367445Y-60925152D01*
X248367445Y-60925152D02*
X248462683Y-60972771D01*
X248462683Y-60972771D02*
X248510302Y-61020390D01*
X248510302Y-61020390D02*
X248557921Y-61115628D01*
X248557921Y-61115628D02*
X248557921Y-61401342D01*
X248557921Y-61401342D02*
X248510302Y-61496580D01*
X248510302Y-61496580D02*
X248462683Y-61544200D01*
X248462683Y-61544200D02*
X248367445Y-61591819D01*
X248367445Y-61591819D02*
X248224588Y-61591819D01*
X249129350Y-61591819D02*
X249034112Y-61544200D01*
X249034112Y-61544200D02*
X248986493Y-61448961D01*
X248986493Y-61448961D02*
X248986493Y-60591819D01*
X249938874Y-61591819D02*
X249938874Y-60591819D01*
X249938874Y-61544200D02*
X249843636Y-61591819D01*
X249843636Y-61591819D02*
X249653160Y-61591819D01*
X249653160Y-61591819D02*
X249557922Y-61544200D01*
X249557922Y-61544200D02*
X249510303Y-61496580D01*
X249510303Y-61496580D02*
X249462684Y-61401342D01*
X249462684Y-61401342D02*
X249462684Y-61115628D01*
X249462684Y-61115628D02*
X249510303Y-61020390D01*
X249510303Y-61020390D02*
X249557922Y-60972771D01*
X249557922Y-60972771D02*
X249653160Y-60925152D01*
X249653160Y-60925152D02*
X249843636Y-60925152D01*
X249843636Y-60925152D02*
X249938874Y-60972771D01*
X250796017Y-61544200D02*
X250700779Y-61591819D01*
X250700779Y-61591819D02*
X250510303Y-61591819D01*
X250510303Y-61591819D02*
X250415065Y-61544200D01*
X250415065Y-61544200D02*
X250367446Y-61448961D01*
X250367446Y-61448961D02*
X250367446Y-61068009D01*
X250367446Y-61068009D02*
X250415065Y-60972771D01*
X250415065Y-60972771D02*
X250510303Y-60925152D01*
X250510303Y-60925152D02*
X250700779Y-60925152D01*
X250700779Y-60925152D02*
X250796017Y-60972771D01*
X250796017Y-60972771D02*
X250843636Y-61068009D01*
X250843636Y-61068009D02*
X250843636Y-61163247D01*
X250843636Y-61163247D02*
X250367446Y-61258485D01*
X251272208Y-61591819D02*
X251272208Y-60925152D01*
X251272208Y-61115628D02*
X251319827Y-61020390D01*
X251319827Y-61020390D02*
X251367446Y-60972771D01*
X251367446Y-60972771D02*
X251462684Y-60925152D01*
X251462684Y-60925152D02*
X251557922Y-60925152D01*
X251891256Y-61591819D02*
X251891256Y-60925152D01*
X251891256Y-61020390D02*
X251938875Y-60972771D01*
X251938875Y-60972771D02*
X252034113Y-60925152D01*
X252034113Y-60925152D02*
X252176970Y-60925152D01*
X252176970Y-60925152D02*
X252272208Y-60972771D01*
X252272208Y-60972771D02*
X252319827Y-61068009D01*
X252319827Y-61068009D02*
X252319827Y-61591819D01*
X252319827Y-61068009D02*
X252367446Y-60972771D01*
X252367446Y-60972771D02*
X252462684Y-60925152D01*
X252462684Y-60925152D02*
X252605541Y-60925152D01*
X252605541Y-60925152D02*
X252700780Y-60972771D01*
X252700780Y-60972771D02*
X252748399Y-61068009D01*
X252748399Y-61068009D02*
X252748399Y-61591819D01*
X253653160Y-61591819D02*
X253653160Y-61068009D01*
X253653160Y-61068009D02*
X253605541Y-60972771D01*
X253605541Y-60972771D02*
X253510303Y-60925152D01*
X253510303Y-60925152D02*
X253319827Y-60925152D01*
X253319827Y-60925152D02*
X253224589Y-60972771D01*
X253653160Y-61544200D02*
X253557922Y-61591819D01*
X253557922Y-61591819D02*
X253319827Y-61591819D01*
X253319827Y-61591819D02*
X253224589Y-61544200D01*
X253224589Y-61544200D02*
X253176970Y-61448961D01*
X253176970Y-61448961D02*
X253176970Y-61353723D01*
X253176970Y-61353723D02*
X253224589Y-61258485D01*
X253224589Y-61258485D02*
X253319827Y-61210866D01*
X253319827Y-61210866D02*
X253557922Y-61210866D01*
X253557922Y-61210866D02*
X253653160Y-61163247D01*
X254081732Y-61544200D02*
X254176970Y-61591819D01*
X254176970Y-61591819D02*
X254367446Y-61591819D01*
X254367446Y-61591819D02*
X254462684Y-61544200D01*
X254462684Y-61544200D02*
X254510303Y-61448961D01*
X254510303Y-61448961D02*
X254510303Y-61401342D01*
X254510303Y-61401342D02*
X254462684Y-61306104D01*
X254462684Y-61306104D02*
X254367446Y-61258485D01*
X254367446Y-61258485D02*
X254224589Y-61258485D01*
X254224589Y-61258485D02*
X254129351Y-61210866D01*
X254129351Y-61210866D02*
X254081732Y-61115628D01*
X254081732Y-61115628D02*
X254081732Y-61068009D01*
X254081732Y-61068009D02*
X254129351Y-60972771D01*
X254129351Y-60972771D02*
X254224589Y-60925152D01*
X254224589Y-60925152D02*
X254367446Y-60925152D01*
X254367446Y-60925152D02*
X254462684Y-60972771D01*
X254938875Y-61591819D02*
X254938875Y-60591819D01*
X255034113Y-61210866D02*
X255319827Y-61591819D01*
X255319827Y-60925152D02*
X254938875Y-61306104D01*
X256843637Y-61068009D02*
X256986494Y-61115628D01*
X256986494Y-61115628D02*
X257034113Y-61163247D01*
X257034113Y-61163247D02*
X257081732Y-61258485D01*
X257081732Y-61258485D02*
X257081732Y-61401342D01*
X257081732Y-61401342D02*
X257034113Y-61496580D01*
X257034113Y-61496580D02*
X256986494Y-61544200D01*
X256986494Y-61544200D02*
X256891256Y-61591819D01*
X256891256Y-61591819D02*
X256510304Y-61591819D01*
X256510304Y-61591819D02*
X256510304Y-60591819D01*
X256510304Y-60591819D02*
X256843637Y-60591819D01*
X256843637Y-60591819D02*
X256938875Y-60639438D01*
X256938875Y-60639438D02*
X256986494Y-60687057D01*
X256986494Y-60687057D02*
X257034113Y-60782295D01*
X257034113Y-60782295D02*
X257034113Y-60877533D01*
X257034113Y-60877533D02*
X256986494Y-60972771D01*
X256986494Y-60972771D02*
X256938875Y-61020390D01*
X256938875Y-61020390D02*
X256843637Y-61068009D01*
X256843637Y-61068009D02*
X256510304Y-61068009D01*
X257653161Y-61591819D02*
X257557923Y-61544200D01*
X257557923Y-61544200D02*
X257510304Y-61448961D01*
X257510304Y-61448961D02*
X257510304Y-60591819D01*
X258462685Y-61591819D02*
X258462685Y-61068009D01*
X258462685Y-61068009D02*
X258415066Y-60972771D01*
X258415066Y-60972771D02*
X258319828Y-60925152D01*
X258319828Y-60925152D02*
X258129352Y-60925152D01*
X258129352Y-60925152D02*
X258034114Y-60972771D01*
X258462685Y-61544200D02*
X258367447Y-61591819D01*
X258367447Y-61591819D02*
X258129352Y-61591819D01*
X258129352Y-61591819D02*
X258034114Y-61544200D01*
X258034114Y-61544200D02*
X257986495Y-61448961D01*
X257986495Y-61448961D02*
X257986495Y-61353723D01*
X257986495Y-61353723D02*
X258034114Y-61258485D01*
X258034114Y-61258485D02*
X258129352Y-61210866D01*
X258129352Y-61210866D02*
X258367447Y-61210866D01*
X258367447Y-61210866D02*
X258462685Y-61163247D01*
X259367447Y-61544200D02*
X259272209Y-61591819D01*
X259272209Y-61591819D02*
X259081733Y-61591819D01*
X259081733Y-61591819D02*
X258986495Y-61544200D01*
X258986495Y-61544200D02*
X258938876Y-61496580D01*
X258938876Y-61496580D02*
X258891257Y-61401342D01*
X258891257Y-61401342D02*
X258891257Y-61115628D01*
X258891257Y-61115628D02*
X258938876Y-61020390D01*
X258938876Y-61020390D02*
X258986495Y-60972771D01*
X258986495Y-60972771D02*
X259081733Y-60925152D01*
X259081733Y-60925152D02*
X259272209Y-60925152D01*
X259272209Y-60925152D02*
X259367447Y-60972771D01*
X259796019Y-61591819D02*
X259796019Y-60591819D01*
X259891257Y-61210866D02*
X260176971Y-61591819D01*
X260176971Y-60925152D02*
X259796019Y-61306104D01*
X208584969Y-52783819D02*
X208108779Y-52783819D01*
X208108779Y-52783819D02*
X208108779Y-51783819D01*
X209346874Y-52783819D02*
X209346874Y-52260009D01*
X209346874Y-52260009D02*
X209299255Y-52164771D01*
X209299255Y-52164771D02*
X209204017Y-52117152D01*
X209204017Y-52117152D02*
X209013541Y-52117152D01*
X209013541Y-52117152D02*
X208918303Y-52164771D01*
X209346874Y-52736200D02*
X209251636Y-52783819D01*
X209251636Y-52783819D02*
X209013541Y-52783819D01*
X209013541Y-52783819D02*
X208918303Y-52736200D01*
X208918303Y-52736200D02*
X208870684Y-52640961D01*
X208870684Y-52640961D02*
X208870684Y-52545723D01*
X208870684Y-52545723D02*
X208918303Y-52450485D01*
X208918303Y-52450485D02*
X209013541Y-52402866D01*
X209013541Y-52402866D02*
X209251636Y-52402866D01*
X209251636Y-52402866D02*
X209346874Y-52355247D01*
X209727827Y-52117152D02*
X209965922Y-52783819D01*
X210204017Y-52117152D02*
X209965922Y-52783819D01*
X209965922Y-52783819D02*
X209870684Y-53021914D01*
X209870684Y-53021914D02*
X209823065Y-53069533D01*
X209823065Y-53069533D02*
X209727827Y-53117152D01*
X210965922Y-52736200D02*
X210870684Y-52783819D01*
X210870684Y-52783819D02*
X210680208Y-52783819D01*
X210680208Y-52783819D02*
X210584970Y-52736200D01*
X210584970Y-52736200D02*
X210537351Y-52640961D01*
X210537351Y-52640961D02*
X210537351Y-52260009D01*
X210537351Y-52260009D02*
X210584970Y-52164771D01*
X210584970Y-52164771D02*
X210680208Y-52117152D01*
X210680208Y-52117152D02*
X210870684Y-52117152D01*
X210870684Y-52117152D02*
X210965922Y-52164771D01*
X210965922Y-52164771D02*
X211013541Y-52260009D01*
X211013541Y-52260009D02*
X211013541Y-52355247D01*
X211013541Y-52355247D02*
X210537351Y-52450485D01*
X211442113Y-52783819D02*
X211442113Y-52117152D01*
X211442113Y-52307628D02*
X211489732Y-52212390D01*
X211489732Y-52212390D02*
X211537351Y-52164771D01*
X211537351Y-52164771D02*
X211632589Y-52117152D01*
X211632589Y-52117152D02*
X211727827Y-52117152D01*
X212775447Y-52736200D02*
X212870685Y-52783819D01*
X212870685Y-52783819D02*
X213061161Y-52783819D01*
X213061161Y-52783819D02*
X213156399Y-52736200D01*
X213156399Y-52736200D02*
X213204018Y-52640961D01*
X213204018Y-52640961D02*
X213204018Y-52593342D01*
X213204018Y-52593342D02*
X213156399Y-52498104D01*
X213156399Y-52498104D02*
X213061161Y-52450485D01*
X213061161Y-52450485D02*
X212918304Y-52450485D01*
X212918304Y-52450485D02*
X212823066Y-52402866D01*
X212823066Y-52402866D02*
X212775447Y-52307628D01*
X212775447Y-52307628D02*
X212775447Y-52260009D01*
X212775447Y-52260009D02*
X212823066Y-52164771D01*
X212823066Y-52164771D02*
X212918304Y-52117152D01*
X212918304Y-52117152D02*
X213061161Y-52117152D01*
X213061161Y-52117152D02*
X213156399Y-52164771D01*
X213489733Y-52117152D02*
X213870685Y-52117152D01*
X213632590Y-51783819D02*
X213632590Y-52640961D01*
X213632590Y-52640961D02*
X213680209Y-52736200D01*
X213680209Y-52736200D02*
X213775447Y-52783819D01*
X213775447Y-52783819D02*
X213870685Y-52783819D01*
X214632590Y-52783819D02*
X214632590Y-52260009D01*
X214632590Y-52260009D02*
X214584971Y-52164771D01*
X214584971Y-52164771D02*
X214489733Y-52117152D01*
X214489733Y-52117152D02*
X214299257Y-52117152D01*
X214299257Y-52117152D02*
X214204019Y-52164771D01*
X214632590Y-52736200D02*
X214537352Y-52783819D01*
X214537352Y-52783819D02*
X214299257Y-52783819D01*
X214299257Y-52783819D02*
X214204019Y-52736200D01*
X214204019Y-52736200D02*
X214156400Y-52640961D01*
X214156400Y-52640961D02*
X214156400Y-52545723D01*
X214156400Y-52545723D02*
X214204019Y-52450485D01*
X214204019Y-52450485D02*
X214299257Y-52402866D01*
X214299257Y-52402866D02*
X214537352Y-52402866D01*
X214537352Y-52402866D02*
X214632590Y-52355247D01*
X215537352Y-52736200D02*
X215442114Y-52783819D01*
X215442114Y-52783819D02*
X215251638Y-52783819D01*
X215251638Y-52783819D02*
X215156400Y-52736200D01*
X215156400Y-52736200D02*
X215108781Y-52688580D01*
X215108781Y-52688580D02*
X215061162Y-52593342D01*
X215061162Y-52593342D02*
X215061162Y-52307628D01*
X215061162Y-52307628D02*
X215108781Y-52212390D01*
X215108781Y-52212390D02*
X215156400Y-52164771D01*
X215156400Y-52164771D02*
X215251638Y-52117152D01*
X215251638Y-52117152D02*
X215442114Y-52117152D01*
X215442114Y-52117152D02*
X215537352Y-52164771D01*
X215965924Y-52783819D02*
X215965924Y-51783819D01*
X216061162Y-52402866D02*
X216346876Y-52783819D01*
X216346876Y-52117152D02*
X215965924Y-52498104D01*
X217204019Y-52117152D02*
X217204019Y-52783819D01*
X216775448Y-52117152D02*
X216775448Y-52640961D01*
X216775448Y-52640961D02*
X216823067Y-52736200D01*
X216823067Y-52736200D02*
X216918305Y-52783819D01*
X216918305Y-52783819D02*
X217061162Y-52783819D01*
X217061162Y-52783819D02*
X217156400Y-52736200D01*
X217156400Y-52736200D02*
X217204019Y-52688580D01*
X217680210Y-52117152D02*
X217680210Y-53117152D01*
X217680210Y-52164771D02*
X217775448Y-52117152D01*
X217775448Y-52117152D02*
X217965924Y-52117152D01*
X217965924Y-52117152D02*
X218061162Y-52164771D01*
X218061162Y-52164771D02*
X218108781Y-52212390D01*
X218108781Y-52212390D02*
X218156400Y-52307628D01*
X218156400Y-52307628D02*
X218156400Y-52593342D01*
X218156400Y-52593342D02*
X218108781Y-52688580D01*
X218108781Y-52688580D02*
X218061162Y-52736200D01*
X218061162Y-52736200D02*
X217965924Y-52783819D01*
X217965924Y-52783819D02*
X217775448Y-52783819D01*
X217775448Y-52783819D02*
X217680210Y-52736200D01*
X208632588Y-54393819D02*
X208061160Y-54393819D01*
X208346874Y-54393819D02*
X208346874Y-53393819D01*
X208346874Y-53393819D02*
X208251636Y-53536676D01*
X208251636Y-53536676D02*
X208156398Y-53631914D01*
X208156398Y-53631914D02*
X208061160Y-53679533D01*
X209061160Y-54298580D02*
X209108779Y-54346200D01*
X209108779Y-54346200D02*
X209061160Y-54393819D01*
X209061160Y-54393819D02*
X209013541Y-54346200D01*
X209013541Y-54346200D02*
X209061160Y-54298580D01*
X209061160Y-54298580D02*
X209061160Y-54393819D01*
X210156398Y-53393819D02*
X210727826Y-53393819D01*
X210442112Y-54393819D02*
X210442112Y-53393819D01*
X211204017Y-54393819D02*
X211108779Y-54346200D01*
X211108779Y-54346200D02*
X211061160Y-54298580D01*
X211061160Y-54298580D02*
X211013541Y-54203342D01*
X211013541Y-54203342D02*
X211013541Y-53917628D01*
X211013541Y-53917628D02*
X211061160Y-53822390D01*
X211061160Y-53822390D02*
X211108779Y-53774771D01*
X211108779Y-53774771D02*
X211204017Y-53727152D01*
X211204017Y-53727152D02*
X211346874Y-53727152D01*
X211346874Y-53727152D02*
X211442112Y-53774771D01*
X211442112Y-53774771D02*
X211489731Y-53822390D01*
X211489731Y-53822390D02*
X211537350Y-53917628D01*
X211537350Y-53917628D02*
X211537350Y-54203342D01*
X211537350Y-54203342D02*
X211489731Y-54298580D01*
X211489731Y-54298580D02*
X211442112Y-54346200D01*
X211442112Y-54346200D02*
X211346874Y-54393819D01*
X211346874Y-54393819D02*
X211204017Y-54393819D01*
X211965922Y-53727152D02*
X211965922Y-54727152D01*
X211965922Y-53774771D02*
X212061160Y-53727152D01*
X212061160Y-53727152D02*
X212251636Y-53727152D01*
X212251636Y-53727152D02*
X212346874Y-53774771D01*
X212346874Y-53774771D02*
X212394493Y-53822390D01*
X212394493Y-53822390D02*
X212442112Y-53917628D01*
X212442112Y-53917628D02*
X212442112Y-54203342D01*
X212442112Y-54203342D02*
X212394493Y-54298580D01*
X212394493Y-54298580D02*
X212346874Y-54346200D01*
X212346874Y-54346200D02*
X212251636Y-54393819D01*
X212251636Y-54393819D02*
X212061160Y-54393819D01*
X212061160Y-54393819D02*
X211965922Y-54346200D01*
X214108779Y-54393819D02*
X213632589Y-54393819D01*
X213632589Y-54393819D02*
X213632589Y-53393819D01*
X214870684Y-54393819D02*
X214870684Y-53870009D01*
X214870684Y-53870009D02*
X214823065Y-53774771D01*
X214823065Y-53774771D02*
X214727827Y-53727152D01*
X214727827Y-53727152D02*
X214537351Y-53727152D01*
X214537351Y-53727152D02*
X214442113Y-53774771D01*
X214870684Y-54346200D02*
X214775446Y-54393819D01*
X214775446Y-54393819D02*
X214537351Y-54393819D01*
X214537351Y-54393819D02*
X214442113Y-54346200D01*
X214442113Y-54346200D02*
X214394494Y-54250961D01*
X214394494Y-54250961D02*
X214394494Y-54155723D01*
X214394494Y-54155723D02*
X214442113Y-54060485D01*
X214442113Y-54060485D02*
X214537351Y-54012866D01*
X214537351Y-54012866D02*
X214775446Y-54012866D01*
X214775446Y-54012866D02*
X214870684Y-53965247D01*
X215251637Y-53727152D02*
X215489732Y-54393819D01*
X215727827Y-53727152D02*
X215489732Y-54393819D01*
X215489732Y-54393819D02*
X215394494Y-54631914D01*
X215394494Y-54631914D02*
X215346875Y-54679533D01*
X215346875Y-54679533D02*
X215251637Y-54727152D01*
X216489732Y-54346200D02*
X216394494Y-54393819D01*
X216394494Y-54393819D02*
X216204018Y-54393819D01*
X216204018Y-54393819D02*
X216108780Y-54346200D01*
X216108780Y-54346200D02*
X216061161Y-54250961D01*
X216061161Y-54250961D02*
X216061161Y-53870009D01*
X216061161Y-53870009D02*
X216108780Y-53774771D01*
X216108780Y-53774771D02*
X216204018Y-53727152D01*
X216204018Y-53727152D02*
X216394494Y-53727152D01*
X216394494Y-53727152D02*
X216489732Y-53774771D01*
X216489732Y-53774771D02*
X216537351Y-53870009D01*
X216537351Y-53870009D02*
X216537351Y-53965247D01*
X216537351Y-53965247D02*
X216061161Y-54060485D01*
X216965923Y-54393819D02*
X216965923Y-53727152D01*
X216965923Y-53917628D02*
X217013542Y-53822390D01*
X217013542Y-53822390D02*
X217061161Y-53774771D01*
X217061161Y-53774771D02*
X217156399Y-53727152D01*
X217156399Y-53727152D02*
X217251637Y-53727152D01*
X208061160Y-55099057D02*
X208108779Y-55051438D01*
X208108779Y-55051438D02*
X208204017Y-55003819D01*
X208204017Y-55003819D02*
X208442112Y-55003819D01*
X208442112Y-55003819D02*
X208537350Y-55051438D01*
X208537350Y-55051438D02*
X208584969Y-55099057D01*
X208584969Y-55099057D02*
X208632588Y-55194295D01*
X208632588Y-55194295D02*
X208632588Y-55289533D01*
X208632588Y-55289533D02*
X208584969Y-55432390D01*
X208584969Y-55432390D02*
X208013541Y-56003819D01*
X208013541Y-56003819D02*
X208632588Y-56003819D01*
X209061160Y-55908580D02*
X209108779Y-55956200D01*
X209108779Y-55956200D02*
X209061160Y-56003819D01*
X209061160Y-56003819D02*
X209013541Y-55956200D01*
X209013541Y-55956200D02*
X209061160Y-55908580D01*
X209061160Y-55908580D02*
X209061160Y-56003819D01*
X210823064Y-55051438D02*
X210727826Y-55003819D01*
X210727826Y-55003819D02*
X210584969Y-55003819D01*
X210584969Y-55003819D02*
X210442112Y-55051438D01*
X210442112Y-55051438D02*
X210346874Y-55146676D01*
X210346874Y-55146676D02*
X210299255Y-55241914D01*
X210299255Y-55241914D02*
X210251636Y-55432390D01*
X210251636Y-55432390D02*
X210251636Y-55575247D01*
X210251636Y-55575247D02*
X210299255Y-55765723D01*
X210299255Y-55765723D02*
X210346874Y-55860961D01*
X210346874Y-55860961D02*
X210442112Y-55956200D01*
X210442112Y-55956200D02*
X210584969Y-56003819D01*
X210584969Y-56003819D02*
X210680207Y-56003819D01*
X210680207Y-56003819D02*
X210823064Y-55956200D01*
X210823064Y-55956200D02*
X210870683Y-55908580D01*
X210870683Y-55908580D02*
X210870683Y-55575247D01*
X210870683Y-55575247D02*
X210680207Y-55575247D01*
X211299255Y-56003819D02*
X211299255Y-55003819D01*
X211299255Y-55003819D02*
X211870683Y-56003819D01*
X211870683Y-56003819D02*
X211870683Y-55003819D01*
X212346874Y-56003819D02*
X212346874Y-55003819D01*
X212346874Y-55003819D02*
X212584969Y-55003819D01*
X212584969Y-55003819D02*
X212727826Y-55051438D01*
X212727826Y-55051438D02*
X212823064Y-55146676D01*
X212823064Y-55146676D02*
X212870683Y-55241914D01*
X212870683Y-55241914D02*
X212918302Y-55432390D01*
X212918302Y-55432390D02*
X212918302Y-55575247D01*
X212918302Y-55575247D02*
X212870683Y-55765723D01*
X212870683Y-55765723D02*
X212823064Y-55860961D01*
X212823064Y-55860961D02*
X212727826Y-55956200D01*
X212727826Y-55956200D02*
X212584969Y-56003819D01*
X212584969Y-56003819D02*
X212346874Y-56003819D01*
X214584969Y-56003819D02*
X214108779Y-56003819D01*
X214108779Y-56003819D02*
X214108779Y-55003819D01*
X215346874Y-56003819D02*
X215346874Y-55480009D01*
X215346874Y-55480009D02*
X215299255Y-55384771D01*
X215299255Y-55384771D02*
X215204017Y-55337152D01*
X215204017Y-55337152D02*
X215013541Y-55337152D01*
X215013541Y-55337152D02*
X214918303Y-55384771D01*
X215346874Y-55956200D02*
X215251636Y-56003819D01*
X215251636Y-56003819D02*
X215013541Y-56003819D01*
X215013541Y-56003819D02*
X214918303Y-55956200D01*
X214918303Y-55956200D02*
X214870684Y-55860961D01*
X214870684Y-55860961D02*
X214870684Y-55765723D01*
X214870684Y-55765723D02*
X214918303Y-55670485D01*
X214918303Y-55670485D02*
X215013541Y-55622866D01*
X215013541Y-55622866D02*
X215251636Y-55622866D01*
X215251636Y-55622866D02*
X215346874Y-55575247D01*
X215727827Y-55337152D02*
X215965922Y-56003819D01*
X216204017Y-55337152D02*
X215965922Y-56003819D01*
X215965922Y-56003819D02*
X215870684Y-56241914D01*
X215870684Y-56241914D02*
X215823065Y-56289533D01*
X215823065Y-56289533D02*
X215727827Y-56337152D01*
X216965922Y-55956200D02*
X216870684Y-56003819D01*
X216870684Y-56003819D02*
X216680208Y-56003819D01*
X216680208Y-56003819D02*
X216584970Y-55956200D01*
X216584970Y-55956200D02*
X216537351Y-55860961D01*
X216537351Y-55860961D02*
X216537351Y-55480009D01*
X216537351Y-55480009D02*
X216584970Y-55384771D01*
X216584970Y-55384771D02*
X216680208Y-55337152D01*
X216680208Y-55337152D02*
X216870684Y-55337152D01*
X216870684Y-55337152D02*
X216965922Y-55384771D01*
X216965922Y-55384771D02*
X217013541Y-55480009D01*
X217013541Y-55480009D02*
X217013541Y-55575247D01*
X217013541Y-55575247D02*
X216537351Y-55670485D01*
X217442113Y-56003819D02*
X217442113Y-55337152D01*
X217442113Y-55527628D02*
X217489732Y-55432390D01*
X217489732Y-55432390D02*
X217537351Y-55384771D01*
X217537351Y-55384771D02*
X217632589Y-55337152D01*
X217632589Y-55337152D02*
X217727827Y-55337152D01*
X196932819Y-78453665D02*
X196932819Y-77834618D01*
X196932819Y-77834618D02*
X197313771Y-78167951D01*
X197313771Y-78167951D02*
X197313771Y-78025094D01*
X197313771Y-78025094D02*
X197361390Y-77929856D01*
X197361390Y-77929856D02*
X197409009Y-77882237D01*
X197409009Y-77882237D02*
X197504247Y-77834618D01*
X197504247Y-77834618D02*
X197742342Y-77834618D01*
X197742342Y-77834618D02*
X197837580Y-77882237D01*
X197837580Y-77882237D02*
X197885200Y-77929856D01*
X197885200Y-77929856D02*
X197932819Y-78025094D01*
X197932819Y-78025094D02*
X197932819Y-78310808D01*
X197932819Y-78310808D02*
X197885200Y-78406046D01*
X197885200Y-78406046D02*
X197837580Y-78453665D01*
X197361390Y-77263189D02*
X197313771Y-77358427D01*
X197313771Y-77358427D02*
X197266152Y-77406046D01*
X197266152Y-77406046D02*
X197170914Y-77453665D01*
X197170914Y-77453665D02*
X197123295Y-77453665D01*
X197123295Y-77453665D02*
X197028057Y-77406046D01*
X197028057Y-77406046D02*
X196980438Y-77358427D01*
X196980438Y-77358427D02*
X196932819Y-77263189D01*
X196932819Y-77263189D02*
X196932819Y-77072713D01*
X196932819Y-77072713D02*
X196980438Y-76977475D01*
X196980438Y-76977475D02*
X197028057Y-76929856D01*
X197028057Y-76929856D02*
X197123295Y-76882237D01*
X197123295Y-76882237D02*
X197170914Y-76882237D01*
X197170914Y-76882237D02*
X197266152Y-76929856D01*
X197266152Y-76929856D02*
X197313771Y-76977475D01*
X197313771Y-76977475D02*
X197361390Y-77072713D01*
X197361390Y-77072713D02*
X197361390Y-77263189D01*
X197361390Y-77263189D02*
X197409009Y-77358427D01*
X197409009Y-77358427D02*
X197456628Y-77406046D01*
X197456628Y-77406046D02*
X197551866Y-77453665D01*
X197551866Y-77453665D02*
X197742342Y-77453665D01*
X197742342Y-77453665D02*
X197837580Y-77406046D01*
X197837580Y-77406046D02*
X197885200Y-77358427D01*
X197885200Y-77358427D02*
X197932819Y-77263189D01*
X197932819Y-77263189D02*
X197932819Y-77072713D01*
X197932819Y-77072713D02*
X197885200Y-76977475D01*
X197885200Y-76977475D02*
X197837580Y-76929856D01*
X197837580Y-76929856D02*
X197742342Y-76882237D01*
X197742342Y-76882237D02*
X197551866Y-76882237D01*
X197551866Y-76882237D02*
X197456628Y-76929856D01*
X197456628Y-76929856D02*
X197409009Y-76977475D01*
X197409009Y-76977475D02*
X197361390Y-77072713D01*
X197837580Y-76453665D02*
X197885200Y-76406046D01*
X197885200Y-76406046D02*
X197932819Y-76453665D01*
X197932819Y-76453665D02*
X197885200Y-76501284D01*
X197885200Y-76501284D02*
X197837580Y-76453665D01*
X197837580Y-76453665D02*
X197932819Y-76453665D01*
X196932819Y-76072713D02*
X196932819Y-75453666D01*
X196932819Y-75453666D02*
X197313771Y-75786999D01*
X197313771Y-75786999D02*
X197313771Y-75644142D01*
X197313771Y-75644142D02*
X197361390Y-75548904D01*
X197361390Y-75548904D02*
X197409009Y-75501285D01*
X197409009Y-75501285D02*
X197504247Y-75453666D01*
X197504247Y-75453666D02*
X197742342Y-75453666D01*
X197742342Y-75453666D02*
X197837580Y-75501285D01*
X197837580Y-75501285D02*
X197885200Y-75548904D01*
X197885200Y-75548904D02*
X197932819Y-75644142D01*
X197932819Y-75644142D02*
X197932819Y-75929856D01*
X197932819Y-75929856D02*
X197885200Y-76025094D01*
X197885200Y-76025094D02*
X197837580Y-76072713D01*
X196932819Y-74548904D02*
X196932819Y-75025094D01*
X196932819Y-75025094D02*
X197409009Y-75072713D01*
X197409009Y-75072713D02*
X197361390Y-75025094D01*
X197361390Y-75025094D02*
X197313771Y-74929856D01*
X197313771Y-74929856D02*
X197313771Y-74691761D01*
X197313771Y-74691761D02*
X197361390Y-74596523D01*
X197361390Y-74596523D02*
X197409009Y-74548904D01*
X197409009Y-74548904D02*
X197504247Y-74501285D01*
X197504247Y-74501285D02*
X197742342Y-74501285D01*
X197742342Y-74501285D02*
X197837580Y-74548904D01*
X197837580Y-74548904D02*
X197885200Y-74596523D01*
X197885200Y-74596523D02*
X197932819Y-74691761D01*
X197932819Y-74691761D02*
X197932819Y-74929856D01*
X197932819Y-74929856D02*
X197885200Y-75025094D01*
X197885200Y-75025094D02*
X197837580Y-75072713D01*
X197266152Y-73644142D02*
X197932819Y-73644142D01*
X196885200Y-73882237D02*
X197599485Y-74120332D01*
X197599485Y-74120332D02*
X197599485Y-73501285D01*
X196932819Y-72929856D02*
X196932819Y-72834618D01*
X196932819Y-72834618D02*
X196980438Y-72739380D01*
X196980438Y-72739380D02*
X197028057Y-72691761D01*
X197028057Y-72691761D02*
X197123295Y-72644142D01*
X197123295Y-72644142D02*
X197313771Y-72596523D01*
X197313771Y-72596523D02*
X197551866Y-72596523D01*
X197551866Y-72596523D02*
X197742342Y-72644142D01*
X197742342Y-72644142D02*
X197837580Y-72691761D01*
X197837580Y-72691761D02*
X197885200Y-72739380D01*
X197885200Y-72739380D02*
X197932819Y-72834618D01*
X197932819Y-72834618D02*
X197932819Y-72929856D01*
X197932819Y-72929856D02*
X197885200Y-73025094D01*
X197885200Y-73025094D02*
X197837580Y-73072713D01*
X197837580Y-73072713D02*
X197742342Y-73120332D01*
X197742342Y-73120332D02*
X197551866Y-73167951D01*
X197551866Y-73167951D02*
X197313771Y-73167951D01*
X197313771Y-73167951D02*
X197123295Y-73120332D01*
X197123295Y-73120332D02*
X197028057Y-73072713D01*
X197028057Y-73072713D02*
X196980438Y-73025094D01*
X196980438Y-73025094D02*
X196932819Y-72929856D01*
X197932819Y-71406046D02*
X197266152Y-71406046D01*
X197361390Y-71406046D02*
X197313771Y-71358427D01*
X197313771Y-71358427D02*
X197266152Y-71263189D01*
X197266152Y-71263189D02*
X197266152Y-71120332D01*
X197266152Y-71120332D02*
X197313771Y-71025094D01*
X197313771Y-71025094D02*
X197409009Y-70977475D01*
X197409009Y-70977475D02*
X197932819Y-70977475D01*
X197409009Y-70977475D02*
X197313771Y-70929856D01*
X197313771Y-70929856D02*
X197266152Y-70834618D01*
X197266152Y-70834618D02*
X197266152Y-70691761D01*
X197266152Y-70691761D02*
X197313771Y-70596522D01*
X197313771Y-70596522D02*
X197409009Y-70548903D01*
X197409009Y-70548903D02*
X197932819Y-70548903D01*
X197932819Y-70072713D02*
X197266152Y-70072713D01*
X197361390Y-70072713D02*
X197313771Y-70025094D01*
X197313771Y-70025094D02*
X197266152Y-69929856D01*
X197266152Y-69929856D02*
X197266152Y-69786999D01*
X197266152Y-69786999D02*
X197313771Y-69691761D01*
X197313771Y-69691761D02*
X197409009Y-69644142D01*
X197409009Y-69644142D02*
X197932819Y-69644142D01*
X197409009Y-69644142D02*
X197313771Y-69596523D01*
X197313771Y-69596523D02*
X197266152Y-69501285D01*
X197266152Y-69501285D02*
X197266152Y-69358428D01*
X197266152Y-69358428D02*
X197313771Y-69263189D01*
X197313771Y-69263189D02*
X197409009Y-69215570D01*
X197409009Y-69215570D02*
X197932819Y-69215570D01*
X195064000Y-54610000D02*
X199214420Y-54610000D01*
X195064000Y-92964000D02*
X199214420Y-92964000D01*
X198628000Y-54610000D02*
X198628000Y-92964000D01*
X198628000Y-54610000D02*
X198628000Y-92964000D01*
X198628000Y-54610000D02*
X199214421Y-55736504D01*
X198628000Y-54610000D02*
X198041579Y-55736504D01*
X198628000Y-92964000D02*
X198041579Y-91837496D01*
X198628000Y-92964000D02*
X199214421Y-91837496D01*
X144796429Y-95507390D02*
X144701191Y-95459771D01*
X144701191Y-95459771D02*
X144653572Y-95412152D01*
X144653572Y-95412152D02*
X144605953Y-95316914D01*
X144605953Y-95316914D02*
X144605953Y-95269295D01*
X144605953Y-95269295D02*
X144653572Y-95174057D01*
X144653572Y-95174057D02*
X144701191Y-95126438D01*
X144701191Y-95126438D02*
X144796429Y-95078819D01*
X144796429Y-95078819D02*
X144986905Y-95078819D01*
X144986905Y-95078819D02*
X145082143Y-95126438D01*
X145082143Y-95126438D02*
X145129762Y-95174057D01*
X145129762Y-95174057D02*
X145177381Y-95269295D01*
X145177381Y-95269295D02*
X145177381Y-95316914D01*
X145177381Y-95316914D02*
X145129762Y-95412152D01*
X145129762Y-95412152D02*
X145082143Y-95459771D01*
X145082143Y-95459771D02*
X144986905Y-95507390D01*
X144986905Y-95507390D02*
X144796429Y-95507390D01*
X144796429Y-95507390D02*
X144701191Y-95555009D01*
X144701191Y-95555009D02*
X144653572Y-95602628D01*
X144653572Y-95602628D02*
X144605953Y-95697866D01*
X144605953Y-95697866D02*
X144605953Y-95888342D01*
X144605953Y-95888342D02*
X144653572Y-95983580D01*
X144653572Y-95983580D02*
X144701191Y-96031200D01*
X144701191Y-96031200D02*
X144796429Y-96078819D01*
X144796429Y-96078819D02*
X144986905Y-96078819D01*
X144986905Y-96078819D02*
X145082143Y-96031200D01*
X145082143Y-96031200D02*
X145129762Y-95983580D01*
X145129762Y-95983580D02*
X145177381Y-95888342D01*
X145177381Y-95888342D02*
X145177381Y-95697866D01*
X145177381Y-95697866D02*
X145129762Y-95602628D01*
X145129762Y-95602628D02*
X145082143Y-95555009D01*
X145082143Y-95555009D02*
X144986905Y-95507390D01*
X145558334Y-95174057D02*
X145605953Y-95126438D01*
X145605953Y-95126438D02*
X145701191Y-95078819D01*
X145701191Y-95078819D02*
X145939286Y-95078819D01*
X145939286Y-95078819D02*
X146034524Y-95126438D01*
X146034524Y-95126438D02*
X146082143Y-95174057D01*
X146082143Y-95174057D02*
X146129762Y-95269295D01*
X146129762Y-95269295D02*
X146129762Y-95364533D01*
X146129762Y-95364533D02*
X146082143Y-95507390D01*
X146082143Y-95507390D02*
X145510715Y-96078819D01*
X145510715Y-96078819D02*
X146129762Y-96078819D01*
X146558334Y-95983580D02*
X146605953Y-96031200D01*
X146605953Y-96031200D02*
X146558334Y-96078819D01*
X146558334Y-96078819D02*
X146510715Y-96031200D01*
X146510715Y-96031200D02*
X146558334Y-95983580D01*
X146558334Y-95983580D02*
X146558334Y-96078819D01*
X147510714Y-95078819D02*
X147034524Y-95078819D01*
X147034524Y-95078819D02*
X146986905Y-95555009D01*
X146986905Y-95555009D02*
X147034524Y-95507390D01*
X147034524Y-95507390D02*
X147129762Y-95459771D01*
X147129762Y-95459771D02*
X147367857Y-95459771D01*
X147367857Y-95459771D02*
X147463095Y-95507390D01*
X147463095Y-95507390D02*
X147510714Y-95555009D01*
X147510714Y-95555009D02*
X147558333Y-95650247D01*
X147558333Y-95650247D02*
X147558333Y-95888342D01*
X147558333Y-95888342D02*
X147510714Y-95983580D01*
X147510714Y-95983580D02*
X147463095Y-96031200D01*
X147463095Y-96031200D02*
X147367857Y-96078819D01*
X147367857Y-96078819D02*
X147129762Y-96078819D01*
X147129762Y-96078819D02*
X147034524Y-96031200D01*
X147034524Y-96031200D02*
X146986905Y-95983580D01*
X148463095Y-95078819D02*
X147986905Y-95078819D01*
X147986905Y-95078819D02*
X147939286Y-95555009D01*
X147939286Y-95555009D02*
X147986905Y-95507390D01*
X147986905Y-95507390D02*
X148082143Y-95459771D01*
X148082143Y-95459771D02*
X148320238Y-95459771D01*
X148320238Y-95459771D02*
X148415476Y-95507390D01*
X148415476Y-95507390D02*
X148463095Y-95555009D01*
X148463095Y-95555009D02*
X148510714Y-95650247D01*
X148510714Y-95650247D02*
X148510714Y-95888342D01*
X148510714Y-95888342D02*
X148463095Y-95983580D01*
X148463095Y-95983580D02*
X148415476Y-96031200D01*
X148415476Y-96031200D02*
X148320238Y-96078819D01*
X148320238Y-96078819D02*
X148082143Y-96078819D01*
X148082143Y-96078819D02*
X147986905Y-96031200D01*
X147986905Y-96031200D02*
X147939286Y-95983580D01*
X149129762Y-95078819D02*
X149225000Y-95078819D01*
X149225000Y-95078819D02*
X149320238Y-95126438D01*
X149320238Y-95126438D02*
X149367857Y-95174057D01*
X149367857Y-95174057D02*
X149415476Y-95269295D01*
X149415476Y-95269295D02*
X149463095Y-95459771D01*
X149463095Y-95459771D02*
X149463095Y-95697866D01*
X149463095Y-95697866D02*
X149415476Y-95888342D01*
X149415476Y-95888342D02*
X149367857Y-95983580D01*
X149367857Y-95983580D02*
X149320238Y-96031200D01*
X149320238Y-96031200D02*
X149225000Y-96078819D01*
X149225000Y-96078819D02*
X149129762Y-96078819D01*
X149129762Y-96078819D02*
X149034524Y-96031200D01*
X149034524Y-96031200D02*
X148986905Y-95983580D01*
X148986905Y-95983580D02*
X148939286Y-95888342D01*
X148939286Y-95888342D02*
X148891667Y-95697866D01*
X148891667Y-95697866D02*
X148891667Y-95459771D01*
X148891667Y-95459771D02*
X148939286Y-95269295D01*
X148939286Y-95269295D02*
X148986905Y-95174057D01*
X148986905Y-95174057D02*
X149034524Y-95126438D01*
X149034524Y-95126438D02*
X149129762Y-95078819D01*
X150082143Y-95078819D02*
X150177381Y-95078819D01*
X150177381Y-95078819D02*
X150272619Y-95126438D01*
X150272619Y-95126438D02*
X150320238Y-95174057D01*
X150320238Y-95174057D02*
X150367857Y-95269295D01*
X150367857Y-95269295D02*
X150415476Y-95459771D01*
X150415476Y-95459771D02*
X150415476Y-95697866D01*
X150415476Y-95697866D02*
X150367857Y-95888342D01*
X150367857Y-95888342D02*
X150320238Y-95983580D01*
X150320238Y-95983580D02*
X150272619Y-96031200D01*
X150272619Y-96031200D02*
X150177381Y-96078819D01*
X150177381Y-96078819D02*
X150082143Y-96078819D01*
X150082143Y-96078819D02*
X149986905Y-96031200D01*
X149986905Y-96031200D02*
X149939286Y-95983580D01*
X149939286Y-95983580D02*
X149891667Y-95888342D01*
X149891667Y-95888342D02*
X149844048Y-95697866D01*
X149844048Y-95697866D02*
X149844048Y-95459771D01*
X149844048Y-95459771D02*
X149891667Y-95269295D01*
X149891667Y-95269295D02*
X149939286Y-95174057D01*
X149939286Y-95174057D02*
X149986905Y-95126438D01*
X149986905Y-95126438D02*
X150082143Y-95078819D01*
X151605953Y-96078819D02*
X151605953Y-95412152D01*
X151605953Y-95507390D02*
X151653572Y-95459771D01*
X151653572Y-95459771D02*
X151748810Y-95412152D01*
X151748810Y-95412152D02*
X151891667Y-95412152D01*
X151891667Y-95412152D02*
X151986905Y-95459771D01*
X151986905Y-95459771D02*
X152034524Y-95555009D01*
X152034524Y-95555009D02*
X152034524Y-96078819D01*
X152034524Y-95555009D02*
X152082143Y-95459771D01*
X152082143Y-95459771D02*
X152177381Y-95412152D01*
X152177381Y-95412152D02*
X152320238Y-95412152D01*
X152320238Y-95412152D02*
X152415477Y-95459771D01*
X152415477Y-95459771D02*
X152463096Y-95555009D01*
X152463096Y-95555009D02*
X152463096Y-96078819D01*
X152939286Y-96078819D02*
X152939286Y-95412152D01*
X152939286Y-95507390D02*
X152986905Y-95459771D01*
X152986905Y-95459771D02*
X153082143Y-95412152D01*
X153082143Y-95412152D02*
X153225000Y-95412152D01*
X153225000Y-95412152D02*
X153320238Y-95459771D01*
X153320238Y-95459771D02*
X153367857Y-95555009D01*
X153367857Y-95555009D02*
X153367857Y-96078819D01*
X153367857Y-95555009D02*
X153415476Y-95459771D01*
X153415476Y-95459771D02*
X153510714Y-95412152D01*
X153510714Y-95412152D02*
X153653571Y-95412152D01*
X153653571Y-95412152D02*
X153748810Y-95459771D01*
X153748810Y-95459771D02*
X153796429Y-95555009D01*
X153796429Y-95555009D02*
X153796429Y-96078819D01*
X107950000Y-89550000D02*
X107950000Y-97360420D01*
X190500000Y-89550000D02*
X190500000Y-97360420D01*
X107950000Y-96774000D02*
X190500000Y-96774000D01*
X107950000Y-96774000D02*
X190500000Y-96774000D01*
X107950000Y-96774000D02*
X109076504Y-96187579D01*
X107950000Y-96774000D02*
X109076504Y-97360421D01*
X190500000Y-96774000D02*
X189373496Y-97360421D01*
X190500000Y-96774000D02*
X189373496Y-96187579D01*
X99142819Y-78654165D02*
X99142819Y-78035118D01*
X99142819Y-78035118D02*
X99523771Y-78368451D01*
X99523771Y-78368451D02*
X99523771Y-78225594D01*
X99523771Y-78225594D02*
X99571390Y-78130356D01*
X99571390Y-78130356D02*
X99619009Y-78082737D01*
X99619009Y-78082737D02*
X99714247Y-78035118D01*
X99714247Y-78035118D02*
X99952342Y-78035118D01*
X99952342Y-78035118D02*
X100047580Y-78082737D01*
X100047580Y-78082737D02*
X100095200Y-78130356D01*
X100095200Y-78130356D02*
X100142819Y-78225594D01*
X100142819Y-78225594D02*
X100142819Y-78511308D01*
X100142819Y-78511308D02*
X100095200Y-78606546D01*
X100095200Y-78606546D02*
X100047580Y-78654165D01*
X99142819Y-77416070D02*
X99142819Y-77320832D01*
X99142819Y-77320832D02*
X99190438Y-77225594D01*
X99190438Y-77225594D02*
X99238057Y-77177975D01*
X99238057Y-77177975D02*
X99333295Y-77130356D01*
X99333295Y-77130356D02*
X99523771Y-77082737D01*
X99523771Y-77082737D02*
X99761866Y-77082737D01*
X99761866Y-77082737D02*
X99952342Y-77130356D01*
X99952342Y-77130356D02*
X100047580Y-77177975D01*
X100047580Y-77177975D02*
X100095200Y-77225594D01*
X100095200Y-77225594D02*
X100142819Y-77320832D01*
X100142819Y-77320832D02*
X100142819Y-77416070D01*
X100142819Y-77416070D02*
X100095200Y-77511308D01*
X100095200Y-77511308D02*
X100047580Y-77558927D01*
X100047580Y-77558927D02*
X99952342Y-77606546D01*
X99952342Y-77606546D02*
X99761866Y-77654165D01*
X99761866Y-77654165D02*
X99523771Y-77654165D01*
X99523771Y-77654165D02*
X99333295Y-77606546D01*
X99333295Y-77606546D02*
X99238057Y-77558927D01*
X99238057Y-77558927D02*
X99190438Y-77511308D01*
X99190438Y-77511308D02*
X99142819Y-77416070D01*
X100047580Y-76654165D02*
X100095200Y-76606546D01*
X100095200Y-76606546D02*
X100142819Y-76654165D01*
X100142819Y-76654165D02*
X100095200Y-76701784D01*
X100095200Y-76701784D02*
X100047580Y-76654165D01*
X100047580Y-76654165D02*
X100142819Y-76654165D01*
X100142819Y-75654166D02*
X100142819Y-76225594D01*
X100142819Y-75939880D02*
X99142819Y-75939880D01*
X99142819Y-75939880D02*
X99285676Y-76035118D01*
X99285676Y-76035118D02*
X99380914Y-76130356D01*
X99380914Y-76130356D02*
X99428533Y-76225594D01*
X99238057Y-75273213D02*
X99190438Y-75225594D01*
X99190438Y-75225594D02*
X99142819Y-75130356D01*
X99142819Y-75130356D02*
X99142819Y-74892261D01*
X99142819Y-74892261D02*
X99190438Y-74797023D01*
X99190438Y-74797023D02*
X99238057Y-74749404D01*
X99238057Y-74749404D02*
X99333295Y-74701785D01*
X99333295Y-74701785D02*
X99428533Y-74701785D01*
X99428533Y-74701785D02*
X99571390Y-74749404D01*
X99571390Y-74749404D02*
X100142819Y-75320832D01*
X100142819Y-75320832D02*
X100142819Y-74701785D01*
X99142819Y-73797023D02*
X99142819Y-74273213D01*
X99142819Y-74273213D02*
X99619009Y-74320832D01*
X99619009Y-74320832D02*
X99571390Y-74273213D01*
X99571390Y-74273213D02*
X99523771Y-74177975D01*
X99523771Y-74177975D02*
X99523771Y-73939880D01*
X99523771Y-73939880D02*
X99571390Y-73844642D01*
X99571390Y-73844642D02*
X99619009Y-73797023D01*
X99619009Y-73797023D02*
X99714247Y-73749404D01*
X99714247Y-73749404D02*
X99952342Y-73749404D01*
X99952342Y-73749404D02*
X100047580Y-73797023D01*
X100047580Y-73797023D02*
X100095200Y-73844642D01*
X100095200Y-73844642D02*
X100142819Y-73939880D01*
X100142819Y-73939880D02*
X100142819Y-74177975D01*
X100142819Y-74177975D02*
X100095200Y-74273213D01*
X100095200Y-74273213D02*
X100047580Y-74320832D01*
X99142819Y-73130356D02*
X99142819Y-73035118D01*
X99142819Y-73035118D02*
X99190438Y-72939880D01*
X99190438Y-72939880D02*
X99238057Y-72892261D01*
X99238057Y-72892261D02*
X99333295Y-72844642D01*
X99333295Y-72844642D02*
X99523771Y-72797023D01*
X99523771Y-72797023D02*
X99761866Y-72797023D01*
X99761866Y-72797023D02*
X99952342Y-72844642D01*
X99952342Y-72844642D02*
X100047580Y-72892261D01*
X100047580Y-72892261D02*
X100095200Y-72939880D01*
X100095200Y-72939880D02*
X100142819Y-73035118D01*
X100142819Y-73035118D02*
X100142819Y-73130356D01*
X100142819Y-73130356D02*
X100095200Y-73225594D01*
X100095200Y-73225594D02*
X100047580Y-73273213D01*
X100047580Y-73273213D02*
X99952342Y-73320832D01*
X99952342Y-73320832D02*
X99761866Y-73368451D01*
X99761866Y-73368451D02*
X99523771Y-73368451D01*
X99523771Y-73368451D02*
X99333295Y-73320832D01*
X99333295Y-73320832D02*
X99238057Y-73273213D01*
X99238057Y-73273213D02*
X99190438Y-73225594D01*
X99190438Y-73225594D02*
X99142819Y-73130356D01*
X100142819Y-71606546D02*
X99476152Y-71606546D01*
X99571390Y-71606546D02*
X99523771Y-71558927D01*
X99523771Y-71558927D02*
X99476152Y-71463689D01*
X99476152Y-71463689D02*
X99476152Y-71320832D01*
X99476152Y-71320832D02*
X99523771Y-71225594D01*
X99523771Y-71225594D02*
X99619009Y-71177975D01*
X99619009Y-71177975D02*
X100142819Y-71177975D01*
X99619009Y-71177975D02*
X99523771Y-71130356D01*
X99523771Y-71130356D02*
X99476152Y-71035118D01*
X99476152Y-71035118D02*
X99476152Y-70892261D01*
X99476152Y-70892261D02*
X99523771Y-70797022D01*
X99523771Y-70797022D02*
X99619009Y-70749403D01*
X99619009Y-70749403D02*
X100142819Y-70749403D01*
X100142819Y-70273213D02*
X99476152Y-70273213D01*
X99571390Y-70273213D02*
X99523771Y-70225594D01*
X99523771Y-70225594D02*
X99476152Y-70130356D01*
X99476152Y-70130356D02*
X99476152Y-69987499D01*
X99476152Y-69987499D02*
X99523771Y-69892261D01*
X99523771Y-69892261D02*
X99619009Y-69844642D01*
X99619009Y-69844642D02*
X100142819Y-69844642D01*
X99619009Y-69844642D02*
X99523771Y-69797023D01*
X99523771Y-69797023D02*
X99476152Y-69701785D01*
X99476152Y-69701785D02*
X99476152Y-69558928D01*
X99476152Y-69558928D02*
X99523771Y-69463689D01*
X99523771Y-69463689D02*
X99619009Y-69416070D01*
X99619009Y-69416070D02*
X100142819Y-69416070D01*
X107450000Y-58925000D02*
X100251580Y-58925000D01*
X107450000Y-89050000D02*
X100251580Y-89050000D01*
X100838000Y-58925000D02*
X100838000Y-89050000D01*
X100838000Y-58925000D02*
X100838000Y-89050000D01*
X100838000Y-58925000D02*
X101424421Y-60051504D01*
X100838000Y-58925000D02*
X100251579Y-60051504D01*
X100838000Y-89050000D02*
X100251579Y-87923496D01*
X100838000Y-89050000D02*
X101424421Y-87923496D01*
X144574191Y-51628819D02*
X144764667Y-51628819D01*
X144764667Y-51628819D02*
X144859905Y-51581200D01*
X144859905Y-51581200D02*
X144907524Y-51533580D01*
X144907524Y-51533580D02*
X145002762Y-51390723D01*
X145002762Y-51390723D02*
X145050381Y-51200247D01*
X145050381Y-51200247D02*
X145050381Y-50819295D01*
X145050381Y-50819295D02*
X145002762Y-50724057D01*
X145002762Y-50724057D02*
X144955143Y-50676438D01*
X144955143Y-50676438D02*
X144859905Y-50628819D01*
X144859905Y-50628819D02*
X144669429Y-50628819D01*
X144669429Y-50628819D02*
X144574191Y-50676438D01*
X144574191Y-50676438D02*
X144526572Y-50724057D01*
X144526572Y-50724057D02*
X144478953Y-50819295D01*
X144478953Y-50819295D02*
X144478953Y-51057390D01*
X144478953Y-51057390D02*
X144526572Y-51152628D01*
X144526572Y-51152628D02*
X144574191Y-51200247D01*
X144574191Y-51200247D02*
X144669429Y-51247866D01*
X144669429Y-51247866D02*
X144859905Y-51247866D01*
X144859905Y-51247866D02*
X144955143Y-51200247D01*
X144955143Y-51200247D02*
X145002762Y-51152628D01*
X145002762Y-51152628D02*
X145050381Y-51057390D01*
X145669429Y-50628819D02*
X145764667Y-50628819D01*
X145764667Y-50628819D02*
X145859905Y-50676438D01*
X145859905Y-50676438D02*
X145907524Y-50724057D01*
X145907524Y-50724057D02*
X145955143Y-50819295D01*
X145955143Y-50819295D02*
X146002762Y-51009771D01*
X146002762Y-51009771D02*
X146002762Y-51247866D01*
X146002762Y-51247866D02*
X145955143Y-51438342D01*
X145955143Y-51438342D02*
X145907524Y-51533580D01*
X145907524Y-51533580D02*
X145859905Y-51581200D01*
X145859905Y-51581200D02*
X145764667Y-51628819D01*
X145764667Y-51628819D02*
X145669429Y-51628819D01*
X145669429Y-51628819D02*
X145574191Y-51581200D01*
X145574191Y-51581200D02*
X145526572Y-51533580D01*
X145526572Y-51533580D02*
X145478953Y-51438342D01*
X145478953Y-51438342D02*
X145431334Y-51247866D01*
X145431334Y-51247866D02*
X145431334Y-51009771D01*
X145431334Y-51009771D02*
X145478953Y-50819295D01*
X145478953Y-50819295D02*
X145526572Y-50724057D01*
X145526572Y-50724057D02*
X145574191Y-50676438D01*
X145574191Y-50676438D02*
X145669429Y-50628819D01*
X146431334Y-51533580D02*
X146478953Y-51581200D01*
X146478953Y-51581200D02*
X146431334Y-51628819D01*
X146431334Y-51628819D02*
X146383715Y-51581200D01*
X146383715Y-51581200D02*
X146431334Y-51533580D01*
X146431334Y-51533580D02*
X146431334Y-51628819D01*
X146955143Y-51628819D02*
X147145619Y-51628819D01*
X147145619Y-51628819D02*
X147240857Y-51581200D01*
X147240857Y-51581200D02*
X147288476Y-51533580D01*
X147288476Y-51533580D02*
X147383714Y-51390723D01*
X147383714Y-51390723D02*
X147431333Y-51200247D01*
X147431333Y-51200247D02*
X147431333Y-50819295D01*
X147431333Y-50819295D02*
X147383714Y-50724057D01*
X147383714Y-50724057D02*
X147336095Y-50676438D01*
X147336095Y-50676438D02*
X147240857Y-50628819D01*
X147240857Y-50628819D02*
X147050381Y-50628819D01*
X147050381Y-50628819D02*
X146955143Y-50676438D01*
X146955143Y-50676438D02*
X146907524Y-50724057D01*
X146907524Y-50724057D02*
X146859905Y-50819295D01*
X146859905Y-50819295D02*
X146859905Y-51057390D01*
X146859905Y-51057390D02*
X146907524Y-51152628D01*
X146907524Y-51152628D02*
X146955143Y-51200247D01*
X146955143Y-51200247D02*
X147050381Y-51247866D01*
X147050381Y-51247866D02*
X147240857Y-51247866D01*
X147240857Y-51247866D02*
X147336095Y-51200247D01*
X147336095Y-51200247D02*
X147383714Y-51152628D01*
X147383714Y-51152628D02*
X147431333Y-51057390D01*
X147764667Y-50628819D02*
X148383714Y-50628819D01*
X148383714Y-50628819D02*
X148050381Y-51009771D01*
X148050381Y-51009771D02*
X148193238Y-51009771D01*
X148193238Y-51009771D02*
X148288476Y-51057390D01*
X148288476Y-51057390D02*
X148336095Y-51105009D01*
X148336095Y-51105009D02*
X148383714Y-51200247D01*
X148383714Y-51200247D02*
X148383714Y-51438342D01*
X148383714Y-51438342D02*
X148336095Y-51533580D01*
X148336095Y-51533580D02*
X148288476Y-51581200D01*
X148288476Y-51581200D02*
X148193238Y-51628819D01*
X148193238Y-51628819D02*
X147907524Y-51628819D01*
X147907524Y-51628819D02*
X147812286Y-51581200D01*
X147812286Y-51581200D02*
X147764667Y-51533580D01*
X148764667Y-50724057D02*
X148812286Y-50676438D01*
X148812286Y-50676438D02*
X148907524Y-50628819D01*
X148907524Y-50628819D02*
X149145619Y-50628819D01*
X149145619Y-50628819D02*
X149240857Y-50676438D01*
X149240857Y-50676438D02*
X149288476Y-50724057D01*
X149288476Y-50724057D02*
X149336095Y-50819295D01*
X149336095Y-50819295D02*
X149336095Y-50914533D01*
X149336095Y-50914533D02*
X149288476Y-51057390D01*
X149288476Y-51057390D02*
X148717048Y-51628819D01*
X148717048Y-51628819D02*
X149336095Y-51628819D01*
X149955143Y-50628819D02*
X150050381Y-50628819D01*
X150050381Y-50628819D02*
X150145619Y-50676438D01*
X150145619Y-50676438D02*
X150193238Y-50724057D01*
X150193238Y-50724057D02*
X150240857Y-50819295D01*
X150240857Y-50819295D02*
X150288476Y-51009771D01*
X150288476Y-51009771D02*
X150288476Y-51247866D01*
X150288476Y-51247866D02*
X150240857Y-51438342D01*
X150240857Y-51438342D02*
X150193238Y-51533580D01*
X150193238Y-51533580D02*
X150145619Y-51581200D01*
X150145619Y-51581200D02*
X150050381Y-51628819D01*
X150050381Y-51628819D02*
X149955143Y-51628819D01*
X149955143Y-51628819D02*
X149859905Y-51581200D01*
X149859905Y-51581200D02*
X149812286Y-51533580D01*
X149812286Y-51533580D02*
X149764667Y-51438342D01*
X149764667Y-51438342D02*
X149717048Y-51247866D01*
X149717048Y-51247866D02*
X149717048Y-51009771D01*
X149717048Y-51009771D02*
X149764667Y-50819295D01*
X149764667Y-50819295D02*
X149812286Y-50724057D01*
X149812286Y-50724057D02*
X149859905Y-50676438D01*
X149859905Y-50676438D02*
X149955143Y-50628819D01*
X151478953Y-51628819D02*
X151478953Y-50962152D01*
X151478953Y-51057390D02*
X151526572Y-51009771D01*
X151526572Y-51009771D02*
X151621810Y-50962152D01*
X151621810Y-50962152D02*
X151764667Y-50962152D01*
X151764667Y-50962152D02*
X151859905Y-51009771D01*
X151859905Y-51009771D02*
X151907524Y-51105009D01*
X151907524Y-51105009D02*
X151907524Y-51628819D01*
X151907524Y-51105009D02*
X151955143Y-51009771D01*
X151955143Y-51009771D02*
X152050381Y-50962152D01*
X152050381Y-50962152D02*
X152193238Y-50962152D01*
X152193238Y-50962152D02*
X152288477Y-51009771D01*
X152288477Y-51009771D02*
X152336096Y-51105009D01*
X152336096Y-51105009D02*
X152336096Y-51628819D01*
X152812286Y-51628819D02*
X152812286Y-50962152D01*
X152812286Y-51057390D02*
X152859905Y-51009771D01*
X152859905Y-51009771D02*
X152955143Y-50962152D01*
X152955143Y-50962152D02*
X153098000Y-50962152D01*
X153098000Y-50962152D02*
X153193238Y-51009771D01*
X153193238Y-51009771D02*
X153240857Y-51105009D01*
X153240857Y-51105009D02*
X153240857Y-51628819D01*
X153240857Y-51105009D02*
X153288476Y-51009771D01*
X153288476Y-51009771D02*
X153383714Y-50962152D01*
X153383714Y-50962152D02*
X153526571Y-50962152D01*
X153526571Y-50962152D02*
X153621810Y-51009771D01*
X153621810Y-51009771D02*
X153669429Y-51105009D01*
X153669429Y-51105009D02*
X153669429Y-51628819D01*
X194564000Y-54110000D02*
X194564000Y-51737580D01*
X103632000Y-54110000D02*
X103632000Y-51737580D01*
X194564000Y-52324000D02*
X103632000Y-52324000D01*
X194564000Y-52324000D02*
X103632000Y-52324000D01*
X194564000Y-52324000D02*
X193437496Y-52910421D01*
X194564000Y-52324000D02*
X193437496Y-51737579D01*
X103632000Y-52324000D02*
X104758504Y-51737579D01*
X103632000Y-52324000D02*
X104758504Y-52910421D01*
%TO.C,H3*%
X111450000Y-89050000D02*
G75*
G03*
X111450000Y-89050000I-3500000J0D01*
G01*
%TO.C,H2*%
X194000000Y-89050000D02*
G75*
G03*
X194000000Y-89050000I-3500000J0D01*
G01*
%TO.C,H1*%
X194000000Y-58925000D02*
G75*
G03*
X194000000Y-58925000I-3500000J0D01*
G01*
%TO.C,H4*%
X111450000Y-58925000D02*
G75*
G03*
X111450000Y-58925000I-3500000J0D01*
G01*
%TD*%
M02*
