%TF.GenerationSoftware,KiCad,Pcbnew,7.0.5*%
%TF.CreationDate,2023-07-07T02:12:31+07:00*%
%TF.ProjectId,snaaur_v1,736e6161-7572-45f7-9631-2e6b69636164,rev?*%
%TF.SameCoordinates,Original*%
%TF.FileFunction,Legend,Top*%
%TF.FilePolarity,Positive*%
%FSLAX46Y46*%
G04 Gerber Fmt 4.6, Leading zero omitted, Abs format (unit mm)*
G04 Created by KiCad (PCBNEW 7.0.5) date 2023-07-07 02:12:31*
%MOMM*%
%LPD*%
G01*
G04 APERTURE LIST*
%ADD10C,0.150000*%
%ADD11C,0.300000*%
%ADD12C,0.120000*%
%ADD13C,0.127000*%
%ADD14C,0.200000*%
G04 APERTURE END LIST*
D10*
X114890779Y-91944866D02*
X115652684Y-91944866D01*
X115271731Y-92325819D02*
X115271731Y-91563914D01*
X116128874Y-92325819D02*
X116128874Y-91325819D01*
X116128874Y-91325819D02*
X116462207Y-92040104D01*
X116462207Y-92040104D02*
X116795540Y-91325819D01*
X116795540Y-91325819D02*
X116795540Y-92325819D01*
X148688588Y-61083819D02*
X148117160Y-61083819D01*
X148402874Y-61083819D02*
X148402874Y-60083819D01*
X148402874Y-60083819D02*
X148307636Y-60226676D01*
X148307636Y-60226676D02*
X148212398Y-60321914D01*
X148212398Y-60321914D02*
X148117160Y-60369533D01*
D11*
X139262320Y-82702400D02*
X139548034Y-82797638D01*
X139548034Y-82797638D02*
X140024225Y-82797638D01*
X140024225Y-82797638D02*
X140214701Y-82702400D01*
X140214701Y-82702400D02*
X140309939Y-82607161D01*
X140309939Y-82607161D02*
X140405177Y-82416685D01*
X140405177Y-82416685D02*
X140405177Y-82226209D01*
X140405177Y-82226209D02*
X140309939Y-82035733D01*
X140309939Y-82035733D02*
X140214701Y-81940495D01*
X140214701Y-81940495D02*
X140024225Y-81845257D01*
X140024225Y-81845257D02*
X139643272Y-81750019D01*
X139643272Y-81750019D02*
X139452796Y-81654780D01*
X139452796Y-81654780D02*
X139357558Y-81559542D01*
X139357558Y-81559542D02*
X139262320Y-81369066D01*
X139262320Y-81369066D02*
X139262320Y-81178590D01*
X139262320Y-81178590D02*
X139357558Y-80988114D01*
X139357558Y-80988114D02*
X139452796Y-80892876D01*
X139452796Y-80892876D02*
X139643272Y-80797638D01*
X139643272Y-80797638D02*
X140119463Y-80797638D01*
X140119463Y-80797638D02*
X140405177Y-80892876D01*
X141262320Y-81464304D02*
X141262320Y-82797638D01*
X141262320Y-81654780D02*
X141357558Y-81559542D01*
X141357558Y-81559542D02*
X141548034Y-81464304D01*
X141548034Y-81464304D02*
X141833749Y-81464304D01*
X141833749Y-81464304D02*
X142024225Y-81559542D01*
X142024225Y-81559542D02*
X142119463Y-81750019D01*
X142119463Y-81750019D02*
X142119463Y-82797638D01*
X143928987Y-82797638D02*
X143928987Y-81750019D01*
X143928987Y-81750019D02*
X143833749Y-81559542D01*
X143833749Y-81559542D02*
X143643273Y-81464304D01*
X143643273Y-81464304D02*
X143262320Y-81464304D01*
X143262320Y-81464304D02*
X143071844Y-81559542D01*
X143928987Y-82702400D02*
X143738511Y-82797638D01*
X143738511Y-82797638D02*
X143262320Y-82797638D01*
X143262320Y-82797638D02*
X143071844Y-82702400D01*
X143071844Y-82702400D02*
X142976606Y-82511923D01*
X142976606Y-82511923D02*
X142976606Y-82321447D01*
X142976606Y-82321447D02*
X143071844Y-82130971D01*
X143071844Y-82130971D02*
X143262320Y-82035733D01*
X143262320Y-82035733D02*
X143738511Y-82035733D01*
X143738511Y-82035733D02*
X143928987Y-81940495D01*
X145738511Y-82797638D02*
X145738511Y-81750019D01*
X145738511Y-81750019D02*
X145643273Y-81559542D01*
X145643273Y-81559542D02*
X145452797Y-81464304D01*
X145452797Y-81464304D02*
X145071844Y-81464304D01*
X145071844Y-81464304D02*
X144881368Y-81559542D01*
X145738511Y-82702400D02*
X145548035Y-82797638D01*
X145548035Y-82797638D02*
X145071844Y-82797638D01*
X145071844Y-82797638D02*
X144881368Y-82702400D01*
X144881368Y-82702400D02*
X144786130Y-82511923D01*
X144786130Y-82511923D02*
X144786130Y-82321447D01*
X144786130Y-82321447D02*
X144881368Y-82130971D01*
X144881368Y-82130971D02*
X145071844Y-82035733D01*
X145071844Y-82035733D02*
X145548035Y-82035733D01*
X145548035Y-82035733D02*
X145738511Y-81940495D01*
X147548035Y-81464304D02*
X147548035Y-82797638D01*
X146690892Y-81464304D02*
X146690892Y-82511923D01*
X146690892Y-82511923D02*
X146786130Y-82702400D01*
X146786130Y-82702400D02*
X146976606Y-82797638D01*
X146976606Y-82797638D02*
X147262321Y-82797638D01*
X147262321Y-82797638D02*
X147452797Y-82702400D01*
X147452797Y-82702400D02*
X147548035Y-82607161D01*
X148500416Y-82797638D02*
X148500416Y-81464304D01*
X148500416Y-81845257D02*
X148595654Y-81654780D01*
X148595654Y-81654780D02*
X148690892Y-81559542D01*
X148690892Y-81559542D02*
X148881368Y-81464304D01*
X148881368Y-81464304D02*
X149071845Y-81464304D01*
D10*
X149834804Y-64222404D02*
X149834804Y-64289748D01*
X149834804Y-64289748D02*
X149767461Y-64424435D01*
X149767461Y-64424435D02*
X149700117Y-64491778D01*
X149700117Y-64491778D02*
X149565430Y-64559122D01*
X149565430Y-64559122D02*
X149430743Y-64559122D01*
X149430743Y-64559122D02*
X149329728Y-64525450D01*
X149329728Y-64525450D02*
X149161369Y-64424435D01*
X149161369Y-64424435D02*
X149060354Y-64323420D01*
X149060354Y-64323420D02*
X148959339Y-64155061D01*
X148959339Y-64155061D02*
X148925667Y-64054046D01*
X148925667Y-64054046D02*
X148925667Y-63919358D01*
X148925667Y-63919358D02*
X148993010Y-63784671D01*
X148993010Y-63784671D02*
X149060354Y-63717328D01*
X149060354Y-63717328D02*
X149195041Y-63649984D01*
X149195041Y-63649984D02*
X149262384Y-63649984D01*
X149834804Y-62942878D02*
X149498087Y-63279595D01*
X149498087Y-63279595D02*
X149801132Y-63649984D01*
X149801132Y-63649984D02*
X149801132Y-63582641D01*
X149801132Y-63582641D02*
X149834804Y-63481626D01*
X149834804Y-63481626D02*
X150003163Y-63313267D01*
X150003163Y-63313267D02*
X150104178Y-63279595D01*
X150104178Y-63279595D02*
X150171522Y-63279595D01*
X150171522Y-63279595D02*
X150272537Y-63313267D01*
X150272537Y-63313267D02*
X150440896Y-63481626D01*
X150440896Y-63481626D02*
X150474567Y-63582641D01*
X150474567Y-63582641D02*
X150474567Y-63649984D01*
X150474567Y-63649984D02*
X150440896Y-63751000D01*
X150440896Y-63751000D02*
X150272537Y-63919358D01*
X150272537Y-63919358D02*
X150171522Y-63953030D01*
X150171522Y-63953030D02*
X150104178Y-63953030D01*
X106930866Y-84632302D02*
X106930866Y-83870398D01*
X107311819Y-84251350D02*
X106549914Y-84251350D01*
X107311819Y-82870398D02*
X107311819Y-83441826D01*
X107311819Y-83156112D02*
X106311819Y-83156112D01*
X106311819Y-83156112D02*
X106454676Y-83251350D01*
X106454676Y-83251350D02*
X106549914Y-83346588D01*
X106549914Y-83346588D02*
X106597533Y-83441826D01*
X106407057Y-82489445D02*
X106359438Y-82441826D01*
X106359438Y-82441826D02*
X106311819Y-82346588D01*
X106311819Y-82346588D02*
X106311819Y-82108493D01*
X106311819Y-82108493D02*
X106359438Y-82013255D01*
X106359438Y-82013255D02*
X106407057Y-81965636D01*
X106407057Y-81965636D02*
X106502295Y-81918017D01*
X106502295Y-81918017D02*
X106597533Y-81918017D01*
X106597533Y-81918017D02*
X106740390Y-81965636D01*
X106740390Y-81965636D02*
X107311819Y-82537064D01*
X107311819Y-82537064D02*
X107311819Y-81918017D01*
X106311819Y-81632302D02*
X107311819Y-81298969D01*
X107311819Y-81298969D02*
X106311819Y-80965636D01*
X107407057Y-80870398D02*
X107407057Y-80108493D01*
X107311819Y-79870397D02*
X106311819Y-79870397D01*
X107311819Y-79394207D02*
X106311819Y-79394207D01*
X106311819Y-79394207D02*
X107311819Y-78822779D01*
X107311819Y-78822779D02*
X106311819Y-78822779D01*
X159086779Y-62607819D02*
X159086779Y-61607819D01*
X159086779Y-61607819D02*
X159467731Y-61607819D01*
X159467731Y-61607819D02*
X159562969Y-61655438D01*
X159562969Y-61655438D02*
X159610588Y-61703057D01*
X159610588Y-61703057D02*
X159658207Y-61798295D01*
X159658207Y-61798295D02*
X159658207Y-61941152D01*
X159658207Y-61941152D02*
X159610588Y-62036390D01*
X159610588Y-62036390D02*
X159562969Y-62084009D01*
X159562969Y-62084009D02*
X159467731Y-62131628D01*
X159467731Y-62131628D02*
X159086779Y-62131628D01*
X159991541Y-61607819D02*
X160229636Y-62607819D01*
X160229636Y-62607819D02*
X160420112Y-61893533D01*
X160420112Y-61893533D02*
X160610588Y-62607819D01*
X160610588Y-62607819D02*
X160848684Y-61607819D01*
X161229636Y-62607819D02*
X161229636Y-61607819D01*
X161229636Y-61607819D02*
X161562969Y-62322104D01*
X161562969Y-62322104D02*
X161896302Y-61607819D01*
X161896302Y-61607819D02*
X161896302Y-62607819D01*
X162896302Y-62607819D02*
X162324874Y-62607819D01*
X162610588Y-62607819D02*
X162610588Y-61607819D01*
X162610588Y-61607819D02*
X162515350Y-61750676D01*
X162515350Y-61750676D02*
X162420112Y-61845914D01*
X162420112Y-61845914D02*
X162324874Y-61893533D01*
X174970041Y-55003819D02*
X175589088Y-55003819D01*
X175589088Y-55003819D02*
X175255755Y-55384771D01*
X175255755Y-55384771D02*
X175398612Y-55384771D01*
X175398612Y-55384771D02*
X175493850Y-55432390D01*
X175493850Y-55432390D02*
X175541469Y-55480009D01*
X175541469Y-55480009D02*
X175589088Y-55575247D01*
X175589088Y-55575247D02*
X175589088Y-55813342D01*
X175589088Y-55813342D02*
X175541469Y-55908580D01*
X175541469Y-55908580D02*
X175493850Y-55956200D01*
X175493850Y-55956200D02*
X175398612Y-56003819D01*
X175398612Y-56003819D02*
X175112898Y-56003819D01*
X175112898Y-56003819D02*
X175017660Y-55956200D01*
X175017660Y-55956200D02*
X174970041Y-55908580D01*
X175874803Y-55003819D02*
X176208136Y-56003819D01*
X176208136Y-56003819D02*
X176541469Y-55003819D01*
X176779565Y-55003819D02*
X177398612Y-55003819D01*
X177398612Y-55003819D02*
X177065279Y-55384771D01*
X177065279Y-55384771D02*
X177208136Y-55384771D01*
X177208136Y-55384771D02*
X177303374Y-55432390D01*
X177303374Y-55432390D02*
X177350993Y-55480009D01*
X177350993Y-55480009D02*
X177398612Y-55575247D01*
X177398612Y-55575247D02*
X177398612Y-55813342D01*
X177398612Y-55813342D02*
X177350993Y-55908580D01*
X177350993Y-55908580D02*
X177303374Y-55956200D01*
X177303374Y-55956200D02*
X177208136Y-56003819D01*
X177208136Y-56003819D02*
X176922422Y-56003819D01*
X176922422Y-56003819D02*
X176827184Y-55956200D01*
X176827184Y-55956200D02*
X176779565Y-55908580D01*
X154022588Y-61655438D02*
X153927350Y-61607819D01*
X153927350Y-61607819D02*
X153784493Y-61607819D01*
X153784493Y-61607819D02*
X153641636Y-61655438D01*
X153641636Y-61655438D02*
X153546398Y-61750676D01*
X153546398Y-61750676D02*
X153498779Y-61845914D01*
X153498779Y-61845914D02*
X153451160Y-62036390D01*
X153451160Y-62036390D02*
X153451160Y-62179247D01*
X153451160Y-62179247D02*
X153498779Y-62369723D01*
X153498779Y-62369723D02*
X153546398Y-62464961D01*
X153546398Y-62464961D02*
X153641636Y-62560200D01*
X153641636Y-62560200D02*
X153784493Y-62607819D01*
X153784493Y-62607819D02*
X153879731Y-62607819D01*
X153879731Y-62607819D02*
X154022588Y-62560200D01*
X154022588Y-62560200D02*
X154070207Y-62512580D01*
X154070207Y-62512580D02*
X154070207Y-62179247D01*
X154070207Y-62179247D02*
X153879731Y-62179247D01*
X154498779Y-62607819D02*
X154498779Y-61607819D01*
X154498779Y-61607819D02*
X155070207Y-62607819D01*
X155070207Y-62607819D02*
X155070207Y-61607819D01*
X155546398Y-62607819D02*
X155546398Y-61607819D01*
X155546398Y-61607819D02*
X155784493Y-61607819D01*
X155784493Y-61607819D02*
X155927350Y-61655438D01*
X155927350Y-61655438D02*
X156022588Y-61750676D01*
X156022588Y-61750676D02*
X156070207Y-61845914D01*
X156070207Y-61845914D02*
X156117826Y-62036390D01*
X156117826Y-62036390D02*
X156117826Y-62179247D01*
X156117826Y-62179247D02*
X156070207Y-62369723D01*
X156070207Y-62369723D02*
X156022588Y-62464961D01*
X156022588Y-62464961D02*
X155927350Y-62560200D01*
X155927350Y-62560200D02*
X155784493Y-62607819D01*
X155784493Y-62607819D02*
X155546398Y-62607819D01*
X107121438Y-72545411D02*
X107073819Y-72640649D01*
X107073819Y-72640649D02*
X107073819Y-72783506D01*
X107073819Y-72783506D02*
X107121438Y-72926363D01*
X107121438Y-72926363D02*
X107216676Y-73021601D01*
X107216676Y-73021601D02*
X107311914Y-73069220D01*
X107311914Y-73069220D02*
X107502390Y-73116839D01*
X107502390Y-73116839D02*
X107645247Y-73116839D01*
X107645247Y-73116839D02*
X107835723Y-73069220D01*
X107835723Y-73069220D02*
X107930961Y-73021601D01*
X107930961Y-73021601D02*
X108026200Y-72926363D01*
X108026200Y-72926363D02*
X108073819Y-72783506D01*
X108073819Y-72783506D02*
X108073819Y-72688268D01*
X108073819Y-72688268D02*
X108026200Y-72545411D01*
X108026200Y-72545411D02*
X107978580Y-72497792D01*
X107978580Y-72497792D02*
X107645247Y-72497792D01*
X107645247Y-72497792D02*
X107645247Y-72688268D01*
X108073819Y-72069220D02*
X107073819Y-72069220D01*
X107073819Y-72069220D02*
X108073819Y-71497792D01*
X108073819Y-71497792D02*
X107073819Y-71497792D01*
X108073819Y-71021601D02*
X107073819Y-71021601D01*
X107073819Y-71021601D02*
X107073819Y-70783506D01*
X107073819Y-70783506D02*
X107121438Y-70640649D01*
X107121438Y-70640649D02*
X107216676Y-70545411D01*
X107216676Y-70545411D02*
X107311914Y-70497792D01*
X107311914Y-70497792D02*
X107502390Y-70450173D01*
X107502390Y-70450173D02*
X107645247Y-70450173D01*
X107645247Y-70450173D02*
X107835723Y-70497792D01*
X107835723Y-70497792D02*
X107930961Y-70545411D01*
X107930961Y-70545411D02*
X108026200Y-70640649D01*
X108026200Y-70640649D02*
X108073819Y-70783506D01*
X108073819Y-70783506D02*
X108073819Y-71021601D01*
X148310804Y-76414404D02*
X148310804Y-76481748D01*
X148310804Y-76481748D02*
X148243461Y-76616435D01*
X148243461Y-76616435D02*
X148176117Y-76683778D01*
X148176117Y-76683778D02*
X148041430Y-76751122D01*
X148041430Y-76751122D02*
X147906743Y-76751122D01*
X147906743Y-76751122D02*
X147805728Y-76717450D01*
X147805728Y-76717450D02*
X147637369Y-76616435D01*
X147637369Y-76616435D02*
X147536354Y-76515420D01*
X147536354Y-76515420D02*
X147435339Y-76347061D01*
X147435339Y-76347061D02*
X147401667Y-76246046D01*
X147401667Y-76246046D02*
X147401667Y-76111358D01*
X147401667Y-76111358D02*
X147469010Y-75976671D01*
X147469010Y-75976671D02*
X147536354Y-75909328D01*
X147536354Y-75909328D02*
X147671041Y-75841984D01*
X147671041Y-75841984D02*
X147738384Y-75841984D01*
X149051583Y-75808313D02*
X148647522Y-76212374D01*
X148849552Y-76010343D02*
X148142445Y-75303236D01*
X148142445Y-75303236D02*
X148176117Y-75471595D01*
X148176117Y-75471595D02*
X148176117Y-75606282D01*
X148176117Y-75606282D02*
X148142445Y-75707297D01*
X148782209Y-74663473D02*
X148849552Y-74596130D01*
X148849552Y-74596130D02*
X148950567Y-74562458D01*
X148950567Y-74562458D02*
X149017911Y-74562458D01*
X149017911Y-74562458D02*
X149118926Y-74596130D01*
X149118926Y-74596130D02*
X149287285Y-74697145D01*
X149287285Y-74697145D02*
X149455644Y-74865504D01*
X149455644Y-74865504D02*
X149556659Y-75033862D01*
X149556659Y-75033862D02*
X149590331Y-75134878D01*
X149590331Y-75134878D02*
X149590331Y-75202221D01*
X149590331Y-75202221D02*
X149556659Y-75303236D01*
X149556659Y-75303236D02*
X149489315Y-75370580D01*
X149489315Y-75370580D02*
X149388300Y-75404252D01*
X149388300Y-75404252D02*
X149320957Y-75404252D01*
X149320957Y-75404252D02*
X149219941Y-75370580D01*
X149219941Y-75370580D02*
X149051583Y-75269565D01*
X149051583Y-75269565D02*
X148883224Y-75101206D01*
X148883224Y-75101206D02*
X148782209Y-74932847D01*
X148782209Y-74932847D02*
X148748537Y-74831832D01*
X148748537Y-74831832D02*
X148748537Y-74764488D01*
X148748537Y-74764488D02*
X148782209Y-74663473D01*
X160610779Y-91944866D02*
X161372684Y-91944866D01*
X160991731Y-92325819D02*
X160991731Y-91563914D01*
X161848874Y-92325819D02*
X161848874Y-91325819D01*
X161848874Y-91325819D02*
X162182207Y-92040104D01*
X162182207Y-92040104D02*
X162515540Y-91325819D01*
X162515540Y-91325819D02*
X162515540Y-92325819D01*
X179106707Y-55908580D02*
X179059088Y-55956200D01*
X179059088Y-55956200D02*
X178916231Y-56003819D01*
X178916231Y-56003819D02*
X178820993Y-56003819D01*
X178820993Y-56003819D02*
X178678136Y-55956200D01*
X178678136Y-55956200D02*
X178582898Y-55860961D01*
X178582898Y-55860961D02*
X178535279Y-55765723D01*
X178535279Y-55765723D02*
X178487660Y-55575247D01*
X178487660Y-55575247D02*
X178487660Y-55432390D01*
X178487660Y-55432390D02*
X178535279Y-55241914D01*
X178535279Y-55241914D02*
X178582898Y-55146676D01*
X178582898Y-55146676D02*
X178678136Y-55051438D01*
X178678136Y-55051438D02*
X178820993Y-55003819D01*
X178820993Y-55003819D02*
X178916231Y-55003819D01*
X178916231Y-55003819D02*
X179059088Y-55051438D01*
X179059088Y-55051438D02*
X179106707Y-55099057D01*
X180011469Y-56003819D02*
X179535279Y-56003819D01*
X179535279Y-56003819D02*
X179535279Y-55003819D01*
X180344803Y-56003819D02*
X180344803Y-55003819D01*
X180916231Y-56003819D02*
X180487660Y-55432390D01*
X180916231Y-55003819D02*
X180344803Y-55575247D01*
X170262779Y-62607819D02*
X170262779Y-61607819D01*
X170262779Y-61607819D02*
X170643731Y-61607819D01*
X170643731Y-61607819D02*
X170738969Y-61655438D01*
X170738969Y-61655438D02*
X170786588Y-61703057D01*
X170786588Y-61703057D02*
X170834207Y-61798295D01*
X170834207Y-61798295D02*
X170834207Y-61941152D01*
X170834207Y-61941152D02*
X170786588Y-62036390D01*
X170786588Y-62036390D02*
X170738969Y-62084009D01*
X170738969Y-62084009D02*
X170643731Y-62131628D01*
X170643731Y-62131628D02*
X170262779Y-62131628D01*
X171167541Y-61607819D02*
X171405636Y-62607819D01*
X171405636Y-62607819D02*
X171596112Y-61893533D01*
X171596112Y-61893533D02*
X171786588Y-62607819D01*
X171786588Y-62607819D02*
X172024684Y-61607819D01*
X172405636Y-62607819D02*
X172405636Y-61607819D01*
X172405636Y-61607819D02*
X172738969Y-62322104D01*
X172738969Y-62322104D02*
X173072302Y-61607819D01*
X173072302Y-61607819D02*
X173072302Y-62607819D01*
X174072302Y-62607819D02*
X173500874Y-62607819D01*
X173786588Y-62607819D02*
X173786588Y-61607819D01*
X173786588Y-61607819D02*
X173691350Y-61750676D01*
X173691350Y-61750676D02*
X173596112Y-61845914D01*
X173596112Y-61845914D02*
X173500874Y-61893533D01*
X126235279Y-55950819D02*
X126235279Y-54950819D01*
X126235279Y-54950819D02*
X126568612Y-55665104D01*
X126568612Y-55665104D02*
X126901945Y-54950819D01*
X126901945Y-54950819D02*
X126901945Y-55950819D01*
X127378136Y-55950819D02*
X127378136Y-54950819D01*
X127378136Y-54950819D02*
X127759088Y-54950819D01*
X127759088Y-54950819D02*
X127854326Y-54998438D01*
X127854326Y-54998438D02*
X127901945Y-55046057D01*
X127901945Y-55046057D02*
X127949564Y-55141295D01*
X127949564Y-55141295D02*
X127949564Y-55284152D01*
X127949564Y-55284152D02*
X127901945Y-55379390D01*
X127901945Y-55379390D02*
X127854326Y-55427009D01*
X127854326Y-55427009D02*
X127759088Y-55474628D01*
X127759088Y-55474628D02*
X127378136Y-55474628D01*
X128378136Y-54950819D02*
X128378136Y-55760342D01*
X128378136Y-55760342D02*
X128425755Y-55855580D01*
X128425755Y-55855580D02*
X128473374Y-55903200D01*
X128473374Y-55903200D02*
X128568612Y-55950819D01*
X128568612Y-55950819D02*
X128759088Y-55950819D01*
X128759088Y-55950819D02*
X128854326Y-55903200D01*
X128854326Y-55903200D02*
X128901945Y-55855580D01*
X128901945Y-55855580D02*
X128949564Y-55760342D01*
X128949564Y-55760342D02*
X128949564Y-54950819D01*
X129473374Y-55950819D02*
X129663850Y-55950819D01*
X129663850Y-55950819D02*
X129759088Y-55903200D01*
X129759088Y-55903200D02*
X129806707Y-55855580D01*
X129806707Y-55855580D02*
X129901945Y-55712723D01*
X129901945Y-55712723D02*
X129949564Y-55522247D01*
X129949564Y-55522247D02*
X129949564Y-55141295D01*
X129949564Y-55141295D02*
X129901945Y-55046057D01*
X129901945Y-55046057D02*
X129854326Y-54998438D01*
X129854326Y-54998438D02*
X129759088Y-54950819D01*
X129759088Y-54950819D02*
X129568612Y-54950819D01*
X129568612Y-54950819D02*
X129473374Y-54998438D01*
X129473374Y-54998438D02*
X129425755Y-55046057D01*
X129425755Y-55046057D02*
X129378136Y-55141295D01*
X129378136Y-55141295D02*
X129378136Y-55379390D01*
X129378136Y-55379390D02*
X129425755Y-55474628D01*
X129425755Y-55474628D02*
X129473374Y-55522247D01*
X129473374Y-55522247D02*
X129568612Y-55569866D01*
X129568612Y-55569866D02*
X129759088Y-55569866D01*
X129759088Y-55569866D02*
X129854326Y-55522247D01*
X129854326Y-55522247D02*
X129901945Y-55474628D01*
X129901945Y-55474628D02*
X129949564Y-55379390D01*
X130330517Y-55046057D02*
X130378136Y-54998438D01*
X130378136Y-54998438D02*
X130473374Y-54950819D01*
X130473374Y-54950819D02*
X130711469Y-54950819D01*
X130711469Y-54950819D02*
X130806707Y-54998438D01*
X130806707Y-54998438D02*
X130854326Y-55046057D01*
X130854326Y-55046057D02*
X130901945Y-55141295D01*
X130901945Y-55141295D02*
X130901945Y-55236533D01*
X130901945Y-55236533D02*
X130854326Y-55379390D01*
X130854326Y-55379390D02*
X130282898Y-55950819D01*
X130282898Y-55950819D02*
X130901945Y-55950819D01*
X131806707Y-54950819D02*
X131330517Y-54950819D01*
X131330517Y-54950819D02*
X131282898Y-55427009D01*
X131282898Y-55427009D02*
X131330517Y-55379390D01*
X131330517Y-55379390D02*
X131425755Y-55331771D01*
X131425755Y-55331771D02*
X131663850Y-55331771D01*
X131663850Y-55331771D02*
X131759088Y-55379390D01*
X131759088Y-55379390D02*
X131806707Y-55427009D01*
X131806707Y-55427009D02*
X131854326Y-55522247D01*
X131854326Y-55522247D02*
X131854326Y-55760342D01*
X131854326Y-55760342D02*
X131806707Y-55855580D01*
X131806707Y-55855580D02*
X131759088Y-55903200D01*
X131759088Y-55903200D02*
X131663850Y-55950819D01*
X131663850Y-55950819D02*
X131425755Y-55950819D01*
X131425755Y-55950819D02*
X131330517Y-55903200D01*
X131330517Y-55903200D02*
X131282898Y-55855580D01*
X132473374Y-54950819D02*
X132568612Y-54950819D01*
X132568612Y-54950819D02*
X132663850Y-54998438D01*
X132663850Y-54998438D02*
X132711469Y-55046057D01*
X132711469Y-55046057D02*
X132759088Y-55141295D01*
X132759088Y-55141295D02*
X132806707Y-55331771D01*
X132806707Y-55331771D02*
X132806707Y-55569866D01*
X132806707Y-55569866D02*
X132759088Y-55760342D01*
X132759088Y-55760342D02*
X132711469Y-55855580D01*
X132711469Y-55855580D02*
X132663850Y-55903200D01*
X132663850Y-55903200D02*
X132568612Y-55950819D01*
X132568612Y-55950819D02*
X132473374Y-55950819D01*
X132473374Y-55950819D02*
X132378136Y-55903200D01*
X132378136Y-55903200D02*
X132330517Y-55855580D01*
X132330517Y-55855580D02*
X132282898Y-55760342D01*
X132282898Y-55760342D02*
X132235279Y-55569866D01*
X132235279Y-55569866D02*
X132235279Y-55331771D01*
X132235279Y-55331771D02*
X132282898Y-55141295D01*
X132282898Y-55141295D02*
X132330517Y-55046057D01*
X132330517Y-55046057D02*
X132378136Y-54998438D01*
X132378136Y-54998438D02*
X132473374Y-54950819D01*
X133949564Y-54903200D02*
X133092422Y-56188914D01*
X134711469Y-54950819D02*
X134520993Y-54950819D01*
X134520993Y-54950819D02*
X134425755Y-54998438D01*
X134425755Y-54998438D02*
X134378136Y-55046057D01*
X134378136Y-55046057D02*
X134282898Y-55188914D01*
X134282898Y-55188914D02*
X134235279Y-55379390D01*
X134235279Y-55379390D02*
X134235279Y-55760342D01*
X134235279Y-55760342D02*
X134282898Y-55855580D01*
X134282898Y-55855580D02*
X134330517Y-55903200D01*
X134330517Y-55903200D02*
X134425755Y-55950819D01*
X134425755Y-55950819D02*
X134616231Y-55950819D01*
X134616231Y-55950819D02*
X134711469Y-55903200D01*
X134711469Y-55903200D02*
X134759088Y-55855580D01*
X134759088Y-55855580D02*
X134806707Y-55760342D01*
X134806707Y-55760342D02*
X134806707Y-55522247D01*
X134806707Y-55522247D02*
X134759088Y-55427009D01*
X134759088Y-55427009D02*
X134711469Y-55379390D01*
X134711469Y-55379390D02*
X134616231Y-55331771D01*
X134616231Y-55331771D02*
X134425755Y-55331771D01*
X134425755Y-55331771D02*
X134330517Y-55379390D01*
X134330517Y-55379390D02*
X134282898Y-55427009D01*
X134282898Y-55427009D02*
X134235279Y-55522247D01*
X135425755Y-54950819D02*
X135520993Y-54950819D01*
X135520993Y-54950819D02*
X135616231Y-54998438D01*
X135616231Y-54998438D02*
X135663850Y-55046057D01*
X135663850Y-55046057D02*
X135711469Y-55141295D01*
X135711469Y-55141295D02*
X135759088Y-55331771D01*
X135759088Y-55331771D02*
X135759088Y-55569866D01*
X135759088Y-55569866D02*
X135711469Y-55760342D01*
X135711469Y-55760342D02*
X135663850Y-55855580D01*
X135663850Y-55855580D02*
X135616231Y-55903200D01*
X135616231Y-55903200D02*
X135520993Y-55950819D01*
X135520993Y-55950819D02*
X135425755Y-55950819D01*
X135425755Y-55950819D02*
X135330517Y-55903200D01*
X135330517Y-55903200D02*
X135282898Y-55855580D01*
X135282898Y-55855580D02*
X135235279Y-55760342D01*
X135235279Y-55760342D02*
X135187660Y-55569866D01*
X135187660Y-55569866D02*
X135187660Y-55331771D01*
X135187660Y-55331771D02*
X135235279Y-55141295D01*
X135235279Y-55141295D02*
X135282898Y-55046057D01*
X135282898Y-55046057D02*
X135330517Y-54998438D01*
X135330517Y-54998438D02*
X135425755Y-54950819D01*
X136663850Y-54950819D02*
X136187660Y-54950819D01*
X136187660Y-54950819D02*
X136140041Y-55427009D01*
X136140041Y-55427009D02*
X136187660Y-55379390D01*
X136187660Y-55379390D02*
X136282898Y-55331771D01*
X136282898Y-55331771D02*
X136520993Y-55331771D01*
X136520993Y-55331771D02*
X136616231Y-55379390D01*
X136616231Y-55379390D02*
X136663850Y-55427009D01*
X136663850Y-55427009D02*
X136711469Y-55522247D01*
X136711469Y-55522247D02*
X136711469Y-55760342D01*
X136711469Y-55760342D02*
X136663850Y-55855580D01*
X136663850Y-55855580D02*
X136616231Y-55903200D01*
X136616231Y-55903200D02*
X136520993Y-55950819D01*
X136520993Y-55950819D02*
X136282898Y-55950819D01*
X136282898Y-55950819D02*
X136187660Y-55903200D01*
X136187660Y-55903200D02*
X136140041Y-55855580D01*
X137330517Y-54950819D02*
X137425755Y-54950819D01*
X137425755Y-54950819D02*
X137520993Y-54998438D01*
X137520993Y-54998438D02*
X137568612Y-55046057D01*
X137568612Y-55046057D02*
X137616231Y-55141295D01*
X137616231Y-55141295D02*
X137663850Y-55331771D01*
X137663850Y-55331771D02*
X137663850Y-55569866D01*
X137663850Y-55569866D02*
X137616231Y-55760342D01*
X137616231Y-55760342D02*
X137568612Y-55855580D01*
X137568612Y-55855580D02*
X137520993Y-55903200D01*
X137520993Y-55903200D02*
X137425755Y-55950819D01*
X137425755Y-55950819D02*
X137330517Y-55950819D01*
X137330517Y-55950819D02*
X137235279Y-55903200D01*
X137235279Y-55903200D02*
X137187660Y-55855580D01*
X137187660Y-55855580D02*
X137140041Y-55760342D01*
X137140041Y-55760342D02*
X137092422Y-55569866D01*
X137092422Y-55569866D02*
X137092422Y-55331771D01*
X137092422Y-55331771D02*
X137140041Y-55141295D01*
X137140041Y-55141295D02*
X137187660Y-55046057D01*
X137187660Y-55046057D02*
X137235279Y-54998438D01*
X137235279Y-54998438D02*
X137330517Y-54950819D01*
X142767255Y-60083819D02*
X142862493Y-60083819D01*
X142862493Y-60083819D02*
X142957731Y-60131438D01*
X142957731Y-60131438D02*
X143005350Y-60179057D01*
X143005350Y-60179057D02*
X143052969Y-60274295D01*
X143052969Y-60274295D02*
X143100588Y-60464771D01*
X143100588Y-60464771D02*
X143100588Y-60702866D01*
X143100588Y-60702866D02*
X143052969Y-60893342D01*
X143052969Y-60893342D02*
X143005350Y-60988580D01*
X143005350Y-60988580D02*
X142957731Y-61036200D01*
X142957731Y-61036200D02*
X142862493Y-61083819D01*
X142862493Y-61083819D02*
X142767255Y-61083819D01*
X142767255Y-61083819D02*
X142672017Y-61036200D01*
X142672017Y-61036200D02*
X142624398Y-60988580D01*
X142624398Y-60988580D02*
X142576779Y-60893342D01*
X142576779Y-60893342D02*
X142529160Y-60702866D01*
X142529160Y-60702866D02*
X142529160Y-60464771D01*
X142529160Y-60464771D02*
X142576779Y-60274295D01*
X142576779Y-60274295D02*
X142624398Y-60179057D01*
X142624398Y-60179057D02*
X142672017Y-60131438D01*
X142672017Y-60131438D02*
X142767255Y-60083819D01*
X185279088Y-55051438D02*
X185183850Y-55003819D01*
X185183850Y-55003819D02*
X185040993Y-55003819D01*
X185040993Y-55003819D02*
X184898136Y-55051438D01*
X184898136Y-55051438D02*
X184802898Y-55146676D01*
X184802898Y-55146676D02*
X184755279Y-55241914D01*
X184755279Y-55241914D02*
X184707660Y-55432390D01*
X184707660Y-55432390D02*
X184707660Y-55575247D01*
X184707660Y-55575247D02*
X184755279Y-55765723D01*
X184755279Y-55765723D02*
X184802898Y-55860961D01*
X184802898Y-55860961D02*
X184898136Y-55956200D01*
X184898136Y-55956200D02*
X185040993Y-56003819D01*
X185040993Y-56003819D02*
X185136231Y-56003819D01*
X185136231Y-56003819D02*
X185279088Y-55956200D01*
X185279088Y-55956200D02*
X185326707Y-55908580D01*
X185326707Y-55908580D02*
X185326707Y-55575247D01*
X185326707Y-55575247D02*
X185136231Y-55575247D01*
X185755279Y-56003819D02*
X185755279Y-55003819D01*
X185755279Y-55003819D02*
X186326707Y-56003819D01*
X186326707Y-56003819D02*
X186326707Y-55003819D01*
X186802898Y-56003819D02*
X186802898Y-55003819D01*
X186802898Y-55003819D02*
X187040993Y-55003819D01*
X187040993Y-55003819D02*
X187183850Y-55051438D01*
X187183850Y-55051438D02*
X187279088Y-55146676D01*
X187279088Y-55146676D02*
X187326707Y-55241914D01*
X187326707Y-55241914D02*
X187374326Y-55432390D01*
X187374326Y-55432390D02*
X187374326Y-55575247D01*
X187374326Y-55575247D02*
X187326707Y-55765723D01*
X187326707Y-55765723D02*
X187279088Y-55860961D01*
X187279088Y-55860961D02*
X187183850Y-55956200D01*
X187183850Y-55956200D02*
X187040993Y-56003819D01*
X187040993Y-56003819D02*
X186802898Y-56003819D01*
X141678612Y-55487009D02*
X141821469Y-55534628D01*
X141821469Y-55534628D02*
X141869088Y-55582247D01*
X141869088Y-55582247D02*
X141916707Y-55677485D01*
X141916707Y-55677485D02*
X141916707Y-55820342D01*
X141916707Y-55820342D02*
X141869088Y-55915580D01*
X141869088Y-55915580D02*
X141821469Y-55963200D01*
X141821469Y-55963200D02*
X141726231Y-56010819D01*
X141726231Y-56010819D02*
X141345279Y-56010819D01*
X141345279Y-56010819D02*
X141345279Y-55010819D01*
X141345279Y-55010819D02*
X141678612Y-55010819D01*
X141678612Y-55010819D02*
X141773850Y-55058438D01*
X141773850Y-55058438D02*
X141821469Y-55106057D01*
X141821469Y-55106057D02*
X141869088Y-55201295D01*
X141869088Y-55201295D02*
X141869088Y-55296533D01*
X141869088Y-55296533D02*
X141821469Y-55391771D01*
X141821469Y-55391771D02*
X141773850Y-55439390D01*
X141773850Y-55439390D02*
X141678612Y-55487009D01*
X141678612Y-55487009D02*
X141345279Y-55487009D01*
X142535755Y-55010819D02*
X142726231Y-55010819D01*
X142726231Y-55010819D02*
X142821469Y-55058438D01*
X142821469Y-55058438D02*
X142916707Y-55153676D01*
X142916707Y-55153676D02*
X142964326Y-55344152D01*
X142964326Y-55344152D02*
X142964326Y-55677485D01*
X142964326Y-55677485D02*
X142916707Y-55867961D01*
X142916707Y-55867961D02*
X142821469Y-55963200D01*
X142821469Y-55963200D02*
X142726231Y-56010819D01*
X142726231Y-56010819D02*
X142535755Y-56010819D01*
X142535755Y-56010819D02*
X142440517Y-55963200D01*
X142440517Y-55963200D02*
X142345279Y-55867961D01*
X142345279Y-55867961D02*
X142297660Y-55677485D01*
X142297660Y-55677485D02*
X142297660Y-55344152D01*
X142297660Y-55344152D02*
X142345279Y-55153676D01*
X142345279Y-55153676D02*
X142440517Y-55058438D01*
X142440517Y-55058438D02*
X142535755Y-55010819D01*
X143583374Y-55010819D02*
X143773850Y-55010819D01*
X143773850Y-55010819D02*
X143869088Y-55058438D01*
X143869088Y-55058438D02*
X143964326Y-55153676D01*
X143964326Y-55153676D02*
X144011945Y-55344152D01*
X144011945Y-55344152D02*
X144011945Y-55677485D01*
X144011945Y-55677485D02*
X143964326Y-55867961D01*
X143964326Y-55867961D02*
X143869088Y-55963200D01*
X143869088Y-55963200D02*
X143773850Y-56010819D01*
X143773850Y-56010819D02*
X143583374Y-56010819D01*
X143583374Y-56010819D02*
X143488136Y-55963200D01*
X143488136Y-55963200D02*
X143392898Y-55867961D01*
X143392898Y-55867961D02*
X143345279Y-55677485D01*
X143345279Y-55677485D02*
X143345279Y-55344152D01*
X143345279Y-55344152D02*
X143392898Y-55153676D01*
X143392898Y-55153676D02*
X143488136Y-55058438D01*
X143488136Y-55058438D02*
X143583374Y-55010819D01*
X144297660Y-55010819D02*
X144869088Y-55010819D01*
X144583374Y-56010819D02*
X144583374Y-55010819D01*
X145392898Y-55010819D02*
X145488136Y-55010819D01*
X145488136Y-55010819D02*
X145583374Y-55058438D01*
X145583374Y-55058438D02*
X145630993Y-55106057D01*
X145630993Y-55106057D02*
X145678612Y-55201295D01*
X145678612Y-55201295D02*
X145726231Y-55391771D01*
X145726231Y-55391771D02*
X145726231Y-55629866D01*
X145726231Y-55629866D02*
X145678612Y-55820342D01*
X145678612Y-55820342D02*
X145630993Y-55915580D01*
X145630993Y-55915580D02*
X145583374Y-55963200D01*
X145583374Y-55963200D02*
X145488136Y-56010819D01*
X145488136Y-56010819D02*
X145392898Y-56010819D01*
X145392898Y-56010819D02*
X145297660Y-55963200D01*
X145297660Y-55963200D02*
X145250041Y-55915580D01*
X145250041Y-55915580D02*
X145202422Y-55820342D01*
X145202422Y-55820342D02*
X145154803Y-55629866D01*
X145154803Y-55629866D02*
X145154803Y-55391771D01*
X145154803Y-55391771D02*
X145202422Y-55201295D01*
X145202422Y-55201295D02*
X145250041Y-55106057D01*
X145250041Y-55106057D02*
X145297660Y-55058438D01*
X145297660Y-55058438D02*
X145392898Y-55010819D01*
X156292779Y-84832866D02*
X157054684Y-84832866D01*
X156673731Y-85213819D02*
X156673731Y-84451914D01*
X157530874Y-85213819D02*
X157530874Y-84213819D01*
X157530874Y-84213819D02*
X157864207Y-84928104D01*
X157864207Y-84928104D02*
X158197540Y-84213819D01*
X158197540Y-84213819D02*
X158197540Y-85213819D01*
X137242779Y-84324866D02*
X138004684Y-84324866D01*
X137623731Y-84705819D02*
X137623731Y-83943914D01*
X138480874Y-84705819D02*
X138480874Y-83705819D01*
X138480874Y-83705819D02*
X138814207Y-84420104D01*
X138814207Y-84420104D02*
X139147540Y-83705819D01*
X139147540Y-83705819D02*
X139147540Y-84705819D01*
X181785279Y-56003819D02*
X181785279Y-55003819D01*
X181785279Y-55003819D02*
X182023374Y-55003819D01*
X182023374Y-55003819D02*
X182166231Y-55051438D01*
X182166231Y-55051438D02*
X182261469Y-55146676D01*
X182261469Y-55146676D02*
X182309088Y-55241914D01*
X182309088Y-55241914D02*
X182356707Y-55432390D01*
X182356707Y-55432390D02*
X182356707Y-55575247D01*
X182356707Y-55575247D02*
X182309088Y-55765723D01*
X182309088Y-55765723D02*
X182261469Y-55860961D01*
X182261469Y-55860961D02*
X182166231Y-55956200D01*
X182166231Y-55956200D02*
X182023374Y-56003819D01*
X182023374Y-56003819D02*
X181785279Y-56003819D01*
X182785279Y-56003819D02*
X182785279Y-55003819D01*
X183451945Y-55003819D02*
X183642421Y-55003819D01*
X183642421Y-55003819D02*
X183737659Y-55051438D01*
X183737659Y-55051438D02*
X183832897Y-55146676D01*
X183832897Y-55146676D02*
X183880516Y-55337152D01*
X183880516Y-55337152D02*
X183880516Y-55670485D01*
X183880516Y-55670485D02*
X183832897Y-55860961D01*
X183832897Y-55860961D02*
X183737659Y-55956200D01*
X183737659Y-55956200D02*
X183642421Y-56003819D01*
X183642421Y-56003819D02*
X183451945Y-56003819D01*
X183451945Y-56003819D02*
X183356707Y-55956200D01*
X183356707Y-55956200D02*
X183261469Y-55860961D01*
X183261469Y-55860961D02*
X183213850Y-55670485D01*
X183213850Y-55670485D02*
X183213850Y-55337152D01*
X183213850Y-55337152D02*
X183261469Y-55146676D01*
X183261469Y-55146676D02*
X183356707Y-55051438D01*
X183356707Y-55051438D02*
X183451945Y-55003819D01*
X165706588Y-61655438D02*
X165611350Y-61607819D01*
X165611350Y-61607819D02*
X165468493Y-61607819D01*
X165468493Y-61607819D02*
X165325636Y-61655438D01*
X165325636Y-61655438D02*
X165230398Y-61750676D01*
X165230398Y-61750676D02*
X165182779Y-61845914D01*
X165182779Y-61845914D02*
X165135160Y-62036390D01*
X165135160Y-62036390D02*
X165135160Y-62179247D01*
X165135160Y-62179247D02*
X165182779Y-62369723D01*
X165182779Y-62369723D02*
X165230398Y-62464961D01*
X165230398Y-62464961D02*
X165325636Y-62560200D01*
X165325636Y-62560200D02*
X165468493Y-62607819D01*
X165468493Y-62607819D02*
X165563731Y-62607819D01*
X165563731Y-62607819D02*
X165706588Y-62560200D01*
X165706588Y-62560200D02*
X165754207Y-62512580D01*
X165754207Y-62512580D02*
X165754207Y-62179247D01*
X165754207Y-62179247D02*
X165563731Y-62179247D01*
X166182779Y-62607819D02*
X166182779Y-61607819D01*
X166182779Y-61607819D02*
X166754207Y-62607819D01*
X166754207Y-62607819D02*
X166754207Y-61607819D01*
X167230398Y-62607819D02*
X167230398Y-61607819D01*
X167230398Y-61607819D02*
X167468493Y-61607819D01*
X167468493Y-61607819D02*
X167611350Y-61655438D01*
X167611350Y-61655438D02*
X167706588Y-61750676D01*
X167706588Y-61750676D02*
X167754207Y-61845914D01*
X167754207Y-61845914D02*
X167801826Y-62036390D01*
X167801826Y-62036390D02*
X167801826Y-62179247D01*
X167801826Y-62179247D02*
X167754207Y-62369723D01*
X167754207Y-62369723D02*
X167706588Y-62464961D01*
X167706588Y-62464961D02*
X167611350Y-62560200D01*
X167611350Y-62560200D02*
X167468493Y-62607819D01*
X167468493Y-62607819D02*
X167230398Y-62607819D01*
X107692866Y-69259220D02*
X107692866Y-68497316D01*
X108073819Y-68878268D02*
X107311914Y-68878268D01*
X107073819Y-67544935D02*
X107073819Y-68021125D01*
X107073819Y-68021125D02*
X107550009Y-68068744D01*
X107550009Y-68068744D02*
X107502390Y-68021125D01*
X107502390Y-68021125D02*
X107454771Y-67925887D01*
X107454771Y-67925887D02*
X107454771Y-67687792D01*
X107454771Y-67687792D02*
X107502390Y-67592554D01*
X107502390Y-67592554D02*
X107550009Y-67544935D01*
X107550009Y-67544935D02*
X107645247Y-67497316D01*
X107645247Y-67497316D02*
X107883342Y-67497316D01*
X107883342Y-67497316D02*
X107978580Y-67544935D01*
X107978580Y-67544935D02*
X108026200Y-67592554D01*
X108026200Y-67592554D02*
X108073819Y-67687792D01*
X108073819Y-67687792D02*
X108073819Y-67925887D01*
X108073819Y-67925887D02*
X108026200Y-68021125D01*
X108026200Y-68021125D02*
X107978580Y-68068744D01*
X107073819Y-67211601D02*
X108073819Y-66878268D01*
X108073819Y-66878268D02*
X107073819Y-66544935D01*
X108169057Y-66449697D02*
X108169057Y-65687792D01*
X107073819Y-65259220D02*
X107073819Y-65068744D01*
X107073819Y-65068744D02*
X107121438Y-64973506D01*
X107121438Y-64973506D02*
X107216676Y-64878268D01*
X107216676Y-64878268D02*
X107407152Y-64830649D01*
X107407152Y-64830649D02*
X107740485Y-64830649D01*
X107740485Y-64830649D02*
X107930961Y-64878268D01*
X107930961Y-64878268D02*
X108026200Y-64973506D01*
X108026200Y-64973506D02*
X108073819Y-65068744D01*
X108073819Y-65068744D02*
X108073819Y-65259220D01*
X108073819Y-65259220D02*
X108026200Y-65354458D01*
X108026200Y-65354458D02*
X107930961Y-65449696D01*
X107930961Y-65449696D02*
X107740485Y-65497315D01*
X107740485Y-65497315D02*
X107407152Y-65497315D01*
X107407152Y-65497315D02*
X107216676Y-65449696D01*
X107216676Y-65449696D02*
X107121438Y-65354458D01*
X107121438Y-65354458D02*
X107073819Y-65259220D01*
X107073819Y-64402077D02*
X107883342Y-64402077D01*
X107883342Y-64402077D02*
X107978580Y-64354458D01*
X107978580Y-64354458D02*
X108026200Y-64306839D01*
X108026200Y-64306839D02*
X108073819Y-64211601D01*
X108073819Y-64211601D02*
X108073819Y-64021125D01*
X108073819Y-64021125D02*
X108026200Y-63925887D01*
X108026200Y-63925887D02*
X107978580Y-63878268D01*
X107978580Y-63878268D02*
X107883342Y-63830649D01*
X107883342Y-63830649D02*
X107073819Y-63830649D01*
X107073819Y-63497315D02*
X107073819Y-62925887D01*
X108073819Y-63211601D02*
X107073819Y-63211601D01*
%TO.C,C11*%
X140113272Y-72219447D02*
X140113272Y-72286791D01*
X140113272Y-72286791D02*
X140045928Y-72421478D01*
X140045928Y-72421478D02*
X139978585Y-72488821D01*
X139978585Y-72488821D02*
X139843898Y-72556165D01*
X139843898Y-72556165D02*
X139709211Y-72556165D01*
X139709211Y-72556165D02*
X139608196Y-72522493D01*
X139608196Y-72522493D02*
X139439837Y-72421478D01*
X139439837Y-72421478D02*
X139338822Y-72320463D01*
X139338822Y-72320463D02*
X139237806Y-72152104D01*
X139237806Y-72152104D02*
X139204135Y-72051089D01*
X139204135Y-72051089D02*
X139204135Y-71916402D01*
X139204135Y-71916402D02*
X139271478Y-71781715D01*
X139271478Y-71781715D02*
X139338822Y-71714371D01*
X139338822Y-71714371D02*
X139473509Y-71647028D01*
X139473509Y-71647028D02*
X139540852Y-71647028D01*
X140854050Y-71613356D02*
X140449989Y-72017417D01*
X140652020Y-71815386D02*
X139944913Y-71108280D01*
X139944913Y-71108280D02*
X139978585Y-71276638D01*
X139978585Y-71276638D02*
X139978585Y-71411325D01*
X139978585Y-71411325D02*
X139944913Y-71512341D01*
X141527486Y-70939921D02*
X141123425Y-71343982D01*
X141325455Y-71141951D02*
X140618348Y-70434844D01*
X140618348Y-70434844D02*
X140652020Y-70603203D01*
X140652020Y-70603203D02*
X140652020Y-70737890D01*
X140652020Y-70737890D02*
X140618348Y-70838905D01*
%TO.C,R3*%
X166316819Y-85002666D02*
X165840628Y-85335999D01*
X166316819Y-85574094D02*
X165316819Y-85574094D01*
X165316819Y-85574094D02*
X165316819Y-85193142D01*
X165316819Y-85193142D02*
X165364438Y-85097904D01*
X165364438Y-85097904D02*
X165412057Y-85050285D01*
X165412057Y-85050285D02*
X165507295Y-85002666D01*
X165507295Y-85002666D02*
X165650152Y-85002666D01*
X165650152Y-85002666D02*
X165745390Y-85050285D01*
X165745390Y-85050285D02*
X165793009Y-85097904D01*
X165793009Y-85097904D02*
X165840628Y-85193142D01*
X165840628Y-85193142D02*
X165840628Y-85574094D01*
X165316819Y-84669332D02*
X165316819Y-84050285D01*
X165316819Y-84050285D02*
X165697771Y-84383618D01*
X165697771Y-84383618D02*
X165697771Y-84240761D01*
X165697771Y-84240761D02*
X165745390Y-84145523D01*
X165745390Y-84145523D02*
X165793009Y-84097904D01*
X165793009Y-84097904D02*
X165888247Y-84050285D01*
X165888247Y-84050285D02*
X166126342Y-84050285D01*
X166126342Y-84050285D02*
X166221580Y-84097904D01*
X166221580Y-84097904D02*
X166269200Y-84145523D01*
X166269200Y-84145523D02*
X166316819Y-84240761D01*
X166316819Y-84240761D02*
X166316819Y-84526475D01*
X166316819Y-84526475D02*
X166269200Y-84621713D01*
X166269200Y-84621713D02*
X166221580Y-84669332D01*
%TO.C,D1*%
X130404467Y-84655177D02*
X129617065Y-84655177D01*
X129617065Y-84655177D02*
X129617065Y-84467700D01*
X129617065Y-84467700D02*
X129654560Y-84355214D01*
X129654560Y-84355214D02*
X129729551Y-84280224D01*
X129729551Y-84280224D02*
X129804542Y-84242728D01*
X129804542Y-84242728D02*
X129954523Y-84205233D01*
X129954523Y-84205233D02*
X130067009Y-84205233D01*
X130067009Y-84205233D02*
X130216990Y-84242728D01*
X130216990Y-84242728D02*
X130291981Y-84280224D01*
X130291981Y-84280224D02*
X130366972Y-84355214D01*
X130366972Y-84355214D02*
X130404467Y-84467700D01*
X130404467Y-84467700D02*
X130404467Y-84655177D01*
X130404467Y-83455326D02*
X130404467Y-83905270D01*
X130404467Y-83680298D02*
X129617065Y-83680298D01*
X129617065Y-83680298D02*
X129729551Y-83755289D01*
X129729551Y-83755289D02*
X129804542Y-83830280D01*
X129804542Y-83830280D02*
X129842037Y-83905270D01*
%TO.C,R10*%
X133488319Y-81162107D02*
X133012128Y-81495440D01*
X133488319Y-81733535D02*
X132488319Y-81733535D01*
X132488319Y-81733535D02*
X132488319Y-81352583D01*
X132488319Y-81352583D02*
X132535938Y-81257345D01*
X132535938Y-81257345D02*
X132583557Y-81209726D01*
X132583557Y-81209726D02*
X132678795Y-81162107D01*
X132678795Y-81162107D02*
X132821652Y-81162107D01*
X132821652Y-81162107D02*
X132916890Y-81209726D01*
X132916890Y-81209726D02*
X132964509Y-81257345D01*
X132964509Y-81257345D02*
X133012128Y-81352583D01*
X133012128Y-81352583D02*
X133012128Y-81733535D01*
X133488319Y-80209726D02*
X133488319Y-80781154D01*
X133488319Y-80495440D02*
X132488319Y-80495440D01*
X132488319Y-80495440D02*
X132631176Y-80590678D01*
X132631176Y-80590678D02*
X132726414Y-80685916D01*
X132726414Y-80685916D02*
X132774033Y-80781154D01*
X132488319Y-79590678D02*
X132488319Y-79495440D01*
X132488319Y-79495440D02*
X132535938Y-79400202D01*
X132535938Y-79400202D02*
X132583557Y-79352583D01*
X132583557Y-79352583D02*
X132678795Y-79304964D01*
X132678795Y-79304964D02*
X132869271Y-79257345D01*
X132869271Y-79257345D02*
X133107366Y-79257345D01*
X133107366Y-79257345D02*
X133297842Y-79304964D01*
X133297842Y-79304964D02*
X133393080Y-79352583D01*
X133393080Y-79352583D02*
X133440700Y-79400202D01*
X133440700Y-79400202D02*
X133488319Y-79495440D01*
X133488319Y-79495440D02*
X133488319Y-79590678D01*
X133488319Y-79590678D02*
X133440700Y-79685916D01*
X133440700Y-79685916D02*
X133393080Y-79733535D01*
X133393080Y-79733535D02*
X133297842Y-79781154D01*
X133297842Y-79781154D02*
X133107366Y-79828773D01*
X133107366Y-79828773D02*
X132869271Y-79828773D01*
X132869271Y-79828773D02*
X132678795Y-79781154D01*
X132678795Y-79781154D02*
X132583557Y-79733535D01*
X132583557Y-79733535D02*
X132535938Y-79685916D01*
X132535938Y-79685916D02*
X132488319Y-79590678D01*
%TO.C,C9*%
X141434104Y-74975194D02*
X141366760Y-74975194D01*
X141366760Y-74975194D02*
X141232073Y-74907850D01*
X141232073Y-74907850D02*
X141164730Y-74840507D01*
X141164730Y-74840507D02*
X141097386Y-74705820D01*
X141097386Y-74705820D02*
X141097386Y-74571133D01*
X141097386Y-74571133D02*
X141131058Y-74470118D01*
X141131058Y-74470118D02*
X141232073Y-74301759D01*
X141232073Y-74301759D02*
X141333088Y-74200744D01*
X141333088Y-74200744D02*
X141501447Y-74099728D01*
X141501447Y-74099728D02*
X141602462Y-74066057D01*
X141602462Y-74066057D02*
X141737149Y-74066057D01*
X141737149Y-74066057D02*
X141871836Y-74133400D01*
X141871836Y-74133400D02*
X141939180Y-74200744D01*
X141939180Y-74200744D02*
X142006523Y-74335431D01*
X142006523Y-74335431D02*
X142006523Y-74402774D01*
X141703478Y-75379255D02*
X141838165Y-75513942D01*
X141838165Y-75513942D02*
X141939180Y-75547614D01*
X141939180Y-75547614D02*
X142006523Y-75547614D01*
X142006523Y-75547614D02*
X142174882Y-75513942D01*
X142174882Y-75513942D02*
X142343241Y-75412927D01*
X142343241Y-75412927D02*
X142612615Y-75143553D01*
X142612615Y-75143553D02*
X142646287Y-75042537D01*
X142646287Y-75042537D02*
X142646287Y-74975194D01*
X142646287Y-74975194D02*
X142612615Y-74874179D01*
X142612615Y-74874179D02*
X142477928Y-74739492D01*
X142477928Y-74739492D02*
X142376913Y-74705820D01*
X142376913Y-74705820D02*
X142309569Y-74705820D01*
X142309569Y-74705820D02*
X142208554Y-74739492D01*
X142208554Y-74739492D02*
X142040195Y-74907850D01*
X142040195Y-74907850D02*
X142006523Y-75008866D01*
X142006523Y-75008866D02*
X142006523Y-75076209D01*
X142006523Y-75076209D02*
X142040195Y-75177224D01*
X142040195Y-75177224D02*
X142174882Y-75311911D01*
X142174882Y-75311911D02*
X142275897Y-75345583D01*
X142275897Y-75345583D02*
X142343241Y-75345583D01*
X142343241Y-75345583D02*
X142444256Y-75311911D01*
%TO.C,C1*%
X125907333Y-79959580D02*
X125859714Y-80007200D01*
X125859714Y-80007200D02*
X125716857Y-80054819D01*
X125716857Y-80054819D02*
X125621619Y-80054819D01*
X125621619Y-80054819D02*
X125478762Y-80007200D01*
X125478762Y-80007200D02*
X125383524Y-79911961D01*
X125383524Y-79911961D02*
X125335905Y-79816723D01*
X125335905Y-79816723D02*
X125288286Y-79626247D01*
X125288286Y-79626247D02*
X125288286Y-79483390D01*
X125288286Y-79483390D02*
X125335905Y-79292914D01*
X125335905Y-79292914D02*
X125383524Y-79197676D01*
X125383524Y-79197676D02*
X125478762Y-79102438D01*
X125478762Y-79102438D02*
X125621619Y-79054819D01*
X125621619Y-79054819D02*
X125716857Y-79054819D01*
X125716857Y-79054819D02*
X125859714Y-79102438D01*
X125859714Y-79102438D02*
X125907333Y-79150057D01*
X126859714Y-80054819D02*
X126288286Y-80054819D01*
X126574000Y-80054819D02*
X126574000Y-79054819D01*
X126574000Y-79054819D02*
X126478762Y-79197676D01*
X126478762Y-79197676D02*
X126383524Y-79292914D01*
X126383524Y-79292914D02*
X126288286Y-79340533D01*
%TO.C,H3*%
X111506095Y-86814819D02*
X111506095Y-85814819D01*
X111506095Y-86291009D02*
X112077523Y-86291009D01*
X112077523Y-86814819D02*
X112077523Y-85814819D01*
X112458476Y-85814819D02*
X113077523Y-85814819D01*
X113077523Y-85814819D02*
X112744190Y-86195771D01*
X112744190Y-86195771D02*
X112887047Y-86195771D01*
X112887047Y-86195771D02*
X112982285Y-86243390D01*
X112982285Y-86243390D02*
X113029904Y-86291009D01*
X113029904Y-86291009D02*
X113077523Y-86386247D01*
X113077523Y-86386247D02*
X113077523Y-86624342D01*
X113077523Y-86624342D02*
X113029904Y-86719580D01*
X113029904Y-86719580D02*
X112982285Y-86767200D01*
X112982285Y-86767200D02*
X112887047Y-86814819D01*
X112887047Y-86814819D02*
X112601333Y-86814819D01*
X112601333Y-86814819D02*
X112506095Y-86767200D01*
X112506095Y-86767200D02*
X112458476Y-86719580D01*
%TO.C,H2*%
X189738095Y-85004819D02*
X189738095Y-84004819D01*
X189738095Y-84481009D02*
X190309523Y-84481009D01*
X190309523Y-85004819D02*
X190309523Y-84004819D01*
X190738095Y-84100057D02*
X190785714Y-84052438D01*
X190785714Y-84052438D02*
X190880952Y-84004819D01*
X190880952Y-84004819D02*
X191119047Y-84004819D01*
X191119047Y-84004819D02*
X191214285Y-84052438D01*
X191214285Y-84052438D02*
X191261904Y-84100057D01*
X191261904Y-84100057D02*
X191309523Y-84195295D01*
X191309523Y-84195295D02*
X191309523Y-84290533D01*
X191309523Y-84290533D02*
X191261904Y-84433390D01*
X191261904Y-84433390D02*
X190690476Y-85004819D01*
X190690476Y-85004819D02*
X191309523Y-85004819D01*
%TO.C,R21*%
X187410142Y-82750819D02*
X187076809Y-82274628D01*
X186838714Y-82750819D02*
X186838714Y-81750819D01*
X186838714Y-81750819D02*
X187219666Y-81750819D01*
X187219666Y-81750819D02*
X187314904Y-81798438D01*
X187314904Y-81798438D02*
X187362523Y-81846057D01*
X187362523Y-81846057D02*
X187410142Y-81941295D01*
X187410142Y-81941295D02*
X187410142Y-82084152D01*
X187410142Y-82084152D02*
X187362523Y-82179390D01*
X187362523Y-82179390D02*
X187314904Y-82227009D01*
X187314904Y-82227009D02*
X187219666Y-82274628D01*
X187219666Y-82274628D02*
X186838714Y-82274628D01*
X187791095Y-81846057D02*
X187838714Y-81798438D01*
X187838714Y-81798438D02*
X187933952Y-81750819D01*
X187933952Y-81750819D02*
X188172047Y-81750819D01*
X188172047Y-81750819D02*
X188267285Y-81798438D01*
X188267285Y-81798438D02*
X188314904Y-81846057D01*
X188314904Y-81846057D02*
X188362523Y-81941295D01*
X188362523Y-81941295D02*
X188362523Y-82036533D01*
X188362523Y-82036533D02*
X188314904Y-82179390D01*
X188314904Y-82179390D02*
X187743476Y-82750819D01*
X187743476Y-82750819D02*
X188362523Y-82750819D01*
X189314904Y-82750819D02*
X188743476Y-82750819D01*
X189029190Y-82750819D02*
X189029190Y-81750819D01*
X189029190Y-81750819D02*
X188933952Y-81893676D01*
X188933952Y-81893676D02*
X188838714Y-81988914D01*
X188838714Y-81988914D02*
X188743476Y-82036533D01*
%TO.C,U2*%
X130452819Y-62091904D02*
X131262342Y-62091904D01*
X131262342Y-62091904D02*
X131357580Y-62044285D01*
X131357580Y-62044285D02*
X131405200Y-61996666D01*
X131405200Y-61996666D02*
X131452819Y-61901428D01*
X131452819Y-61901428D02*
X131452819Y-61710952D01*
X131452819Y-61710952D02*
X131405200Y-61615714D01*
X131405200Y-61615714D02*
X131357580Y-61568095D01*
X131357580Y-61568095D02*
X131262342Y-61520476D01*
X131262342Y-61520476D02*
X130452819Y-61520476D01*
X130548057Y-61091904D02*
X130500438Y-61044285D01*
X130500438Y-61044285D02*
X130452819Y-60949047D01*
X130452819Y-60949047D02*
X130452819Y-60710952D01*
X130452819Y-60710952D02*
X130500438Y-60615714D01*
X130500438Y-60615714D02*
X130548057Y-60568095D01*
X130548057Y-60568095D02*
X130643295Y-60520476D01*
X130643295Y-60520476D02*
X130738533Y-60520476D01*
X130738533Y-60520476D02*
X130881390Y-60568095D01*
X130881390Y-60568095D02*
X131452819Y-61139523D01*
X131452819Y-61139523D02*
X131452819Y-60520476D01*
%TO.C,R16*%
X171061142Y-84274819D02*
X170727809Y-83798628D01*
X170489714Y-84274819D02*
X170489714Y-83274819D01*
X170489714Y-83274819D02*
X170870666Y-83274819D01*
X170870666Y-83274819D02*
X170965904Y-83322438D01*
X170965904Y-83322438D02*
X171013523Y-83370057D01*
X171013523Y-83370057D02*
X171061142Y-83465295D01*
X171061142Y-83465295D02*
X171061142Y-83608152D01*
X171061142Y-83608152D02*
X171013523Y-83703390D01*
X171013523Y-83703390D02*
X170965904Y-83751009D01*
X170965904Y-83751009D02*
X170870666Y-83798628D01*
X170870666Y-83798628D02*
X170489714Y-83798628D01*
X172013523Y-84274819D02*
X171442095Y-84274819D01*
X171727809Y-84274819D02*
X171727809Y-83274819D01*
X171727809Y-83274819D02*
X171632571Y-83417676D01*
X171632571Y-83417676D02*
X171537333Y-83512914D01*
X171537333Y-83512914D02*
X171442095Y-83560533D01*
X172870666Y-83274819D02*
X172680190Y-83274819D01*
X172680190Y-83274819D02*
X172584952Y-83322438D01*
X172584952Y-83322438D02*
X172537333Y-83370057D01*
X172537333Y-83370057D02*
X172442095Y-83512914D01*
X172442095Y-83512914D02*
X172394476Y-83703390D01*
X172394476Y-83703390D02*
X172394476Y-84084342D01*
X172394476Y-84084342D02*
X172442095Y-84179580D01*
X172442095Y-84179580D02*
X172489714Y-84227200D01*
X172489714Y-84227200D02*
X172584952Y-84274819D01*
X172584952Y-84274819D02*
X172775428Y-84274819D01*
X172775428Y-84274819D02*
X172870666Y-84227200D01*
X172870666Y-84227200D02*
X172918285Y-84179580D01*
X172918285Y-84179580D02*
X172965904Y-84084342D01*
X172965904Y-84084342D02*
X172965904Y-83846247D01*
X172965904Y-83846247D02*
X172918285Y-83751009D01*
X172918285Y-83751009D02*
X172870666Y-83703390D01*
X172870666Y-83703390D02*
X172775428Y-83655771D01*
X172775428Y-83655771D02*
X172584952Y-83655771D01*
X172584952Y-83655771D02*
X172489714Y-83703390D01*
X172489714Y-83703390D02*
X172442095Y-83751009D01*
X172442095Y-83751009D02*
X172394476Y-83846247D01*
%TO.C,NRST2*%
X179490952Y-92223319D02*
X179490952Y-91223319D01*
X179490952Y-91223319D02*
X180062380Y-92223319D01*
X180062380Y-92223319D02*
X180062380Y-91223319D01*
X181109999Y-92223319D02*
X180776666Y-91747128D01*
X180538571Y-92223319D02*
X180538571Y-91223319D01*
X180538571Y-91223319D02*
X180919523Y-91223319D01*
X180919523Y-91223319D02*
X181014761Y-91270938D01*
X181014761Y-91270938D02*
X181062380Y-91318557D01*
X181062380Y-91318557D02*
X181109999Y-91413795D01*
X181109999Y-91413795D02*
X181109999Y-91556652D01*
X181109999Y-91556652D02*
X181062380Y-91651890D01*
X181062380Y-91651890D02*
X181014761Y-91699509D01*
X181014761Y-91699509D02*
X180919523Y-91747128D01*
X180919523Y-91747128D02*
X180538571Y-91747128D01*
X181490952Y-92175700D02*
X181633809Y-92223319D01*
X181633809Y-92223319D02*
X181871904Y-92223319D01*
X181871904Y-92223319D02*
X181967142Y-92175700D01*
X181967142Y-92175700D02*
X182014761Y-92128080D01*
X182014761Y-92128080D02*
X182062380Y-92032842D01*
X182062380Y-92032842D02*
X182062380Y-91937604D01*
X182062380Y-91937604D02*
X182014761Y-91842366D01*
X182014761Y-91842366D02*
X181967142Y-91794747D01*
X181967142Y-91794747D02*
X181871904Y-91747128D01*
X181871904Y-91747128D02*
X181681428Y-91699509D01*
X181681428Y-91699509D02*
X181586190Y-91651890D01*
X181586190Y-91651890D02*
X181538571Y-91604271D01*
X181538571Y-91604271D02*
X181490952Y-91509033D01*
X181490952Y-91509033D02*
X181490952Y-91413795D01*
X181490952Y-91413795D02*
X181538571Y-91318557D01*
X181538571Y-91318557D02*
X181586190Y-91270938D01*
X181586190Y-91270938D02*
X181681428Y-91223319D01*
X181681428Y-91223319D02*
X181919523Y-91223319D01*
X181919523Y-91223319D02*
X182062380Y-91270938D01*
X182348095Y-91223319D02*
X182919523Y-91223319D01*
X182633809Y-92223319D02*
X182633809Y-91223319D01*
X183205238Y-91318557D02*
X183252857Y-91270938D01*
X183252857Y-91270938D02*
X183348095Y-91223319D01*
X183348095Y-91223319D02*
X183586190Y-91223319D01*
X183586190Y-91223319D02*
X183681428Y-91270938D01*
X183681428Y-91270938D02*
X183729047Y-91318557D01*
X183729047Y-91318557D02*
X183776666Y-91413795D01*
X183776666Y-91413795D02*
X183776666Y-91509033D01*
X183776666Y-91509033D02*
X183729047Y-91651890D01*
X183729047Y-91651890D02*
X183157619Y-92223319D01*
X183157619Y-92223319D02*
X183776666Y-92223319D01*
%TO.C,R6*%
X135133333Y-86084819D02*
X134800000Y-85608628D01*
X134561905Y-86084819D02*
X134561905Y-85084819D01*
X134561905Y-85084819D02*
X134942857Y-85084819D01*
X134942857Y-85084819D02*
X135038095Y-85132438D01*
X135038095Y-85132438D02*
X135085714Y-85180057D01*
X135085714Y-85180057D02*
X135133333Y-85275295D01*
X135133333Y-85275295D02*
X135133333Y-85418152D01*
X135133333Y-85418152D02*
X135085714Y-85513390D01*
X135085714Y-85513390D02*
X135038095Y-85561009D01*
X135038095Y-85561009D02*
X134942857Y-85608628D01*
X134942857Y-85608628D02*
X134561905Y-85608628D01*
X135990476Y-85084819D02*
X135800000Y-85084819D01*
X135800000Y-85084819D02*
X135704762Y-85132438D01*
X135704762Y-85132438D02*
X135657143Y-85180057D01*
X135657143Y-85180057D02*
X135561905Y-85322914D01*
X135561905Y-85322914D02*
X135514286Y-85513390D01*
X135514286Y-85513390D02*
X135514286Y-85894342D01*
X135514286Y-85894342D02*
X135561905Y-85989580D01*
X135561905Y-85989580D02*
X135609524Y-86037200D01*
X135609524Y-86037200D02*
X135704762Y-86084819D01*
X135704762Y-86084819D02*
X135895238Y-86084819D01*
X135895238Y-86084819D02*
X135990476Y-86037200D01*
X135990476Y-86037200D02*
X136038095Y-85989580D01*
X136038095Y-85989580D02*
X136085714Y-85894342D01*
X136085714Y-85894342D02*
X136085714Y-85656247D01*
X136085714Y-85656247D02*
X136038095Y-85561009D01*
X136038095Y-85561009D02*
X135990476Y-85513390D01*
X135990476Y-85513390D02*
X135895238Y-85465771D01*
X135895238Y-85465771D02*
X135704762Y-85465771D01*
X135704762Y-85465771D02*
X135609524Y-85513390D01*
X135609524Y-85513390D02*
X135561905Y-85561009D01*
X135561905Y-85561009D02*
X135514286Y-85656247D01*
%TO.C,R2*%
X145641465Y-62730341D02*
X145308132Y-62254150D01*
X145070037Y-62730341D02*
X145070037Y-61730341D01*
X145070037Y-61730341D02*
X145450989Y-61730341D01*
X145450989Y-61730341D02*
X145546227Y-61777960D01*
X145546227Y-61777960D02*
X145593846Y-61825579D01*
X145593846Y-61825579D02*
X145641465Y-61920817D01*
X145641465Y-61920817D02*
X145641465Y-62063674D01*
X145641465Y-62063674D02*
X145593846Y-62158912D01*
X145593846Y-62158912D02*
X145546227Y-62206531D01*
X145546227Y-62206531D02*
X145450989Y-62254150D01*
X145450989Y-62254150D02*
X145070037Y-62254150D01*
X146022418Y-61825579D02*
X146070037Y-61777960D01*
X146070037Y-61777960D02*
X146165275Y-61730341D01*
X146165275Y-61730341D02*
X146403370Y-61730341D01*
X146403370Y-61730341D02*
X146498608Y-61777960D01*
X146498608Y-61777960D02*
X146546227Y-61825579D01*
X146546227Y-61825579D02*
X146593846Y-61920817D01*
X146593846Y-61920817D02*
X146593846Y-62016055D01*
X146593846Y-62016055D02*
X146546227Y-62158912D01*
X146546227Y-62158912D02*
X145974799Y-62730341D01*
X145974799Y-62730341D02*
X146593846Y-62730341D01*
%TO.C,F1*%
X124889666Y-84741009D02*
X124556333Y-84741009D01*
X124556333Y-85264819D02*
X124556333Y-84264819D01*
X124556333Y-84264819D02*
X125032523Y-84264819D01*
X125937285Y-85264819D02*
X125365857Y-85264819D01*
X125651571Y-85264819D02*
X125651571Y-84264819D01*
X125651571Y-84264819D02*
X125556333Y-84407676D01*
X125556333Y-84407676D02*
X125461095Y-84502914D01*
X125461095Y-84502914D02*
X125365857Y-84550533D01*
%TO.C,R17*%
X183334819Y-82430857D02*
X182858628Y-82764190D01*
X183334819Y-83002285D02*
X182334819Y-83002285D01*
X182334819Y-83002285D02*
X182334819Y-82621333D01*
X182334819Y-82621333D02*
X182382438Y-82526095D01*
X182382438Y-82526095D02*
X182430057Y-82478476D01*
X182430057Y-82478476D02*
X182525295Y-82430857D01*
X182525295Y-82430857D02*
X182668152Y-82430857D01*
X182668152Y-82430857D02*
X182763390Y-82478476D01*
X182763390Y-82478476D02*
X182811009Y-82526095D01*
X182811009Y-82526095D02*
X182858628Y-82621333D01*
X182858628Y-82621333D02*
X182858628Y-83002285D01*
X183334819Y-81478476D02*
X183334819Y-82049904D01*
X183334819Y-81764190D02*
X182334819Y-81764190D01*
X182334819Y-81764190D02*
X182477676Y-81859428D01*
X182477676Y-81859428D02*
X182572914Y-81954666D01*
X182572914Y-81954666D02*
X182620533Y-82049904D01*
X182334819Y-81145142D02*
X182334819Y-80478476D01*
X182334819Y-80478476D02*
X183334819Y-80907047D01*
%TO.C,2V2*%
X174048057Y-82724475D02*
X174000438Y-82676856D01*
X174000438Y-82676856D02*
X173952819Y-82581618D01*
X173952819Y-82581618D02*
X173952819Y-82343523D01*
X173952819Y-82343523D02*
X174000438Y-82248285D01*
X174000438Y-82248285D02*
X174048057Y-82200666D01*
X174048057Y-82200666D02*
X174143295Y-82153047D01*
X174143295Y-82153047D02*
X174238533Y-82153047D01*
X174238533Y-82153047D02*
X174381390Y-82200666D01*
X174381390Y-82200666D02*
X174952819Y-82772094D01*
X174952819Y-82772094D02*
X174952819Y-82153047D01*
X173952819Y-81867332D02*
X174952819Y-81533999D01*
X174952819Y-81533999D02*
X173952819Y-81200666D01*
X174048057Y-80914951D02*
X174000438Y-80867332D01*
X174000438Y-80867332D02*
X173952819Y-80772094D01*
X173952819Y-80772094D02*
X173952819Y-80533999D01*
X173952819Y-80533999D02*
X174000438Y-80438761D01*
X174000438Y-80438761D02*
X174048057Y-80391142D01*
X174048057Y-80391142D02*
X174143295Y-80343523D01*
X174143295Y-80343523D02*
X174238533Y-80343523D01*
X174238533Y-80343523D02*
X174381390Y-80391142D01*
X174381390Y-80391142D02*
X174952819Y-80962570D01*
X174952819Y-80962570D02*
X174952819Y-80343523D01*
%TO.C,C15*%
X118483142Y-65891580D02*
X118435523Y-65939200D01*
X118435523Y-65939200D02*
X118292666Y-65986819D01*
X118292666Y-65986819D02*
X118197428Y-65986819D01*
X118197428Y-65986819D02*
X118054571Y-65939200D01*
X118054571Y-65939200D02*
X117959333Y-65843961D01*
X117959333Y-65843961D02*
X117911714Y-65748723D01*
X117911714Y-65748723D02*
X117864095Y-65558247D01*
X117864095Y-65558247D02*
X117864095Y-65415390D01*
X117864095Y-65415390D02*
X117911714Y-65224914D01*
X117911714Y-65224914D02*
X117959333Y-65129676D01*
X117959333Y-65129676D02*
X118054571Y-65034438D01*
X118054571Y-65034438D02*
X118197428Y-64986819D01*
X118197428Y-64986819D02*
X118292666Y-64986819D01*
X118292666Y-64986819D02*
X118435523Y-65034438D01*
X118435523Y-65034438D02*
X118483142Y-65082057D01*
X119435523Y-65986819D02*
X118864095Y-65986819D01*
X119149809Y-65986819D02*
X119149809Y-64986819D01*
X119149809Y-64986819D02*
X119054571Y-65129676D01*
X119054571Y-65129676D02*
X118959333Y-65224914D01*
X118959333Y-65224914D02*
X118864095Y-65272533D01*
X120340285Y-64986819D02*
X119864095Y-64986819D01*
X119864095Y-64986819D02*
X119816476Y-65463009D01*
X119816476Y-65463009D02*
X119864095Y-65415390D01*
X119864095Y-65415390D02*
X119959333Y-65367771D01*
X119959333Y-65367771D02*
X120197428Y-65367771D01*
X120197428Y-65367771D02*
X120292666Y-65415390D01*
X120292666Y-65415390D02*
X120340285Y-65463009D01*
X120340285Y-65463009D02*
X120387904Y-65558247D01*
X120387904Y-65558247D02*
X120387904Y-65796342D01*
X120387904Y-65796342D02*
X120340285Y-65891580D01*
X120340285Y-65891580D02*
X120292666Y-65939200D01*
X120292666Y-65939200D02*
X120197428Y-65986819D01*
X120197428Y-65986819D02*
X119959333Y-65986819D01*
X119959333Y-65986819D02*
X119864095Y-65939200D01*
X119864095Y-65939200D02*
X119816476Y-65891580D01*
%TO.C,C8*%
X161969574Y-76179275D02*
X161969574Y-76246619D01*
X161969574Y-76246619D02*
X161902230Y-76381306D01*
X161902230Y-76381306D02*
X161834887Y-76448649D01*
X161834887Y-76448649D02*
X161700200Y-76515993D01*
X161700200Y-76515993D02*
X161565513Y-76515993D01*
X161565513Y-76515993D02*
X161464498Y-76482321D01*
X161464498Y-76482321D02*
X161296139Y-76381306D01*
X161296139Y-76381306D02*
X161195124Y-76280291D01*
X161195124Y-76280291D02*
X161094108Y-76111932D01*
X161094108Y-76111932D02*
X161060437Y-76010917D01*
X161060437Y-76010917D02*
X161060437Y-75876230D01*
X161060437Y-75876230D02*
X161127780Y-75741543D01*
X161127780Y-75741543D02*
X161195124Y-75674199D01*
X161195124Y-75674199D02*
X161329811Y-75606856D01*
X161329811Y-75606856D02*
X161397154Y-75606856D01*
X162036917Y-75438497D02*
X161935902Y-75472169D01*
X161935902Y-75472169D02*
X161868559Y-75472169D01*
X161868559Y-75472169D02*
X161767543Y-75438497D01*
X161767543Y-75438497D02*
X161733872Y-75404825D01*
X161733872Y-75404825D02*
X161700200Y-75303810D01*
X161700200Y-75303810D02*
X161700200Y-75236466D01*
X161700200Y-75236466D02*
X161733872Y-75135451D01*
X161733872Y-75135451D02*
X161868559Y-75000764D01*
X161868559Y-75000764D02*
X161969574Y-74967092D01*
X161969574Y-74967092D02*
X162036917Y-74967092D01*
X162036917Y-74967092D02*
X162137933Y-75000764D01*
X162137933Y-75000764D02*
X162171604Y-75034436D01*
X162171604Y-75034436D02*
X162205276Y-75135451D01*
X162205276Y-75135451D02*
X162205276Y-75202795D01*
X162205276Y-75202795D02*
X162171604Y-75303810D01*
X162171604Y-75303810D02*
X162036917Y-75438497D01*
X162036917Y-75438497D02*
X162003246Y-75539512D01*
X162003246Y-75539512D02*
X162003246Y-75606856D01*
X162003246Y-75606856D02*
X162036917Y-75707871D01*
X162036917Y-75707871D02*
X162171604Y-75842558D01*
X162171604Y-75842558D02*
X162272620Y-75876230D01*
X162272620Y-75876230D02*
X162339963Y-75876230D01*
X162339963Y-75876230D02*
X162440978Y-75842558D01*
X162440978Y-75842558D02*
X162575665Y-75707871D01*
X162575665Y-75707871D02*
X162609337Y-75606856D01*
X162609337Y-75606856D02*
X162609337Y-75539512D01*
X162609337Y-75539512D02*
X162575665Y-75438497D01*
X162575665Y-75438497D02*
X162440978Y-75303810D01*
X162440978Y-75303810D02*
X162339963Y-75270138D01*
X162339963Y-75270138D02*
X162272620Y-75270138D01*
X162272620Y-75270138D02*
X162171604Y-75303810D01*
%TO.C,R7*%
X154265333Y-83004819D02*
X153932000Y-82528628D01*
X153693905Y-83004819D02*
X153693905Y-82004819D01*
X153693905Y-82004819D02*
X154074857Y-82004819D01*
X154074857Y-82004819D02*
X154170095Y-82052438D01*
X154170095Y-82052438D02*
X154217714Y-82100057D01*
X154217714Y-82100057D02*
X154265333Y-82195295D01*
X154265333Y-82195295D02*
X154265333Y-82338152D01*
X154265333Y-82338152D02*
X154217714Y-82433390D01*
X154217714Y-82433390D02*
X154170095Y-82481009D01*
X154170095Y-82481009D02*
X154074857Y-82528628D01*
X154074857Y-82528628D02*
X153693905Y-82528628D01*
X154598667Y-82004819D02*
X155265333Y-82004819D01*
X155265333Y-82004819D02*
X154836762Y-83004819D01*
%TO.C,2V1*%
X168968057Y-82470475D02*
X168920438Y-82422856D01*
X168920438Y-82422856D02*
X168872819Y-82327618D01*
X168872819Y-82327618D02*
X168872819Y-82089523D01*
X168872819Y-82089523D02*
X168920438Y-81994285D01*
X168920438Y-81994285D02*
X168968057Y-81946666D01*
X168968057Y-81946666D02*
X169063295Y-81899047D01*
X169063295Y-81899047D02*
X169158533Y-81899047D01*
X169158533Y-81899047D02*
X169301390Y-81946666D01*
X169301390Y-81946666D02*
X169872819Y-82518094D01*
X169872819Y-82518094D02*
X169872819Y-81899047D01*
X168872819Y-81613332D02*
X169872819Y-81279999D01*
X169872819Y-81279999D02*
X168872819Y-80946666D01*
X169872819Y-80089523D02*
X169872819Y-80660951D01*
X169872819Y-80375237D02*
X168872819Y-80375237D01*
X168872819Y-80375237D02*
X169015676Y-80470475D01*
X169015676Y-80470475D02*
X169110914Y-80565713D01*
X169110914Y-80565713D02*
X169158533Y-80660951D01*
%TO.C,5V1*%
X117444819Y-63651666D02*
X117444819Y-64127856D01*
X117444819Y-64127856D02*
X117921009Y-64175475D01*
X117921009Y-64175475D02*
X117873390Y-64127856D01*
X117873390Y-64127856D02*
X117825771Y-64032618D01*
X117825771Y-64032618D02*
X117825771Y-63794523D01*
X117825771Y-63794523D02*
X117873390Y-63699285D01*
X117873390Y-63699285D02*
X117921009Y-63651666D01*
X117921009Y-63651666D02*
X118016247Y-63604047D01*
X118016247Y-63604047D02*
X118254342Y-63604047D01*
X118254342Y-63604047D02*
X118349580Y-63651666D01*
X118349580Y-63651666D02*
X118397200Y-63699285D01*
X118397200Y-63699285D02*
X118444819Y-63794523D01*
X118444819Y-63794523D02*
X118444819Y-64032618D01*
X118444819Y-64032618D02*
X118397200Y-64127856D01*
X118397200Y-64127856D02*
X118349580Y-64175475D01*
X117444819Y-63318332D02*
X118444819Y-62984999D01*
X118444819Y-62984999D02*
X117444819Y-62651666D01*
X118444819Y-61794523D02*
X118444819Y-62365951D01*
X118444819Y-62080237D02*
X117444819Y-62080237D01*
X117444819Y-62080237D02*
X117587676Y-62175475D01*
X117587676Y-62175475D02*
X117682914Y-62270713D01*
X117682914Y-62270713D02*
X117730533Y-62365951D01*
%TO.C,J2*%
X176492819Y-61222333D02*
X177207104Y-61222333D01*
X177207104Y-61222333D02*
X177349961Y-61269952D01*
X177349961Y-61269952D02*
X177445200Y-61365190D01*
X177445200Y-61365190D02*
X177492819Y-61508047D01*
X177492819Y-61508047D02*
X177492819Y-61603285D01*
X176588057Y-60793761D02*
X176540438Y-60746142D01*
X176540438Y-60746142D02*
X176492819Y-60650904D01*
X176492819Y-60650904D02*
X176492819Y-60412809D01*
X176492819Y-60412809D02*
X176540438Y-60317571D01*
X176540438Y-60317571D02*
X176588057Y-60269952D01*
X176588057Y-60269952D02*
X176683295Y-60222333D01*
X176683295Y-60222333D02*
X176778533Y-60222333D01*
X176778533Y-60222333D02*
X176921390Y-60269952D01*
X176921390Y-60269952D02*
X177492819Y-60841380D01*
X177492819Y-60841380D02*
X177492819Y-60222333D01*
%TO.C,J1*%
X122137819Y-75717333D02*
X122852104Y-75717333D01*
X122852104Y-75717333D02*
X122994961Y-75764952D01*
X122994961Y-75764952D02*
X123090200Y-75860190D01*
X123090200Y-75860190D02*
X123137819Y-76003047D01*
X123137819Y-76003047D02*
X123137819Y-76098285D01*
X123137819Y-74717333D02*
X123137819Y-75288761D01*
X123137819Y-75003047D02*
X122137819Y-75003047D01*
X122137819Y-75003047D02*
X122280676Y-75098285D01*
X122280676Y-75098285D02*
X122375914Y-75193523D01*
X122375914Y-75193523D02*
X122423533Y-75288761D01*
%TO.C,U4*%
X180794176Y-64207687D02*
X180794176Y-64774875D01*
X180794176Y-64774875D02*
X180827540Y-64841603D01*
X180827540Y-64841603D02*
X180860904Y-64874967D01*
X180860904Y-64874967D02*
X180927632Y-64908330D01*
X180927632Y-64908330D02*
X181061088Y-64908330D01*
X181061088Y-64908330D02*
X181127816Y-64874967D01*
X181127816Y-64874967D02*
X181161180Y-64841603D01*
X181161180Y-64841603D02*
X181194544Y-64774875D01*
X181194544Y-64774875D02*
X181194544Y-64207687D01*
X181828459Y-64441235D02*
X181828459Y-64908330D01*
X181661639Y-64174324D02*
X181494819Y-64674783D01*
X181494819Y-64674783D02*
X181928551Y-64674783D01*
%TO.C,C6*%
X161588050Y-64015248D02*
X161520706Y-64015248D01*
X161520706Y-64015248D02*
X161386019Y-63947904D01*
X161386019Y-63947904D02*
X161318676Y-63880561D01*
X161318676Y-63880561D02*
X161251332Y-63745874D01*
X161251332Y-63745874D02*
X161251332Y-63611187D01*
X161251332Y-63611187D02*
X161285004Y-63510172D01*
X161285004Y-63510172D02*
X161386019Y-63341813D01*
X161386019Y-63341813D02*
X161487034Y-63240798D01*
X161487034Y-63240798D02*
X161655393Y-63139782D01*
X161655393Y-63139782D02*
X161756408Y-63106111D01*
X161756408Y-63106111D02*
X161891095Y-63106111D01*
X161891095Y-63106111D02*
X162025782Y-63173454D01*
X162025782Y-63173454D02*
X162093126Y-63240798D01*
X162093126Y-63240798D02*
X162160469Y-63375485D01*
X162160469Y-63375485D02*
X162160469Y-63442828D01*
X162833904Y-63981576D02*
X162699217Y-63846889D01*
X162699217Y-63846889D02*
X162598202Y-63813217D01*
X162598202Y-63813217D02*
X162530859Y-63813217D01*
X162530859Y-63813217D02*
X162362500Y-63846889D01*
X162362500Y-63846889D02*
X162194141Y-63947904D01*
X162194141Y-63947904D02*
X161924767Y-64217278D01*
X161924767Y-64217278D02*
X161891095Y-64318294D01*
X161891095Y-64318294D02*
X161891095Y-64385637D01*
X161891095Y-64385637D02*
X161924767Y-64486652D01*
X161924767Y-64486652D02*
X162059454Y-64621339D01*
X162059454Y-64621339D02*
X162160469Y-64655011D01*
X162160469Y-64655011D02*
X162227813Y-64655011D01*
X162227813Y-64655011D02*
X162328828Y-64621339D01*
X162328828Y-64621339D02*
X162497187Y-64452981D01*
X162497187Y-64452981D02*
X162530859Y-64351965D01*
X162530859Y-64351965D02*
X162530859Y-64284622D01*
X162530859Y-64284622D02*
X162497187Y-64183607D01*
X162497187Y-64183607D02*
X162362500Y-64048920D01*
X162362500Y-64048920D02*
X162261485Y-64015248D01*
X162261485Y-64015248D02*
X162194141Y-64015248D01*
X162194141Y-64015248D02*
X162093126Y-64048920D01*
%TO.C,J11*%
X112728476Y-63970819D02*
X112728476Y-64685104D01*
X112728476Y-64685104D02*
X112680857Y-64827961D01*
X112680857Y-64827961D02*
X112585619Y-64923200D01*
X112585619Y-64923200D02*
X112442762Y-64970819D01*
X112442762Y-64970819D02*
X112347524Y-64970819D01*
X113728476Y-64970819D02*
X113157048Y-64970819D01*
X113442762Y-64970819D02*
X113442762Y-63970819D01*
X113442762Y-63970819D02*
X113347524Y-64113676D01*
X113347524Y-64113676D02*
X113252286Y-64208914D01*
X113252286Y-64208914D02*
X113157048Y-64256533D01*
X114680857Y-64970819D02*
X114109429Y-64970819D01*
X114395143Y-64970819D02*
X114395143Y-63970819D01*
X114395143Y-63970819D02*
X114299905Y-64113676D01*
X114299905Y-64113676D02*
X114204667Y-64208914D01*
X114204667Y-64208914D02*
X114109429Y-64256533D01*
%TO.C,U3*%
X155078595Y-63320819D02*
X155078595Y-64130342D01*
X155078595Y-64130342D02*
X155126214Y-64225580D01*
X155126214Y-64225580D02*
X155173833Y-64273200D01*
X155173833Y-64273200D02*
X155269071Y-64320819D01*
X155269071Y-64320819D02*
X155459547Y-64320819D01*
X155459547Y-64320819D02*
X155554785Y-64273200D01*
X155554785Y-64273200D02*
X155602404Y-64225580D01*
X155602404Y-64225580D02*
X155650023Y-64130342D01*
X155650023Y-64130342D02*
X155650023Y-63320819D01*
X156030976Y-63320819D02*
X156650023Y-63320819D01*
X156650023Y-63320819D02*
X156316690Y-63701771D01*
X156316690Y-63701771D02*
X156459547Y-63701771D01*
X156459547Y-63701771D02*
X156554785Y-63749390D01*
X156554785Y-63749390D02*
X156602404Y-63797009D01*
X156602404Y-63797009D02*
X156650023Y-63892247D01*
X156650023Y-63892247D02*
X156650023Y-64130342D01*
X156650023Y-64130342D02*
X156602404Y-64225580D01*
X156602404Y-64225580D02*
X156554785Y-64273200D01*
X156554785Y-64273200D02*
X156459547Y-64320819D01*
X156459547Y-64320819D02*
X156173833Y-64320819D01*
X156173833Y-64320819D02*
X156078595Y-64273200D01*
X156078595Y-64273200D02*
X156030976Y-64225580D01*
%TO.C,Y1*%
X146872550Y-68047224D02*
X147209268Y-68383942D01*
X146266459Y-67912537D02*
X146872550Y-68047224D01*
X146872550Y-68047224D02*
X146737863Y-67441133D01*
X148051061Y-67542148D02*
X147647000Y-67946209D01*
X147849031Y-67744178D02*
X147141924Y-67037072D01*
X147141924Y-67037072D02*
X147175596Y-67205430D01*
X147175596Y-67205430D02*
X147175596Y-67340117D01*
X147175596Y-67340117D02*
X147141924Y-67441133D01*
%TO.C,C7*%
X167745580Y-85002666D02*
X167793200Y-85050285D01*
X167793200Y-85050285D02*
X167840819Y-85193142D01*
X167840819Y-85193142D02*
X167840819Y-85288380D01*
X167840819Y-85288380D02*
X167793200Y-85431237D01*
X167793200Y-85431237D02*
X167697961Y-85526475D01*
X167697961Y-85526475D02*
X167602723Y-85574094D01*
X167602723Y-85574094D02*
X167412247Y-85621713D01*
X167412247Y-85621713D02*
X167269390Y-85621713D01*
X167269390Y-85621713D02*
X167078914Y-85574094D01*
X167078914Y-85574094D02*
X166983676Y-85526475D01*
X166983676Y-85526475D02*
X166888438Y-85431237D01*
X166888438Y-85431237D02*
X166840819Y-85288380D01*
X166840819Y-85288380D02*
X166840819Y-85193142D01*
X166840819Y-85193142D02*
X166888438Y-85050285D01*
X166888438Y-85050285D02*
X166936057Y-85002666D01*
X166840819Y-84669332D02*
X166840819Y-84002666D01*
X166840819Y-84002666D02*
X167840819Y-84431237D01*
%TO.C,5V2*%
X135852819Y-74580666D02*
X135852819Y-75056856D01*
X135852819Y-75056856D02*
X136329009Y-75104475D01*
X136329009Y-75104475D02*
X136281390Y-75056856D01*
X136281390Y-75056856D02*
X136233771Y-74961618D01*
X136233771Y-74961618D02*
X136233771Y-74723523D01*
X136233771Y-74723523D02*
X136281390Y-74628285D01*
X136281390Y-74628285D02*
X136329009Y-74580666D01*
X136329009Y-74580666D02*
X136424247Y-74533047D01*
X136424247Y-74533047D02*
X136662342Y-74533047D01*
X136662342Y-74533047D02*
X136757580Y-74580666D01*
X136757580Y-74580666D02*
X136805200Y-74628285D01*
X136805200Y-74628285D02*
X136852819Y-74723523D01*
X136852819Y-74723523D02*
X136852819Y-74961618D01*
X136852819Y-74961618D02*
X136805200Y-75056856D01*
X136805200Y-75056856D02*
X136757580Y-75104475D01*
X135852819Y-74247332D02*
X136852819Y-73913999D01*
X136852819Y-73913999D02*
X135852819Y-73580666D01*
X135948057Y-73294951D02*
X135900438Y-73247332D01*
X135900438Y-73247332D02*
X135852819Y-73152094D01*
X135852819Y-73152094D02*
X135852819Y-72913999D01*
X135852819Y-72913999D02*
X135900438Y-72818761D01*
X135900438Y-72818761D02*
X135948057Y-72771142D01*
X135948057Y-72771142D02*
X136043295Y-72723523D01*
X136043295Y-72723523D02*
X136138533Y-72723523D01*
X136138533Y-72723523D02*
X136281390Y-72771142D01*
X136281390Y-72771142D02*
X136852819Y-73342570D01*
X136852819Y-73342570D02*
X136852819Y-72723523D01*
%TO.C,H1*%
X189738095Y-63700819D02*
X189738095Y-62700819D01*
X189738095Y-63177009D02*
X190309523Y-63177009D01*
X190309523Y-63700819D02*
X190309523Y-62700819D01*
X191309523Y-63700819D02*
X190738095Y-63700819D01*
X191023809Y-63700819D02*
X191023809Y-62700819D01*
X191023809Y-62700819D02*
X190928571Y-62843676D01*
X190928571Y-62843676D02*
X190833333Y-62938914D01*
X190833333Y-62938914D02*
X190738095Y-62986533D01*
%TO.C,C2*%
X126415333Y-73731580D02*
X126367714Y-73779200D01*
X126367714Y-73779200D02*
X126224857Y-73826819D01*
X126224857Y-73826819D02*
X126129619Y-73826819D01*
X126129619Y-73826819D02*
X125986762Y-73779200D01*
X125986762Y-73779200D02*
X125891524Y-73683961D01*
X125891524Y-73683961D02*
X125843905Y-73588723D01*
X125843905Y-73588723D02*
X125796286Y-73398247D01*
X125796286Y-73398247D02*
X125796286Y-73255390D01*
X125796286Y-73255390D02*
X125843905Y-73064914D01*
X125843905Y-73064914D02*
X125891524Y-72969676D01*
X125891524Y-72969676D02*
X125986762Y-72874438D01*
X125986762Y-72874438D02*
X126129619Y-72826819D01*
X126129619Y-72826819D02*
X126224857Y-72826819D01*
X126224857Y-72826819D02*
X126367714Y-72874438D01*
X126367714Y-72874438D02*
X126415333Y-72922057D01*
X126796286Y-72922057D02*
X126843905Y-72874438D01*
X126843905Y-72874438D02*
X126939143Y-72826819D01*
X126939143Y-72826819D02*
X127177238Y-72826819D01*
X127177238Y-72826819D02*
X127272476Y-72874438D01*
X127272476Y-72874438D02*
X127320095Y-72922057D01*
X127320095Y-72922057D02*
X127367714Y-73017295D01*
X127367714Y-73017295D02*
X127367714Y-73112533D01*
X127367714Y-73112533D02*
X127320095Y-73255390D01*
X127320095Y-73255390D02*
X126748667Y-73826819D01*
X126748667Y-73826819D02*
X127367714Y-73826819D01*
%TO.C,R1*%
X124769333Y-62564819D02*
X124436000Y-62088628D01*
X124197905Y-62564819D02*
X124197905Y-61564819D01*
X124197905Y-61564819D02*
X124578857Y-61564819D01*
X124578857Y-61564819D02*
X124674095Y-61612438D01*
X124674095Y-61612438D02*
X124721714Y-61660057D01*
X124721714Y-61660057D02*
X124769333Y-61755295D01*
X124769333Y-61755295D02*
X124769333Y-61898152D01*
X124769333Y-61898152D02*
X124721714Y-61993390D01*
X124721714Y-61993390D02*
X124674095Y-62041009D01*
X124674095Y-62041009D02*
X124578857Y-62088628D01*
X124578857Y-62088628D02*
X124197905Y-62088628D01*
X125721714Y-62564819D02*
X125150286Y-62564819D01*
X125436000Y-62564819D02*
X125436000Y-61564819D01*
X125436000Y-61564819D02*
X125340762Y-61707676D01*
X125340762Y-61707676D02*
X125245524Y-61802914D01*
X125245524Y-61802914D02*
X125150286Y-61850533D01*
%TO.C,R8*%
X135118319Y-80235916D02*
X134642128Y-80569249D01*
X135118319Y-80807344D02*
X134118319Y-80807344D01*
X134118319Y-80807344D02*
X134118319Y-80426392D01*
X134118319Y-80426392D02*
X134165938Y-80331154D01*
X134165938Y-80331154D02*
X134213557Y-80283535D01*
X134213557Y-80283535D02*
X134308795Y-80235916D01*
X134308795Y-80235916D02*
X134451652Y-80235916D01*
X134451652Y-80235916D02*
X134546890Y-80283535D01*
X134546890Y-80283535D02*
X134594509Y-80331154D01*
X134594509Y-80331154D02*
X134642128Y-80426392D01*
X134642128Y-80426392D02*
X134642128Y-80807344D01*
X134546890Y-79664487D02*
X134499271Y-79759725D01*
X134499271Y-79759725D02*
X134451652Y-79807344D01*
X134451652Y-79807344D02*
X134356414Y-79854963D01*
X134356414Y-79854963D02*
X134308795Y-79854963D01*
X134308795Y-79854963D02*
X134213557Y-79807344D01*
X134213557Y-79807344D02*
X134165938Y-79759725D01*
X134165938Y-79759725D02*
X134118319Y-79664487D01*
X134118319Y-79664487D02*
X134118319Y-79474011D01*
X134118319Y-79474011D02*
X134165938Y-79378773D01*
X134165938Y-79378773D02*
X134213557Y-79331154D01*
X134213557Y-79331154D02*
X134308795Y-79283535D01*
X134308795Y-79283535D02*
X134356414Y-79283535D01*
X134356414Y-79283535D02*
X134451652Y-79331154D01*
X134451652Y-79331154D02*
X134499271Y-79378773D01*
X134499271Y-79378773D02*
X134546890Y-79474011D01*
X134546890Y-79474011D02*
X134546890Y-79664487D01*
X134546890Y-79664487D02*
X134594509Y-79759725D01*
X134594509Y-79759725D02*
X134642128Y-79807344D01*
X134642128Y-79807344D02*
X134737366Y-79854963D01*
X134737366Y-79854963D02*
X134927842Y-79854963D01*
X134927842Y-79854963D02*
X135023080Y-79807344D01*
X135023080Y-79807344D02*
X135070700Y-79759725D01*
X135070700Y-79759725D02*
X135118319Y-79664487D01*
X135118319Y-79664487D02*
X135118319Y-79474011D01*
X135118319Y-79474011D02*
X135070700Y-79378773D01*
X135070700Y-79378773D02*
X135023080Y-79331154D01*
X135023080Y-79331154D02*
X134927842Y-79283535D01*
X134927842Y-79283535D02*
X134737366Y-79283535D01*
X134737366Y-79283535D02*
X134642128Y-79331154D01*
X134642128Y-79331154D02*
X134594509Y-79378773D01*
X134594509Y-79378773D02*
X134546890Y-79474011D01*
%TO.C,R20*%
X187317142Y-84274819D02*
X186983809Y-83798628D01*
X186745714Y-84274819D02*
X186745714Y-83274819D01*
X186745714Y-83274819D02*
X187126666Y-83274819D01*
X187126666Y-83274819D02*
X187221904Y-83322438D01*
X187221904Y-83322438D02*
X187269523Y-83370057D01*
X187269523Y-83370057D02*
X187317142Y-83465295D01*
X187317142Y-83465295D02*
X187317142Y-83608152D01*
X187317142Y-83608152D02*
X187269523Y-83703390D01*
X187269523Y-83703390D02*
X187221904Y-83751009D01*
X187221904Y-83751009D02*
X187126666Y-83798628D01*
X187126666Y-83798628D02*
X186745714Y-83798628D01*
X187698095Y-83370057D02*
X187745714Y-83322438D01*
X187745714Y-83322438D02*
X187840952Y-83274819D01*
X187840952Y-83274819D02*
X188079047Y-83274819D01*
X188079047Y-83274819D02*
X188174285Y-83322438D01*
X188174285Y-83322438D02*
X188221904Y-83370057D01*
X188221904Y-83370057D02*
X188269523Y-83465295D01*
X188269523Y-83465295D02*
X188269523Y-83560533D01*
X188269523Y-83560533D02*
X188221904Y-83703390D01*
X188221904Y-83703390D02*
X187650476Y-84274819D01*
X187650476Y-84274819D02*
X188269523Y-84274819D01*
X188888571Y-83274819D02*
X188983809Y-83274819D01*
X188983809Y-83274819D02*
X189079047Y-83322438D01*
X189079047Y-83322438D02*
X189126666Y-83370057D01*
X189126666Y-83370057D02*
X189174285Y-83465295D01*
X189174285Y-83465295D02*
X189221904Y-83655771D01*
X189221904Y-83655771D02*
X189221904Y-83893866D01*
X189221904Y-83893866D02*
X189174285Y-84084342D01*
X189174285Y-84084342D02*
X189126666Y-84179580D01*
X189126666Y-84179580D02*
X189079047Y-84227200D01*
X189079047Y-84227200D02*
X188983809Y-84274819D01*
X188983809Y-84274819D02*
X188888571Y-84274819D01*
X188888571Y-84274819D02*
X188793333Y-84227200D01*
X188793333Y-84227200D02*
X188745714Y-84179580D01*
X188745714Y-84179580D02*
X188698095Y-84084342D01*
X188698095Y-84084342D02*
X188650476Y-83893866D01*
X188650476Y-83893866D02*
X188650476Y-83655771D01*
X188650476Y-83655771D02*
X188698095Y-83465295D01*
X188698095Y-83465295D02*
X188745714Y-83370057D01*
X188745714Y-83370057D02*
X188793333Y-83322438D01*
X188793333Y-83322438D02*
X188888571Y-83274819D01*
%TO.C,2V3*%
X175593524Y-83878057D02*
X175641143Y-83830438D01*
X175641143Y-83830438D02*
X175736381Y-83782819D01*
X175736381Y-83782819D02*
X175974476Y-83782819D01*
X175974476Y-83782819D02*
X176069714Y-83830438D01*
X176069714Y-83830438D02*
X176117333Y-83878057D01*
X176117333Y-83878057D02*
X176164952Y-83973295D01*
X176164952Y-83973295D02*
X176164952Y-84068533D01*
X176164952Y-84068533D02*
X176117333Y-84211390D01*
X176117333Y-84211390D02*
X175545905Y-84782819D01*
X175545905Y-84782819D02*
X176164952Y-84782819D01*
X176450667Y-83782819D02*
X176784000Y-84782819D01*
X176784000Y-84782819D02*
X177117333Y-83782819D01*
X177355429Y-83782819D02*
X177974476Y-83782819D01*
X177974476Y-83782819D02*
X177641143Y-84163771D01*
X177641143Y-84163771D02*
X177784000Y-84163771D01*
X177784000Y-84163771D02*
X177879238Y-84211390D01*
X177879238Y-84211390D02*
X177926857Y-84259009D01*
X177926857Y-84259009D02*
X177974476Y-84354247D01*
X177974476Y-84354247D02*
X177974476Y-84592342D01*
X177974476Y-84592342D02*
X177926857Y-84687580D01*
X177926857Y-84687580D02*
X177879238Y-84735200D01*
X177879238Y-84735200D02*
X177784000Y-84782819D01*
X177784000Y-84782819D02*
X177498286Y-84782819D01*
X177498286Y-84782819D02*
X177403048Y-84735200D01*
X177403048Y-84735200D02*
X177355429Y-84687580D01*
%TO.C,J9*%
X173656666Y-59144819D02*
X173656666Y-59859104D01*
X173656666Y-59859104D02*
X173609047Y-60001961D01*
X173609047Y-60001961D02*
X173513809Y-60097200D01*
X173513809Y-60097200D02*
X173370952Y-60144819D01*
X173370952Y-60144819D02*
X173275714Y-60144819D01*
X174180476Y-60144819D02*
X174370952Y-60144819D01*
X174370952Y-60144819D02*
X174466190Y-60097200D01*
X174466190Y-60097200D02*
X174513809Y-60049580D01*
X174513809Y-60049580D02*
X174609047Y-59906723D01*
X174609047Y-59906723D02*
X174656666Y-59716247D01*
X174656666Y-59716247D02*
X174656666Y-59335295D01*
X174656666Y-59335295D02*
X174609047Y-59240057D01*
X174609047Y-59240057D02*
X174561428Y-59192438D01*
X174561428Y-59192438D02*
X174466190Y-59144819D01*
X174466190Y-59144819D02*
X174275714Y-59144819D01*
X174275714Y-59144819D02*
X174180476Y-59192438D01*
X174180476Y-59192438D02*
X174132857Y-59240057D01*
X174132857Y-59240057D02*
X174085238Y-59335295D01*
X174085238Y-59335295D02*
X174085238Y-59573390D01*
X174085238Y-59573390D02*
X174132857Y-59668628D01*
X174132857Y-59668628D02*
X174180476Y-59716247D01*
X174180476Y-59716247D02*
X174275714Y-59763866D01*
X174275714Y-59763866D02*
X174466190Y-59763866D01*
X174466190Y-59763866D02*
X174561428Y-59716247D01*
X174561428Y-59716247D02*
X174609047Y-59668628D01*
X174609047Y-59668628D02*
X174656666Y-59573390D01*
%TO.C,J5*%
X118938666Y-85958819D02*
X118938666Y-86673104D01*
X118938666Y-86673104D02*
X118891047Y-86815961D01*
X118891047Y-86815961D02*
X118795809Y-86911200D01*
X118795809Y-86911200D02*
X118652952Y-86958819D01*
X118652952Y-86958819D02*
X118557714Y-86958819D01*
X119891047Y-85958819D02*
X119414857Y-85958819D01*
X119414857Y-85958819D02*
X119367238Y-86435009D01*
X119367238Y-86435009D02*
X119414857Y-86387390D01*
X119414857Y-86387390D02*
X119510095Y-86339771D01*
X119510095Y-86339771D02*
X119748190Y-86339771D01*
X119748190Y-86339771D02*
X119843428Y-86387390D01*
X119843428Y-86387390D02*
X119891047Y-86435009D01*
X119891047Y-86435009D02*
X119938666Y-86530247D01*
X119938666Y-86530247D02*
X119938666Y-86768342D01*
X119938666Y-86768342D02*
X119891047Y-86863580D01*
X119891047Y-86863580D02*
X119843428Y-86911200D01*
X119843428Y-86911200D02*
X119748190Y-86958819D01*
X119748190Y-86958819D02*
X119510095Y-86958819D01*
X119510095Y-86958819D02*
X119414857Y-86911200D01*
X119414857Y-86911200D02*
X119367238Y-86863580D01*
%TO.C,C3*%
X124615833Y-64078580D02*
X124568214Y-64126200D01*
X124568214Y-64126200D02*
X124425357Y-64173819D01*
X124425357Y-64173819D02*
X124330119Y-64173819D01*
X124330119Y-64173819D02*
X124187262Y-64126200D01*
X124187262Y-64126200D02*
X124092024Y-64030961D01*
X124092024Y-64030961D02*
X124044405Y-63935723D01*
X124044405Y-63935723D02*
X123996786Y-63745247D01*
X123996786Y-63745247D02*
X123996786Y-63602390D01*
X123996786Y-63602390D02*
X124044405Y-63411914D01*
X124044405Y-63411914D02*
X124092024Y-63316676D01*
X124092024Y-63316676D02*
X124187262Y-63221438D01*
X124187262Y-63221438D02*
X124330119Y-63173819D01*
X124330119Y-63173819D02*
X124425357Y-63173819D01*
X124425357Y-63173819D02*
X124568214Y-63221438D01*
X124568214Y-63221438D02*
X124615833Y-63269057D01*
X124949167Y-63173819D02*
X125568214Y-63173819D01*
X125568214Y-63173819D02*
X125234881Y-63554771D01*
X125234881Y-63554771D02*
X125377738Y-63554771D01*
X125377738Y-63554771D02*
X125472976Y-63602390D01*
X125472976Y-63602390D02*
X125520595Y-63650009D01*
X125520595Y-63650009D02*
X125568214Y-63745247D01*
X125568214Y-63745247D02*
X125568214Y-63983342D01*
X125568214Y-63983342D02*
X125520595Y-64078580D01*
X125520595Y-64078580D02*
X125472976Y-64126200D01*
X125472976Y-64126200D02*
X125377738Y-64173819D01*
X125377738Y-64173819D02*
X125092024Y-64173819D01*
X125092024Y-64173819D02*
X124996786Y-64126200D01*
X124996786Y-64126200D02*
X124949167Y-64078580D01*
%TO.C,R19*%
X179697142Y-84782819D02*
X179363809Y-84306628D01*
X179125714Y-84782819D02*
X179125714Y-83782819D01*
X179125714Y-83782819D02*
X179506666Y-83782819D01*
X179506666Y-83782819D02*
X179601904Y-83830438D01*
X179601904Y-83830438D02*
X179649523Y-83878057D01*
X179649523Y-83878057D02*
X179697142Y-83973295D01*
X179697142Y-83973295D02*
X179697142Y-84116152D01*
X179697142Y-84116152D02*
X179649523Y-84211390D01*
X179649523Y-84211390D02*
X179601904Y-84259009D01*
X179601904Y-84259009D02*
X179506666Y-84306628D01*
X179506666Y-84306628D02*
X179125714Y-84306628D01*
X180649523Y-84782819D02*
X180078095Y-84782819D01*
X180363809Y-84782819D02*
X180363809Y-83782819D01*
X180363809Y-83782819D02*
X180268571Y-83925676D01*
X180268571Y-83925676D02*
X180173333Y-84020914D01*
X180173333Y-84020914D02*
X180078095Y-84068533D01*
X181125714Y-84782819D02*
X181316190Y-84782819D01*
X181316190Y-84782819D02*
X181411428Y-84735200D01*
X181411428Y-84735200D02*
X181459047Y-84687580D01*
X181459047Y-84687580D02*
X181554285Y-84544723D01*
X181554285Y-84544723D02*
X181601904Y-84354247D01*
X181601904Y-84354247D02*
X181601904Y-83973295D01*
X181601904Y-83973295D02*
X181554285Y-83878057D01*
X181554285Y-83878057D02*
X181506666Y-83830438D01*
X181506666Y-83830438D02*
X181411428Y-83782819D01*
X181411428Y-83782819D02*
X181220952Y-83782819D01*
X181220952Y-83782819D02*
X181125714Y-83830438D01*
X181125714Y-83830438D02*
X181078095Y-83878057D01*
X181078095Y-83878057D02*
X181030476Y-83973295D01*
X181030476Y-83973295D02*
X181030476Y-84211390D01*
X181030476Y-84211390D02*
X181078095Y-84306628D01*
X181078095Y-84306628D02*
X181125714Y-84354247D01*
X181125714Y-84354247D02*
X181220952Y-84401866D01*
X181220952Y-84401866D02*
X181411428Y-84401866D01*
X181411428Y-84401866D02*
X181506666Y-84354247D01*
X181506666Y-84354247D02*
X181554285Y-84306628D01*
X181554285Y-84306628D02*
X181601904Y-84211390D01*
%TO.C,J6*%
X128444666Y-86058819D02*
X128444666Y-86773104D01*
X128444666Y-86773104D02*
X128397047Y-86915961D01*
X128397047Y-86915961D02*
X128301809Y-87011200D01*
X128301809Y-87011200D02*
X128158952Y-87058819D01*
X128158952Y-87058819D02*
X128063714Y-87058819D01*
X129349428Y-86058819D02*
X129158952Y-86058819D01*
X129158952Y-86058819D02*
X129063714Y-86106438D01*
X129063714Y-86106438D02*
X129016095Y-86154057D01*
X129016095Y-86154057D02*
X128920857Y-86296914D01*
X128920857Y-86296914D02*
X128873238Y-86487390D01*
X128873238Y-86487390D02*
X128873238Y-86868342D01*
X128873238Y-86868342D02*
X128920857Y-86963580D01*
X128920857Y-86963580D02*
X128968476Y-87011200D01*
X128968476Y-87011200D02*
X129063714Y-87058819D01*
X129063714Y-87058819D02*
X129254190Y-87058819D01*
X129254190Y-87058819D02*
X129349428Y-87011200D01*
X129349428Y-87011200D02*
X129397047Y-86963580D01*
X129397047Y-86963580D02*
X129444666Y-86868342D01*
X129444666Y-86868342D02*
X129444666Y-86630247D01*
X129444666Y-86630247D02*
X129397047Y-86535009D01*
X129397047Y-86535009D02*
X129349428Y-86487390D01*
X129349428Y-86487390D02*
X129254190Y-86439771D01*
X129254190Y-86439771D02*
X129063714Y-86439771D01*
X129063714Y-86439771D02*
X128968476Y-86487390D01*
X128968476Y-86487390D02*
X128920857Y-86535009D01*
X128920857Y-86535009D02*
X128873238Y-86630247D01*
%TO.C,C14*%
X171405142Y-64813580D02*
X171357523Y-64861200D01*
X171357523Y-64861200D02*
X171214666Y-64908819D01*
X171214666Y-64908819D02*
X171119428Y-64908819D01*
X171119428Y-64908819D02*
X170976571Y-64861200D01*
X170976571Y-64861200D02*
X170881333Y-64765961D01*
X170881333Y-64765961D02*
X170833714Y-64670723D01*
X170833714Y-64670723D02*
X170786095Y-64480247D01*
X170786095Y-64480247D02*
X170786095Y-64337390D01*
X170786095Y-64337390D02*
X170833714Y-64146914D01*
X170833714Y-64146914D02*
X170881333Y-64051676D01*
X170881333Y-64051676D02*
X170976571Y-63956438D01*
X170976571Y-63956438D02*
X171119428Y-63908819D01*
X171119428Y-63908819D02*
X171214666Y-63908819D01*
X171214666Y-63908819D02*
X171357523Y-63956438D01*
X171357523Y-63956438D02*
X171405142Y-64004057D01*
X172357523Y-64908819D02*
X171786095Y-64908819D01*
X172071809Y-64908819D02*
X172071809Y-63908819D01*
X172071809Y-63908819D02*
X171976571Y-64051676D01*
X171976571Y-64051676D02*
X171881333Y-64146914D01*
X171881333Y-64146914D02*
X171786095Y-64194533D01*
X173214666Y-64242152D02*
X173214666Y-64908819D01*
X172976571Y-63861200D02*
X172738476Y-64575485D01*
X172738476Y-64575485D02*
X173357523Y-64575485D01*
%TO.C,C4*%
X135480580Y-66698666D02*
X135528200Y-66746285D01*
X135528200Y-66746285D02*
X135575819Y-66889142D01*
X135575819Y-66889142D02*
X135575819Y-66984380D01*
X135575819Y-66984380D02*
X135528200Y-67127237D01*
X135528200Y-67127237D02*
X135432961Y-67222475D01*
X135432961Y-67222475D02*
X135337723Y-67270094D01*
X135337723Y-67270094D02*
X135147247Y-67317713D01*
X135147247Y-67317713D02*
X135004390Y-67317713D01*
X135004390Y-67317713D02*
X134813914Y-67270094D01*
X134813914Y-67270094D02*
X134718676Y-67222475D01*
X134718676Y-67222475D02*
X134623438Y-67127237D01*
X134623438Y-67127237D02*
X134575819Y-66984380D01*
X134575819Y-66984380D02*
X134575819Y-66889142D01*
X134575819Y-66889142D02*
X134623438Y-66746285D01*
X134623438Y-66746285D02*
X134671057Y-66698666D01*
X134909152Y-65841523D02*
X135575819Y-65841523D01*
X134528200Y-66079618D02*
X135242485Y-66317713D01*
X135242485Y-66317713D02*
X135242485Y-65698666D01*
%TO.C,NRST1*%
X169624952Y-92223319D02*
X169624952Y-91223319D01*
X169624952Y-91223319D02*
X170196380Y-92223319D01*
X170196380Y-92223319D02*
X170196380Y-91223319D01*
X171243999Y-92223319D02*
X170910666Y-91747128D01*
X170672571Y-92223319D02*
X170672571Y-91223319D01*
X170672571Y-91223319D02*
X171053523Y-91223319D01*
X171053523Y-91223319D02*
X171148761Y-91270938D01*
X171148761Y-91270938D02*
X171196380Y-91318557D01*
X171196380Y-91318557D02*
X171243999Y-91413795D01*
X171243999Y-91413795D02*
X171243999Y-91556652D01*
X171243999Y-91556652D02*
X171196380Y-91651890D01*
X171196380Y-91651890D02*
X171148761Y-91699509D01*
X171148761Y-91699509D02*
X171053523Y-91747128D01*
X171053523Y-91747128D02*
X170672571Y-91747128D01*
X171624952Y-92175700D02*
X171767809Y-92223319D01*
X171767809Y-92223319D02*
X172005904Y-92223319D01*
X172005904Y-92223319D02*
X172101142Y-92175700D01*
X172101142Y-92175700D02*
X172148761Y-92128080D01*
X172148761Y-92128080D02*
X172196380Y-92032842D01*
X172196380Y-92032842D02*
X172196380Y-91937604D01*
X172196380Y-91937604D02*
X172148761Y-91842366D01*
X172148761Y-91842366D02*
X172101142Y-91794747D01*
X172101142Y-91794747D02*
X172005904Y-91747128D01*
X172005904Y-91747128D02*
X171815428Y-91699509D01*
X171815428Y-91699509D02*
X171720190Y-91651890D01*
X171720190Y-91651890D02*
X171672571Y-91604271D01*
X171672571Y-91604271D02*
X171624952Y-91509033D01*
X171624952Y-91509033D02*
X171624952Y-91413795D01*
X171624952Y-91413795D02*
X171672571Y-91318557D01*
X171672571Y-91318557D02*
X171720190Y-91270938D01*
X171720190Y-91270938D02*
X171815428Y-91223319D01*
X171815428Y-91223319D02*
X172053523Y-91223319D01*
X172053523Y-91223319D02*
X172196380Y-91270938D01*
X172482095Y-91223319D02*
X173053523Y-91223319D01*
X172767809Y-92223319D02*
X172767809Y-91223319D01*
X173910666Y-92223319D02*
X173339238Y-92223319D01*
X173624952Y-92223319D02*
X173624952Y-91223319D01*
X173624952Y-91223319D02*
X173529714Y-91366176D01*
X173529714Y-91366176D02*
X173434476Y-91461414D01*
X173434476Y-91461414D02*
X173339238Y-91509033D01*
%TO.C,J3*%
X150853319Y-58428333D02*
X151567604Y-58428333D01*
X151567604Y-58428333D02*
X151710461Y-58475952D01*
X151710461Y-58475952D02*
X151805700Y-58571190D01*
X151805700Y-58571190D02*
X151853319Y-58714047D01*
X151853319Y-58714047D02*
X151853319Y-58809285D01*
X150853319Y-58047380D02*
X150853319Y-57428333D01*
X150853319Y-57428333D02*
X151234271Y-57761666D01*
X151234271Y-57761666D02*
X151234271Y-57618809D01*
X151234271Y-57618809D02*
X151281890Y-57523571D01*
X151281890Y-57523571D02*
X151329509Y-57475952D01*
X151329509Y-57475952D02*
X151424747Y-57428333D01*
X151424747Y-57428333D02*
X151662842Y-57428333D01*
X151662842Y-57428333D02*
X151758080Y-57475952D01*
X151758080Y-57475952D02*
X151805700Y-57523571D01*
X151805700Y-57523571D02*
X151853319Y-57618809D01*
X151853319Y-57618809D02*
X151853319Y-57904523D01*
X151853319Y-57904523D02*
X151805700Y-57999761D01*
X151805700Y-57999761D02*
X151758080Y-58047380D01*
%TO.C,C12*%
X133443580Y-66574857D02*
X133491200Y-66622476D01*
X133491200Y-66622476D02*
X133538819Y-66765333D01*
X133538819Y-66765333D02*
X133538819Y-66860571D01*
X133538819Y-66860571D02*
X133491200Y-67003428D01*
X133491200Y-67003428D02*
X133395961Y-67098666D01*
X133395961Y-67098666D02*
X133300723Y-67146285D01*
X133300723Y-67146285D02*
X133110247Y-67193904D01*
X133110247Y-67193904D02*
X132967390Y-67193904D01*
X132967390Y-67193904D02*
X132776914Y-67146285D01*
X132776914Y-67146285D02*
X132681676Y-67098666D01*
X132681676Y-67098666D02*
X132586438Y-67003428D01*
X132586438Y-67003428D02*
X132538819Y-66860571D01*
X132538819Y-66860571D02*
X132538819Y-66765333D01*
X132538819Y-66765333D02*
X132586438Y-66622476D01*
X132586438Y-66622476D02*
X132634057Y-66574857D01*
X133538819Y-65622476D02*
X133538819Y-66193904D01*
X133538819Y-65908190D02*
X132538819Y-65908190D01*
X132538819Y-65908190D02*
X132681676Y-66003428D01*
X132681676Y-66003428D02*
X132776914Y-66098666D01*
X132776914Y-66098666D02*
X132824533Y-66193904D01*
X132634057Y-65241523D02*
X132586438Y-65193904D01*
X132586438Y-65193904D02*
X132538819Y-65098666D01*
X132538819Y-65098666D02*
X132538819Y-64860571D01*
X132538819Y-64860571D02*
X132586438Y-64765333D01*
X132586438Y-64765333D02*
X132634057Y-64717714D01*
X132634057Y-64717714D02*
X132729295Y-64670095D01*
X132729295Y-64670095D02*
X132824533Y-64670095D01*
X132824533Y-64670095D02*
X132967390Y-64717714D01*
X132967390Y-64717714D02*
X133538819Y-65289142D01*
X133538819Y-65289142D02*
X133538819Y-64670095D01*
%TO.C,H4*%
X111506095Y-61668819D02*
X111506095Y-60668819D01*
X111506095Y-61145009D02*
X112077523Y-61145009D01*
X112077523Y-61668819D02*
X112077523Y-60668819D01*
X112982285Y-61002152D02*
X112982285Y-61668819D01*
X112744190Y-60621200D02*
X112506095Y-61335485D01*
X112506095Y-61335485D02*
X113125142Y-61335485D01*
%TO.C,J4*%
X139053319Y-58444333D02*
X139767604Y-58444333D01*
X139767604Y-58444333D02*
X139910461Y-58491952D01*
X139910461Y-58491952D02*
X140005700Y-58587190D01*
X140005700Y-58587190D02*
X140053319Y-58730047D01*
X140053319Y-58730047D02*
X140053319Y-58825285D01*
X139386652Y-57539571D02*
X140053319Y-57539571D01*
X139005700Y-57777666D02*
X139719985Y-58015761D01*
X139719985Y-58015761D02*
X139719985Y-57396714D01*
%TO.C,5V3*%
X131008319Y-74625916D02*
X131008319Y-75102106D01*
X131008319Y-75102106D02*
X131484509Y-75149725D01*
X131484509Y-75149725D02*
X131436890Y-75102106D01*
X131436890Y-75102106D02*
X131389271Y-75006868D01*
X131389271Y-75006868D02*
X131389271Y-74768773D01*
X131389271Y-74768773D02*
X131436890Y-74673535D01*
X131436890Y-74673535D02*
X131484509Y-74625916D01*
X131484509Y-74625916D02*
X131579747Y-74578297D01*
X131579747Y-74578297D02*
X131817842Y-74578297D01*
X131817842Y-74578297D02*
X131913080Y-74625916D01*
X131913080Y-74625916D02*
X131960700Y-74673535D01*
X131960700Y-74673535D02*
X132008319Y-74768773D01*
X132008319Y-74768773D02*
X132008319Y-75006868D01*
X132008319Y-75006868D02*
X131960700Y-75102106D01*
X131960700Y-75102106D02*
X131913080Y-75149725D01*
X131008319Y-74292582D02*
X132008319Y-73959249D01*
X132008319Y-73959249D02*
X131008319Y-73625916D01*
X131008319Y-73387820D02*
X131008319Y-72768773D01*
X131008319Y-72768773D02*
X131389271Y-73102106D01*
X131389271Y-73102106D02*
X131389271Y-72959249D01*
X131389271Y-72959249D02*
X131436890Y-72864011D01*
X131436890Y-72864011D02*
X131484509Y-72816392D01*
X131484509Y-72816392D02*
X131579747Y-72768773D01*
X131579747Y-72768773D02*
X131817842Y-72768773D01*
X131817842Y-72768773D02*
X131913080Y-72816392D01*
X131913080Y-72816392D02*
X131960700Y-72864011D01*
X131960700Y-72864011D02*
X132008319Y-72959249D01*
X132008319Y-72959249D02*
X132008319Y-73244963D01*
X132008319Y-73244963D02*
X131960700Y-73340201D01*
X131960700Y-73340201D02*
X131913080Y-73387820D01*
%TO.C,J10*%
X162004476Y-59144819D02*
X162004476Y-59859104D01*
X162004476Y-59859104D02*
X161956857Y-60001961D01*
X161956857Y-60001961D02*
X161861619Y-60097200D01*
X161861619Y-60097200D02*
X161718762Y-60144819D01*
X161718762Y-60144819D02*
X161623524Y-60144819D01*
X163004476Y-60144819D02*
X162433048Y-60144819D01*
X162718762Y-60144819D02*
X162718762Y-59144819D01*
X162718762Y-59144819D02*
X162623524Y-59287676D01*
X162623524Y-59287676D02*
X162528286Y-59382914D01*
X162528286Y-59382914D02*
X162433048Y-59430533D01*
X163623524Y-59144819D02*
X163718762Y-59144819D01*
X163718762Y-59144819D02*
X163814000Y-59192438D01*
X163814000Y-59192438D02*
X163861619Y-59240057D01*
X163861619Y-59240057D02*
X163909238Y-59335295D01*
X163909238Y-59335295D02*
X163956857Y-59525771D01*
X163956857Y-59525771D02*
X163956857Y-59763866D01*
X163956857Y-59763866D02*
X163909238Y-59954342D01*
X163909238Y-59954342D02*
X163861619Y-60049580D01*
X163861619Y-60049580D02*
X163814000Y-60097200D01*
X163814000Y-60097200D02*
X163718762Y-60144819D01*
X163718762Y-60144819D02*
X163623524Y-60144819D01*
X163623524Y-60144819D02*
X163528286Y-60097200D01*
X163528286Y-60097200D02*
X163480667Y-60049580D01*
X163480667Y-60049580D02*
X163433048Y-59954342D01*
X163433048Y-59954342D02*
X163385429Y-59763866D01*
X163385429Y-59763866D02*
X163385429Y-59525771D01*
X163385429Y-59525771D02*
X163433048Y-59335295D01*
X163433048Y-59335295D02*
X163480667Y-59240057D01*
X163480667Y-59240057D02*
X163528286Y-59192438D01*
X163528286Y-59192438D02*
X163623524Y-59144819D01*
%TO.C,J7*%
X161498666Y-85768819D02*
X161498666Y-86483104D01*
X161498666Y-86483104D02*
X161451047Y-86625961D01*
X161451047Y-86625961D02*
X161355809Y-86721200D01*
X161355809Y-86721200D02*
X161212952Y-86768819D01*
X161212952Y-86768819D02*
X161117714Y-86768819D01*
X161879619Y-85768819D02*
X162546285Y-85768819D01*
X162546285Y-85768819D02*
X162117714Y-86768819D01*
%TO.C,U1*%
X120650095Y-69050819D02*
X120650095Y-69860342D01*
X120650095Y-69860342D02*
X120697714Y-69955580D01*
X120697714Y-69955580D02*
X120745333Y-70003200D01*
X120745333Y-70003200D02*
X120840571Y-70050819D01*
X120840571Y-70050819D02*
X121031047Y-70050819D01*
X121031047Y-70050819D02*
X121126285Y-70003200D01*
X121126285Y-70003200D02*
X121173904Y-69955580D01*
X121173904Y-69955580D02*
X121221523Y-69860342D01*
X121221523Y-69860342D02*
X121221523Y-69050819D01*
X122221523Y-70050819D02*
X121650095Y-70050819D01*
X121935809Y-70050819D02*
X121935809Y-69050819D01*
X121935809Y-69050819D02*
X121840571Y-69193676D01*
X121840571Y-69193676D02*
X121745333Y-69288914D01*
X121745333Y-69288914D02*
X121650095Y-69336533D01*
%TO.C,3V1*%
X141117537Y-61824341D02*
X141736584Y-61824341D01*
X141736584Y-61824341D02*
X141403251Y-62205293D01*
X141403251Y-62205293D02*
X141546108Y-62205293D01*
X141546108Y-62205293D02*
X141641346Y-62252912D01*
X141641346Y-62252912D02*
X141688965Y-62300531D01*
X141688965Y-62300531D02*
X141736584Y-62395769D01*
X141736584Y-62395769D02*
X141736584Y-62633864D01*
X141736584Y-62633864D02*
X141688965Y-62729102D01*
X141688965Y-62729102D02*
X141641346Y-62776722D01*
X141641346Y-62776722D02*
X141546108Y-62824341D01*
X141546108Y-62824341D02*
X141260394Y-62824341D01*
X141260394Y-62824341D02*
X141165156Y-62776722D01*
X141165156Y-62776722D02*
X141117537Y-62729102D01*
X142022299Y-61824341D02*
X142355632Y-62824341D01*
X142355632Y-62824341D02*
X142688965Y-61824341D01*
X143546108Y-62824341D02*
X142974680Y-62824341D01*
X143260394Y-62824341D02*
X143260394Y-61824341D01*
X143260394Y-61824341D02*
X143165156Y-61967198D01*
X143165156Y-61967198D02*
X143069918Y-62062436D01*
X143069918Y-62062436D02*
X142974680Y-62110055D01*
%TO.C,J8*%
X147748666Y-85814819D02*
X147748666Y-86529104D01*
X147748666Y-86529104D02*
X147701047Y-86671961D01*
X147701047Y-86671961D02*
X147605809Y-86767200D01*
X147605809Y-86767200D02*
X147462952Y-86814819D01*
X147462952Y-86814819D02*
X147367714Y-86814819D01*
X148367714Y-86243390D02*
X148272476Y-86195771D01*
X148272476Y-86195771D02*
X148224857Y-86148152D01*
X148224857Y-86148152D02*
X148177238Y-86052914D01*
X148177238Y-86052914D02*
X148177238Y-86005295D01*
X148177238Y-86005295D02*
X148224857Y-85910057D01*
X148224857Y-85910057D02*
X148272476Y-85862438D01*
X148272476Y-85862438D02*
X148367714Y-85814819D01*
X148367714Y-85814819D02*
X148558190Y-85814819D01*
X148558190Y-85814819D02*
X148653428Y-85862438D01*
X148653428Y-85862438D02*
X148701047Y-85910057D01*
X148701047Y-85910057D02*
X148748666Y-86005295D01*
X148748666Y-86005295D02*
X148748666Y-86052914D01*
X148748666Y-86052914D02*
X148701047Y-86148152D01*
X148701047Y-86148152D02*
X148653428Y-86195771D01*
X148653428Y-86195771D02*
X148558190Y-86243390D01*
X148558190Y-86243390D02*
X148367714Y-86243390D01*
X148367714Y-86243390D02*
X148272476Y-86291009D01*
X148272476Y-86291009D02*
X148224857Y-86338628D01*
X148224857Y-86338628D02*
X148177238Y-86433866D01*
X148177238Y-86433866D02*
X148177238Y-86624342D01*
X148177238Y-86624342D02*
X148224857Y-86719580D01*
X148224857Y-86719580D02*
X148272476Y-86767200D01*
X148272476Y-86767200D02*
X148367714Y-86814819D01*
X148367714Y-86814819D02*
X148558190Y-86814819D01*
X148558190Y-86814819D02*
X148653428Y-86767200D01*
X148653428Y-86767200D02*
X148701047Y-86719580D01*
X148701047Y-86719580D02*
X148748666Y-86624342D01*
X148748666Y-86624342D02*
X148748666Y-86433866D01*
X148748666Y-86433866D02*
X148701047Y-86338628D01*
X148701047Y-86338628D02*
X148653428Y-86291009D01*
X148653428Y-86291009D02*
X148558190Y-86243390D01*
%TO.C,C13*%
X135136342Y-62335580D02*
X135088723Y-62383200D01*
X135088723Y-62383200D02*
X134945866Y-62430819D01*
X134945866Y-62430819D02*
X134850628Y-62430819D01*
X134850628Y-62430819D02*
X134707771Y-62383200D01*
X134707771Y-62383200D02*
X134612533Y-62287961D01*
X134612533Y-62287961D02*
X134564914Y-62192723D01*
X134564914Y-62192723D02*
X134517295Y-62002247D01*
X134517295Y-62002247D02*
X134517295Y-61859390D01*
X134517295Y-61859390D02*
X134564914Y-61668914D01*
X134564914Y-61668914D02*
X134612533Y-61573676D01*
X134612533Y-61573676D02*
X134707771Y-61478438D01*
X134707771Y-61478438D02*
X134850628Y-61430819D01*
X134850628Y-61430819D02*
X134945866Y-61430819D01*
X134945866Y-61430819D02*
X135088723Y-61478438D01*
X135088723Y-61478438D02*
X135136342Y-61526057D01*
X136088723Y-62430819D02*
X135517295Y-62430819D01*
X135803009Y-62430819D02*
X135803009Y-61430819D01*
X135803009Y-61430819D02*
X135707771Y-61573676D01*
X135707771Y-61573676D02*
X135612533Y-61668914D01*
X135612533Y-61668914D02*
X135517295Y-61716533D01*
X136422057Y-61430819D02*
X137041104Y-61430819D01*
X137041104Y-61430819D02*
X136707771Y-61811771D01*
X136707771Y-61811771D02*
X136850628Y-61811771D01*
X136850628Y-61811771D02*
X136945866Y-61859390D01*
X136945866Y-61859390D02*
X136993485Y-61907009D01*
X136993485Y-61907009D02*
X137041104Y-62002247D01*
X137041104Y-62002247D02*
X137041104Y-62240342D01*
X137041104Y-62240342D02*
X136993485Y-62335580D01*
X136993485Y-62335580D02*
X136945866Y-62383200D01*
X136945866Y-62383200D02*
X136850628Y-62430819D01*
X136850628Y-62430819D02*
X136564914Y-62430819D01*
X136564914Y-62430819D02*
X136469676Y-62383200D01*
X136469676Y-62383200D02*
X136422057Y-62335580D01*
D12*
%TO.C,C11*%
X142078329Y-68945422D02*
X142285182Y-68738569D01*
X142799578Y-69666671D02*
X143006431Y-69459818D01*
%TO.C,R3*%
X166424500Y-81753776D02*
X166424500Y-82263224D01*
X165379500Y-81753776D02*
X165379500Y-82263224D01*
D13*
%TO.C,D1*%
X131544500Y-77838000D02*
X131334500Y-77838000D01*
X128984500Y-77838000D02*
X129194500Y-77838000D01*
X128984500Y-77838000D02*
X128984500Y-82168000D01*
X131544500Y-82168000D02*
X131544500Y-77838000D01*
X131334500Y-82168000D02*
X131544500Y-82168000D01*
X128984500Y-82168000D02*
X129194500Y-82168000D01*
D14*
X130364500Y-76003000D02*
G75*
G03*
X130364500Y-76003000I-100000J0D01*
G01*
D12*
%TO.C,R10*%
X132533000Y-77686974D02*
X132533000Y-77177526D01*
X133578000Y-77686974D02*
X133578000Y-77177526D01*
%TO.C,C9*%
X142560182Y-74291671D02*
X142353329Y-74084818D01*
X143281431Y-73570422D02*
X143074578Y-73363569D01*
%TO.C,C1*%
X128559000Y-78785000D02*
X128559000Y-76915000D01*
X128559000Y-76915000D02*
X124474000Y-76915000D01*
X124474000Y-78785000D02*
X128559000Y-78785000D01*
%TO.C,R21*%
X185206724Y-81668500D02*
X184697276Y-81668500D01*
X185206724Y-80623500D02*
X184697276Y-80623500D01*
%TO.C,U2*%
X131974000Y-62822000D02*
X131974000Y-68832000D01*
X125154000Y-65072000D02*
X125154000Y-68832000D01*
X131974000Y-68832000D02*
X130714000Y-68832000D01*
X125154000Y-68832000D02*
X126414000Y-68832000D01*
%TO.C,R16*%
X171449276Y-80249500D02*
X171958724Y-80249500D01*
X171449276Y-81294500D02*
X171958724Y-81294500D01*
%TO.C,NRST2*%
X185554000Y-90862000D02*
X185554000Y-89479000D01*
X185554000Y-90862000D02*
X184171000Y-90862000D01*
X185314000Y-90622000D02*
X185314000Y-89312000D01*
X185314000Y-90622000D02*
X178494000Y-90622000D01*
X185314000Y-87712000D02*
X185314000Y-86402000D01*
X185314000Y-86402000D02*
X178494000Y-86402000D01*
X183714000Y-89147000D02*
X183714000Y-87877000D01*
X183714000Y-89027000D02*
X182507333Y-89027000D01*
X183714000Y-88907000D02*
X182507333Y-88907000D01*
X183714000Y-88787000D02*
X182507333Y-88787000D01*
X183714000Y-88667000D02*
X182507333Y-88667000D01*
X183714000Y-88547000D02*
X182507333Y-88547000D01*
X183714000Y-88427000D02*
X182507333Y-88427000D01*
X183714000Y-88307000D02*
X182507333Y-88307000D01*
X183714000Y-88187000D02*
X182507333Y-88187000D01*
X183714000Y-88067000D02*
X182507333Y-88067000D01*
X183714000Y-87947000D02*
X182507333Y-87947000D01*
X183714000Y-87877000D02*
X180094000Y-87877000D01*
X182507333Y-89147000D02*
X182507333Y-87877000D01*
X180094000Y-89147000D02*
X183714000Y-89147000D01*
X180094000Y-87877000D02*
X180094000Y-89147000D01*
X178494000Y-90622000D02*
X178494000Y-89312000D01*
X178494000Y-87712000D02*
X178494000Y-86402000D01*
%TO.C,R6*%
X135554724Y-84722500D02*
X135045276Y-84722500D01*
X135554724Y-83677500D02*
X135045276Y-83677500D01*
%TO.C,R2*%
X146062856Y-64322022D02*
X145553408Y-64322022D01*
X146062856Y-63277022D02*
X145553408Y-63277022D01*
%TO.C,F1*%
X123875748Y-80452000D02*
X126648252Y-80452000D01*
X123875748Y-83872000D02*
X126648252Y-83872000D01*
%TO.C,R17*%
X180704724Y-81668500D02*
X180195276Y-81668500D01*
X180704724Y-80623500D02*
X180195276Y-80623500D01*
%TO.C,2V2*%
X175164000Y-80411000D02*
X175164000Y-81881000D01*
X175164000Y-81881000D02*
X177624000Y-81881000D01*
X177624000Y-80411000D02*
X175164000Y-80411000D01*
%TO.C,C15*%
X122107733Y-65007000D02*
X122400267Y-65007000D01*
X122107733Y-66027000D02*
X122400267Y-66027000D01*
%TO.C,C8*%
X161286051Y-75053198D02*
X161079198Y-75260051D01*
X160564802Y-74331949D02*
X160357949Y-74538802D01*
%TO.C,R7*%
X154729724Y-84722500D02*
X154220276Y-84722500D01*
X154729724Y-83677500D02*
X154220276Y-83677500D01*
%TO.C,C10*%
X150070051Y-76965198D02*
X149863198Y-77172051D01*
X149348802Y-76243949D02*
X149141949Y-76450802D01*
%TO.C,2V1*%
X170044000Y-81561000D02*
X170044000Y-83031000D01*
X170044000Y-83031000D02*
X172504000Y-83031000D01*
X172504000Y-81561000D02*
X170044000Y-81561000D01*
%TO.C,5V1*%
X118685000Y-64645000D02*
X120155000Y-64645000D01*
X120155000Y-64645000D02*
X120155000Y-62185000D01*
X118685000Y-62185000D02*
X118685000Y-64645000D01*
%TO.C,J2*%
X175732500Y-59425000D02*
X175732500Y-58095000D01*
X177062500Y-59425000D02*
X175732500Y-59425000D01*
X178332500Y-59425000D02*
X186012500Y-59425000D01*
X178332500Y-59425000D02*
X178332500Y-56765000D01*
X186012500Y-59425000D02*
X186012500Y-56765000D01*
X178332500Y-56765000D02*
X186012500Y-56765000D01*
%TO.C,J1*%
X108802000Y-84783000D02*
X121402000Y-84783000D01*
X121402000Y-84783000D02*
X121402000Y-74433000D01*
X113602000Y-74433000D02*
X113902000Y-73933000D01*
X119002000Y-74433000D02*
X113602000Y-74433000D01*
X120452000Y-74433000D02*
X120702000Y-73933000D01*
X121402000Y-74433000D02*
X120452000Y-74433000D01*
X108802000Y-73933000D02*
X108802000Y-84783000D01*
X113902000Y-73933000D02*
X108802000Y-73933000D01*
X118752000Y-73933000D02*
X119002000Y-74433000D01*
X118802000Y-73933000D02*
X118752000Y-73933000D01*
X120702000Y-73933000D02*
X118802000Y-73933000D01*
D13*
%TO.C,U4*%
X193375000Y-66370000D02*
X193375000Y-79070000D01*
X186695000Y-66370000D02*
X193375000Y-66370000D01*
X167055000Y-66370000D02*
X166375000Y-66370000D01*
X166375000Y-66370000D02*
X166375000Y-66500000D01*
X166375000Y-78940000D02*
X166375000Y-79070000D01*
X193375000Y-79070000D02*
X186695000Y-79070000D01*
X166375000Y-79070000D02*
X167055000Y-79070000D01*
D14*
X186150000Y-64720000D02*
G75*
G03*
X186150000Y-64720000I-100000J0D01*
G01*
D12*
%TO.C,C6*%
X161206198Y-64425949D02*
X161413051Y-64632802D01*
X160484949Y-65147198D02*
X160691802Y-65354051D01*
%TO.C,J11*%
X108986000Y-64441000D02*
X110316000Y-64441000D01*
X108986000Y-65771000D02*
X108986000Y-64441000D01*
X108986000Y-67041000D02*
X108986000Y-72181000D01*
X108986000Y-67041000D02*
X111646000Y-67041000D01*
X108986000Y-72181000D02*
X111646000Y-72181000D01*
X111646000Y-67041000D02*
X111646000Y-72181000D01*
%TO.C,U3*%
X152230500Y-66106000D02*
X152230500Y-66556000D01*
X152230500Y-66556000D02*
X150940500Y-66556000D01*
X152230500Y-73326000D02*
X152230500Y-72876000D01*
X152680500Y-66106000D02*
X152230500Y-66106000D01*
X152680500Y-73326000D02*
X152230500Y-73326000D01*
X159000500Y-66106000D02*
X159450500Y-66106000D01*
X159000500Y-73326000D02*
X159450500Y-73326000D01*
X159450500Y-66106000D02*
X159450500Y-66556000D01*
X159450500Y-73326000D02*
X159450500Y-72876000D01*
%TO.C,Y1*%
X148692559Y-70709422D02*
X145510578Y-67527441D01*
X145510578Y-67527441D02*
X141692201Y-71345818D01*
%TO.C,C7*%
X167936000Y-81862233D02*
X167936000Y-82154767D01*
X166916000Y-81862233D02*
X166916000Y-82154767D01*
%TO.C,5V2*%
X135410000Y-72329250D02*
X133940000Y-72329250D01*
X133940000Y-72329250D02*
X133940000Y-74789250D01*
X135410000Y-74789250D02*
X135410000Y-72329250D01*
%TO.C,C2*%
X126435733Y-74292000D02*
X126728267Y-74292000D01*
X126435733Y-75312000D02*
X126728267Y-75312000D01*
%TO.C,R1*%
X122468724Y-62618500D02*
X121959276Y-62618500D01*
X122468724Y-61573500D02*
X121959276Y-61573500D01*
%TO.C,R8*%
X134152500Y-77686974D02*
X134152500Y-77177526D01*
X135197500Y-77686974D02*
X135197500Y-77177526D01*
%TO.C,R20*%
X184697276Y-82401500D02*
X185206724Y-82401500D01*
X184697276Y-83446500D02*
X185206724Y-83446500D01*
%TO.C,2V3*%
X175164000Y-82189000D02*
X175164000Y-83659000D01*
X175164000Y-83659000D02*
X177624000Y-83659000D01*
X177624000Y-82189000D02*
X175164000Y-82189000D01*
%TO.C,J9*%
X172546000Y-60816000D02*
X164746000Y-60816000D01*
X172546000Y-54766000D02*
X172546000Y-60816000D01*
X171196000Y-55876000D02*
X166116000Y-55876000D01*
X171196000Y-54866000D02*
X171196000Y-55876000D01*
X166116000Y-55876000D02*
X166116000Y-54866000D01*
X164746000Y-60816000D02*
X164746000Y-54766000D01*
X164746000Y-54766000D02*
X172546000Y-54766000D01*
%TO.C,J5*%
X120247000Y-87944000D02*
X120247000Y-89274000D01*
X118917000Y-87944000D02*
X120247000Y-87944000D01*
X117647000Y-87944000D02*
X115047000Y-87944000D01*
X117647000Y-87944000D02*
X117647000Y-90604000D01*
X115047000Y-87944000D02*
X115047000Y-90604000D01*
X117647000Y-90604000D02*
X115047000Y-90604000D01*
%TO.C,C3*%
X122107733Y-63229000D02*
X122400267Y-63229000D01*
X122107733Y-64249000D02*
X122400267Y-64249000D01*
%TO.C,R19*%
X180704724Y-83446500D02*
X180195276Y-83446500D01*
X180704724Y-82401500D02*
X180195276Y-82401500D01*
%TO.C,J6*%
X138276000Y-87944000D02*
X138276000Y-89274000D01*
X136946000Y-87944000D02*
X138276000Y-87944000D01*
X135676000Y-87944000D02*
X122916000Y-87944000D01*
X135676000Y-87944000D02*
X135676000Y-90604000D01*
X122916000Y-87944000D02*
X122916000Y-90604000D01*
X135676000Y-90604000D02*
X122916000Y-90604000D01*
%TO.C,C14*%
X168549733Y-63872000D02*
X168842267Y-63872000D01*
X168549733Y-64892000D02*
X168842267Y-64892000D01*
%TO.C,C4*%
X133585000Y-69073733D02*
X133585000Y-69366267D01*
X132565000Y-69073733D02*
X132565000Y-69366267D01*
%TO.C,NRST1*%
X175394000Y-90862000D02*
X175394000Y-89479000D01*
X175394000Y-90862000D02*
X174011000Y-90862000D01*
X175154000Y-90622000D02*
X175154000Y-89312000D01*
X175154000Y-90622000D02*
X168334000Y-90622000D01*
X175154000Y-87712000D02*
X175154000Y-86402000D01*
X175154000Y-86402000D02*
X168334000Y-86402000D01*
X173554000Y-89147000D02*
X173554000Y-87877000D01*
X173554000Y-89027000D02*
X172347333Y-89027000D01*
X173554000Y-88907000D02*
X172347333Y-88907000D01*
X173554000Y-88787000D02*
X172347333Y-88787000D01*
X173554000Y-88667000D02*
X172347333Y-88667000D01*
X173554000Y-88547000D02*
X172347333Y-88547000D01*
X173554000Y-88427000D02*
X172347333Y-88427000D01*
X173554000Y-88307000D02*
X172347333Y-88307000D01*
X173554000Y-88187000D02*
X172347333Y-88187000D01*
X173554000Y-88067000D02*
X172347333Y-88067000D01*
X173554000Y-87947000D02*
X172347333Y-87947000D01*
X173554000Y-87877000D02*
X169934000Y-87877000D01*
X172347333Y-89147000D02*
X172347333Y-87877000D01*
X169934000Y-89147000D02*
X173554000Y-89147000D01*
X169934000Y-87877000D02*
X169934000Y-89147000D01*
X168334000Y-90622000D02*
X168334000Y-89312000D01*
X168334000Y-87712000D02*
X168334000Y-86402000D01*
%TO.C,J3*%
X141701500Y-59425000D02*
X141701500Y-58095000D01*
X143031500Y-59425000D02*
X141701500Y-59425000D01*
X144301500Y-59425000D02*
X149441500Y-59425000D01*
X144301500Y-59425000D02*
X144301500Y-56765000D01*
X149441500Y-59425000D02*
X149441500Y-56765000D01*
X144301500Y-56765000D02*
X149441500Y-56765000D01*
%TO.C,C12*%
X134216000Y-69366267D02*
X134216000Y-69073733D01*
X135236000Y-69366267D02*
X135236000Y-69073733D01*
%TO.C,J4*%
X137996500Y-56765000D02*
X137996500Y-58095000D01*
X136666500Y-56765000D02*
X137996500Y-56765000D01*
X135396500Y-56765000D02*
X112476500Y-56765000D01*
X135396500Y-56765000D02*
X135396500Y-59425000D01*
X112476500Y-56765000D02*
X112476500Y-59425000D01*
X135396500Y-59425000D02*
X112476500Y-59425000D01*
%TO.C,5V3*%
X133790500Y-72329250D02*
X132320500Y-72329250D01*
X132320500Y-72329250D02*
X132320500Y-74789250D01*
X133790500Y-74789250D02*
X133790500Y-72329250D01*
%TO.C,J10*%
X161116000Y-60816000D02*
X153316000Y-60816000D01*
X161116000Y-54766000D02*
X161116000Y-60816000D01*
X159766000Y-55876000D02*
X154686000Y-55876000D01*
X159766000Y-54866000D02*
X159766000Y-55876000D01*
X154686000Y-55876000D02*
X154686000Y-54866000D01*
X153316000Y-60816000D02*
X153316000Y-54766000D01*
X153316000Y-54766000D02*
X161116000Y-54766000D01*
%TO.C,C5*%
X150324949Y-64505802D02*
X150531802Y-64298949D01*
X151046198Y-65227051D02*
X151253051Y-65020198D01*
%TO.C,J7*%
X160503000Y-90604000D02*
X160503000Y-89274000D01*
X161833000Y-90604000D02*
X160503000Y-90604000D01*
X163103000Y-90604000D02*
X165703000Y-90604000D01*
X163103000Y-90604000D02*
X163103000Y-87944000D01*
X165703000Y-90604000D02*
X165703000Y-87944000D01*
X163103000Y-87944000D02*
X165703000Y-87944000D01*
%TO.C,U1*%
X121382000Y-73420000D02*
X121382000Y-73150000D01*
X121382000Y-73150000D02*
X124212000Y-73150000D01*
X121382000Y-66790000D02*
X122482000Y-66790000D01*
X121382000Y-66520000D02*
X121382000Y-66790000D01*
X114962000Y-73420000D02*
X121382000Y-73420000D01*
X114962000Y-66520000D02*
X121382000Y-66520000D01*
%TO.C,3V1*%
X140695632Y-63064522D02*
X140695632Y-64534522D01*
X140695632Y-64534522D02*
X143155632Y-64534522D01*
X143155632Y-63064522D02*
X140695632Y-63064522D01*
%TO.C,J8*%
X157326000Y-87944000D02*
X157326000Y-89274000D01*
X155996000Y-87944000D02*
X157326000Y-87944000D01*
X154726000Y-87944000D02*
X141966000Y-87944000D01*
X154726000Y-87944000D02*
X154726000Y-90604000D01*
X141966000Y-87944000D02*
X141966000Y-90604000D01*
X154726000Y-90604000D02*
X141966000Y-90604000D01*
%TO.C,C13*%
X136025467Y-64230500D02*
X135732933Y-64230500D01*
X136025467Y-63210500D02*
X135732933Y-63210500D01*
%TD*%
M02*
