M48
; DRILL file {KiCad 7.0.5} date Fri Jul  7 02:12:34 2023
; FORMAT={-:-/ absolute / inch / decimal}
; #@! TF.CreationDate,2023-07-07T02:12:34+07:00
; #@! TF.GenerationSoftware,Kicad,Pcbnew,7.0.5
; #@! TF.FileFunction,Plated,1,2,PTH
FMAT,2
INCH
; #@! TA.AperFunction,Plated,PTH,ViaDrill
T1C0.0118
; #@! TA.AperFunction,Plated,PTH,ComponentDrill
T2C0.0394
; #@! TA.AperFunction,Plated,PTH,ComponentDrill
T3C0.0402
; #@! TA.AperFunction,Plated,PTH,ComponentDrill
T4C0.0520
%
G90
G05
T1
X4.1319Y-2.2377
X4.1319Y-2.2877
X4.1319Y-2.3377
X4.1319Y-2.3877
X4.1319Y-2.4377
X4.1319Y-2.4877
X4.1319Y-2.5377
X4.1319Y-2.5877
X4.1319Y-2.6377
X4.1319Y-2.6877
X4.1319Y-2.7377
X4.1319Y-2.7877
X4.1319Y-2.8377
X4.1319Y-2.8877
X4.1319Y-2.9377
X4.1319Y-2.9877
X4.1319Y-3.0377
X4.1319Y-3.0877
X4.1319Y-3.1377
X4.1319Y-3.1877
X4.1319Y-3.2377
X4.1319Y-3.2877
X4.1319Y-3.3377
X4.1319Y-3.3877
X4.1319Y-3.4377
X4.1319Y-3.4877
X4.1319Y-3.5377
X4.1319Y-3.5877
X4.1819Y-2.2377
X4.1819Y-2.4377
X4.1819Y-2.4877
X4.1819Y-2.5377
X4.1819Y-2.5877
X4.1819Y-2.6377
X4.1819Y-2.6877
X4.1819Y-2.7377
X4.1819Y-2.7877
X4.1819Y-2.8377
X4.1819Y-2.8877
X4.1819Y-2.9377
X4.1819Y-2.9877
X4.1819Y-3.0377
X4.1819Y-3.0877
X4.1819Y-3.1377
X4.1819Y-3.1877
X4.1819Y-3.2377
X4.1819Y-3.2877
X4.1819Y-3.3377
X4.1819Y-3.3877
X4.2319Y-2.4377
X4.2319Y-2.4877
X4.2319Y-2.5377
X4.2319Y-2.5877
X4.2319Y-2.6377
X4.2319Y-2.6877
X4.2319Y-2.7377
X4.2319Y-2.7877
X4.2319Y-2.8377
X4.2319Y-2.8877
X4.2319Y-2.9377
X4.2319Y-2.9877
X4.2319Y-3.0377
X4.2319Y-3.0877
X4.2319Y-3.1377
X4.2319Y-3.1877
X4.2319Y-3.2377
X4.2319Y-3.2877
X4.2319Y-3.3377
X4.2319Y-3.3877
X4.2819Y-2.4377
X4.2819Y-2.4877
X4.2819Y-2.5377
X4.2819Y-2.5877
X4.2819Y-2.6377
X4.2819Y-2.6877
X4.2819Y-2.7377
X4.2819Y-2.7877
X4.2819Y-2.8377
X4.2819Y-2.8877
X4.2819Y-2.9377
X4.2819Y-2.9877
X4.2819Y-3.0377
X4.2819Y-3.0877
X4.2819Y-3.1377
X4.2819Y-3.1877
X4.2819Y-3.2377
X4.2819Y-3.2877
X4.2819Y-3.3377
X4.2819Y-3.3877
X4.3319Y-2.2377
X4.3319Y-2.4377
X4.3319Y-2.4877
X4.3319Y-2.8877
X4.3319Y-2.9377
X4.3319Y-2.9877
X4.3319Y-3.0377
X4.3319Y-3.0877
X4.3319Y-3.1377
X4.3319Y-3.1877
X4.3319Y-3.2377
X4.3319Y-3.2877
X4.3319Y-3.3377
X4.3319Y-3.3877
X4.3319Y-3.4377
X4.3319Y-3.5877
X4.3819Y-2.2377
X4.3819Y-2.2877
X4.3819Y-2.3377
X4.3819Y-2.3877
X4.3819Y-2.4377
X4.3819Y-2.8877
X4.3819Y-2.9377
X4.3819Y-2.9877
X4.3819Y-3.0377
X4.3819Y-3.0877
X4.3819Y-3.3877
X4.3819Y-3.4377
X4.3819Y-3.4877
X4.3819Y-3.5377
X4.3819Y-3.5877
X4.4319Y-2.3877
X4.4319Y-2.5877
X4.4319Y-2.6377
X4.4319Y-2.6877
X4.4319Y-2.7377
X4.4319Y-2.8377
X4.4319Y-2.8877
X4.4319Y-2.9377
X4.4319Y-2.9877
X4.4319Y-3.4377
X4.4319Y-3.4877
X4.4319Y-3.5377
X4.4319Y-3.5877
X4.4819Y-2.5377
X4.4819Y-2.5877
X4.4819Y-2.9377
X4.4819Y-3.4877
X4.4819Y-3.5377
X4.4819Y-3.5877
X4.5319Y-2.4877
X4.5319Y-2.5377
X4.5319Y-2.5877
X4.5319Y-2.9377
X4.5319Y-3.1377
X4.5319Y-3.5877
X4.5819Y-2.4877
X4.5819Y-2.5377
X4.5819Y-2.5877
X4.5819Y-2.9377
X4.5819Y-3.1377
X4.5819Y-3.3377
X4.6319Y-2.4877
X4.6319Y-2.5377
X4.6319Y-2.5877
X4.6319Y-2.9377
X4.6319Y-3.1377
X4.6319Y-3.3377
X4.6819Y-2.5877
X4.6819Y-3.1377
X4.6819Y-3.2877
X4.6819Y-3.3377
X4.7319Y-3.1377
X4.7319Y-3.2877
X4.7319Y-3.3377
X4.7819Y-2.7377
X4.7819Y-2.7877
X4.7819Y-3.1377
X4.7819Y-3.2877
X4.7819Y-3.3377
X4.8319Y-2.7377
X4.8319Y-2.7877
X4.8319Y-3.1377
X4.8319Y-3.3377
X4.8819Y-2.3877
X4.8819Y-2.7377
X4.8819Y-2.7877
X4.8819Y-3.1377
X4.8819Y-3.3377
X4.9319Y-2.3877
X4.9319Y-2.4377
X4.9319Y-2.5877
X4.9319Y-2.6377
X4.9319Y-2.6877
X4.9319Y-2.7377
X4.9319Y-2.7877
X4.9319Y-2.8877
X4.9319Y-3.1377
X4.9319Y-3.1877
X4.9319Y-3.2377
X4.9319Y-3.2877
X4.9319Y-3.3377
X4.9819Y-2.3877
X4.9819Y-2.4377
X4.9819Y-2.5877
X4.9819Y-2.6377
X4.9819Y-2.6877
X4.9819Y-3.1377
X4.9819Y-3.3377
X5.0319Y-2.3877
X5.0319Y-2.4377
X5.0319Y-3.1377
X5.0319Y-3.3377
X5.0819Y-2.3877
X5.0819Y-2.4377
X5.0819Y-2.8377
X5.0819Y-2.8877
X5.0819Y-2.9377
X5.0819Y-2.9877
X5.0819Y-3.1377
X5.0819Y-3.3377
X5.1319Y-2.4377
X5.1319Y-2.6877
X5.1319Y-2.8377
X5.1319Y-2.8877
X5.1319Y-2.9377
X5.1319Y-2.9877
X5.1319Y-3.1377
X5.1819Y-2.4377
X5.1819Y-2.8377
X5.1819Y-2.8877
X5.1819Y-2.9377
X5.1819Y-2.9877
X5.1819Y-3.1377
X5.2319Y-2.4377
X5.2319Y-2.4877
X5.2319Y-2.5377
X5.2319Y-2.5877
X5.2319Y-3.4377
X5.2819Y-2.6377
X5.3166Y-2.4122
X5.3622Y-3.3652
X5.3632Y-2.6919
X5.3632Y-2.81
X5.3632Y-3.11
X5.3816Y-2.4607
X5.3819Y-3.4377
X5.4319Y-3.4377
X5.4819Y-2.2377
X5.4819Y-2.4877
X5.4819Y-3.4377
X5.4819Y-3.4877
X5.5319Y-2.2377
X5.5319Y-2.7377
X5.5319Y-2.7877
X5.5319Y-2.8377
X5.5319Y-2.8877
X5.5319Y-3.4377
X5.5319Y-3.4877
X5.5819Y-2.6877
X5.5819Y-3.4377
X5.6319Y-3.4377
X5.6819Y-3.4377
X5.7319Y-3.4377
X5.7819Y-3.4377
X5.8319Y-2.4877
X5.86Y-3.1161
X5.9154Y-3.1644
X5.9319Y-2.2377
X5.9319Y-2.2877
X5.9716Y-2.9197
X5.9819Y-2.2377
X5.9819Y-2.2877
X5.9819Y-3.4377
X6.0319Y-2.2377
X6.0319Y-2.3377
X6.0319Y-2.6377
X6.0319Y-2.6877
X6.0319Y-2.7377
X6.0319Y-2.8377
X6.0344Y-2.9744
X6.0819Y-2.6377
X6.0819Y-2.6877
X6.0819Y-2.7377
X6.0819Y-2.8377
X6.1166Y-3.3647
X6.1319Y-2.6377
X6.1319Y-2.6877
X6.1319Y-2.8377
X6.1319Y-3.4377
X6.1819Y-2.6377
X6.1819Y-2.8377
X6.1819Y-3.1877
X6.1819Y-3.4377
X6.2319Y-2.7877
X6.2319Y-2.8377
X6.2319Y-3.1377
X6.2319Y-3.1877
X6.2319Y-3.4377
X6.2819Y-3.4377
X6.3076Y-3.3244
X6.3319Y-3.4377
X6.3556Y-3.3647
X6.3576Y-2.4857
X6.3819Y-2.2377
X6.3819Y-2.2877
X6.3819Y-3.4377
X6.4Y-3.2647
X6.4157Y-3.13
X6.4319Y-2.2377
X6.4319Y-2.2877
X6.4319Y-3.4377
X6.4419Y-2.4949
X6.4819Y-2.2377
X6.4819Y-2.8377
X6.4819Y-2.8877
X6.4819Y-2.9377
X6.4819Y-2.9877
X6.4819Y-3.0377
X6.4819Y-3.0877
X6.4819Y-3.4377
X6.5319Y-2.5877
X6.5319Y-3.4377
X6.5319Y-3.4877
X6.5319Y-3.5377
X6.5319Y-3.5877
X6.5819Y-3.5377
X6.5819Y-3.5877
X6.6073Y-2.4949
X6.6319Y-3.5377
X6.6319Y-3.5877
X6.67Y-3.3269
X6.6755Y-2.4958
X6.6819Y-2.6877
X6.6819Y-2.7377
X6.6819Y-2.7877
X6.6819Y-2.8377
X6.6819Y-2.8877
X6.6819Y-2.9377
X6.6819Y-2.9877
X6.6819Y-3.0377
X6.6819Y-3.5377
X6.6819Y-3.5877
X6.7266Y-2.5627
X6.7319Y-2.4877
X6.7319Y-2.6877
X6.7319Y-2.7377
X6.7319Y-2.7877
X6.7319Y-2.8377
X6.7319Y-2.8877
X6.7319Y-2.9377
X6.7319Y-2.9877
X6.7319Y-3.0377
X6.7319Y-3.4377
X6.7319Y-3.4877
X6.7319Y-3.5377
X6.7319Y-3.5877
X6.7819Y-2.4877
X6.7819Y-2.5377
X6.7819Y-2.6877
X6.7819Y-2.7377
X6.7819Y-2.7877
X6.7819Y-2.8377
X6.7819Y-2.8877
X6.7819Y-2.9377
X6.7819Y-2.9877
X6.7819Y-3.0377
X6.7819Y-3.4377
X6.7819Y-3.4877
X6.7819Y-3.5377
X6.7819Y-3.5877
X6.8319Y-2.2377
X6.8319Y-2.2877
X6.8319Y-2.4877
X6.8319Y-2.5377
X6.8319Y-2.6877
X6.8319Y-2.7377
X6.8319Y-2.7877
X6.8319Y-2.8377
X6.8319Y-2.8877
X6.8319Y-2.9377
X6.8319Y-2.9877
X6.8319Y-3.0377
X6.8319Y-3.5377
X6.8319Y-3.5877
X6.8819Y-2.2377
X6.8819Y-2.2877
X6.8819Y-2.4877
X6.8819Y-2.5377
X6.8819Y-2.6877
X6.8819Y-2.7377
X6.8819Y-2.7877
X6.8819Y-2.8377
X6.8819Y-2.8877
X6.8819Y-2.9377
X6.8819Y-2.9877
X6.8819Y-3.0377
X6.8819Y-3.5377
X6.8819Y-3.5877
X6.9319Y-2.4877
X6.9319Y-2.5377
X6.9319Y-2.6877
X6.9319Y-2.7377
X6.9319Y-2.7877
X6.9319Y-2.8377
X6.9319Y-2.8877
X6.9319Y-2.9377
X6.9319Y-2.9877
X6.9319Y-3.0377
X6.9319Y-3.5377
X6.9319Y-3.5877
X6.9819Y-2.4877
X6.9819Y-2.5377
X6.9819Y-2.6877
X6.9819Y-2.7377
X6.9819Y-2.7877
X6.9819Y-2.8377
X6.9819Y-2.8877
X6.9819Y-2.9377
X6.9819Y-2.9877
X6.9819Y-3.0377
X6.9819Y-3.5377
X6.9819Y-3.5877
X7.0316Y-3.3647
X7.0319Y-2.4877
X7.0319Y-2.5377
X7.0319Y-2.6877
X7.0319Y-2.7377
X7.0319Y-2.7877
X7.0319Y-2.8377
X7.0319Y-2.8877
X7.0319Y-2.9377
X7.0319Y-2.9877
X7.0319Y-3.0377
X7.0319Y-3.5377
X7.0319Y-3.5877
X7.0819Y-2.5377
X7.0819Y-2.6877
X7.0819Y-2.7377
X7.0819Y-2.7877
X7.0819Y-2.8377
X7.0819Y-2.8877
X7.0819Y-2.9377
X7.0819Y-2.9877
X7.0819Y-3.0377
X7.0819Y-3.5377
X7.0819Y-3.5877
X7.1319Y-2.5377
X7.1319Y-2.6877
X7.1319Y-2.7377
X7.1319Y-2.7877
X7.1319Y-2.8377
X7.1319Y-2.8877
X7.1319Y-2.9377
X7.1319Y-2.9877
X7.1319Y-3.0377
X7.1319Y-3.3877
X7.1319Y-3.4377
X7.1319Y-3.4877
X7.1319Y-3.5377
X7.1319Y-3.5877
X7.1819Y-2.3877
X7.1819Y-2.5377
X7.1819Y-2.6877
X7.1819Y-2.7377
X7.1819Y-2.7877
X7.1819Y-2.8377
X7.1819Y-2.8877
X7.1819Y-2.9377
X7.1819Y-2.9877
X7.1819Y-3.0377
X7.1819Y-3.3877
X7.1819Y-3.4377
X7.1819Y-3.4877
X7.1819Y-3.5377
X7.1819Y-3.5877
X7.21Y-3.2647
X7.2319Y-2.3877
X7.2319Y-2.6877
X7.2319Y-2.7377
X7.2319Y-2.7877
X7.2319Y-2.8377
X7.2319Y-2.8877
X7.2319Y-2.9377
X7.2319Y-2.9877
X7.2319Y-3.0377
X7.2319Y-3.3377
X7.2319Y-3.3877
X7.2319Y-3.5377
X7.2319Y-3.5877
X7.2819Y-2.3877
X7.2819Y-2.4377
X7.2819Y-2.6877
X7.2819Y-2.7377
X7.2819Y-2.7877
X7.2819Y-2.8377
X7.2819Y-2.8877
X7.2819Y-2.9377
X7.2819Y-2.9877
X7.2819Y-3.0377
X7.2819Y-3.5377
X7.2819Y-3.5877
X7.3319Y-2.2377
X7.3319Y-2.2877
X7.3319Y-2.3377
X7.3319Y-2.3877
X7.3319Y-2.4377
X7.3319Y-2.4877
X7.3319Y-3.3377
X7.3319Y-3.3877
X7.3319Y-3.5377
X7.3319Y-3.5877
T2
X4.3431Y-2.5894
X4.3431Y-2.6894
X4.3431Y-2.7894
X4.4806Y-2.2872
X4.5806Y-2.2872
X4.5818Y-3.5147
X4.6806Y-2.2872
X4.6818Y-3.5147
X4.7806Y-2.2872
X4.8806Y-2.2872
X4.8916Y-3.5147
X4.9806Y-2.2872
X4.9916Y-3.5147
X5.0806Y-2.2872
X5.0916Y-3.5147
X5.1806Y-2.2872
X5.1916Y-3.5147
X5.2806Y-2.2872
X5.2916Y-3.5147
X5.3806Y-2.2872
X5.3916Y-3.5147
X5.6312Y-2.2872
X5.6416Y-3.5147
X5.7312Y-2.2872
X5.7416Y-3.5147
X5.8312Y-2.2872
X5.8416Y-3.5147
X5.9416Y-3.5147
X6.0416Y-3.5147
X6.1416Y-3.5147
X6.3714Y-3.5147
X6.4714Y-3.5147
X6.971Y-2.2872
X7.071Y-2.2872
X7.171Y-2.2872
X7.271Y-2.2872
T3
X6.09Y-2.29
X6.19Y-2.29
X6.29Y-2.29
X6.54Y-2.29
X6.64Y-2.29
X6.74Y-2.29
T4
X4.5316Y-3.0367
X4.5316Y-3.2336
T0
M30
