%TF.GenerationSoftware,KiCad,Pcbnew,7.0.5*%
%TF.CreationDate,2023-07-07T02:12:31+07:00*%
%TF.ProjectId,snaaur_v1,736e6161-7572-45f7-9631-2e6b69636164,rev?*%
%TF.SameCoordinates,Original*%
%TF.FileFunction,Paste,Top*%
%TF.FilePolarity,Positive*%
%FSLAX46Y46*%
G04 Gerber Fmt 4.6, Leading zero omitted, Abs format (unit mm)*
G04 Created by KiCad (PCBNEW 7.0.5) date 2023-07-07 02:12:31*
%MOMM*%
%LPD*%
G01*
G04 APERTURE LIST*
G04 Aperture macros list*
%AMRoundRect*
0 Rectangle with rounded corners*
0 $1 Rounding radius*
0 $2 $3 $4 $5 $6 $7 $8 $9 X,Y pos of 4 corners*
0 Add a 4 corners polygon primitive as box body*
4,1,4,$2,$3,$4,$5,$6,$7,$8,$9,$2,$3,0*
0 Add four circle primitives for the rounded corners*
1,1,$1+$1,$2,$3*
1,1,$1+$1,$4,$5*
1,1,$1+$1,$6,$7*
1,1,$1+$1,$8,$9*
0 Add four rect primitives between the rounded corners*
20,1,$1+$1,$2,$3,$4,$5,0*
20,1,$1+$1,$4,$5,$6,$7,0*
20,1,$1+$1,$6,$7,$8,$9,0*
20,1,$1+$1,$8,$9,$2,$3,0*%
%AMRotRect*
0 Rectangle, with rotation*
0 The origin of the aperture is its center*
0 $1 length*
0 $2 width*
0 $3 Rotation angle, in degrees counterclockwise*
0 Add horizontal line*
21,1,$1,$2,0,0,$3*%
G04 Aperture macros list end*
%ADD10RoundRect,0.186700X-0.044194X-0.380070X0.380070X0.044194X0.044194X0.380070X-0.380070X-0.044194X0*%
%ADD11RoundRect,0.186700X-0.237500X0.250000X-0.237500X-0.250000X0.237500X-0.250000X0.237500X0.250000X0*%
%ADD12R,1.398400X1.988400*%
%ADD13RoundRect,0.186700X0.237500X-0.250000X0.237500X0.250000X-0.237500X0.250000X-0.237500X-0.250000X0*%
%ADD14RoundRect,0.186700X0.380070X-0.044194X-0.044194X0.380070X-0.380070X0.044194X0.044194X-0.380070X0*%
%ADD15RoundRect,0.199200X0.537500X0.425000X-0.537500X0.425000X-0.537500X-0.425000X0.537500X-0.425000X0*%
%ADD16RoundRect,0.186700X0.250000X0.237500X-0.250000X0.237500X-0.250000X-0.237500X0.250000X-0.237500X0*%
%ADD17R,1.398400X1.898400*%
%ADD18R,3.698400X1.898400*%
%ADD19RoundRect,0.186700X-0.250000X-0.237500X0.250000X-0.237500X0.250000X0.237500X-0.250000X0.237500X0*%
%ADD20R,2.058400X1.018400*%
%ADD21RoundRect,0.199200X-0.400000X-1.450000X0.400000X-1.450000X0.400000X1.450000X-0.400000X1.450000X0*%
%ADD22RoundRect,0.186700X-0.287500X-0.237500X0.287500X-0.237500X0.287500X0.237500X-0.287500X0.237500X0*%
%ADD23RoundRect,0.186700X-0.300000X-0.237500X0.300000X-0.237500X0.300000X0.237500X-0.300000X0.237500X0*%
%ADD24RoundRect,0.186700X0.044194X0.380070X-0.380070X-0.044194X-0.044194X-0.380070X0.380070X0.044194X0*%
%ADD25RoundRect,0.186700X0.237500X-0.287500X0.237500X0.287500X-0.237500X0.287500X-0.237500X-0.287500X0*%
%ADD26R,0.898400X1.198400*%
%ADD27R,1.198400X0.898400*%
%ADD28RoundRect,0.186700X-0.380070X0.044194X0.044194X-0.380070X0.380070X-0.044194X-0.044194X0.380070X0*%
%ADD29RoundRect,0.024200X-0.662500X-0.075000X0.662500X-0.075000X0.662500X0.075000X-0.662500X0.075000X0*%
%ADD30RoundRect,0.024200X-0.075000X-0.662500X0.075000X-0.662500X0.075000X0.662500X-0.075000X0.662500X0*%
%ADD31RotRect,1.998400X1.698400X225.000000*%
%ADD32RoundRect,0.186700X-0.237500X0.300000X-0.237500X-0.300000X0.237500X-0.300000X0.237500X0.300000X0*%
%ADD33RoundRect,0.186700X-0.237500X0.287500X-0.237500X-0.287500X0.237500X-0.287500X0.237500X0.287500X0*%
%ADD34RoundRect,0.186700X0.237500X-0.300000X0.237500X0.300000X-0.237500X0.300000X-0.237500X-0.300000X0*%
%ADD35RoundRect,0.199200X0.850000X0.350000X-0.850000X0.350000X-0.850000X-0.350000X0.850000X-0.350000X0*%
%ADD36RoundRect,0.199200X1.275000X1.125000X-1.275000X1.125000X-1.275000X-1.125000X1.275000X-1.125000X0*%
%ADD37RoundRect,0.186700X0.300000X0.237500X-0.300000X0.237500X-0.300000X-0.237500X0.300000X-0.237500X0*%
G04 APERTURE END LIST*
D10*
%TO.C,C11*%
X141932500Y-69812500D03*
X143152260Y-68592740D03*
%TD*%
D11*
%TO.C,R3*%
X165902000Y-81096000D03*
X165902000Y-82921000D03*
%TD*%
D12*
%TO.C,D1*%
X130264500Y-82133000D03*
X130264500Y-77873000D03*
%TD*%
D13*
%TO.C,R10*%
X133055500Y-78344750D03*
X133055500Y-76519750D03*
%TD*%
D14*
%TO.C,C9*%
X143427260Y-74437500D03*
X142207500Y-73217740D03*
%TD*%
D15*
%TO.C,C1*%
X127511500Y-77850000D03*
X124636500Y-77850000D03*
%TD*%
D16*
%TO.C,R21*%
X185864500Y-81146000D03*
X184039500Y-81146000D03*
%TD*%
D17*
%TO.C,U2*%
X130864000Y-63772000D03*
X128564000Y-63772000D03*
D18*
X128564000Y-70072000D03*
D17*
X126264000Y-63772000D03*
%TD*%
D19*
%TO.C,R16*%
X170791500Y-80772000D03*
X172616500Y-80772000D03*
%TD*%
D20*
%TO.C,NRST2*%
X185269000Y-88512000D03*
X178539000Y-88512000D03*
%TD*%
D16*
%TO.C,R6*%
X136212500Y-84200000D03*
X134387500Y-84200000D03*
%TD*%
%TO.C,R2*%
X146720632Y-63799522D03*
X144895632Y-63799522D03*
%TD*%
D21*
%TO.C,F1*%
X123037000Y-82162000D03*
X127487000Y-82162000D03*
%TD*%
D16*
%TO.C,R17*%
X181362500Y-81146000D03*
X179537500Y-81146000D03*
%TD*%
D22*
%TO.C,2V2*%
X175949000Y-81146000D03*
X177699000Y-81146000D03*
%TD*%
D23*
%TO.C,C15*%
X121391500Y-65517000D03*
X123116500Y-65517000D03*
%TD*%
D24*
%TO.C,C8*%
X161431880Y-74186120D03*
X160212120Y-75405880D03*
%TD*%
D16*
%TO.C,R7*%
X155387500Y-84200000D03*
X153562500Y-84200000D03*
%TD*%
D24*
%TO.C,C10*%
X150215880Y-76098120D03*
X148996120Y-77317880D03*
%TD*%
D22*
%TO.C,2V1*%
X170829000Y-82296000D03*
X172579000Y-82296000D03*
%TD*%
D25*
%TO.C,5V1*%
X119420000Y-63860000D03*
X119420000Y-62110000D03*
%TD*%
D26*
%TO.C,U4*%
X185875000Y-66370000D03*
X184375000Y-66370000D03*
X182875000Y-66370000D03*
X181375000Y-66370000D03*
X179875000Y-66370000D03*
X178375000Y-66370000D03*
X176875000Y-66370000D03*
X175375000Y-66370000D03*
X173875000Y-66370000D03*
X172375000Y-66370000D03*
X170875000Y-66370000D03*
X169375000Y-66370000D03*
X167875000Y-66370000D03*
D27*
X166375000Y-67470000D03*
X166375000Y-68970000D03*
X166375000Y-70470000D03*
X166375000Y-71970000D03*
X166375000Y-73470000D03*
X166375000Y-74970000D03*
X166375000Y-76470000D03*
X166375000Y-77970000D03*
D26*
X167875000Y-79070000D03*
X169375000Y-79070000D03*
X170875000Y-79070000D03*
X172375000Y-79070000D03*
X173875000Y-79070000D03*
X175375000Y-79070000D03*
X176875000Y-79070000D03*
X178375000Y-79070000D03*
X179875000Y-79070000D03*
X181375000Y-79070000D03*
X182875000Y-79070000D03*
X184375000Y-79070000D03*
X185875000Y-79070000D03*
%TD*%
D28*
%TO.C,C6*%
X160339120Y-64280120D03*
X161558880Y-65499880D03*
%TD*%
D29*
%TO.C,U3*%
X151678000Y-66966000D03*
X151678000Y-67466000D03*
X151678000Y-67966000D03*
X151678000Y-68466000D03*
X151678000Y-68966000D03*
X151678000Y-69466000D03*
X151678000Y-69966000D03*
X151678000Y-70466000D03*
X151678000Y-70966000D03*
X151678000Y-71466000D03*
X151678000Y-71966000D03*
X151678000Y-72466000D03*
D30*
X153090500Y-73878500D03*
X153590500Y-73878500D03*
X154090500Y-73878500D03*
X154590500Y-73878500D03*
X155090500Y-73878500D03*
X155590500Y-73878500D03*
X156090500Y-73878500D03*
X156590500Y-73878500D03*
X157090500Y-73878500D03*
X157590500Y-73878500D03*
X158090500Y-73878500D03*
X158590500Y-73878500D03*
D29*
X160003000Y-72466000D03*
X160003000Y-71966000D03*
X160003000Y-71466000D03*
X160003000Y-70966000D03*
X160003000Y-70466000D03*
X160003000Y-69966000D03*
X160003000Y-69466000D03*
X160003000Y-68966000D03*
X160003000Y-68466000D03*
X160003000Y-67966000D03*
X160003000Y-67466000D03*
X160003000Y-66966000D03*
D30*
X158590500Y-65553500D03*
X158090500Y-65553500D03*
X157590500Y-65553500D03*
X157090500Y-65553500D03*
X156590500Y-65553500D03*
X156090500Y-65553500D03*
X155590500Y-65553500D03*
X155090500Y-65553500D03*
X154590500Y-65553500D03*
X154090500Y-65553500D03*
X153590500Y-65553500D03*
X153090500Y-65553500D03*
%TD*%
D31*
%TO.C,Y1*%
X145404512Y-69189142D03*
X143353902Y-71239752D03*
X144980248Y-72866098D03*
X147030858Y-70815488D03*
%TD*%
D32*
%TO.C,C7*%
X167426000Y-81146000D03*
X167426000Y-82871000D03*
%TD*%
D33*
%TO.C,5V2*%
X134675000Y-73114250D03*
X134675000Y-74864250D03*
%TD*%
D23*
%TO.C,C2*%
X125719500Y-74802000D03*
X127444500Y-74802000D03*
%TD*%
D16*
%TO.C,R1*%
X123126500Y-62096000D03*
X121301500Y-62096000D03*
%TD*%
D13*
%TO.C,R8*%
X134675000Y-78344750D03*
X134675000Y-76519750D03*
%TD*%
D19*
%TO.C,R20*%
X184039500Y-82924000D03*
X185864500Y-82924000D03*
%TD*%
D22*
%TO.C,2V3*%
X175949000Y-82924000D03*
X177699000Y-82924000D03*
%TD*%
D23*
%TO.C,C3*%
X121391500Y-63739000D03*
X123116500Y-63739000D03*
%TD*%
D16*
%TO.C,R19*%
X181362500Y-82924000D03*
X179537500Y-82924000D03*
%TD*%
D23*
%TO.C,C14*%
X167833500Y-64382000D03*
X169558500Y-64382000D03*
%TD*%
D32*
%TO.C,C4*%
X133075000Y-68357500D03*
X133075000Y-70082500D03*
%TD*%
D20*
%TO.C,NRST1*%
X175109000Y-88512000D03*
X168379000Y-88512000D03*
%TD*%
D34*
%TO.C,C12*%
X134726000Y-70082500D03*
X134726000Y-68357500D03*
%TD*%
D33*
%TO.C,5V3*%
X133055500Y-73114250D03*
X133055500Y-74864250D03*
%TD*%
D10*
%TO.C,C5*%
X150179120Y-65372880D03*
X151398880Y-64153120D03*
%TD*%
D35*
%TO.C,U1*%
X123112000Y-72250000D03*
D36*
X118487000Y-71495000D03*
X118487000Y-68445000D03*
X115137000Y-71495000D03*
X115137000Y-68445000D03*
D35*
X123112000Y-67690000D03*
%TD*%
D22*
%TO.C,3V1*%
X141480632Y-63799522D03*
X143230632Y-63799522D03*
%TD*%
D37*
%TO.C,C13*%
X136741700Y-63720500D03*
X135016700Y-63720500D03*
%TD*%
M02*
