%TF.GenerationSoftware,KiCad,Pcbnew,7.0.5*%
%TF.CreationDate,2023-07-07T02:12:31+07:00*%
%TF.ProjectId,snaaur_v1,736e6161-7572-45f7-9631-2e6b69636164,rev?*%
%TF.SameCoordinates,Original*%
%TF.FileFunction,Copper,L2,Bot*%
%TF.FilePolarity,Positive*%
%FSLAX46Y46*%
G04 Gerber Fmt 4.6, Leading zero omitted, Abs format (unit mm)*
G04 Created by KiCad (PCBNEW 7.0.5) date 2023-07-07 02:12:31*
%MOMM*%
%LPD*%
G01*
G04 APERTURE LIST*
%TA.AperFunction,ComponentPad*%
%ADD10R,1.700000X1.700000*%
%TD*%
%TA.AperFunction,ComponentPad*%
%ADD11O,1.700000X1.700000*%
%TD*%
%TA.AperFunction,ComponentPad*%
%ADD12R,3.960000X1.980000*%
%TD*%
%TA.AperFunction,ComponentPad*%
%ADD13O,3.960000X1.980000*%
%TD*%
%TA.AperFunction,ComponentPad*%
%ADD14R,1.730000X2.030000*%
%TD*%
%TA.AperFunction,ComponentPad*%
%ADD15O,1.730000X2.030000*%
%TD*%
%TA.AperFunction,ViaPad*%
%ADD16C,0.600000*%
%TD*%
%TA.AperFunction,Conductor*%
%ADD17C,0.762000*%
%TD*%
%TA.AperFunction,Conductor*%
%ADD18C,0.254000*%
%TD*%
G04 APERTURE END LIST*
D10*
%TO.P,J2,1,Pin_1*%
%TO.N,+3.3V*%
X177062500Y-58095000D03*
D11*
%TO.P,J2,2,Pin_2*%
%TO.N,SWCLK*%
X179602500Y-58095000D03*
%TO.P,J2,3,Pin_3*%
%TO.N,SWDIO*%
X182142500Y-58095000D03*
%TO.P,J2,4,Pin_4*%
%TO.N,GND*%
X184682500Y-58095000D03*
%TD*%
D12*
%TO.P,J1,1,Pin_1*%
%TO.N,+12V*%
X115102000Y-82133000D03*
D13*
%TO.P,J1,2,Pin_2*%
%TO.N,GND*%
X115102000Y-77133000D03*
%TD*%
D10*
%TO.P,J11,1,Pin_1*%
%TO.N,+5V*%
X110316000Y-65771000D03*
D11*
%TO.P,J11,2,Pin_2*%
X110316000Y-68311000D03*
%TO.P,J11,3,Pin_3*%
%TO.N,GND*%
X110316000Y-70851000D03*
%TD*%
D14*
%TO.P,J9,1,Pin_1*%
%TO.N,/PWM1_CH1*%
X171196000Y-58166000D03*
D15*
%TO.P,J9,2,Pin_2*%
%TO.N,Net-(J9-Pin_2)*%
X168656000Y-58166000D03*
%TO.P,J9,3,Pin_3*%
%TO.N,GND*%
X166116000Y-58166000D03*
%TD*%
D10*
%TO.P,J5,1,Pin_1*%
%TO.N,-M1*%
X118917000Y-89274000D03*
D11*
%TO.P,J5,2,Pin_2*%
%TO.N,+M1*%
X116377000Y-89274000D03*
%TD*%
D10*
%TO.P,J6,1,Pin_1*%
%TO.N,+M1*%
X136946000Y-89274000D03*
D11*
%TO.P,J6,2,Pin_2*%
%TO.N,Net-(J6-Pin_2)*%
X134406000Y-89274000D03*
%TO.P,J6,3,Pin_3*%
%TO.N,enc_in_1b*%
X131866000Y-89274000D03*
%TO.P,J6,4,Pin_4*%
%TO.N,enc_in_1a*%
X129326000Y-89274000D03*
%TO.P,J6,5,Pin_5*%
%TO.N,GND*%
X126786000Y-89274000D03*
%TO.P,J6,6,Pin_6*%
%TO.N,-M1*%
X124246000Y-89274000D03*
%TD*%
D10*
%TO.P,J3,1,Pin_1*%
%TO.N,GND*%
X143031500Y-58095000D03*
D11*
%TO.P,J3,2,Pin_2*%
%TO.N,BOOT0*%
X145571500Y-58095000D03*
%TO.P,J3,3,Pin_3*%
%TO.N,+3.3V*%
X148111500Y-58095000D03*
%TD*%
D10*
%TO.P,J4,1,Pin_1*%
%TO.N,+3.3V*%
X136666500Y-58095000D03*
D11*
%TO.P,J4,2,Pin_2*%
%TO.N,GND*%
X134126500Y-58095000D03*
%TO.P,J4,3,Pin_3*%
%TO.N,IMU_SCL*%
X131586500Y-58095000D03*
%TO.P,J4,4,Pin_4*%
%TO.N,IMU_SDA*%
X129046500Y-58095000D03*
%TO.P,J4,5,Pin_5*%
%TO.N,unconnected-(J4-Pin_5-Pad5)*%
X126506500Y-58095000D03*
%TO.P,J4,6,Pin_6*%
%TO.N,unconnected-(J4-Pin_6-Pad6)*%
X123966500Y-58095000D03*
%TO.P,J4,7,Pin_7*%
%TO.N,unconnected-(J4-Pin_7-Pad7)*%
X121426500Y-58095000D03*
%TO.P,J4,8,Pin_8*%
%TO.N,unconnected-(J4-Pin_8-Pad8)*%
X118886500Y-58095000D03*
%TO.P,J4,9,Pin_9*%
%TO.N,unconnected-(J4-Pin_9-Pad9)*%
X116346500Y-58095000D03*
%TO.P,J4,10,Pin_10*%
%TO.N,unconnected-(J4-Pin_10-Pad10)*%
X113806500Y-58095000D03*
%TD*%
D14*
%TO.P,J10,1,Pin_1*%
%TO.N,/PWM2_CH1*%
X159766000Y-58166000D03*
D15*
%TO.P,J10,2,Pin_2*%
%TO.N,Net-(J10-Pin_2)*%
X157226000Y-58166000D03*
%TO.P,J10,3,Pin_3*%
%TO.N,GND*%
X154686000Y-58166000D03*
%TD*%
D10*
%TO.P,J7,1,Pin_1*%
%TO.N,+M2*%
X161833000Y-89274000D03*
D11*
%TO.P,J7,2,Pin_2*%
%TO.N,-M2*%
X164373000Y-89274000D03*
%TD*%
D10*
%TO.P,J8,1,Pin_1*%
%TO.N,+M2*%
X155996000Y-89274000D03*
D11*
%TO.P,J8,2,Pin_2*%
%TO.N,Net-(J8-Pin_2)*%
X153456000Y-89274000D03*
%TO.P,J8,3,Pin_3*%
%TO.N,enc_in_2b*%
X150916000Y-89274000D03*
%TO.P,J8,4,Pin_4*%
%TO.N,enc_in_2a*%
X148376000Y-89274000D03*
%TO.P,J8,5,Pin_5*%
%TO.N,GND*%
X145836000Y-89274000D03*
%TO.P,J8,6,Pin_6*%
%TO.N,-M2*%
X143296000Y-89274000D03*
%TD*%
D16*
%TO.N,GND*%
X174800977Y-56836500D03*
X179880977Y-64456500D03*
X164640977Y-77156500D03*
X107490977Y-78426500D03*
X107490977Y-82236500D03*
X136225000Y-78994000D03*
X164640977Y-87316500D03*
X170990977Y-88586500D03*
X184960977Y-75886500D03*
X169720977Y-75886500D03*
X104950977Y-77156500D03*
X108760977Y-63186500D03*
X115110977Y-65726500D03*
X172260977Y-70806500D03*
X115110977Y-64456500D03*
X112570977Y-72076500D03*
X104950977Y-59376500D03*
X106220977Y-74616500D03*
X104950977Y-75886500D03*
X112570977Y-60646500D03*
X146860977Y-87316500D03*
X184960977Y-77156500D03*
X157020977Y-72076500D03*
X181150977Y-77156500D03*
X106220977Y-64456500D03*
X130350977Y-73346500D03*
X155750977Y-87316500D03*
X148130977Y-63186500D03*
X186230977Y-89856500D03*
X107490977Y-66996500D03*
X179880977Y-75886500D03*
X131620977Y-72076500D03*
X176070977Y-75886500D03*
X172260977Y-74616500D03*
X112570977Y-74616500D03*
X125270977Y-65726500D03*
X110030977Y-74616500D03*
X173530977Y-73346500D03*
X143050977Y-87316500D03*
X120190977Y-84776500D03*
X153210977Y-72076500D03*
X111300977Y-56836500D03*
X121460977Y-83506500D03*
X129080977Y-72076500D03*
X168450977Y-91126500D03*
X104950977Y-91126500D03*
X136225000Y-68375000D03*
X182420977Y-72076500D03*
X110030977Y-80966500D03*
X111300977Y-88586500D03*
X108760977Y-72076500D03*
X126540977Y-79696500D03*
X153210977Y-56836500D03*
X107490977Y-84776500D03*
X151940977Y-87316500D03*
X110030977Y-77156500D03*
X176070977Y-68266500D03*
X158290977Y-80966500D03*
X181150977Y-75886500D03*
X160830977Y-87316500D03*
X162100977Y-87316500D03*
X140510977Y-70806500D03*
X127810977Y-61916500D03*
X176070977Y-69536500D03*
X181150977Y-89856500D03*
X183690977Y-70806500D03*
X132890977Y-61916500D03*
X181150977Y-70806500D03*
X170990977Y-63186500D03*
X178610977Y-73346500D03*
X124000977Y-84776500D03*
X158290977Y-70806500D03*
X110030977Y-91126500D03*
X181150977Y-73346500D03*
X169720977Y-74616500D03*
X110030977Y-73346500D03*
X164640977Y-74616500D03*
X126540977Y-84776500D03*
X104950977Y-87316500D03*
X111300977Y-60646500D03*
X107490977Y-74616500D03*
X183690977Y-73346500D03*
X117650977Y-65726500D03*
X117650977Y-74616500D03*
X178610977Y-72076500D03*
X104950977Y-66996500D03*
X141780977Y-87316500D03*
X182420977Y-77156500D03*
X184960977Y-74616500D03*
X178610977Y-77156500D03*
X179880977Y-91126500D03*
X154480977Y-72076500D03*
X172260977Y-69536500D03*
X134160977Y-66996500D03*
X170990977Y-91126500D03*
X173530977Y-56836500D03*
X107490977Y-61916500D03*
X112570977Y-69536500D03*
X115110977Y-79696500D03*
X182420977Y-74616500D03*
X172260977Y-72076500D03*
X186230977Y-56836500D03*
X110030977Y-86046500D03*
X164640977Y-56836500D03*
X182420977Y-68266500D03*
X165910977Y-89856500D03*
X170990977Y-70806500D03*
X106220977Y-79696500D03*
X108760977Y-75886500D03*
X116380977Y-63186500D03*
X125270977Y-83506500D03*
X104950977Y-88586500D03*
X136225000Y-71374000D03*
X104950977Y-79696500D03*
X112570977Y-65726500D03*
X112570977Y-75886500D03*
X172260977Y-73346500D03*
X169720977Y-68266500D03*
X122730977Y-84776500D03*
X163370977Y-56836500D03*
X126540977Y-68266500D03*
X183690977Y-68266500D03*
X155750977Y-68266500D03*
X178610977Y-64456500D03*
X129080977Y-73346500D03*
X186230977Y-58106500D03*
X173530977Y-91126500D03*
X106220977Y-77156500D03*
X104950977Y-72076500D03*
X108760977Y-68266500D03*
X130350977Y-75886500D03*
X172260977Y-64456500D03*
X106220977Y-69536500D03*
X173530977Y-75886500D03*
X112570977Y-66996500D03*
X170990977Y-73346500D03*
X113840977Y-89856500D03*
X132890977Y-63186500D03*
X184960977Y-60646500D03*
X104950977Y-63186500D03*
X164640977Y-73346500D03*
X151940977Y-58106500D03*
X183690977Y-84776500D03*
X181150977Y-68266500D03*
X108760977Y-83506500D03*
X181150977Y-91126500D03*
X177340977Y-91126500D03*
X140510977Y-88586500D03*
X158290977Y-72076500D03*
X181150977Y-69536500D03*
X112570977Y-91126500D03*
X106220977Y-66996500D03*
X110030977Y-75886500D03*
X172260977Y-87316500D03*
X183690977Y-72076500D03*
X170990977Y-68266500D03*
X125270977Y-79696500D03*
X120190977Y-79696500D03*
X184960977Y-69536500D03*
X139240977Y-56836500D03*
X179880977Y-72076500D03*
X116380977Y-79696500D03*
X104950977Y-84776500D03*
X115110977Y-63186500D03*
X186230977Y-84776500D03*
X178610977Y-75886500D03*
X169720977Y-77156500D03*
X104950977Y-56836500D03*
X154480977Y-69536500D03*
X116380977Y-84776500D03*
X169720977Y-70806500D03*
X106220977Y-72076500D03*
X136700977Y-87316500D03*
X129080977Y-60646500D03*
X111300977Y-77156500D03*
X169720977Y-72076500D03*
X106220977Y-68266500D03*
X179880977Y-77156500D03*
X173530977Y-69536500D03*
X172260977Y-75886500D03*
X177340977Y-68266500D03*
X177340977Y-70806500D03*
X113840977Y-65726500D03*
X173530977Y-63186500D03*
X177340977Y-74616500D03*
X160212120Y-84440120D03*
X176070977Y-91126500D03*
X108760977Y-65726500D03*
X167180977Y-91126500D03*
X116380977Y-64456500D03*
X176070977Y-73346500D03*
X125270977Y-68266500D03*
X184960977Y-89856500D03*
X157020977Y-80966500D03*
X179880977Y-74616500D03*
X107490977Y-69536500D03*
X108760977Y-73346500D03*
X116380977Y-74616500D03*
X162100977Y-58106500D03*
X112570977Y-89856500D03*
X107490977Y-83506500D03*
X182420977Y-88586500D03*
X183690977Y-89856500D03*
X169720977Y-89856500D03*
X124000977Y-79696500D03*
X126540977Y-61916500D03*
X165910977Y-88586500D03*
X148844000Y-79150000D03*
X126540977Y-66996500D03*
X110030977Y-87316500D03*
X154480977Y-68266500D03*
X139240977Y-63186500D03*
X107490977Y-80966500D03*
X132890977Y-64456500D03*
X107490977Y-73346500D03*
X104950977Y-64456500D03*
X108760977Y-74616500D03*
X113840977Y-64456500D03*
X173530977Y-68266500D03*
X130350977Y-61916500D03*
X170990977Y-75886500D03*
X169720977Y-91126500D03*
X162100977Y-56836500D03*
X130350977Y-79696500D03*
X104950977Y-80966500D03*
X117650977Y-64456500D03*
X104950977Y-69536500D03*
X174800977Y-75886500D03*
X124000977Y-69536500D03*
X112570977Y-68266500D03*
X129080977Y-75886500D03*
X108760977Y-70806500D03*
X110030977Y-79696500D03*
X140510977Y-73346500D03*
X181150977Y-88586500D03*
X121460977Y-84776500D03*
X113840977Y-88586500D03*
X117650977Y-84776500D03*
X183690977Y-69536500D03*
X108760977Y-66996500D03*
X137970977Y-87316500D03*
X170990977Y-69536500D03*
X126540977Y-65726500D03*
X106220977Y-73346500D03*
X125270977Y-70806500D03*
X104950977Y-82236500D03*
X132890977Y-87316500D03*
X107490977Y-72076500D03*
X182420977Y-69536500D03*
X177340977Y-64456500D03*
X178610977Y-63186500D03*
X111300977Y-61916500D03*
X174800977Y-68266500D03*
X177340977Y-72076500D03*
X179880977Y-89856500D03*
X155750977Y-66996500D03*
X104950977Y-73346500D03*
X106220977Y-86046500D03*
X186230977Y-61916500D03*
X172260977Y-63186500D03*
X153210977Y-59376500D03*
X174800977Y-70806500D03*
X174800977Y-63186500D03*
X107490977Y-77156500D03*
X104950977Y-68266500D03*
X125270977Y-84776500D03*
X111300977Y-74616500D03*
X139240977Y-88586500D03*
X131620977Y-61916500D03*
X150670977Y-56836500D03*
X183690977Y-77156500D03*
X131620977Y-74616500D03*
X177340977Y-73346500D03*
X159560977Y-87316500D03*
X169720977Y-73346500D03*
X118920977Y-79696500D03*
X107490977Y-86046500D03*
X132890977Y-65726500D03*
X174800977Y-91126500D03*
X111300977Y-86046500D03*
X108760977Y-84776500D03*
X145590977Y-87316500D03*
X112570977Y-73346500D03*
X184960977Y-70806500D03*
X157020977Y-87316500D03*
X106220977Y-78426500D03*
X110030977Y-84776500D03*
X157020977Y-66996500D03*
X168450977Y-89856500D03*
X174800977Y-72076500D03*
X182420977Y-64456500D03*
X176070977Y-70806500D03*
X106220977Y-83506500D03*
X108760977Y-78426500D03*
X127810977Y-84776500D03*
X129080977Y-74616500D03*
X135041000Y-61270000D03*
X153210977Y-69536500D03*
X178610977Y-89856500D03*
X163370977Y-58106500D03*
X155750977Y-72076500D03*
X107490977Y-79696500D03*
X164640977Y-75886500D03*
X153210977Y-68266500D03*
X140510977Y-72076500D03*
X110030977Y-78426500D03*
X173530977Y-64456500D03*
X111300977Y-87316500D03*
X104950977Y-89856500D03*
X172260977Y-88586500D03*
X174800977Y-58106500D03*
X186230977Y-59376500D03*
X176070977Y-64456500D03*
X186230977Y-91126500D03*
X140510977Y-87316500D03*
X165910977Y-91126500D03*
X173530977Y-74616500D03*
X131620977Y-79696500D03*
X122730977Y-69536500D03*
X172260977Y-91126500D03*
X140510977Y-69536500D03*
X177340977Y-69536500D03*
X184960977Y-91126500D03*
X106220977Y-63186500D03*
X115110977Y-91126500D03*
X130350977Y-68266500D03*
X182420977Y-75886500D03*
X183690977Y-60646500D03*
X110030977Y-63186500D03*
X111300977Y-89856500D03*
X104950977Y-70806500D03*
X179880977Y-68266500D03*
X122730977Y-70806500D03*
X125270977Y-80966500D03*
X107490977Y-68266500D03*
X115110977Y-74616500D03*
X167825000Y-63370000D03*
X182420977Y-89856500D03*
X127810977Y-60646500D03*
X182420977Y-91126500D03*
X174800977Y-69536500D03*
X141780977Y-68266500D03*
X173530977Y-58106500D03*
X158290977Y-79696500D03*
X177340977Y-77156500D03*
X108760977Y-82236500D03*
X178610977Y-91126500D03*
X167180977Y-89856500D03*
X151940977Y-56836500D03*
X178610977Y-69536500D03*
X182420977Y-73346500D03*
X173530977Y-72076500D03*
X108760977Y-61916500D03*
X104950977Y-83506500D03*
X126540977Y-60646500D03*
X120190977Y-83506500D03*
X172260977Y-77156500D03*
X121460977Y-70806500D03*
X186230977Y-63186500D03*
X129080977Y-84776500D03*
X176070977Y-72076500D03*
X110030977Y-82236500D03*
X112570977Y-87316500D03*
X107490977Y-64456500D03*
X170990977Y-89856500D03*
X111300977Y-75886500D03*
X131620977Y-75886500D03*
X108760977Y-69536500D03*
X183690977Y-74616500D03*
X172260977Y-68266500D03*
X124000977Y-70806500D03*
X106220977Y-61916500D03*
X107490977Y-65726500D03*
X176070977Y-77156500D03*
X182420977Y-60646500D03*
X186230977Y-60646500D03*
X110030977Y-56836500D03*
X104950977Y-58106500D03*
X111300977Y-59376500D03*
X121460977Y-79696500D03*
X176070977Y-63186500D03*
X139240977Y-87316500D03*
X184960977Y-61916500D03*
X181150977Y-74616500D03*
X117650977Y-79696500D03*
X165910977Y-65726500D03*
X165910977Y-87316500D03*
X117650977Y-63186500D03*
X174800977Y-89856500D03*
X178610977Y-70806500D03*
X169720977Y-69536500D03*
X154480977Y-66996500D03*
X177340977Y-89856500D03*
X170990977Y-72076500D03*
X118920977Y-83506500D03*
X113840977Y-74616500D03*
X118920977Y-84776500D03*
X118920977Y-65726500D03*
X179880977Y-69536500D03*
X177340977Y-63186500D03*
X164640977Y-72076500D03*
X125270977Y-61916500D03*
X184960977Y-73346500D03*
X106220977Y-75886500D03*
X179880977Y-73346500D03*
X183690977Y-91126500D03*
X130350977Y-74616500D03*
X181150977Y-86046500D03*
X106220977Y-70806500D03*
X108760977Y-77156500D03*
X176070977Y-74616500D03*
X176070977Y-89856500D03*
X131620977Y-73346500D03*
X108760977Y-80966500D03*
X140510977Y-56836500D03*
X108760977Y-79696500D03*
X125270977Y-82236500D03*
X107490977Y-63186500D03*
X183690977Y-75886500D03*
X107490977Y-70806500D03*
X106220977Y-84776500D03*
X170990977Y-74616500D03*
X104950977Y-78426500D03*
X163625000Y-63370000D03*
X116380977Y-65726500D03*
X173530977Y-77156500D03*
X110030977Y-61916500D03*
X110030977Y-83506500D03*
X104950977Y-65726500D03*
X108760977Y-86046500D03*
X184960977Y-68266500D03*
X186230977Y-86046500D03*
X111300977Y-78426500D03*
X173530977Y-89856500D03*
X129080977Y-61916500D03*
X174800977Y-73346500D03*
X111300977Y-73346500D03*
X170990977Y-87316500D03*
X111300977Y-58106500D03*
X184960977Y-72076500D03*
X125270977Y-69536500D03*
X104950977Y-86046500D03*
X178610977Y-74616500D03*
X158290977Y-87316500D03*
X104950977Y-61916500D03*
X129080977Y-79696500D03*
X182420977Y-70806500D03*
X125270977Y-66996500D03*
X182420977Y-86046500D03*
X106220977Y-65726500D03*
X178610977Y-68266500D03*
X182420977Y-87316500D03*
X172260977Y-89856500D03*
X163370977Y-87316500D03*
X170990977Y-77156500D03*
X164640977Y-78426500D03*
X174800977Y-74616500D03*
X174800977Y-77156500D03*
X177340977Y-75886500D03*
X144320977Y-87316500D03*
X130350977Y-72076500D03*
X181150977Y-87316500D03*
X106220977Y-82236500D03*
X111300977Y-91126500D03*
X104950977Y-60646500D03*
X125270977Y-60646500D03*
X179880977Y-70806500D03*
X181150977Y-72076500D03*
X121460977Y-69536500D03*
X183690977Y-86046500D03*
X174800977Y-64456500D03*
X153210977Y-66996500D03*
X124000977Y-60646500D03*
X112570977Y-88586500D03*
X106220977Y-56836500D03*
X125270977Y-73346500D03*
X169418000Y-84502000D03*
X107490977Y-75886500D03*
X106220977Y-80966500D03*
X104950977Y-74616500D03*
X127810977Y-79696500D03*
X108760977Y-64456500D03*
X113840977Y-91126500D03*
X150670977Y-58106500D03*
X173530977Y-70806500D03*
X122730977Y-79696500D03*
X181150977Y-64456500D03*
%TO.N,+3.3V*%
X161431880Y-85464000D03*
X136692000Y-62501300D03*
X150250000Y-80375000D03*
X136200000Y-85475000D03*
X161482400Y-63136840D03*
X169558500Y-63392500D03*
X155361000Y-85464000D03*
X178602000Y-85464000D03*
%TO.N,NRST*%
X151678000Y-74161000D03*
X162560000Y-82924000D03*
%TO.N,BLE_ENB*%
X183134000Y-82924000D03*
X162958000Y-79502000D03*
%TO.N,BLUE_RESET*%
X153275000Y-75550000D03*
X170855000Y-65093200D03*
%TD*%
D17*
%TO.N,GND*%
X112050000Y-83800000D02*
X112050000Y-80185000D01*
X135041000Y-61270000D02*
X135041000Y-59009500D01*
X160212120Y-84440120D02*
X160150240Y-84502000D01*
X135041000Y-59009500D02*
X134126500Y-58095000D01*
X144405000Y-90705000D02*
X128217000Y-90705000D01*
X160150240Y-84502000D02*
X157715736Y-84502000D01*
X114550000Y-86300000D02*
X112050000Y-83800000D01*
X169418000Y-84502000D02*
X160274000Y-84502000D01*
X136381000Y-79150000D02*
X136225000Y-78994000D01*
X157715736Y-84502000D02*
X152363736Y-79150000D01*
X160274000Y-84502000D02*
X160212120Y-84440120D01*
X126825000Y-86300000D02*
X126786000Y-86339000D01*
X167825000Y-63370000D02*
X163625000Y-63370000D01*
X112050000Y-80185000D02*
X115102000Y-77133000D01*
X145836000Y-89274000D02*
X144405000Y-90705000D01*
X136225000Y-81199000D02*
X131124000Y-86300000D01*
X128217000Y-90705000D02*
X126786000Y-89274000D01*
X126825000Y-86300000D02*
X114550000Y-86300000D01*
X126786000Y-86339000D02*
X126786000Y-89274000D01*
X131124000Y-86300000D02*
X126825000Y-86300000D01*
X136225000Y-68375000D02*
X136225000Y-71374000D01*
X136225000Y-78994000D02*
X136225000Y-81199000D01*
X148844000Y-79150000D02*
X136381000Y-79150000D01*
X152363736Y-79150000D02*
X148844000Y-79150000D01*
%TO.N,+3.3V*%
X172455200Y-61029200D02*
X169585000Y-61029200D01*
X136666500Y-58095000D02*
X136666500Y-61029200D01*
X146902800Y-85464000D02*
X136211000Y-85464000D01*
X150250000Y-85439000D02*
X150275000Y-85464000D01*
X177062500Y-58095000D02*
X174128300Y-61029200D01*
X146902800Y-85464000D02*
X150275000Y-85464000D01*
X169585000Y-61029200D02*
X161482400Y-61029200D01*
X169558500Y-63392500D02*
X169558500Y-61055700D01*
X136211000Y-85464000D02*
X136200000Y-85475000D01*
X150250000Y-80375000D02*
X150250000Y-85439000D01*
X148111500Y-61029200D02*
X136666500Y-61029200D01*
X136666500Y-62475800D02*
X136666500Y-61029200D01*
X161482400Y-61029200D02*
X148111500Y-61029200D01*
X161482400Y-63136840D02*
X161482400Y-61029200D01*
X174128300Y-61029200D02*
X172455200Y-61029200D01*
X150275000Y-85464000D02*
X164530400Y-85464000D01*
X164530400Y-85464000D02*
X178602000Y-85464000D01*
X148111500Y-58095000D02*
X148111500Y-61029200D01*
X169558500Y-61055700D02*
X169585000Y-61029200D01*
X136692000Y-62501300D02*
X136666500Y-62475800D01*
D18*
%TO.N,NRST*%
X157139000Y-82924000D02*
X151678000Y-77463000D01*
X162560000Y-82924000D02*
X157139000Y-82924000D01*
X151678000Y-77463000D02*
X151678000Y-74161000D01*
%TO.N,BLE_ENB*%
X183134000Y-82924000D02*
X183130000Y-82920000D01*
X183130000Y-82920000D02*
X166376000Y-82920000D01*
X166376000Y-82920000D02*
X162958000Y-79502000D01*
%TO.N,BLUE_RESET*%
X158417000Y-75550000D02*
X168873800Y-65093200D01*
X153275000Y-75550000D02*
X158417000Y-75550000D01*
X168873800Y-65093200D02*
X170855000Y-65093200D01*
%TD*%
%TA.AperFunction,Conductor*%
%TO.N,GND*%
G36*
X148090677Y-66844685D02*
G01*
X148111319Y-66861319D01*
X149738681Y-68488681D01*
X149772166Y-68550004D01*
X149775000Y-68576362D01*
X149775000Y-72223637D01*
X149755315Y-72290676D01*
X149738681Y-72311318D01*
X145053319Y-76996681D01*
X144991996Y-77030166D01*
X144965638Y-77033000D01*
X142834362Y-77033000D01*
X142767323Y-77013315D01*
X142746681Y-76996681D01*
X139382319Y-73632319D01*
X139348834Y-73570996D01*
X139346000Y-73544638D01*
X139346000Y-69205361D01*
X139365685Y-69138322D01*
X139382314Y-69117685D01*
X141638681Y-66861318D01*
X141700004Y-66827834D01*
X141726362Y-66825000D01*
X148023638Y-66825000D01*
X148090677Y-66844685D01*
G37*
%TD.AperFunction*%
%TA.AperFunction,Conductor*%
G36*
X186887039Y-55011185D02*
G01*
X186932794Y-55063989D01*
X186944000Y-55115500D01*
X186944000Y-63516202D01*
X186924315Y-63583241D01*
X186871511Y-63628996D01*
X186840412Y-63638510D01*
X186818417Y-63642180D01*
X186818411Y-63642182D01*
X186817823Y-63642501D01*
X186789282Y-63653637D01*
X186788635Y-63653800D01*
X186788631Y-63653802D01*
X186750687Y-63678591D01*
X186746287Y-63681213D01*
X186706440Y-63702778D01*
X186706437Y-63702781D01*
X186705990Y-63703267D01*
X186682601Y-63723076D01*
X186682043Y-63723440D01*
X186654209Y-63759202D01*
X186650897Y-63763112D01*
X186620206Y-63796452D01*
X186620204Y-63796455D01*
X186619938Y-63797062D01*
X186604251Y-63823389D01*
X186603844Y-63823911D01*
X186603839Y-63823920D01*
X186589127Y-63866773D01*
X186587265Y-63871545D01*
X186569060Y-63913050D01*
X186569058Y-63913056D01*
X186569004Y-63913716D01*
X186562715Y-63943709D01*
X186562501Y-63944331D01*
X186562500Y-63944339D01*
X186562500Y-63989649D01*
X186562288Y-63994770D01*
X186558546Y-64039940D01*
X186558704Y-64040564D01*
X186562500Y-64071010D01*
X186562500Y-66256137D01*
X186542815Y-66323176D01*
X186526182Y-66343818D01*
X186500000Y-66370000D01*
X186500000Y-79070000D01*
X186500002Y-79070000D01*
X186526181Y-79096179D01*
X186559666Y-79157502D01*
X186562500Y-79183861D01*
X186562500Y-81007649D01*
X186562288Y-81012770D01*
X186558546Y-81057940D01*
X186569671Y-81101873D01*
X186570723Y-81106890D01*
X186578181Y-81151585D01*
X186578494Y-81152162D01*
X186589640Y-81180726D01*
X186589802Y-81181367D01*
X186589802Y-81181368D01*
X186614586Y-81219302D01*
X186617209Y-81223705D01*
X186634941Y-81256468D01*
X186638780Y-81263562D01*
X186639259Y-81264003D01*
X186659083Y-81287409D01*
X186659440Y-81287956D01*
X186659441Y-81287957D01*
X186659442Y-81287958D01*
X186676948Y-81301582D01*
X186695202Y-81315790D01*
X186699109Y-81319099D01*
X186732449Y-81349792D01*
X186732454Y-81349795D01*
X186733053Y-81350058D01*
X186759397Y-81365756D01*
X186759909Y-81366154D01*
X186759912Y-81366155D01*
X186759915Y-81366158D01*
X186802773Y-81380871D01*
X186807534Y-81382728D01*
X186849052Y-81400940D01*
X186849062Y-81400940D01*
X186850431Y-81401288D01*
X186852118Y-81402285D01*
X186858461Y-81405067D01*
X186858125Y-81405832D01*
X186910589Y-81436823D01*
X186941986Y-81499240D01*
X186944000Y-81521496D01*
X186944000Y-92458500D01*
X186924315Y-92525539D01*
X186871511Y-92571294D01*
X186820000Y-92582500D01*
X104137500Y-92582500D01*
X104070461Y-92562815D01*
X104024706Y-92510011D01*
X104013500Y-92458500D01*
X104013500Y-89195800D01*
X105818500Y-89195800D01*
X105858205Y-89484679D01*
X105858206Y-89484685D01*
X105936878Y-89765467D01*
X106053049Y-90032918D01*
X106053048Y-90032918D01*
X106204556Y-90282063D01*
X106204558Y-90282065D01*
X106204559Y-90282067D01*
X106388583Y-90508262D01*
X106601693Y-90707292D01*
X106839918Y-90875450D01*
X106839917Y-90875450D01*
X106839919Y-90875451D01*
X107098824Y-91009605D01*
X107373584Y-91107254D01*
X107373587Y-91107254D01*
X107373592Y-91107256D01*
X107659083Y-91166582D01*
X107659082Y-91166582D01*
X107686344Y-91168446D01*
X107877179Y-91181500D01*
X107877186Y-91181500D01*
X108022814Y-91181500D01*
X108022821Y-91181500D01*
X108240917Y-91166582D01*
X108416664Y-91130060D01*
X108526407Y-91107256D01*
X108526408Y-91107255D01*
X108526416Y-91107254D01*
X108801176Y-91009605D01*
X109060081Y-90875451D01*
X109298307Y-90707292D01*
X109511417Y-90508262D01*
X109695441Y-90282067D01*
X109846950Y-90032920D01*
X109963123Y-89765464D01*
X110041795Y-89484680D01*
X110070751Y-89274000D01*
X115318202Y-89274000D01*
X115338546Y-89480559D01*
X115338547Y-89480561D01*
X115398798Y-89679184D01*
X115398799Y-89679186D01*
X115398800Y-89679188D01*
X115398801Y-89679191D01*
X115496638Y-89862231D01*
X115496642Y-89862238D01*
X115628316Y-90022683D01*
X115788761Y-90154357D01*
X115788768Y-90154361D01*
X115971808Y-90252198D01*
X115971809Y-90252198D01*
X115971816Y-90252202D01*
X116170439Y-90312453D01*
X116170438Y-90312453D01*
X116190782Y-90314456D01*
X116377000Y-90332798D01*
X116583561Y-90312453D01*
X116782184Y-90252202D01*
X116965237Y-90154358D01*
X116977778Y-90144066D01*
X117863299Y-90144066D01*
X117875117Y-90203476D01*
X117875118Y-90203479D01*
X117875119Y-90203480D01*
X117920140Y-90270860D01*
X117981869Y-90312105D01*
X117987520Y-90315881D01*
X117987523Y-90315882D01*
X118046933Y-90327700D01*
X118046936Y-90327700D01*
X119787066Y-90327700D01*
X119846476Y-90315882D01*
X119846477Y-90315881D01*
X119846480Y-90315881D01*
X119913860Y-90270860D01*
X119958881Y-90203480D01*
X119968652Y-90154361D01*
X119970700Y-90144066D01*
X119970700Y-89273999D01*
X123187202Y-89273999D01*
X123207546Y-89480559D01*
X123207547Y-89480561D01*
X123267798Y-89679184D01*
X123267799Y-89679186D01*
X123267800Y-89679188D01*
X123267801Y-89679191D01*
X123365638Y-89862231D01*
X123365642Y-89862238D01*
X123497316Y-90022683D01*
X123657761Y-90154357D01*
X123657768Y-90154361D01*
X123840808Y-90252198D01*
X123840809Y-90252198D01*
X123840816Y-90252202D01*
X124039439Y-90312453D01*
X124039438Y-90312453D01*
X124059783Y-90314456D01*
X124246000Y-90332798D01*
X124452561Y-90312453D01*
X124651184Y-90252202D01*
X124834237Y-90154358D01*
X124994683Y-90022683D01*
X125126358Y-89862237D01*
X125224202Y-89679184D01*
X125242974Y-89617298D01*
X125281270Y-89558862D01*
X125345082Y-89530405D01*
X125414149Y-89540964D01*
X125466543Y-89587188D01*
X125481409Y-89621201D01*
X125512567Y-89737486D01*
X125512570Y-89737492D01*
X125612399Y-89951578D01*
X125747894Y-90145082D01*
X125914917Y-90312105D01*
X126108421Y-90447600D01*
X126322507Y-90547429D01*
X126322516Y-90547433D01*
X126536000Y-90604634D01*
X126536000Y-89709501D01*
X126643685Y-89758680D01*
X126750237Y-89774000D01*
X126821763Y-89774000D01*
X126928315Y-89758680D01*
X127035999Y-89709501D01*
X127036000Y-90604633D01*
X127249483Y-90547433D01*
X127249492Y-90547429D01*
X127463578Y-90447600D01*
X127657082Y-90312105D01*
X127824105Y-90145082D01*
X127959600Y-89951578D01*
X128059429Y-89737492D01*
X128059433Y-89737483D01*
X128090590Y-89621202D01*
X128126954Y-89561542D01*
X128189801Y-89531012D01*
X128259177Y-89539306D01*
X128313055Y-89583791D01*
X128329025Y-89617299D01*
X128347797Y-89679181D01*
X128347801Y-89679191D01*
X128445638Y-89862231D01*
X128445642Y-89862238D01*
X128577316Y-90022683D01*
X128737761Y-90154357D01*
X128737768Y-90154361D01*
X128920808Y-90252198D01*
X128920809Y-90252198D01*
X128920816Y-90252202D01*
X129119439Y-90312453D01*
X129119438Y-90312453D01*
X129139783Y-90314456D01*
X129326000Y-90332798D01*
X129532561Y-90312453D01*
X129731184Y-90252202D01*
X129914237Y-90154358D01*
X130074683Y-90022683D01*
X130206358Y-89862237D01*
X130304202Y-89679184D01*
X130364453Y-89480561D01*
X130384798Y-89274000D01*
X130384798Y-89273999D01*
X130807202Y-89273999D01*
X130827546Y-89480559D01*
X130827547Y-89480561D01*
X130887798Y-89679184D01*
X130887799Y-89679186D01*
X130887800Y-89679188D01*
X130887801Y-89679191D01*
X130985638Y-89862231D01*
X130985642Y-89862238D01*
X131117316Y-90022683D01*
X131277761Y-90154357D01*
X131277768Y-90154361D01*
X131460808Y-90252198D01*
X131460809Y-90252198D01*
X131460816Y-90252202D01*
X131659439Y-90312453D01*
X131659438Y-90312453D01*
X131679782Y-90314456D01*
X131866000Y-90332798D01*
X132072561Y-90312453D01*
X132271184Y-90252202D01*
X132454237Y-90154358D01*
X132614683Y-90022683D01*
X132746358Y-89862237D01*
X132844202Y-89679184D01*
X132904453Y-89480561D01*
X132924798Y-89274000D01*
X132924798Y-89273999D01*
X133347202Y-89273999D01*
X133367546Y-89480559D01*
X133367547Y-89480561D01*
X133427798Y-89679184D01*
X133427799Y-89679186D01*
X133427800Y-89679188D01*
X133427801Y-89679191D01*
X133525638Y-89862231D01*
X133525642Y-89862238D01*
X133657316Y-90022683D01*
X133817761Y-90154357D01*
X133817768Y-90154361D01*
X134000808Y-90252198D01*
X134000809Y-90252198D01*
X134000816Y-90252202D01*
X134199439Y-90312453D01*
X134199438Y-90312453D01*
X134217958Y-90314277D01*
X134406000Y-90332798D01*
X134612561Y-90312453D01*
X134811184Y-90252202D01*
X134994237Y-90154358D01*
X135006778Y-90144066D01*
X135892299Y-90144066D01*
X135904117Y-90203476D01*
X135904118Y-90203479D01*
X135904119Y-90203480D01*
X135949140Y-90270860D01*
X136010869Y-90312105D01*
X136016520Y-90315881D01*
X136016523Y-90315882D01*
X136075933Y-90327700D01*
X136075936Y-90327700D01*
X137816066Y-90327700D01*
X137875476Y-90315882D01*
X137875477Y-90315881D01*
X137875480Y-90315881D01*
X137942860Y-90270860D01*
X137987881Y-90203480D01*
X137997652Y-90154361D01*
X137999700Y-90144066D01*
X137999700Y-89273999D01*
X142237202Y-89273999D01*
X142257546Y-89480559D01*
X142257547Y-89480561D01*
X142317798Y-89679184D01*
X142317799Y-89679186D01*
X142317800Y-89679188D01*
X142317801Y-89679191D01*
X142415638Y-89862231D01*
X142415642Y-89862238D01*
X142547316Y-90022683D01*
X142707761Y-90154357D01*
X142707768Y-90154361D01*
X142890808Y-90252198D01*
X142890809Y-90252198D01*
X142890816Y-90252202D01*
X143089439Y-90312453D01*
X143089438Y-90312453D01*
X143107958Y-90314277D01*
X143296000Y-90332798D01*
X143502561Y-90312453D01*
X143701184Y-90252202D01*
X143884237Y-90154358D01*
X144044683Y-90022683D01*
X144176358Y-89862237D01*
X144274202Y-89679184D01*
X144292974Y-89617298D01*
X144331270Y-89558862D01*
X144395082Y-89530405D01*
X144464149Y-89540964D01*
X144516543Y-89587188D01*
X144531409Y-89621201D01*
X144562567Y-89737486D01*
X144562570Y-89737492D01*
X144662399Y-89951578D01*
X144797894Y-90145082D01*
X144964917Y-90312105D01*
X145158421Y-90447600D01*
X145372507Y-90547429D01*
X145372516Y-90547433D01*
X145586000Y-90604634D01*
X145586000Y-89709501D01*
X145693685Y-89758680D01*
X145800237Y-89774000D01*
X145871763Y-89774000D01*
X145978315Y-89758680D01*
X146086000Y-89709501D01*
X146086000Y-90604633D01*
X146299483Y-90547433D01*
X146299492Y-90547429D01*
X146513578Y-90447600D01*
X146707082Y-90312105D01*
X146874105Y-90145082D01*
X147009600Y-89951578D01*
X147109429Y-89737492D01*
X147109433Y-89737483D01*
X147140590Y-89621202D01*
X147176954Y-89561542D01*
X147239801Y-89531012D01*
X147309177Y-89539306D01*
X147363055Y-89583791D01*
X147379025Y-89617299D01*
X147397797Y-89679181D01*
X147397801Y-89679191D01*
X147495638Y-89862231D01*
X147495642Y-89862238D01*
X147627316Y-90022683D01*
X147787761Y-90154357D01*
X147787768Y-90154361D01*
X147970808Y-90252198D01*
X147970809Y-90252198D01*
X147970816Y-90252202D01*
X148169439Y-90312453D01*
X148169438Y-90312453D01*
X148189782Y-90314456D01*
X148376000Y-90332798D01*
X148582561Y-90312453D01*
X148781184Y-90252202D01*
X148964237Y-90154358D01*
X149124683Y-90022683D01*
X149256358Y-89862237D01*
X149354202Y-89679184D01*
X149414453Y-89480561D01*
X149434798Y-89274000D01*
X149857202Y-89274000D01*
X149877546Y-89480559D01*
X149877547Y-89480561D01*
X149937798Y-89679184D01*
X149937799Y-89679186D01*
X149937800Y-89679188D01*
X149937801Y-89679191D01*
X150035638Y-89862231D01*
X150035642Y-89862238D01*
X150167316Y-90022683D01*
X150327761Y-90154357D01*
X150327768Y-90154361D01*
X150510808Y-90252198D01*
X150510809Y-90252198D01*
X150510816Y-90252202D01*
X150709439Y-90312453D01*
X150709438Y-90312453D01*
X150729782Y-90314456D01*
X150916000Y-90332798D01*
X151122561Y-90312453D01*
X151321184Y-90252202D01*
X151504237Y-90154358D01*
X151664683Y-90022683D01*
X151796358Y-89862237D01*
X151894202Y-89679184D01*
X151954453Y-89480561D01*
X151974798Y-89274000D01*
X151974798Y-89273999D01*
X152397202Y-89273999D01*
X152417546Y-89480559D01*
X152417547Y-89480561D01*
X152477798Y-89679184D01*
X152477799Y-89679186D01*
X152477800Y-89679188D01*
X152477801Y-89679191D01*
X152575638Y-89862231D01*
X152575642Y-89862238D01*
X152707316Y-90022683D01*
X152867761Y-90154357D01*
X152867768Y-90154361D01*
X153050808Y-90252198D01*
X153050809Y-90252198D01*
X153050816Y-90252202D01*
X153249439Y-90312453D01*
X153249438Y-90312453D01*
X153267958Y-90314277D01*
X153456000Y-90332798D01*
X153662561Y-90312453D01*
X153861184Y-90252202D01*
X154044237Y-90154358D01*
X154056778Y-90144066D01*
X154942299Y-90144066D01*
X154954117Y-90203476D01*
X154954118Y-90203479D01*
X154954119Y-90203480D01*
X154999140Y-90270860D01*
X155060869Y-90312105D01*
X155066520Y-90315881D01*
X155066523Y-90315882D01*
X155125933Y-90327700D01*
X155125936Y-90327700D01*
X156866066Y-90327700D01*
X156925476Y-90315882D01*
X156925477Y-90315881D01*
X156925480Y-90315881D01*
X156992860Y-90270860D01*
X157037881Y-90203480D01*
X157047652Y-90154361D01*
X157049700Y-90144066D01*
X160779299Y-90144066D01*
X160791117Y-90203476D01*
X160791118Y-90203479D01*
X160791119Y-90203480D01*
X160836140Y-90270860D01*
X160897869Y-90312105D01*
X160903520Y-90315881D01*
X160903523Y-90315882D01*
X160962933Y-90327700D01*
X160962936Y-90327700D01*
X162703066Y-90327700D01*
X162762476Y-90315882D01*
X162762477Y-90315881D01*
X162762480Y-90315881D01*
X162829860Y-90270860D01*
X162874881Y-90203480D01*
X162884652Y-90154361D01*
X162886700Y-90144066D01*
X162886700Y-89273999D01*
X163314202Y-89273999D01*
X163334546Y-89480559D01*
X163334547Y-89480561D01*
X163394798Y-89679184D01*
X163394799Y-89679186D01*
X163394800Y-89679188D01*
X163394801Y-89679191D01*
X163492638Y-89862231D01*
X163492642Y-89862238D01*
X163624316Y-90022683D01*
X163784761Y-90154357D01*
X163784768Y-90154361D01*
X163967808Y-90252198D01*
X163967809Y-90252198D01*
X163967816Y-90252202D01*
X164166439Y-90312453D01*
X164166438Y-90312453D01*
X164184958Y-90314277D01*
X164373000Y-90332798D01*
X164579561Y-90312453D01*
X164778184Y-90252202D01*
X164961237Y-90154358D01*
X165121683Y-90022683D01*
X165253358Y-89862237D01*
X165351202Y-89679184D01*
X165411453Y-89480561D01*
X165431798Y-89274000D01*
X165411453Y-89067439D01*
X165351202Y-88868816D01*
X165320035Y-88810507D01*
X165253361Y-88685768D01*
X165253357Y-88685761D01*
X165121683Y-88525316D01*
X164961238Y-88393642D01*
X164961231Y-88393638D01*
X164778191Y-88295801D01*
X164778188Y-88295800D01*
X164778187Y-88295799D01*
X164778184Y-88295798D01*
X164579561Y-88235547D01*
X164579559Y-88235546D01*
X164579561Y-88235546D01*
X164391519Y-88217026D01*
X164373000Y-88215202D01*
X164372999Y-88215202D01*
X164166440Y-88235546D01*
X164049165Y-88271121D01*
X163967816Y-88295798D01*
X163967813Y-88295799D01*
X163967811Y-88295800D01*
X163967808Y-88295801D01*
X163784768Y-88393638D01*
X163784761Y-88393642D01*
X163624316Y-88525316D01*
X163492642Y-88685761D01*
X163492638Y-88685768D01*
X163394801Y-88868808D01*
X163394800Y-88868811D01*
X163394799Y-88868813D01*
X163394798Y-88868816D01*
X163370121Y-88950165D01*
X163334546Y-89067440D01*
X163314202Y-89273999D01*
X162886700Y-89273999D01*
X162886700Y-88403933D01*
X162874882Y-88344523D01*
X162874881Y-88344520D01*
X162868207Y-88334532D01*
X162829860Y-88277140D01*
X162768130Y-88235894D01*
X162762479Y-88232118D01*
X162762476Y-88232117D01*
X162703066Y-88220300D01*
X162703064Y-88220300D01*
X160962936Y-88220300D01*
X160962934Y-88220300D01*
X160903523Y-88232117D01*
X160903520Y-88232118D01*
X160836140Y-88277140D01*
X160791118Y-88344520D01*
X160791117Y-88344523D01*
X160779300Y-88403933D01*
X160779300Y-88403935D01*
X160779300Y-88403936D01*
X160779300Y-90144064D01*
X160779300Y-90144066D01*
X160779299Y-90144066D01*
X157049700Y-90144066D01*
X157049700Y-88403933D01*
X157037882Y-88344523D01*
X157037881Y-88344520D01*
X157031207Y-88334532D01*
X156992860Y-88277140D01*
X156931130Y-88235894D01*
X156925479Y-88232118D01*
X156925476Y-88232117D01*
X156866066Y-88220300D01*
X156866064Y-88220300D01*
X155125936Y-88220300D01*
X155125934Y-88220300D01*
X155066523Y-88232117D01*
X155066520Y-88232118D01*
X154999140Y-88277140D01*
X154954118Y-88344520D01*
X154954117Y-88344523D01*
X154942300Y-88403933D01*
X154942300Y-88403935D01*
X154942300Y-88403936D01*
X154942300Y-90144064D01*
X154942300Y-90144066D01*
X154942299Y-90144066D01*
X154056778Y-90144066D01*
X154204683Y-90022683D01*
X154336358Y-89862237D01*
X154434202Y-89679184D01*
X154494453Y-89480561D01*
X154514798Y-89274000D01*
X154494453Y-89067439D01*
X154434202Y-88868816D01*
X154403035Y-88810507D01*
X154336361Y-88685768D01*
X154336357Y-88685761D01*
X154204683Y-88525316D01*
X154044238Y-88393642D01*
X154044231Y-88393638D01*
X153861191Y-88295801D01*
X153861188Y-88295800D01*
X153861187Y-88295799D01*
X153861184Y-88295798D01*
X153662561Y-88235547D01*
X153662559Y-88235546D01*
X153662561Y-88235546D01*
X153456000Y-88215202D01*
X153249440Y-88235546D01*
X153132165Y-88271121D01*
X153050816Y-88295798D01*
X153050813Y-88295799D01*
X153050811Y-88295800D01*
X153050808Y-88295801D01*
X152867768Y-88393638D01*
X152867761Y-88393642D01*
X152707316Y-88525316D01*
X152575642Y-88685761D01*
X152575638Y-88685768D01*
X152477801Y-88868808D01*
X152477800Y-88868811D01*
X152477799Y-88868813D01*
X152477798Y-88868816D01*
X152453121Y-88950165D01*
X152417546Y-89067440D01*
X152397202Y-89273999D01*
X151974798Y-89273999D01*
X151954453Y-89067439D01*
X151894202Y-88868816D01*
X151863035Y-88810507D01*
X151796361Y-88685768D01*
X151796357Y-88685761D01*
X151664683Y-88525316D01*
X151504238Y-88393642D01*
X151504231Y-88393638D01*
X151321191Y-88295801D01*
X151321188Y-88295800D01*
X151321187Y-88295799D01*
X151321184Y-88295798D01*
X151122561Y-88235547D01*
X151122559Y-88235546D01*
X151122561Y-88235546D01*
X150916000Y-88215202D01*
X150709440Y-88235546D01*
X150592165Y-88271121D01*
X150510816Y-88295798D01*
X150510813Y-88295799D01*
X150510811Y-88295800D01*
X150510808Y-88295801D01*
X150327768Y-88393638D01*
X150327761Y-88393642D01*
X150167316Y-88525316D01*
X150035642Y-88685761D01*
X150035638Y-88685768D01*
X149937801Y-88868808D01*
X149937800Y-88868811D01*
X149937799Y-88868813D01*
X149937798Y-88868816D01*
X149913121Y-88950165D01*
X149877546Y-89067440D01*
X149857202Y-89274000D01*
X149434798Y-89274000D01*
X149414453Y-89067439D01*
X149354202Y-88868816D01*
X149323035Y-88810507D01*
X149256361Y-88685768D01*
X149256357Y-88685761D01*
X149124683Y-88525316D01*
X148964238Y-88393642D01*
X148964231Y-88393638D01*
X148781191Y-88295801D01*
X148781188Y-88295800D01*
X148781187Y-88295799D01*
X148781184Y-88295798D01*
X148582561Y-88235547D01*
X148582559Y-88235546D01*
X148582561Y-88235546D01*
X148376000Y-88215202D01*
X148169440Y-88235546D01*
X148052165Y-88271121D01*
X147970816Y-88295798D01*
X147970813Y-88295799D01*
X147970811Y-88295800D01*
X147970808Y-88295801D01*
X147787768Y-88393638D01*
X147787761Y-88393642D01*
X147627316Y-88525316D01*
X147495642Y-88685761D01*
X147495638Y-88685768D01*
X147397801Y-88868808D01*
X147397798Y-88868815D01*
X147379025Y-88930701D01*
X147340727Y-88989139D01*
X147276915Y-89017595D01*
X147207848Y-89007034D01*
X147155455Y-88960809D01*
X147140590Y-88926797D01*
X147109433Y-88810516D01*
X147109429Y-88810507D01*
X147009600Y-88596422D01*
X147009599Y-88596420D01*
X146874113Y-88402926D01*
X146874108Y-88402920D01*
X146707082Y-88235894D01*
X146513578Y-88100399D01*
X146299492Y-88000570D01*
X146299486Y-88000567D01*
X146086000Y-87943364D01*
X146086000Y-88838498D01*
X145978315Y-88789320D01*
X145871763Y-88774000D01*
X145800237Y-88774000D01*
X145693685Y-88789320D01*
X145586000Y-88838498D01*
X145586000Y-87943364D01*
X145585999Y-87943364D01*
X145372513Y-88000567D01*
X145372507Y-88000570D01*
X145158422Y-88100399D01*
X145158420Y-88100400D01*
X144964926Y-88235886D01*
X144964920Y-88235891D01*
X144797891Y-88402920D01*
X144797886Y-88402926D01*
X144662400Y-88596420D01*
X144662399Y-88596422D01*
X144562570Y-88810507D01*
X144562567Y-88810514D01*
X144531409Y-88926798D01*
X144495044Y-88986458D01*
X144432197Y-89016987D01*
X144362821Y-89008692D01*
X144308943Y-88964207D01*
X144292974Y-88930701D01*
X144274202Y-88868816D01*
X144243035Y-88810507D01*
X144176361Y-88685768D01*
X144176357Y-88685761D01*
X144044683Y-88525316D01*
X143884238Y-88393642D01*
X143884231Y-88393638D01*
X143701191Y-88295801D01*
X143701188Y-88295800D01*
X143701187Y-88295799D01*
X143701184Y-88295798D01*
X143502561Y-88235547D01*
X143502559Y-88235546D01*
X143502561Y-88235546D01*
X143314519Y-88217026D01*
X143296000Y-88215202D01*
X143295999Y-88215202D01*
X143089440Y-88235546D01*
X142972165Y-88271121D01*
X142890816Y-88295798D01*
X142890813Y-88295799D01*
X142890811Y-88295800D01*
X142890808Y-88295801D01*
X142707768Y-88393638D01*
X142707761Y-88393642D01*
X142547316Y-88525316D01*
X142415642Y-88685761D01*
X142415638Y-88685768D01*
X142317801Y-88868808D01*
X142317800Y-88868811D01*
X142317799Y-88868813D01*
X142317798Y-88868816D01*
X142293121Y-88950165D01*
X142257546Y-89067440D01*
X142237202Y-89273999D01*
X137999700Y-89273999D01*
X137999700Y-88403933D01*
X137987882Y-88344523D01*
X137987881Y-88344520D01*
X137981207Y-88334532D01*
X137942860Y-88277140D01*
X137881130Y-88235894D01*
X137875479Y-88232118D01*
X137875476Y-88232117D01*
X137816066Y-88220300D01*
X137816064Y-88220300D01*
X136075936Y-88220300D01*
X136075934Y-88220300D01*
X136016523Y-88232117D01*
X136016520Y-88232118D01*
X135949140Y-88277140D01*
X135904118Y-88344520D01*
X135904117Y-88344523D01*
X135892300Y-88403933D01*
X135892300Y-88403935D01*
X135892300Y-88403936D01*
X135892300Y-90144064D01*
X135892300Y-90144066D01*
X135892299Y-90144066D01*
X135006778Y-90144066D01*
X135154683Y-90022683D01*
X135286358Y-89862237D01*
X135384202Y-89679184D01*
X135444453Y-89480561D01*
X135464798Y-89274000D01*
X135444453Y-89067439D01*
X135384202Y-88868816D01*
X135353035Y-88810507D01*
X135286361Y-88685768D01*
X135286357Y-88685761D01*
X135154683Y-88525316D01*
X134994238Y-88393642D01*
X134994231Y-88393638D01*
X134811191Y-88295801D01*
X134811188Y-88295800D01*
X134811187Y-88295799D01*
X134811184Y-88295798D01*
X134612561Y-88235547D01*
X134612559Y-88235546D01*
X134612561Y-88235546D01*
X134424519Y-88217026D01*
X134406000Y-88215202D01*
X134405999Y-88215202D01*
X134199440Y-88235546D01*
X134082165Y-88271121D01*
X134000816Y-88295798D01*
X134000813Y-88295799D01*
X134000811Y-88295800D01*
X134000808Y-88295801D01*
X133817768Y-88393638D01*
X133817761Y-88393642D01*
X133657316Y-88525316D01*
X133525642Y-88685761D01*
X133525638Y-88685768D01*
X133427801Y-88868808D01*
X133427800Y-88868811D01*
X133427799Y-88868813D01*
X133427798Y-88868816D01*
X133403121Y-88950165D01*
X133367546Y-89067440D01*
X133347202Y-89273999D01*
X132924798Y-89273999D01*
X132904453Y-89067439D01*
X132844202Y-88868816D01*
X132813035Y-88810507D01*
X132746361Y-88685768D01*
X132746357Y-88685761D01*
X132614683Y-88525316D01*
X132454238Y-88393642D01*
X132454231Y-88393638D01*
X132271191Y-88295801D01*
X132271188Y-88295800D01*
X132271187Y-88295799D01*
X132271184Y-88295798D01*
X132072561Y-88235547D01*
X132072559Y-88235546D01*
X132072561Y-88235546D01*
X131866000Y-88215202D01*
X131659440Y-88235546D01*
X131542165Y-88271121D01*
X131460816Y-88295798D01*
X131460813Y-88295799D01*
X131460811Y-88295800D01*
X131460808Y-88295801D01*
X131277768Y-88393638D01*
X131277761Y-88393642D01*
X131117316Y-88525316D01*
X130985642Y-88685761D01*
X130985638Y-88685768D01*
X130887801Y-88868808D01*
X130887800Y-88868811D01*
X130887799Y-88868813D01*
X130887798Y-88868816D01*
X130863121Y-88950165D01*
X130827546Y-89067440D01*
X130807202Y-89273999D01*
X130384798Y-89273999D01*
X130364453Y-89067439D01*
X130304202Y-88868816D01*
X130273035Y-88810507D01*
X130206361Y-88685768D01*
X130206357Y-88685761D01*
X130074683Y-88525316D01*
X129914238Y-88393642D01*
X129914231Y-88393638D01*
X129731191Y-88295801D01*
X129731188Y-88295800D01*
X129731187Y-88295799D01*
X129731184Y-88295798D01*
X129532561Y-88235547D01*
X129532559Y-88235546D01*
X129532561Y-88235546D01*
X129326000Y-88215202D01*
X129119440Y-88235546D01*
X129002165Y-88271121D01*
X128920816Y-88295798D01*
X128920813Y-88295799D01*
X128920811Y-88295800D01*
X128920808Y-88295801D01*
X128737768Y-88393638D01*
X128737761Y-88393642D01*
X128577316Y-88525316D01*
X128445642Y-88685761D01*
X128445638Y-88685768D01*
X128347801Y-88868808D01*
X128347798Y-88868815D01*
X128329025Y-88930701D01*
X128290727Y-88989139D01*
X128226915Y-89017595D01*
X128157848Y-89007034D01*
X128105455Y-88960809D01*
X128090590Y-88926797D01*
X128059433Y-88810516D01*
X128059429Y-88810507D01*
X127959600Y-88596422D01*
X127959599Y-88596420D01*
X127824113Y-88402926D01*
X127824108Y-88402920D01*
X127657082Y-88235894D01*
X127463578Y-88100399D01*
X127249492Y-88000570D01*
X127249486Y-88000567D01*
X127036000Y-87943364D01*
X127035999Y-88838498D01*
X126928315Y-88789320D01*
X126821763Y-88774000D01*
X126750237Y-88774000D01*
X126643685Y-88789320D01*
X126536000Y-88838498D01*
X126536000Y-87943364D01*
X126535999Y-87943364D01*
X126322513Y-88000567D01*
X126322507Y-88000570D01*
X126108422Y-88100399D01*
X126108420Y-88100400D01*
X125914926Y-88235886D01*
X125914920Y-88235891D01*
X125747891Y-88402920D01*
X125747886Y-88402926D01*
X125612400Y-88596420D01*
X125612399Y-88596422D01*
X125512570Y-88810507D01*
X125512567Y-88810514D01*
X125481409Y-88926798D01*
X125445044Y-88986458D01*
X125382197Y-89016987D01*
X125312821Y-89008692D01*
X125258943Y-88964207D01*
X125242974Y-88930701D01*
X125224202Y-88868816D01*
X125193035Y-88810507D01*
X125126361Y-88685768D01*
X125126357Y-88685761D01*
X124994683Y-88525316D01*
X124834238Y-88393642D01*
X124834231Y-88393638D01*
X124651191Y-88295801D01*
X124651188Y-88295800D01*
X124651187Y-88295799D01*
X124651184Y-88295798D01*
X124452561Y-88235547D01*
X124452559Y-88235546D01*
X124452561Y-88235546D01*
X124264519Y-88217026D01*
X124246000Y-88215202D01*
X124245999Y-88215202D01*
X124039440Y-88235546D01*
X123922165Y-88271121D01*
X123840816Y-88295798D01*
X123840813Y-88295799D01*
X123840811Y-88295800D01*
X123840808Y-88295801D01*
X123657768Y-88393638D01*
X123657761Y-88393642D01*
X123497316Y-88525316D01*
X123365642Y-88685761D01*
X123365638Y-88685768D01*
X123267801Y-88868808D01*
X123267800Y-88868811D01*
X123267799Y-88868813D01*
X123267798Y-88868816D01*
X123243121Y-88950165D01*
X123207546Y-89067440D01*
X123187202Y-89273999D01*
X119970700Y-89273999D01*
X119970700Y-88403933D01*
X119958882Y-88344523D01*
X119958881Y-88344520D01*
X119952207Y-88334532D01*
X119913860Y-88277140D01*
X119852130Y-88235894D01*
X119846479Y-88232118D01*
X119846476Y-88232117D01*
X119787066Y-88220300D01*
X119787064Y-88220300D01*
X118046936Y-88220300D01*
X118046934Y-88220300D01*
X117987523Y-88232117D01*
X117987520Y-88232118D01*
X117920140Y-88277140D01*
X117875118Y-88344520D01*
X117875117Y-88344523D01*
X117863300Y-88403933D01*
X117863300Y-88403935D01*
X117863300Y-88403936D01*
X117863300Y-90144064D01*
X117863300Y-90144066D01*
X117863299Y-90144066D01*
X116977778Y-90144066D01*
X117125683Y-90022683D01*
X117257358Y-89862237D01*
X117355202Y-89679184D01*
X117415453Y-89480561D01*
X117435798Y-89274000D01*
X117415453Y-89067439D01*
X117355202Y-88868816D01*
X117324035Y-88810507D01*
X117257361Y-88685768D01*
X117257357Y-88685761D01*
X117125683Y-88525316D01*
X116965238Y-88393642D01*
X116965231Y-88393638D01*
X116782191Y-88295801D01*
X116782188Y-88295800D01*
X116782187Y-88295799D01*
X116782184Y-88295798D01*
X116583561Y-88235547D01*
X116583559Y-88235546D01*
X116583561Y-88235546D01*
X116377000Y-88215202D01*
X116170440Y-88235546D01*
X116053165Y-88271121D01*
X115971816Y-88295798D01*
X115971813Y-88295799D01*
X115971811Y-88295800D01*
X115971808Y-88295801D01*
X115788768Y-88393638D01*
X115788761Y-88393642D01*
X115628316Y-88525316D01*
X115496642Y-88685761D01*
X115496638Y-88685768D01*
X115398801Y-88868808D01*
X115398800Y-88868811D01*
X115398799Y-88868813D01*
X115398798Y-88868816D01*
X115374121Y-88950165D01*
X115338546Y-89067440D01*
X115318202Y-89274000D01*
X110070751Y-89274000D01*
X110077219Y-89226943D01*
X110081500Y-89195800D01*
X110081500Y-88904199D01*
X110072938Y-88841911D01*
X110041795Y-88615320D01*
X109963123Y-88334536D01*
X109846950Y-88067081D01*
X109846951Y-88067081D01*
X109695443Y-87817936D01*
X109511416Y-87591737D01*
X109298311Y-87392712D01*
X109298312Y-87392712D01*
X109298307Y-87392708D01*
X109060081Y-87224549D01*
X109060082Y-87224549D01*
X108801174Y-87090394D01*
X108526421Y-86992747D01*
X108526407Y-86992743D01*
X108240916Y-86933417D01*
X108240917Y-86933417D01*
X108093431Y-86923329D01*
X108022821Y-86918500D01*
X107877179Y-86918500D01*
X107806568Y-86923329D01*
X107659083Y-86933417D01*
X107373592Y-86992743D01*
X107373578Y-86992747D01*
X107098825Y-87090394D01*
X106839918Y-87224549D01*
X106696981Y-87325445D01*
X106601693Y-87392708D01*
X106601690Y-87392709D01*
X106601688Y-87392712D01*
X106601687Y-87392712D01*
X106388583Y-87591737D01*
X106204556Y-87817936D01*
X106053048Y-88067081D01*
X105936878Y-88334532D01*
X105858206Y-88615314D01*
X105858205Y-88615320D01*
X105818500Y-88904199D01*
X105818500Y-89195800D01*
X104013500Y-89195800D01*
X104013500Y-85475001D01*
X135610255Y-85475001D01*
X135630349Y-85627635D01*
X135630350Y-85627637D01*
X135684709Y-85758873D01*
X135689266Y-85769873D01*
X135782987Y-85892013D01*
X135905127Y-85985734D01*
X136047363Y-86044649D01*
X136184091Y-86062650D01*
X136199999Y-86064745D01*
X136200000Y-86064745D01*
X136200001Y-86064745D01*
X136283549Y-86053745D01*
X136317835Y-86049230D01*
X136325935Y-86048700D01*
X146864479Y-86048700D01*
X150232614Y-86048700D01*
X150240713Y-86049230D01*
X150275000Y-86053745D01*
X150275001Y-86053745D01*
X150288135Y-86052015D01*
X150309289Y-86049230D01*
X150317388Y-86048700D01*
X178640314Y-86048700D01*
X178640321Y-86048700D01*
X178754637Y-86033650D01*
X178896872Y-85974734D01*
X179019013Y-85881013D01*
X179112734Y-85758873D01*
X179171650Y-85616637D01*
X179191745Y-85464000D01*
X179171650Y-85311363D01*
X179112734Y-85169128D01*
X179112733Y-85169127D01*
X179112733Y-85169126D01*
X179080082Y-85126575D01*
X179019013Y-85046987D01*
X178920375Y-84971300D01*
X178896873Y-84953266D01*
X178825754Y-84923808D01*
X178754637Y-84894350D01*
X178740347Y-84892468D01*
X178640328Y-84879300D01*
X178640321Y-84879300D01*
X164568721Y-84879300D01*
X150958700Y-84879300D01*
X150891661Y-84859615D01*
X150845906Y-84806811D01*
X150834700Y-84755300D01*
X150834700Y-80336685D01*
X150834699Y-80336671D01*
X150833938Y-80330894D01*
X150819650Y-80222363D01*
X150760734Y-80080128D01*
X150760733Y-80080127D01*
X150760733Y-80080126D01*
X150667014Y-79957988D01*
X150566771Y-79881069D01*
X150544873Y-79864266D01*
X150402637Y-79805350D01*
X150402635Y-79805349D01*
X150250001Y-79785255D01*
X150249999Y-79785255D01*
X150097364Y-79805349D01*
X150097362Y-79805350D01*
X149955126Y-79864266D01*
X149832987Y-79957987D01*
X149739266Y-80080126D01*
X149680350Y-80222362D01*
X149680350Y-80222363D01*
X149665300Y-80336671D01*
X149665300Y-84755300D01*
X149645615Y-84822339D01*
X149592811Y-84868094D01*
X149541300Y-84879300D01*
X136253386Y-84879300D01*
X136245286Y-84878769D01*
X136211000Y-84874255D01*
X136210996Y-84874255D01*
X136178763Y-84878498D01*
X136178747Y-84878501D01*
X136058363Y-84894350D01*
X136058362Y-84894350D01*
X135977333Y-84927914D01*
X135916128Y-84953265D01*
X135916126Y-84953266D01*
X135892625Y-84971300D01*
X135793988Y-85046984D01*
X135772926Y-85074433D01*
X135767577Y-85080532D01*
X135759456Y-85088654D01*
X135689266Y-85180125D01*
X135689265Y-85180128D01*
X135630352Y-85322359D01*
X135630351Y-85322364D01*
X135610255Y-85474999D01*
X135610255Y-85475001D01*
X104013500Y-85475001D01*
X104013500Y-83143066D01*
X112918299Y-83143066D01*
X112930117Y-83202476D01*
X112930118Y-83202479D01*
X112930119Y-83202480D01*
X112975140Y-83269860D01*
X113042520Y-83314881D01*
X113042523Y-83314882D01*
X113101933Y-83326700D01*
X113101936Y-83326700D01*
X117102066Y-83326700D01*
X117161476Y-83314882D01*
X117161477Y-83314881D01*
X117161480Y-83314881D01*
X117228860Y-83269860D01*
X117273881Y-83202480D01*
X117274230Y-83200725D01*
X117285700Y-83143066D01*
X117285700Y-81122933D01*
X117273882Y-81063523D01*
X117273881Y-81063520D01*
X117270153Y-81057940D01*
X117228860Y-80996140D01*
X117161480Y-80951119D01*
X117161479Y-80951118D01*
X117161476Y-80951117D01*
X117102066Y-80939300D01*
X117102064Y-80939300D01*
X113101936Y-80939300D01*
X113101934Y-80939300D01*
X113042523Y-80951117D01*
X113042520Y-80951118D01*
X112975140Y-80996140D01*
X112930118Y-81063520D01*
X112930117Y-81063523D01*
X112918300Y-81122933D01*
X112918300Y-81122936D01*
X112918300Y-83143064D01*
X112918300Y-83143066D01*
X112918299Y-83143066D01*
X104013500Y-83143066D01*
X104013500Y-76882999D01*
X112643114Y-76882999D01*
X112643116Y-76883000D01*
X114487832Y-76883000D01*
X114480357Y-76897242D01*
X114442000Y-77052862D01*
X114442000Y-77213138D01*
X114480357Y-77368758D01*
X114487832Y-77383000D01*
X112643115Y-77383000D01*
X112662643Y-77500029D01*
X112742818Y-77733570D01*
X112742821Y-77733578D01*
X112860348Y-77950748D01*
X112860352Y-77950754D01*
X113012008Y-78145601D01*
X113012011Y-78145605D01*
X113193688Y-78312851D01*
X113400408Y-78447907D01*
X113626539Y-78547098D01*
X113865909Y-78607715D01*
X113865908Y-78607715D01*
X114050376Y-78623000D01*
X114851999Y-78623000D01*
X114851999Y-77744057D01*
X114942892Y-77778528D01*
X115062081Y-77793000D01*
X115141919Y-77793000D01*
X115261108Y-77778528D01*
X115352000Y-77744057D01*
X115352000Y-78623000D01*
X116153624Y-78623000D01*
X116338090Y-78607715D01*
X116577460Y-78547098D01*
X116803591Y-78447907D01*
X117010311Y-78312851D01*
X117191988Y-78145605D01*
X117191991Y-78145601D01*
X117343647Y-77950754D01*
X117343651Y-77950748D01*
X117461178Y-77733578D01*
X117461181Y-77733570D01*
X117541356Y-77500029D01*
X117560885Y-77383000D01*
X115716168Y-77383000D01*
X115723643Y-77368758D01*
X115762000Y-77213138D01*
X115762000Y-77052862D01*
X115723643Y-76897242D01*
X115716168Y-76883000D01*
X117560884Y-76883000D01*
X117560885Y-76882999D01*
X117541356Y-76765970D01*
X117461181Y-76532429D01*
X117461178Y-76532421D01*
X117343651Y-76315251D01*
X117343647Y-76315245D01*
X117191991Y-76120398D01*
X117191988Y-76120394D01*
X117010311Y-75953148D01*
X116803591Y-75818092D01*
X116577460Y-75718901D01*
X116338090Y-75658284D01*
X116338091Y-75658284D01*
X116153624Y-75643000D01*
X115352000Y-75643000D01*
X115352000Y-76521942D01*
X115261108Y-76487472D01*
X115141919Y-76473000D01*
X115062081Y-76473000D01*
X114942892Y-76487472D01*
X114851999Y-76521942D01*
X114852000Y-75643000D01*
X114050376Y-75643000D01*
X113865909Y-75658284D01*
X113626539Y-75718901D01*
X113400408Y-75818092D01*
X113193688Y-75953148D01*
X113012011Y-76120394D01*
X113012008Y-76120398D01*
X112860352Y-76315245D01*
X112860348Y-76315251D01*
X112742821Y-76532421D01*
X112742818Y-76532429D01*
X112662643Y-76765970D01*
X112643114Y-76882999D01*
X104013500Y-76882999D01*
X104013500Y-74650000D01*
X138250000Y-74650000D01*
X141916000Y-78316000D01*
X145609000Y-78316000D01*
X149764000Y-74161000D01*
X151141914Y-74161000D01*
X151160181Y-74299748D01*
X151160182Y-74299752D01*
X151213734Y-74429040D01*
X151213735Y-74429042D01*
X151213736Y-74429043D01*
X151298930Y-74540070D01*
X151298933Y-74540072D01*
X151298936Y-74540076D01*
X151304681Y-74545822D01*
X151303747Y-74546755D01*
X151339988Y-74596385D01*
X151347300Y-74638336D01*
X151347300Y-77445849D01*
X151347064Y-77451255D01*
X151343475Y-77492267D01*
X151354129Y-77532028D01*
X151355300Y-77537310D01*
X151362449Y-77577852D01*
X151364033Y-77582204D01*
X151371702Y-77600718D01*
X151373658Y-77604912D01*
X151373659Y-77604914D01*
X151373660Y-77604916D01*
X151397279Y-77638648D01*
X151400176Y-77643196D01*
X151420761Y-77678849D01*
X151452306Y-77705319D01*
X151456288Y-77708969D01*
X156893040Y-83145720D01*
X156896679Y-83149692D01*
X156916944Y-83173842D01*
X156919794Y-83177239D01*
X156923151Y-83181239D01*
X156958812Y-83201828D01*
X156963346Y-83204716D01*
X156997083Y-83228340D01*
X156997085Y-83228340D01*
X157001312Y-83230312D01*
X157019768Y-83237957D01*
X157024147Y-83239550D01*
X157024149Y-83239551D01*
X157064686Y-83246698D01*
X157069971Y-83247870D01*
X157087152Y-83252473D01*
X157109733Y-83258524D01*
X157150747Y-83254935D01*
X157156149Y-83254700D01*
X162082664Y-83254700D01*
X162149703Y-83274385D01*
X162174917Y-83297581D01*
X162175179Y-83297320D01*
X162180923Y-83303063D01*
X162180926Y-83303066D01*
X162180930Y-83303070D01*
X162291957Y-83388264D01*
X162421251Y-83441819D01*
X162543857Y-83457960D01*
X162559999Y-83460086D01*
X162560000Y-83460086D01*
X162560001Y-83460086D01*
X162574460Y-83458182D01*
X162698749Y-83441819D01*
X162828043Y-83388264D01*
X162939070Y-83303070D01*
X163024264Y-83192043D01*
X163077819Y-83062749D01*
X163096086Y-82924000D01*
X163077819Y-82785251D01*
X163024264Y-82655957D01*
X162939070Y-82544930D01*
X162828043Y-82459736D01*
X162828042Y-82459735D01*
X162828040Y-82459734D01*
X162698752Y-82406182D01*
X162698750Y-82406181D01*
X162698749Y-82406181D01*
X162629374Y-82397047D01*
X162560001Y-82387914D01*
X162559999Y-82387914D01*
X162421251Y-82406181D01*
X162421247Y-82406182D01*
X162291959Y-82459734D01*
X162244730Y-82495973D01*
X162180930Y-82544930D01*
X162180928Y-82544931D01*
X162180923Y-82544936D01*
X162175179Y-82550680D01*
X162174245Y-82549746D01*
X162124612Y-82585989D01*
X162082664Y-82593300D01*
X157327342Y-82593300D01*
X157260303Y-82573615D01*
X157239661Y-82556981D01*
X154184680Y-79502000D01*
X162421914Y-79502000D01*
X162440181Y-79640748D01*
X162440182Y-79640752D01*
X162493734Y-79770040D01*
X162493735Y-79770042D01*
X162493736Y-79770043D01*
X162578930Y-79881070D01*
X162689957Y-79966264D01*
X162819251Y-80019819D01*
X162958000Y-80038086D01*
X162966129Y-80038086D01*
X162966128Y-80039407D01*
X163026842Y-80048868D01*
X163061687Y-80073367D01*
X166130029Y-83141709D01*
X166133680Y-83145693D01*
X166160151Y-83177239D01*
X166167079Y-83181239D01*
X166195793Y-83197817D01*
X166200358Y-83200725D01*
X166234083Y-83224340D01*
X166238301Y-83226307D01*
X166256764Y-83233954D01*
X166261147Y-83235550D01*
X166261149Y-83235551D01*
X166301703Y-83242700D01*
X166306969Y-83243868D01*
X166346733Y-83254524D01*
X166387747Y-83250935D01*
X166393149Y-83250700D01*
X182653595Y-83250700D01*
X182720634Y-83270385D01*
X182751969Y-83299211D01*
X182754924Y-83303063D01*
X182754930Y-83303070D01*
X182865957Y-83388264D01*
X182995251Y-83441819D01*
X183117857Y-83457960D01*
X183133999Y-83460086D01*
X183134000Y-83460086D01*
X183134001Y-83460086D01*
X183148460Y-83458182D01*
X183272749Y-83441819D01*
X183402043Y-83388264D01*
X183513070Y-83303070D01*
X183598264Y-83192043D01*
X183651819Y-83062749D01*
X183670086Y-82924000D01*
X183651819Y-82785251D01*
X183598264Y-82655957D01*
X183513070Y-82544930D01*
X183402043Y-82459736D01*
X183402042Y-82459735D01*
X183402040Y-82459734D01*
X183272752Y-82406182D01*
X183272750Y-82406181D01*
X183272749Y-82406181D01*
X183203374Y-82397047D01*
X183134001Y-82387914D01*
X183133999Y-82387914D01*
X182995251Y-82406181D01*
X182995247Y-82406182D01*
X182865959Y-82459734D01*
X182754925Y-82544934D01*
X182749183Y-82550677D01*
X182747234Y-82548728D01*
X182701679Y-82581990D01*
X182659734Y-82589300D01*
X166564342Y-82589300D01*
X166497303Y-82569615D01*
X166476661Y-82552981D01*
X163529367Y-79605687D01*
X163495882Y-79544364D01*
X163494457Y-79510129D01*
X163494086Y-79510129D01*
X163494086Y-79502000D01*
X163494086Y-79501999D01*
X163475819Y-79363251D01*
X163422264Y-79233957D01*
X163337070Y-79122930D01*
X163226043Y-79037736D01*
X163226042Y-79037735D01*
X163226040Y-79037734D01*
X163096752Y-78984182D01*
X163096750Y-78984181D01*
X163096749Y-78984181D01*
X163027374Y-78975047D01*
X162958001Y-78965914D01*
X162957999Y-78965914D01*
X162819251Y-78984181D01*
X162819247Y-78984182D01*
X162689959Y-79037734D01*
X162578930Y-79122930D01*
X162493734Y-79233959D01*
X162440182Y-79363247D01*
X162440181Y-79363251D01*
X162421914Y-79501999D01*
X162421914Y-79502000D01*
X154184680Y-79502000D01*
X152045019Y-77362339D01*
X152011534Y-77301016D01*
X152008700Y-77274658D01*
X152008700Y-75550000D01*
X152738914Y-75550000D01*
X152757181Y-75688748D01*
X152757182Y-75688752D01*
X152810734Y-75818040D01*
X152810735Y-75818042D01*
X152810736Y-75818043D01*
X152895930Y-75929070D01*
X153006957Y-76014264D01*
X153136251Y-76067819D01*
X153258857Y-76083960D01*
X153274999Y-76086086D01*
X153275000Y-76086086D01*
X153275001Y-76086086D01*
X153289460Y-76084182D01*
X153413749Y-76067819D01*
X153543043Y-76014264D01*
X153654070Y-75929070D01*
X153654074Y-75929064D01*
X153654076Y-75929063D01*
X153659821Y-75923320D01*
X153660754Y-75924253D01*
X153710388Y-75888011D01*
X153752336Y-75880700D01*
X158399851Y-75880700D01*
X158405252Y-75880935D01*
X158446267Y-75884524D01*
X158486037Y-75873866D01*
X158491297Y-75872700D01*
X158531851Y-75865551D01*
X158531855Y-75865548D01*
X158536248Y-75863950D01*
X158554662Y-75856322D01*
X158558910Y-75854341D01*
X158558916Y-75854340D01*
X158592642Y-75830723D01*
X158597190Y-75827825D01*
X158632849Y-75807239D01*
X158659319Y-75775691D01*
X158662959Y-75771719D01*
X168974460Y-65460219D01*
X169035784Y-65426734D01*
X169062142Y-65423900D01*
X170377664Y-65423900D01*
X170444703Y-65443585D01*
X170469917Y-65466781D01*
X170470179Y-65466520D01*
X170475923Y-65472263D01*
X170475926Y-65472266D01*
X170475930Y-65472270D01*
X170586957Y-65557464D01*
X170716251Y-65611019D01*
X170838857Y-65627160D01*
X170854999Y-65629286D01*
X170855000Y-65629286D01*
X170855001Y-65629286D01*
X170869460Y-65627382D01*
X170993749Y-65611019D01*
X171123043Y-65557464D01*
X171234070Y-65472270D01*
X171319264Y-65361243D01*
X171372819Y-65231949D01*
X171391086Y-65093200D01*
X171372819Y-64954451D01*
X171326042Y-64841520D01*
X171319265Y-64825159D01*
X171319264Y-64825158D01*
X171319264Y-64825157D01*
X171234070Y-64714130D01*
X171123043Y-64628936D01*
X171123042Y-64628935D01*
X171123040Y-64628934D01*
X170993752Y-64575382D01*
X170993750Y-64575381D01*
X170993749Y-64575381D01*
X170924374Y-64566247D01*
X170855001Y-64557114D01*
X170854999Y-64557114D01*
X170716251Y-64575381D01*
X170716247Y-64575382D01*
X170586959Y-64628934D01*
X170539730Y-64665173D01*
X170475930Y-64714130D01*
X170475928Y-64714131D01*
X170475923Y-64714136D01*
X170470179Y-64719880D01*
X170469245Y-64718946D01*
X170419612Y-64755189D01*
X170377664Y-64762500D01*
X168890941Y-64762500D01*
X168885541Y-64762264D01*
X168876693Y-64761490D01*
X168844533Y-64758676D01*
X168844529Y-64758676D01*
X168804769Y-64769329D01*
X168799491Y-64770499D01*
X168758950Y-64777648D01*
X168754589Y-64779235D01*
X168736081Y-64786901D01*
X168731884Y-64788859D01*
X168698161Y-64812472D01*
X168693599Y-64815378D01*
X168657955Y-64835957D01*
X168657948Y-64835964D01*
X168631480Y-64867505D01*
X168627825Y-64871493D01*
X158316339Y-75182981D01*
X158255016Y-75216466D01*
X158228658Y-75219300D01*
X153752336Y-75219300D01*
X153685297Y-75199615D01*
X153660082Y-75176418D01*
X153659821Y-75176680D01*
X153654076Y-75170936D01*
X153654072Y-75170933D01*
X153654070Y-75170930D01*
X153543043Y-75085736D01*
X153543042Y-75085735D01*
X153543040Y-75085734D01*
X153413752Y-75032182D01*
X153413750Y-75032181D01*
X153413749Y-75032181D01*
X153344374Y-75023047D01*
X153275001Y-75013914D01*
X153274999Y-75013914D01*
X153136251Y-75032181D01*
X153136247Y-75032182D01*
X153006959Y-75085734D01*
X152895930Y-75170930D01*
X152810734Y-75281959D01*
X152757182Y-75411247D01*
X152757181Y-75411251D01*
X152738914Y-75549999D01*
X152738914Y-75550000D01*
X152008700Y-75550000D01*
X152008700Y-74638336D01*
X152028385Y-74571297D01*
X152051580Y-74546083D01*
X152051319Y-74545822D01*
X152057063Y-74540076D01*
X152057064Y-74540074D01*
X152057070Y-74540070D01*
X152142264Y-74429043D01*
X152195819Y-74299749D01*
X152214086Y-74161000D01*
X152195819Y-74022251D01*
X152142264Y-73892957D01*
X152057070Y-73781930D01*
X151946043Y-73696736D01*
X151946042Y-73696735D01*
X151946040Y-73696734D01*
X151816752Y-73643182D01*
X151816750Y-73643181D01*
X151816749Y-73643181D01*
X151747374Y-73634047D01*
X151678001Y-73624914D01*
X151677999Y-73624914D01*
X151539251Y-73643181D01*
X151539247Y-73643182D01*
X151409959Y-73696734D01*
X151298930Y-73781930D01*
X151213734Y-73892959D01*
X151160182Y-74022247D01*
X151160181Y-74022251D01*
X151141914Y-74160999D01*
X151141914Y-74161000D01*
X149764000Y-74161000D01*
X151075000Y-72850000D01*
X151075000Y-71625000D01*
X151065561Y-71602213D01*
X151067301Y-71601491D01*
X151052834Y-71574996D01*
X151050000Y-71548638D01*
X151050000Y-68200000D01*
X148700000Y-65850000D01*
X148690590Y-65850000D01*
X148649996Y-65872166D01*
X148623638Y-65875000D01*
X140799999Y-65875000D01*
X138250000Y-68424999D01*
X138250000Y-68425000D01*
X138250000Y-73596000D01*
X138250000Y-74650000D01*
X104013500Y-74650000D01*
X104013500Y-71101000D01*
X108985364Y-71101000D01*
X109042567Y-71314486D01*
X109042570Y-71314492D01*
X109142399Y-71528578D01*
X109277894Y-71722082D01*
X109444917Y-71889105D01*
X109638421Y-72024600D01*
X109852507Y-72124429D01*
X109852516Y-72124433D01*
X110066000Y-72181634D01*
X110066000Y-71286501D01*
X110173685Y-71335680D01*
X110280237Y-71351000D01*
X110351763Y-71351000D01*
X110458315Y-71335680D01*
X110566000Y-71286501D01*
X110566000Y-72181633D01*
X110779483Y-72124433D01*
X110779492Y-72124429D01*
X110993578Y-72024600D01*
X111187082Y-71889105D01*
X111354105Y-71722082D01*
X111489600Y-71528578D01*
X111589429Y-71314492D01*
X111589432Y-71314486D01*
X111646636Y-71101000D01*
X110749686Y-71101000D01*
X110775493Y-71060844D01*
X110816000Y-70922889D01*
X110816000Y-70779111D01*
X110775493Y-70641156D01*
X110749686Y-70601000D01*
X111646636Y-70601000D01*
X111646635Y-70600999D01*
X111589432Y-70387513D01*
X111589429Y-70387507D01*
X111489600Y-70173422D01*
X111489599Y-70173420D01*
X111354113Y-69979926D01*
X111354108Y-69979920D01*
X111187082Y-69812894D01*
X110993578Y-69677399D01*
X110779492Y-69577570D01*
X110779486Y-69577567D01*
X110663201Y-69546409D01*
X110603541Y-69510044D01*
X110573012Y-69447197D01*
X110581307Y-69377821D01*
X110625792Y-69323943D01*
X110659296Y-69307975D01*
X110721184Y-69289202D01*
X110904237Y-69191358D01*
X111064683Y-69059683D01*
X111196358Y-68899237D01*
X111294202Y-68716184D01*
X111354453Y-68517561D01*
X111374798Y-68311000D01*
X111354453Y-68104439D01*
X111294202Y-67905816D01*
X111196358Y-67722763D01*
X111196357Y-67722761D01*
X111064683Y-67562316D01*
X110904238Y-67430642D01*
X110904231Y-67430638D01*
X110721191Y-67332801D01*
X110721188Y-67332800D01*
X110721187Y-67332799D01*
X110721184Y-67332798D01*
X110522561Y-67272547D01*
X110522559Y-67272546D01*
X110522561Y-67272546D01*
X110316000Y-67252202D01*
X110109440Y-67272546D01*
X109992165Y-67308121D01*
X109910816Y-67332798D01*
X109910813Y-67332799D01*
X109910811Y-67332800D01*
X109910808Y-67332801D01*
X109727768Y-67430638D01*
X109727761Y-67430642D01*
X109567316Y-67562316D01*
X109435642Y-67722761D01*
X109435638Y-67722768D01*
X109337801Y-67905808D01*
X109337800Y-67905811D01*
X109277546Y-68104440D01*
X109257202Y-68311000D01*
X109277546Y-68517559D01*
X109287388Y-68550004D01*
X109337798Y-68716184D01*
X109337799Y-68716187D01*
X109337800Y-68716188D01*
X109337801Y-68716191D01*
X109435638Y-68899231D01*
X109435642Y-68899238D01*
X109567316Y-69059683D01*
X109727761Y-69191357D01*
X109727768Y-69191361D01*
X109910808Y-69289198D01*
X109910809Y-69289198D01*
X109910816Y-69289202D01*
X109972701Y-69307974D01*
X110031138Y-69346271D01*
X110059594Y-69410083D01*
X110049034Y-69479150D01*
X110002810Y-69531543D01*
X109968798Y-69546409D01*
X109852514Y-69577567D01*
X109852507Y-69577570D01*
X109638422Y-69677399D01*
X109638420Y-69677400D01*
X109444926Y-69812886D01*
X109444920Y-69812891D01*
X109277891Y-69979920D01*
X109277886Y-69979926D01*
X109142400Y-70173420D01*
X109142399Y-70173422D01*
X109042570Y-70387507D01*
X109042567Y-70387513D01*
X108985364Y-70600999D01*
X108985364Y-70601000D01*
X109882314Y-70601000D01*
X109856507Y-70641156D01*
X109816000Y-70779111D01*
X109816000Y-70922889D01*
X109856507Y-71060844D01*
X109882314Y-71101000D01*
X108985364Y-71101000D01*
X104013500Y-71101000D01*
X104013500Y-66641066D01*
X109262299Y-66641066D01*
X109274117Y-66700476D01*
X109274118Y-66700479D01*
X109274119Y-66700480D01*
X109319140Y-66767860D01*
X109386520Y-66812881D01*
X109386523Y-66812882D01*
X109445933Y-66824700D01*
X109445936Y-66824700D01*
X111186066Y-66824700D01*
X111245476Y-66812882D01*
X111245477Y-66812881D01*
X111245480Y-66812881D01*
X111312860Y-66767860D01*
X111357881Y-66700480D01*
X111369700Y-66641064D01*
X111369700Y-64900936D01*
X111369700Y-64900933D01*
X111357882Y-64841523D01*
X111357881Y-64841520D01*
X111346948Y-64825157D01*
X111312860Y-64774140D01*
X111245480Y-64729119D01*
X111245479Y-64729118D01*
X111245476Y-64729117D01*
X111186066Y-64717300D01*
X111186064Y-64717300D01*
X109445936Y-64717300D01*
X109445934Y-64717300D01*
X109386523Y-64729117D01*
X109386520Y-64729118D01*
X109319140Y-64774140D01*
X109274118Y-64841520D01*
X109274117Y-64841523D01*
X109262300Y-64900933D01*
X109262300Y-64900936D01*
X109262300Y-66641064D01*
X109262300Y-66641066D01*
X109262299Y-66641066D01*
X104013500Y-66641066D01*
X104013500Y-59070800D01*
X105818500Y-59070800D01*
X105858205Y-59359679D01*
X105858206Y-59359685D01*
X105936878Y-59640467D01*
X106053049Y-59907918D01*
X106053048Y-59907918D01*
X106204556Y-60157063D01*
X106204558Y-60157065D01*
X106204559Y-60157067D01*
X106388583Y-60383262D01*
X106601693Y-60582292D01*
X106839918Y-60750450D01*
X106839917Y-60750450D01*
X106839919Y-60750451D01*
X107098824Y-60884605D01*
X107373584Y-60982254D01*
X107373587Y-60982254D01*
X107373592Y-60982256D01*
X107659083Y-61041582D01*
X107659082Y-61041582D01*
X107686344Y-61043446D01*
X107877179Y-61056500D01*
X107877186Y-61056500D01*
X108022814Y-61056500D01*
X108022821Y-61056500D01*
X108240917Y-61041582D01*
X108504487Y-60986811D01*
X108526407Y-60982256D01*
X108526408Y-60982255D01*
X108526416Y-60982254D01*
X108801176Y-60884605D01*
X109060081Y-60750451D01*
X109298307Y-60582292D01*
X109511417Y-60383262D01*
X109695441Y-60157067D01*
X109846950Y-59907920D01*
X109963123Y-59640464D01*
X110041795Y-59359680D01*
X110081500Y-59070799D01*
X110081500Y-58779201D01*
X110080562Y-58772379D01*
X110068309Y-58683231D01*
X110041795Y-58490320D01*
X109963123Y-58209536D01*
X109913372Y-58094999D01*
X112747702Y-58094999D01*
X112768046Y-58301559D01*
X112781224Y-58345000D01*
X112828298Y-58500184D01*
X112828299Y-58500186D01*
X112828300Y-58500188D01*
X112828301Y-58500191D01*
X112926138Y-58683231D01*
X112926142Y-58683238D01*
X113057816Y-58843683D01*
X113218261Y-58975357D01*
X113218268Y-58975361D01*
X113401308Y-59073198D01*
X113401309Y-59073198D01*
X113401316Y-59073202D01*
X113599939Y-59133453D01*
X113599938Y-59133453D01*
X113618458Y-59135277D01*
X113806500Y-59153798D01*
X114013061Y-59133453D01*
X114211684Y-59073202D01*
X114394737Y-58975358D01*
X114555183Y-58843683D01*
X114686858Y-58683237D01*
X114784702Y-58500184D01*
X114844953Y-58301561D01*
X114865298Y-58095000D01*
X114865298Y-58094999D01*
X115287702Y-58094999D01*
X115308046Y-58301559D01*
X115321224Y-58345000D01*
X115368298Y-58500184D01*
X115368299Y-58500186D01*
X115368300Y-58500188D01*
X115368301Y-58500191D01*
X115466138Y-58683231D01*
X115466142Y-58683238D01*
X115597816Y-58843683D01*
X115758261Y-58975357D01*
X115758268Y-58975361D01*
X115941308Y-59073198D01*
X115941309Y-59073198D01*
X115941316Y-59073202D01*
X116139939Y-59133453D01*
X116139938Y-59133453D01*
X116160283Y-59135456D01*
X116346500Y-59153798D01*
X116553061Y-59133453D01*
X116751684Y-59073202D01*
X116934737Y-58975358D01*
X117095183Y-58843683D01*
X117226858Y-58683237D01*
X117324702Y-58500184D01*
X117384953Y-58301561D01*
X117405298Y-58095000D01*
X117827702Y-58095000D01*
X117848046Y-58301559D01*
X117861224Y-58345000D01*
X117908298Y-58500184D01*
X117908299Y-58500186D01*
X117908300Y-58500188D01*
X117908301Y-58500191D01*
X118006138Y-58683231D01*
X118006142Y-58683238D01*
X118137816Y-58843683D01*
X118298261Y-58975357D01*
X118298268Y-58975361D01*
X118481308Y-59073198D01*
X118481309Y-59073198D01*
X118481316Y-59073202D01*
X118679939Y-59133453D01*
X118679938Y-59133453D01*
X118698458Y-59135277D01*
X118886500Y-59153798D01*
X119093061Y-59133453D01*
X119291684Y-59073202D01*
X119474737Y-58975358D01*
X119635183Y-58843683D01*
X119766858Y-58683237D01*
X119864702Y-58500184D01*
X119924953Y-58301561D01*
X119945298Y-58095000D01*
X120367702Y-58095000D01*
X120388046Y-58301559D01*
X120401224Y-58345000D01*
X120448298Y-58500184D01*
X120448299Y-58500186D01*
X120448300Y-58500188D01*
X120448301Y-58500191D01*
X120546138Y-58683231D01*
X120546142Y-58683238D01*
X120677816Y-58843683D01*
X120838261Y-58975357D01*
X120838268Y-58975361D01*
X121021308Y-59073198D01*
X121021309Y-59073198D01*
X121021316Y-59073202D01*
X121219939Y-59133453D01*
X121219938Y-59133453D01*
X121238458Y-59135277D01*
X121426500Y-59153798D01*
X121633061Y-59133453D01*
X121831684Y-59073202D01*
X122014737Y-58975358D01*
X122175183Y-58843683D01*
X122306858Y-58683237D01*
X122404702Y-58500184D01*
X122464953Y-58301561D01*
X122485298Y-58095000D01*
X122485298Y-58094999D01*
X122907702Y-58094999D01*
X122928046Y-58301559D01*
X122941224Y-58345000D01*
X122988298Y-58500184D01*
X122988299Y-58500186D01*
X122988300Y-58500188D01*
X122988301Y-58500191D01*
X123086138Y-58683231D01*
X123086142Y-58683238D01*
X123217816Y-58843683D01*
X123378261Y-58975357D01*
X123378268Y-58975361D01*
X123561308Y-59073198D01*
X123561309Y-59073198D01*
X123561316Y-59073202D01*
X123759939Y-59133453D01*
X123759938Y-59133453D01*
X123780282Y-59135456D01*
X123966500Y-59153798D01*
X124173061Y-59133453D01*
X124371684Y-59073202D01*
X124554737Y-58975358D01*
X124715183Y-58843683D01*
X124846858Y-58683237D01*
X124944702Y-58500184D01*
X125004953Y-58301561D01*
X125025298Y-58095000D01*
X125025298Y-58094999D01*
X125447702Y-58094999D01*
X125468046Y-58301559D01*
X125481224Y-58345000D01*
X125528298Y-58500184D01*
X125528299Y-58500186D01*
X125528300Y-58500188D01*
X125528301Y-58500191D01*
X125626138Y-58683231D01*
X125626142Y-58683238D01*
X125757816Y-58843683D01*
X125918261Y-58975357D01*
X125918268Y-58975361D01*
X126101308Y-59073198D01*
X126101309Y-59073198D01*
X126101316Y-59073202D01*
X126299939Y-59133453D01*
X126299938Y-59133453D01*
X126318458Y-59135277D01*
X126506500Y-59153798D01*
X126713061Y-59133453D01*
X126911684Y-59073202D01*
X127094737Y-58975358D01*
X127255183Y-58843683D01*
X127386858Y-58683237D01*
X127484702Y-58500184D01*
X127544953Y-58301561D01*
X127565298Y-58095000D01*
X127565298Y-58094999D01*
X127987702Y-58094999D01*
X128008046Y-58301559D01*
X128021224Y-58345000D01*
X128068298Y-58500184D01*
X128068299Y-58500186D01*
X128068300Y-58500188D01*
X128068301Y-58500191D01*
X128166138Y-58683231D01*
X128166142Y-58683238D01*
X128297816Y-58843683D01*
X128458261Y-58975357D01*
X128458268Y-58975361D01*
X128641308Y-59073198D01*
X128641309Y-59073198D01*
X128641316Y-59073202D01*
X128839939Y-59133453D01*
X128839938Y-59133453D01*
X128860282Y-59135456D01*
X129046500Y-59153798D01*
X129253061Y-59133453D01*
X129451684Y-59073202D01*
X129634737Y-58975358D01*
X129795183Y-58843683D01*
X129926858Y-58683237D01*
X130024702Y-58500184D01*
X130084953Y-58301561D01*
X130105298Y-58095000D01*
X130105298Y-58094999D01*
X130527702Y-58094999D01*
X130548046Y-58301559D01*
X130561224Y-58345000D01*
X130608298Y-58500184D01*
X130608299Y-58500186D01*
X130608300Y-58500188D01*
X130608301Y-58500191D01*
X130706138Y-58683231D01*
X130706142Y-58683238D01*
X130837816Y-58843683D01*
X130998261Y-58975357D01*
X130998268Y-58975361D01*
X131181308Y-59073198D01*
X131181309Y-59073198D01*
X131181316Y-59073202D01*
X131379939Y-59133453D01*
X131379938Y-59133453D01*
X131400283Y-59135456D01*
X131586500Y-59153798D01*
X131793061Y-59133453D01*
X131991684Y-59073202D01*
X132174737Y-58975358D01*
X132335183Y-58843683D01*
X132466858Y-58683237D01*
X132564702Y-58500184D01*
X132583474Y-58438298D01*
X132621770Y-58379862D01*
X132685582Y-58351405D01*
X132754649Y-58361964D01*
X132807043Y-58408188D01*
X132821909Y-58442201D01*
X132853067Y-58558486D01*
X132853070Y-58558492D01*
X132952899Y-58772578D01*
X133088394Y-58966082D01*
X133255417Y-59133105D01*
X133448921Y-59268600D01*
X133663007Y-59368429D01*
X133663016Y-59368433D01*
X133876500Y-59425634D01*
X133876499Y-58530501D01*
X133984185Y-58579680D01*
X134090737Y-58595000D01*
X134162263Y-58595000D01*
X134268815Y-58579680D01*
X134376500Y-58530501D01*
X134376500Y-59425633D01*
X134589983Y-59368433D01*
X134589992Y-59368429D01*
X134804078Y-59268600D01*
X134997582Y-59133105D01*
X135164605Y-58966082D01*
X135300100Y-58772578D01*
X135376418Y-58608914D01*
X135422590Y-58556475D01*
X135489784Y-58537323D01*
X135556665Y-58557539D01*
X135601999Y-58610704D01*
X135612800Y-58661318D01*
X135612800Y-58965064D01*
X135612800Y-58965066D01*
X135612799Y-58965066D01*
X135624617Y-59024476D01*
X135624618Y-59024479D01*
X135624619Y-59024480D01*
X135669640Y-59091860D01*
X135731369Y-59133105D01*
X135737020Y-59136881D01*
X135737023Y-59136882D01*
X135796433Y-59148700D01*
X135796436Y-59148700D01*
X135957800Y-59148700D01*
X136024839Y-59168385D01*
X136070594Y-59221189D01*
X136081800Y-59272700D01*
X136081800Y-60986811D01*
X136081269Y-60994913D01*
X136076755Y-61029199D01*
X136076755Y-61029200D01*
X136081269Y-61063485D01*
X136081800Y-61071586D01*
X136081800Y-62433413D01*
X136081269Y-62441514D01*
X136076755Y-62475799D01*
X136076755Y-62475802D01*
X136081180Y-62509413D01*
X136081181Y-62509421D01*
X136096850Y-62628438D01*
X136115701Y-62673947D01*
X136155764Y-62770670D01*
X136155765Y-62770672D01*
X136155766Y-62770673D01*
X136189922Y-62815186D01*
X136249486Y-62892812D01*
X136249487Y-62892813D01*
X136276930Y-62913871D01*
X136283034Y-62919225D01*
X136305646Y-62941838D01*
X136305652Y-62941843D01*
X136397127Y-63012034D01*
X136397126Y-63012034D01*
X136474912Y-63044253D01*
X136539362Y-63070949D01*
X136676091Y-63088950D01*
X136691999Y-63091045D01*
X136692000Y-63091045D01*
X136844636Y-63070950D01*
X136986872Y-63012034D01*
X137109012Y-62918312D01*
X137202734Y-62796172D01*
X137261649Y-62653937D01*
X137281745Y-62501300D01*
X137261649Y-62348662D01*
X137260637Y-62346218D01*
X137259606Y-62341036D01*
X137259545Y-62340807D01*
X137259560Y-62340802D01*
X137251200Y-62298769D01*
X137251200Y-61737900D01*
X137270885Y-61670861D01*
X137323689Y-61625106D01*
X137375200Y-61613900D01*
X148069112Y-61613900D01*
X148077210Y-61614430D01*
X148098364Y-61617215D01*
X148111499Y-61618945D01*
X148111500Y-61618945D01*
X148111501Y-61618945D01*
X148124635Y-61617215D01*
X148145789Y-61614430D01*
X148153888Y-61613900D01*
X160773700Y-61613900D01*
X160840739Y-61633585D01*
X160886494Y-61686389D01*
X160897700Y-61737900D01*
X160897700Y-63175168D01*
X160912750Y-63289476D01*
X160912750Y-63289477D01*
X160971666Y-63431713D01*
X161058698Y-63545136D01*
X161065387Y-63553853D01*
X161187527Y-63647574D01*
X161329763Y-63706490D01*
X161391585Y-63714629D01*
X161482399Y-63726585D01*
X161482400Y-63726585D01*
X161482401Y-63726585D01*
X161533278Y-63719886D01*
X161635037Y-63706490D01*
X161777272Y-63647574D01*
X161899413Y-63553853D01*
X161993134Y-63431712D01*
X162052050Y-63289477D01*
X162067100Y-63175161D01*
X162067100Y-61737900D01*
X162086785Y-61670861D01*
X162139589Y-61625106D01*
X162191100Y-61613900D01*
X168849800Y-61613900D01*
X168916839Y-61633585D01*
X168962594Y-61686389D01*
X168973800Y-61737900D01*
X168973800Y-63430828D01*
X168988850Y-63545136D01*
X168988850Y-63545137D01*
X169047766Y-63687373D01*
X169131467Y-63796455D01*
X169141487Y-63809513D01*
X169263627Y-63903234D01*
X169405863Y-63962150D01*
X169482181Y-63972197D01*
X169558499Y-63982245D01*
X169558500Y-63982245D01*
X169558501Y-63982245D01*
X169609378Y-63975546D01*
X169711137Y-63962150D01*
X169853372Y-63903234D01*
X169975513Y-63809513D01*
X170069234Y-63687372D01*
X170128150Y-63545137D01*
X170143200Y-63430821D01*
X170143200Y-61737900D01*
X170162885Y-61670861D01*
X170215689Y-61625106D01*
X170267200Y-61613900D01*
X172416879Y-61613900D01*
X174085914Y-61613900D01*
X174094013Y-61614430D01*
X174128300Y-61618945D01*
X174166619Y-61613900D01*
X174166621Y-61613900D01*
X174280937Y-61598850D01*
X174381508Y-61557190D01*
X174381511Y-61557190D01*
X174398768Y-61550041D01*
X174423173Y-61539934D01*
X174480113Y-61496242D01*
X174545313Y-61446213D01*
X174566375Y-61418762D01*
X174571716Y-61412672D01*
X176799371Y-59185019D01*
X176860695Y-59151534D01*
X176887053Y-59148700D01*
X177932566Y-59148700D01*
X177991976Y-59136882D01*
X177991977Y-59136881D01*
X177991980Y-59136881D01*
X178059360Y-59091860D01*
X178104381Y-59024480D01*
X178104382Y-59024476D01*
X178116200Y-58965066D01*
X178116200Y-58095000D01*
X178543702Y-58095000D01*
X178564046Y-58301559D01*
X178577224Y-58345000D01*
X178624298Y-58500184D01*
X178624299Y-58500186D01*
X178624300Y-58500188D01*
X178624301Y-58500191D01*
X178722138Y-58683231D01*
X178722142Y-58683238D01*
X178853816Y-58843683D01*
X179014261Y-58975357D01*
X179014268Y-58975361D01*
X179197308Y-59073198D01*
X179197309Y-59073198D01*
X179197316Y-59073202D01*
X179395939Y-59133453D01*
X179395938Y-59133453D01*
X179414458Y-59135277D01*
X179602500Y-59153798D01*
X179809061Y-59133453D01*
X180007684Y-59073202D01*
X180190737Y-58975358D01*
X180351183Y-58843683D01*
X180482858Y-58683237D01*
X180580702Y-58500184D01*
X180640953Y-58301561D01*
X180661298Y-58095000D01*
X180661298Y-58094999D01*
X181083702Y-58094999D01*
X181104046Y-58301559D01*
X181117224Y-58345000D01*
X181164298Y-58500184D01*
X181164299Y-58500186D01*
X181164300Y-58500188D01*
X181164301Y-58500191D01*
X181262138Y-58683231D01*
X181262142Y-58683238D01*
X181393816Y-58843683D01*
X181554261Y-58975357D01*
X181554268Y-58975361D01*
X181737308Y-59073198D01*
X181737309Y-59073198D01*
X181737316Y-59073202D01*
X181935939Y-59133453D01*
X181935938Y-59133453D01*
X181954458Y-59135277D01*
X182142500Y-59153798D01*
X182349061Y-59133453D01*
X182547684Y-59073202D01*
X182730737Y-58975358D01*
X182891183Y-58843683D01*
X183022858Y-58683237D01*
X183120702Y-58500184D01*
X183139474Y-58438298D01*
X183177770Y-58379862D01*
X183241582Y-58351405D01*
X183310649Y-58361964D01*
X183363043Y-58408188D01*
X183377909Y-58442201D01*
X183409067Y-58558486D01*
X183409070Y-58558492D01*
X183508899Y-58772578D01*
X183644394Y-58966082D01*
X183811417Y-59133105D01*
X184004921Y-59268600D01*
X184219007Y-59368429D01*
X184219016Y-59368433D01*
X184432500Y-59425634D01*
X184432500Y-58530501D01*
X184540185Y-58579680D01*
X184646737Y-58595000D01*
X184718263Y-58595000D01*
X184824815Y-58579680D01*
X184932500Y-58530501D01*
X184932500Y-59425633D01*
X185145983Y-59368433D01*
X185145992Y-59368429D01*
X185360078Y-59268600D01*
X185553582Y-59133105D01*
X185720605Y-58966082D01*
X185856100Y-58772578D01*
X185955929Y-58558492D01*
X185955932Y-58558486D01*
X186013136Y-58345000D01*
X185116186Y-58345000D01*
X185141993Y-58304844D01*
X185182500Y-58166889D01*
X185182500Y-58023111D01*
X185141993Y-57885156D01*
X185116186Y-57845000D01*
X186013136Y-57845000D01*
X186013135Y-57844999D01*
X185955932Y-57631513D01*
X185955929Y-57631507D01*
X185856100Y-57417422D01*
X185856099Y-57417420D01*
X185720613Y-57223926D01*
X185720608Y-57223920D01*
X185553582Y-57056894D01*
X185360078Y-56921399D01*
X185145992Y-56821570D01*
X185145986Y-56821567D01*
X184932500Y-56764364D01*
X184932500Y-57659498D01*
X184824815Y-57610320D01*
X184718263Y-57595000D01*
X184646737Y-57595000D01*
X184540185Y-57610320D01*
X184432500Y-57659498D01*
X184432500Y-56764364D01*
X184432499Y-56764364D01*
X184219013Y-56821567D01*
X184219007Y-56821570D01*
X184004922Y-56921399D01*
X184004920Y-56921400D01*
X183811426Y-57056886D01*
X183811420Y-57056891D01*
X183644391Y-57223920D01*
X183644386Y-57223926D01*
X183508900Y-57417420D01*
X183508899Y-57417422D01*
X183409070Y-57631507D01*
X183409067Y-57631514D01*
X183377909Y-57747798D01*
X183341544Y-57807458D01*
X183278697Y-57837987D01*
X183209321Y-57829692D01*
X183155443Y-57785207D01*
X183139475Y-57751703D01*
X183120702Y-57689816D01*
X183099141Y-57649478D01*
X183022861Y-57506768D01*
X183022857Y-57506761D01*
X182891183Y-57346316D01*
X182730738Y-57214642D01*
X182730731Y-57214638D01*
X182547691Y-57116801D01*
X182547688Y-57116800D01*
X182547687Y-57116799D01*
X182547684Y-57116798D01*
X182349061Y-57056547D01*
X182349059Y-57056546D01*
X182349061Y-57056546D01*
X182142500Y-57036202D01*
X181935940Y-57056546D01*
X181818665Y-57092121D01*
X181737316Y-57116798D01*
X181737313Y-57116799D01*
X181737311Y-57116800D01*
X181737308Y-57116801D01*
X181554268Y-57214638D01*
X181554261Y-57214642D01*
X181393816Y-57346316D01*
X181262142Y-57506761D01*
X181262138Y-57506768D01*
X181164301Y-57689808D01*
X181164300Y-57689811D01*
X181164299Y-57689813D01*
X181164298Y-57689816D01*
X181139621Y-57771165D01*
X181104046Y-57888440D01*
X181083702Y-58094999D01*
X180661298Y-58094999D01*
X180640953Y-57888439D01*
X180580702Y-57689816D01*
X180559141Y-57649478D01*
X180482861Y-57506768D01*
X180482857Y-57506761D01*
X180351183Y-57346316D01*
X180190738Y-57214642D01*
X180190731Y-57214638D01*
X180007691Y-57116801D01*
X180007688Y-57116800D01*
X180007687Y-57116799D01*
X180007684Y-57116798D01*
X179809061Y-57056547D01*
X179809059Y-57056546D01*
X179809061Y-57056546D01*
X179602500Y-57036202D01*
X179395940Y-57056546D01*
X179278665Y-57092121D01*
X179197316Y-57116798D01*
X179197313Y-57116799D01*
X179197311Y-57116800D01*
X179197308Y-57116801D01*
X179014268Y-57214638D01*
X179014261Y-57214642D01*
X178853816Y-57346316D01*
X178722142Y-57506761D01*
X178722138Y-57506768D01*
X178624301Y-57689808D01*
X178624300Y-57689811D01*
X178624299Y-57689813D01*
X178624298Y-57689816D01*
X178599621Y-57771165D01*
X178564046Y-57888440D01*
X178543702Y-58095000D01*
X178116200Y-58095000D01*
X178116200Y-57224933D01*
X178104382Y-57165523D01*
X178104381Y-57165520D01*
X178097602Y-57155375D01*
X178059360Y-57098140D01*
X177997630Y-57056894D01*
X177991979Y-57053118D01*
X177991976Y-57053117D01*
X177932566Y-57041300D01*
X177932564Y-57041300D01*
X176192436Y-57041300D01*
X176192434Y-57041300D01*
X176133023Y-57053117D01*
X176133020Y-57053118D01*
X176065640Y-57098140D01*
X176020618Y-57165520D01*
X176020617Y-57165523D01*
X176008800Y-57224933D01*
X176008800Y-58270447D01*
X175989115Y-58337486D01*
X175972481Y-58358128D01*
X173922429Y-60408181D01*
X173861106Y-60441666D01*
X173834748Y-60444500D01*
X169627394Y-60444500D01*
X169619294Y-60443969D01*
X169601801Y-60441666D01*
X169585001Y-60439454D01*
X169585000Y-60439454D01*
X169550705Y-60443969D01*
X169542607Y-60444500D01*
X161524788Y-60444500D01*
X161516689Y-60443969D01*
X161495535Y-60441184D01*
X161482401Y-60439455D01*
X161482399Y-60439455D01*
X161469264Y-60441184D01*
X161448110Y-60443969D01*
X161440012Y-60444500D01*
X148820200Y-60444500D01*
X148753161Y-60424815D01*
X148707406Y-60372011D01*
X148696200Y-60320500D01*
X148696200Y-59036908D01*
X148715885Y-58969869D01*
X148741535Y-58941055D01*
X148776202Y-58912605D01*
X148860183Y-58843683D01*
X148991858Y-58683237D01*
X149089702Y-58500184D01*
X149149953Y-58301561D01*
X149170298Y-58095000D01*
X149152668Y-57916000D01*
X153321000Y-57916000D01*
X154240428Y-57916000D01*
X154217318Y-57951960D01*
X154176000Y-58092673D01*
X154176000Y-58239327D01*
X154217318Y-58380040D01*
X154240428Y-58416000D01*
X153324576Y-58416000D01*
X153335768Y-58547515D01*
X153394318Y-58772379D01*
X153490023Y-58984104D01*
X153490028Y-58984112D01*
X153620142Y-59176621D01*
X153620144Y-59176624D01*
X153780919Y-59344372D01*
X153780920Y-59344373D01*
X153967728Y-59482537D01*
X154175205Y-59587144D01*
X154175211Y-59587147D01*
X154397387Y-59655187D01*
X154436000Y-59660131D01*
X154436000Y-58612494D01*
X154540839Y-58660373D01*
X154649527Y-58676000D01*
X154722473Y-58676000D01*
X154831161Y-58660373D01*
X154936000Y-58612494D01*
X154936000Y-59658459D01*
X155087148Y-59625885D01*
X155087149Y-59625885D01*
X155302746Y-59539251D01*
X155500610Y-59417422D01*
X155675028Y-59263914D01*
X155675030Y-59263912D01*
X155821002Y-59083131D01*
X155934324Y-58880277D01*
X155994636Y-58709577D01*
X156035530Y-58652925D01*
X156100560Y-58627374D01*
X156169081Y-58641038D01*
X156219337Y-58689578D01*
X156230213Y-58714888D01*
X156233874Y-58726956D01*
X156333105Y-58912605D01*
X156333109Y-58912612D01*
X156466658Y-59075341D01*
X156629387Y-59208890D01*
X156629394Y-59208894D01*
X156815045Y-59308126D01*
X156815047Y-59308127D01*
X157013848Y-59368433D01*
X157016495Y-59369236D01*
X157016497Y-59369237D01*
X157035281Y-59371086D01*
X157226000Y-59389871D01*
X157435502Y-59369237D01*
X157636953Y-59308127D01*
X157822611Y-59208891D01*
X157832146Y-59201066D01*
X158697299Y-59201066D01*
X158709117Y-59260476D01*
X158709118Y-59260479D01*
X158717284Y-59272700D01*
X158754140Y-59327860D01*
X158814857Y-59368429D01*
X158821520Y-59372881D01*
X158821523Y-59372882D01*
X158880933Y-59384700D01*
X158880936Y-59384700D01*
X160651066Y-59384700D01*
X160710476Y-59372882D01*
X160710477Y-59372881D01*
X160710480Y-59372881D01*
X160777860Y-59327860D01*
X160822881Y-59260480D01*
X160830697Y-59221189D01*
X160834700Y-59201066D01*
X160834700Y-57916000D01*
X164751000Y-57916000D01*
X165670428Y-57916000D01*
X165647318Y-57951960D01*
X165606000Y-58092673D01*
X165606000Y-58239327D01*
X165647318Y-58380040D01*
X165670428Y-58416000D01*
X164754576Y-58416000D01*
X164765768Y-58547515D01*
X164824318Y-58772379D01*
X164920023Y-58984104D01*
X164920028Y-58984112D01*
X165050142Y-59176621D01*
X165050144Y-59176624D01*
X165210919Y-59344372D01*
X165210920Y-59344373D01*
X165397728Y-59482537D01*
X165605205Y-59587144D01*
X165605211Y-59587147D01*
X165827387Y-59655187D01*
X165866000Y-59660131D01*
X165866000Y-58612494D01*
X165970839Y-58660373D01*
X166079527Y-58676000D01*
X166152473Y-58676000D01*
X166261161Y-58660373D01*
X166366000Y-58612494D01*
X166366000Y-59658459D01*
X166517148Y-59625885D01*
X166517149Y-59625885D01*
X166732746Y-59539251D01*
X166930610Y-59417422D01*
X167105028Y-59263914D01*
X167105030Y-59263912D01*
X167251002Y-59083131D01*
X167364324Y-58880277D01*
X167424636Y-58709577D01*
X167465530Y-58652925D01*
X167530560Y-58627374D01*
X167599081Y-58641038D01*
X167649337Y-58689578D01*
X167660213Y-58714888D01*
X167663874Y-58726956D01*
X167763105Y-58912605D01*
X167763109Y-58912612D01*
X167896658Y-59075341D01*
X168059387Y-59208890D01*
X168059394Y-59208894D01*
X168245045Y-59308126D01*
X168245047Y-59308127D01*
X168443848Y-59368433D01*
X168446495Y-59369236D01*
X168446497Y-59369237D01*
X168465281Y-59371086D01*
X168656000Y-59389871D01*
X168865502Y-59369237D01*
X169066953Y-59308127D01*
X169252611Y-59208891D01*
X169262146Y-59201066D01*
X170127299Y-59201066D01*
X170139117Y-59260476D01*
X170139118Y-59260479D01*
X170147284Y-59272700D01*
X170184140Y-59327860D01*
X170244857Y-59368429D01*
X170251520Y-59372881D01*
X170251523Y-59372882D01*
X170310933Y-59384700D01*
X170310936Y-59384700D01*
X172081066Y-59384700D01*
X172140476Y-59372882D01*
X172140477Y-59372881D01*
X172140480Y-59372881D01*
X172207860Y-59327860D01*
X172252881Y-59260480D01*
X172260697Y-59221189D01*
X172264700Y-59201066D01*
X172264700Y-57130933D01*
X172252882Y-57071523D01*
X172252881Y-57071520D01*
X172243103Y-57056886D01*
X172207860Y-57004140D01*
X172149873Y-56965395D01*
X172140479Y-56959118D01*
X172140476Y-56959117D01*
X172081066Y-56947300D01*
X172081064Y-56947300D01*
X170310936Y-56947300D01*
X170310934Y-56947300D01*
X170251523Y-56959117D01*
X170251520Y-56959118D01*
X170184140Y-57004140D01*
X170139118Y-57071520D01*
X170139117Y-57071523D01*
X170127300Y-57130933D01*
X170127300Y-57130935D01*
X170127300Y-57130936D01*
X170127300Y-59201064D01*
X170127300Y-59201066D01*
X170127299Y-59201066D01*
X169262146Y-59201066D01*
X169415341Y-59075341D01*
X169548891Y-58912611D01*
X169648127Y-58726953D01*
X169709237Y-58525502D01*
X169724700Y-58368502D01*
X169724700Y-57963498D01*
X169709237Y-57806498D01*
X169648127Y-57605047D01*
X169595592Y-57506761D01*
X169548894Y-57419394D01*
X169548890Y-57419387D01*
X169415341Y-57256658D01*
X169252612Y-57123109D01*
X169252605Y-57123105D01*
X169066954Y-57023873D01*
X168865504Y-56962763D01*
X168865502Y-56962762D01*
X168656000Y-56942129D01*
X168446497Y-56962762D01*
X168446495Y-56962763D01*
X168245045Y-57023873D01*
X168059394Y-57123105D01*
X168059387Y-57123109D01*
X167896658Y-57256658D01*
X167763109Y-57419387D01*
X167763105Y-57419394D01*
X167663872Y-57605046D01*
X167660136Y-57617363D01*
X167621837Y-57675801D01*
X167558024Y-57704255D01*
X167488957Y-57693692D01*
X167436565Y-57647466D01*
X167421478Y-57612608D01*
X167407682Y-57559622D01*
X167407681Y-57559621D01*
X167311976Y-57347895D01*
X167311971Y-57347887D01*
X167181857Y-57155378D01*
X167181855Y-57155375D01*
X167021080Y-56987627D01*
X167021079Y-56987626D01*
X166834271Y-56849462D01*
X166626794Y-56744855D01*
X166626788Y-56744852D01*
X166404615Y-56676812D01*
X166366000Y-56671866D01*
X166366000Y-57719505D01*
X166261161Y-57671627D01*
X166152473Y-57656000D01*
X166079527Y-57656000D01*
X165970839Y-57671627D01*
X165866000Y-57719505D01*
X165866000Y-56673539D01*
X165865999Y-56673539D01*
X165714850Y-56706114D01*
X165714849Y-56706114D01*
X165499253Y-56792748D01*
X165301389Y-56914577D01*
X165126971Y-57068085D01*
X165126969Y-57068087D01*
X164980997Y-57248868D01*
X164867675Y-57451722D01*
X164790271Y-57670798D01*
X164790268Y-57670810D01*
X164751000Y-57899812D01*
X164751000Y-57916000D01*
X160834700Y-57916000D01*
X160834700Y-57130933D01*
X160822882Y-57071523D01*
X160822881Y-57071520D01*
X160813103Y-57056886D01*
X160777860Y-57004140D01*
X160719873Y-56965395D01*
X160710479Y-56959118D01*
X160710476Y-56959117D01*
X160651066Y-56947300D01*
X160651064Y-56947300D01*
X158880936Y-56947300D01*
X158880934Y-56947300D01*
X158821523Y-56959117D01*
X158821520Y-56959118D01*
X158754140Y-57004140D01*
X158709118Y-57071520D01*
X158709117Y-57071523D01*
X158697300Y-57130933D01*
X158697300Y-57130936D01*
X158697300Y-59201064D01*
X158697300Y-59201066D01*
X158697299Y-59201066D01*
X157832146Y-59201066D01*
X157985341Y-59075341D01*
X158118891Y-58912611D01*
X158218127Y-58726953D01*
X158279237Y-58525502D01*
X158294700Y-58368502D01*
X158294700Y-57963498D01*
X158279237Y-57806498D01*
X158218127Y-57605047D01*
X158165592Y-57506761D01*
X158118894Y-57419394D01*
X158118890Y-57419387D01*
X157985341Y-57256658D01*
X157822612Y-57123109D01*
X157822605Y-57123105D01*
X157636954Y-57023873D01*
X157435504Y-56962763D01*
X157435502Y-56962762D01*
X157226000Y-56942129D01*
X157016497Y-56962762D01*
X157016495Y-56962763D01*
X156815045Y-57023873D01*
X156629394Y-57123105D01*
X156629387Y-57123109D01*
X156466658Y-57256658D01*
X156333109Y-57419387D01*
X156333105Y-57419394D01*
X156233872Y-57605046D01*
X156230136Y-57617363D01*
X156191837Y-57675801D01*
X156128024Y-57704255D01*
X156058957Y-57693692D01*
X156006565Y-57647466D01*
X155991478Y-57612608D01*
X155977682Y-57559622D01*
X155977681Y-57559621D01*
X155881976Y-57347895D01*
X155881971Y-57347887D01*
X155751857Y-57155378D01*
X155751855Y-57155375D01*
X155591080Y-56987627D01*
X155591079Y-56987626D01*
X155404271Y-56849462D01*
X155196794Y-56744855D01*
X155196788Y-56744852D01*
X154974615Y-56676812D01*
X154936000Y-56671866D01*
X154936000Y-57719505D01*
X154831161Y-57671627D01*
X154722473Y-57656000D01*
X154649527Y-57656000D01*
X154540839Y-57671627D01*
X154436000Y-57719505D01*
X154436000Y-56673539D01*
X154435999Y-56673539D01*
X154284850Y-56706114D01*
X154284849Y-56706114D01*
X154069253Y-56792748D01*
X153871389Y-56914577D01*
X153696971Y-57068085D01*
X153696969Y-57068087D01*
X153550997Y-57248868D01*
X153437675Y-57451722D01*
X153360271Y-57670798D01*
X153360268Y-57670810D01*
X153321000Y-57899812D01*
X153321000Y-57916000D01*
X149152668Y-57916000D01*
X149149953Y-57888439D01*
X149089702Y-57689816D01*
X149068141Y-57649478D01*
X148991861Y-57506768D01*
X148991857Y-57506761D01*
X148860183Y-57346316D01*
X148699738Y-57214642D01*
X148699731Y-57214638D01*
X148516691Y-57116801D01*
X148516688Y-57116800D01*
X148516687Y-57116799D01*
X148516684Y-57116798D01*
X148318061Y-57056547D01*
X148318059Y-57056546D01*
X148318061Y-57056546D01*
X148111500Y-57036202D01*
X147904940Y-57056546D01*
X147787665Y-57092121D01*
X147706316Y-57116798D01*
X147706313Y-57116799D01*
X147706311Y-57116800D01*
X147706308Y-57116801D01*
X147523268Y-57214638D01*
X147523261Y-57214642D01*
X147362816Y-57346316D01*
X147231142Y-57506761D01*
X147231138Y-57506768D01*
X147133301Y-57689808D01*
X147133300Y-57689811D01*
X147133299Y-57689813D01*
X147133298Y-57689816D01*
X147108621Y-57771165D01*
X147073046Y-57888440D01*
X147052702Y-58094999D01*
X147073046Y-58301559D01*
X147086224Y-58345000D01*
X147133298Y-58500184D01*
X147133299Y-58500186D01*
X147133300Y-58500188D01*
X147133301Y-58500191D01*
X147231138Y-58683231D01*
X147231142Y-58683238D01*
X147362816Y-58843683D01*
X147481465Y-58941055D01*
X147520799Y-58998800D01*
X147526800Y-59036908D01*
X147526800Y-60320500D01*
X147507115Y-60387539D01*
X147454311Y-60433294D01*
X147402800Y-60444500D01*
X137375200Y-60444500D01*
X137308161Y-60424815D01*
X137262406Y-60372011D01*
X137251200Y-60320500D01*
X137251200Y-59272700D01*
X137270885Y-59205661D01*
X137323689Y-59159906D01*
X137375200Y-59148700D01*
X137536566Y-59148700D01*
X137595976Y-59136882D01*
X137595977Y-59136881D01*
X137595980Y-59136881D01*
X137663360Y-59091860D01*
X137708381Y-59024480D01*
X137708382Y-59024476D01*
X137714674Y-58992844D01*
X141681500Y-58992844D01*
X141687901Y-59052372D01*
X141687903Y-59052379D01*
X141738145Y-59187086D01*
X141738149Y-59187093D01*
X141824309Y-59302187D01*
X141824312Y-59302190D01*
X141939406Y-59388350D01*
X141939413Y-59388354D01*
X142074120Y-59438596D01*
X142074127Y-59438598D01*
X142133655Y-59444999D01*
X142133672Y-59445000D01*
X142781500Y-59445000D01*
X142781500Y-58530501D01*
X142889185Y-58579680D01*
X142995737Y-58595000D01*
X143067263Y-58595000D01*
X143173815Y-58579680D01*
X143281500Y-58530501D01*
X143281500Y-59445000D01*
X143929328Y-59445000D01*
X143929344Y-59444999D01*
X143988872Y-59438598D01*
X143988879Y-59438596D01*
X144123586Y-59388354D01*
X144123593Y-59388350D01*
X144238687Y-59302190D01*
X144238690Y-59302187D01*
X144324850Y-59187093D01*
X144324854Y-59187086D01*
X144375096Y-59052379D01*
X144375098Y-59052372D01*
X144381499Y-58992844D01*
X144381500Y-58992827D01*
X144381500Y-58598974D01*
X144401185Y-58531935D01*
X144453989Y-58486180D01*
X144523147Y-58476236D01*
X144586703Y-58505261D01*
X144614858Y-58540521D01*
X144691138Y-58683231D01*
X144691142Y-58683238D01*
X144822816Y-58843683D01*
X144983261Y-58975357D01*
X144983268Y-58975361D01*
X145166308Y-59073198D01*
X145166309Y-59073198D01*
X145166316Y-59073202D01*
X145364939Y-59133453D01*
X145364938Y-59133453D01*
X145383458Y-59135277D01*
X145571500Y-59153798D01*
X145778061Y-59133453D01*
X145976684Y-59073202D01*
X146159737Y-58975358D01*
X146320183Y-58843683D01*
X146451858Y-58683237D01*
X146549702Y-58500184D01*
X146609953Y-58301561D01*
X146630298Y-58095000D01*
X146609953Y-57888439D01*
X146549702Y-57689816D01*
X146528141Y-57649478D01*
X146451861Y-57506768D01*
X146451857Y-57506761D01*
X146320183Y-57346316D01*
X146159738Y-57214642D01*
X146159731Y-57214638D01*
X145976691Y-57116801D01*
X145976688Y-57116800D01*
X145976687Y-57116799D01*
X145976684Y-57116798D01*
X145778061Y-57056547D01*
X145778059Y-57056546D01*
X145778061Y-57056546D01*
X145571500Y-57036202D01*
X145364940Y-57056546D01*
X145247665Y-57092121D01*
X145166316Y-57116798D01*
X145166313Y-57116799D01*
X145166311Y-57116800D01*
X145166308Y-57116801D01*
X144983268Y-57214638D01*
X144983261Y-57214642D01*
X144822816Y-57346316D01*
X144691142Y-57506761D01*
X144691137Y-57506768D01*
X144614858Y-57649478D01*
X144565896Y-57699323D01*
X144497758Y-57714783D01*
X144432078Y-57690951D01*
X144389710Y-57635394D01*
X144381500Y-57591025D01*
X144381500Y-57197172D01*
X144381499Y-57197155D01*
X144375098Y-57137627D01*
X144375096Y-57137620D01*
X144324854Y-57002913D01*
X144324850Y-57002906D01*
X144238690Y-56887812D01*
X144238687Y-56887809D01*
X144123593Y-56801649D01*
X144123586Y-56801645D01*
X143988879Y-56751403D01*
X143988872Y-56751401D01*
X143929344Y-56745000D01*
X143281500Y-56745000D01*
X143281500Y-57659498D01*
X143173815Y-57610320D01*
X143067263Y-57595000D01*
X142995737Y-57595000D01*
X142889185Y-57610320D01*
X142781500Y-57659498D01*
X142781500Y-56745000D01*
X142133655Y-56745000D01*
X142074127Y-56751401D01*
X142074120Y-56751403D01*
X141939413Y-56801645D01*
X141939406Y-56801649D01*
X141824312Y-56887809D01*
X141824309Y-56887812D01*
X141738149Y-57002906D01*
X141738145Y-57002913D01*
X141687903Y-57137620D01*
X141687901Y-57137627D01*
X141681500Y-57197155D01*
X141681500Y-57845000D01*
X142597814Y-57845000D01*
X142572007Y-57885156D01*
X142531500Y-58023111D01*
X142531500Y-58166889D01*
X142572007Y-58304844D01*
X142597814Y-58345000D01*
X141681500Y-58345000D01*
X141681500Y-58992844D01*
X137714674Y-58992844D01*
X137720200Y-58965066D01*
X137720200Y-57224933D01*
X137708382Y-57165523D01*
X137708381Y-57165520D01*
X137701602Y-57155375D01*
X137663360Y-57098140D01*
X137601630Y-57056894D01*
X137595979Y-57053118D01*
X137595976Y-57053117D01*
X137536566Y-57041300D01*
X137536564Y-57041300D01*
X135796436Y-57041300D01*
X135796434Y-57041300D01*
X135737023Y-57053117D01*
X135737020Y-57053118D01*
X135669640Y-57098140D01*
X135624618Y-57165520D01*
X135624617Y-57165523D01*
X135612800Y-57224933D01*
X135612800Y-57528680D01*
X135593115Y-57595719D01*
X135540311Y-57641474D01*
X135471153Y-57651418D01*
X135407597Y-57622393D01*
X135376418Y-57581085D01*
X135300100Y-57417422D01*
X135300099Y-57417420D01*
X135164613Y-57223926D01*
X135164608Y-57223920D01*
X134997582Y-57056894D01*
X134804078Y-56921399D01*
X134589992Y-56821570D01*
X134589986Y-56821567D01*
X134376500Y-56764364D01*
X134376500Y-57659498D01*
X134268815Y-57610320D01*
X134162263Y-57595000D01*
X134090737Y-57595000D01*
X133984185Y-57610320D01*
X133876499Y-57659498D01*
X133876500Y-56764364D01*
X133876499Y-56764364D01*
X133663013Y-56821567D01*
X133663007Y-56821570D01*
X133448922Y-56921399D01*
X133448920Y-56921400D01*
X133255426Y-57056886D01*
X133255420Y-57056891D01*
X133088391Y-57223920D01*
X133088386Y-57223926D01*
X132952900Y-57417420D01*
X132952899Y-57417422D01*
X132853070Y-57631507D01*
X132853067Y-57631514D01*
X132821909Y-57747798D01*
X132785544Y-57807458D01*
X132722697Y-57837987D01*
X132653321Y-57829692D01*
X132599443Y-57785207D01*
X132583475Y-57751703D01*
X132564702Y-57689816D01*
X132543141Y-57649478D01*
X132466861Y-57506768D01*
X132466857Y-57506761D01*
X132335183Y-57346316D01*
X132174738Y-57214642D01*
X132174731Y-57214638D01*
X131991691Y-57116801D01*
X131991688Y-57116800D01*
X131991687Y-57116799D01*
X131991684Y-57116798D01*
X131793061Y-57056547D01*
X131793059Y-57056546D01*
X131793061Y-57056546D01*
X131605019Y-57038026D01*
X131586500Y-57036202D01*
X131586499Y-57036202D01*
X131379940Y-57056546D01*
X131262665Y-57092121D01*
X131181316Y-57116798D01*
X131181313Y-57116799D01*
X131181311Y-57116800D01*
X131181308Y-57116801D01*
X130998268Y-57214638D01*
X130998261Y-57214642D01*
X130837816Y-57346316D01*
X130706142Y-57506761D01*
X130706138Y-57506768D01*
X130608301Y-57689808D01*
X130608300Y-57689811D01*
X130608299Y-57689813D01*
X130608298Y-57689816D01*
X130583621Y-57771165D01*
X130548046Y-57888440D01*
X130527702Y-58094999D01*
X130105298Y-58094999D01*
X130084953Y-57888439D01*
X130024702Y-57689816D01*
X130003141Y-57649478D01*
X129926861Y-57506768D01*
X129926857Y-57506761D01*
X129795183Y-57346316D01*
X129634738Y-57214642D01*
X129634731Y-57214638D01*
X129451691Y-57116801D01*
X129451688Y-57116800D01*
X129451687Y-57116799D01*
X129451684Y-57116798D01*
X129253061Y-57056547D01*
X129253059Y-57056546D01*
X129253061Y-57056546D01*
X129065019Y-57038026D01*
X129046500Y-57036202D01*
X129046499Y-57036202D01*
X128839940Y-57056546D01*
X128722665Y-57092121D01*
X128641316Y-57116798D01*
X128641313Y-57116799D01*
X128641311Y-57116800D01*
X128641308Y-57116801D01*
X128458268Y-57214638D01*
X128458261Y-57214642D01*
X128297816Y-57346316D01*
X128166142Y-57506761D01*
X128166138Y-57506768D01*
X128068301Y-57689808D01*
X128068300Y-57689811D01*
X128068299Y-57689813D01*
X128068298Y-57689816D01*
X128043621Y-57771165D01*
X128008046Y-57888440D01*
X127987702Y-58094999D01*
X127565298Y-58094999D01*
X127544953Y-57888439D01*
X127484702Y-57689816D01*
X127463141Y-57649478D01*
X127386861Y-57506768D01*
X127386857Y-57506761D01*
X127255183Y-57346316D01*
X127094738Y-57214642D01*
X127094731Y-57214638D01*
X126911691Y-57116801D01*
X126911688Y-57116800D01*
X126911687Y-57116799D01*
X126911684Y-57116798D01*
X126713061Y-57056547D01*
X126713059Y-57056546D01*
X126713061Y-57056546D01*
X126506500Y-57036202D01*
X126299940Y-57056546D01*
X126182665Y-57092121D01*
X126101316Y-57116798D01*
X126101313Y-57116799D01*
X126101311Y-57116800D01*
X126101308Y-57116801D01*
X125918268Y-57214638D01*
X125918261Y-57214642D01*
X125757816Y-57346316D01*
X125626142Y-57506761D01*
X125626138Y-57506768D01*
X125528301Y-57689808D01*
X125528300Y-57689811D01*
X125528299Y-57689813D01*
X125528298Y-57689816D01*
X125503621Y-57771165D01*
X125468046Y-57888440D01*
X125447702Y-58094999D01*
X125025298Y-58094999D01*
X125004953Y-57888439D01*
X124944702Y-57689816D01*
X124923141Y-57649478D01*
X124846861Y-57506768D01*
X124846857Y-57506761D01*
X124715183Y-57346316D01*
X124554738Y-57214642D01*
X124554731Y-57214638D01*
X124371691Y-57116801D01*
X124371688Y-57116800D01*
X124371687Y-57116799D01*
X124371684Y-57116798D01*
X124173061Y-57056547D01*
X124173059Y-57056546D01*
X124173061Y-57056546D01*
X123985019Y-57038026D01*
X123966500Y-57036202D01*
X123966499Y-57036202D01*
X123759940Y-57056546D01*
X123642665Y-57092121D01*
X123561316Y-57116798D01*
X123561313Y-57116799D01*
X123561311Y-57116800D01*
X123561308Y-57116801D01*
X123378268Y-57214638D01*
X123378261Y-57214642D01*
X123217816Y-57346316D01*
X123086142Y-57506761D01*
X123086138Y-57506768D01*
X122988301Y-57689808D01*
X122988300Y-57689811D01*
X122988299Y-57689813D01*
X122988298Y-57689816D01*
X122963621Y-57771165D01*
X122928046Y-57888440D01*
X122907702Y-58094999D01*
X122485298Y-58094999D01*
X122464953Y-57888439D01*
X122404702Y-57689816D01*
X122383141Y-57649478D01*
X122306861Y-57506768D01*
X122306857Y-57506761D01*
X122175183Y-57346316D01*
X122014738Y-57214642D01*
X122014731Y-57214638D01*
X121831691Y-57116801D01*
X121831688Y-57116800D01*
X121831687Y-57116799D01*
X121831684Y-57116798D01*
X121633061Y-57056547D01*
X121633059Y-57056546D01*
X121633061Y-57056546D01*
X121426500Y-57036202D01*
X121219940Y-57056546D01*
X121102665Y-57092121D01*
X121021316Y-57116798D01*
X121021313Y-57116799D01*
X121021311Y-57116800D01*
X121021308Y-57116801D01*
X120838268Y-57214638D01*
X120838261Y-57214642D01*
X120677816Y-57346316D01*
X120546142Y-57506761D01*
X120546138Y-57506768D01*
X120448301Y-57689808D01*
X120448300Y-57689811D01*
X120448299Y-57689813D01*
X120448298Y-57689816D01*
X120423621Y-57771165D01*
X120388046Y-57888440D01*
X120367702Y-58095000D01*
X119945298Y-58095000D01*
X119924953Y-57888439D01*
X119864702Y-57689816D01*
X119843141Y-57649478D01*
X119766861Y-57506768D01*
X119766857Y-57506761D01*
X119635183Y-57346316D01*
X119474738Y-57214642D01*
X119474731Y-57214638D01*
X119291691Y-57116801D01*
X119291688Y-57116800D01*
X119291687Y-57116799D01*
X119291684Y-57116798D01*
X119093061Y-57056547D01*
X119093059Y-57056546D01*
X119093061Y-57056546D01*
X118905019Y-57038026D01*
X118886500Y-57036202D01*
X118886499Y-57036202D01*
X118679940Y-57056546D01*
X118562665Y-57092121D01*
X118481316Y-57116798D01*
X118481313Y-57116799D01*
X118481311Y-57116800D01*
X118481308Y-57116801D01*
X118298268Y-57214638D01*
X118298261Y-57214642D01*
X118137816Y-57346316D01*
X118006142Y-57506761D01*
X118006138Y-57506768D01*
X117908301Y-57689808D01*
X117908300Y-57689811D01*
X117908299Y-57689813D01*
X117908298Y-57689816D01*
X117883621Y-57771165D01*
X117848046Y-57888440D01*
X117827702Y-58095000D01*
X117405298Y-58095000D01*
X117384953Y-57888439D01*
X117324702Y-57689816D01*
X117303141Y-57649478D01*
X117226861Y-57506768D01*
X117226857Y-57506761D01*
X117095183Y-57346316D01*
X116934738Y-57214642D01*
X116934731Y-57214638D01*
X116751691Y-57116801D01*
X116751688Y-57116800D01*
X116751687Y-57116799D01*
X116751684Y-57116798D01*
X116553061Y-57056547D01*
X116553059Y-57056546D01*
X116553061Y-57056546D01*
X116346500Y-57036202D01*
X116139940Y-57056546D01*
X116022665Y-57092121D01*
X115941316Y-57116798D01*
X115941313Y-57116799D01*
X115941311Y-57116800D01*
X115941308Y-57116801D01*
X115758268Y-57214638D01*
X115758261Y-57214642D01*
X115597816Y-57346316D01*
X115466142Y-57506761D01*
X115466138Y-57506768D01*
X115368301Y-57689808D01*
X115368300Y-57689811D01*
X115368299Y-57689813D01*
X115368298Y-57689816D01*
X115343621Y-57771165D01*
X115308046Y-57888440D01*
X115287702Y-58094999D01*
X114865298Y-58094999D01*
X114844953Y-57888439D01*
X114784702Y-57689816D01*
X114763141Y-57649478D01*
X114686861Y-57506768D01*
X114686857Y-57506761D01*
X114555183Y-57346316D01*
X114394738Y-57214642D01*
X114394731Y-57214638D01*
X114211691Y-57116801D01*
X114211688Y-57116800D01*
X114211687Y-57116799D01*
X114211684Y-57116798D01*
X114013061Y-57056547D01*
X114013059Y-57056546D01*
X114013061Y-57056546D01*
X113806500Y-57036202D01*
X113599940Y-57056546D01*
X113482665Y-57092121D01*
X113401316Y-57116798D01*
X113401313Y-57116799D01*
X113401311Y-57116800D01*
X113401308Y-57116801D01*
X113218268Y-57214638D01*
X113218261Y-57214642D01*
X113057816Y-57346316D01*
X112926142Y-57506761D01*
X112926138Y-57506768D01*
X112828301Y-57689808D01*
X112828300Y-57689811D01*
X112828299Y-57689813D01*
X112828298Y-57689816D01*
X112803621Y-57771165D01*
X112768046Y-57888440D01*
X112747702Y-58094999D01*
X109913372Y-58094999D01*
X109846950Y-57942081D01*
X109846951Y-57942081D01*
X109695443Y-57692936D01*
X109693828Y-57690951D01*
X109511417Y-57466738D01*
X109298307Y-57267708D01*
X109060081Y-57099549D01*
X109060082Y-57099549D01*
X108801174Y-56965394D01*
X108526421Y-56867747D01*
X108526407Y-56867743D01*
X108240916Y-56808417D01*
X108240917Y-56808417D01*
X108093431Y-56798329D01*
X108022821Y-56793500D01*
X107877179Y-56793500D01*
X107806568Y-56798329D01*
X107659083Y-56808417D01*
X107373592Y-56867743D01*
X107373578Y-56867747D01*
X107098825Y-56965394D01*
X106839918Y-57099549D01*
X106701643Y-57197155D01*
X106601693Y-57267708D01*
X106601690Y-57267709D01*
X106601688Y-57267712D01*
X106601687Y-57267712D01*
X106388583Y-57466737D01*
X106204556Y-57692936D01*
X106053048Y-57942081D01*
X105936878Y-58209532D01*
X105858206Y-58490314D01*
X105858205Y-58490320D01*
X105818500Y-58779199D01*
X105818500Y-59070800D01*
X104013500Y-59070800D01*
X104013500Y-55115500D01*
X104033185Y-55048461D01*
X104085989Y-55002706D01*
X104137500Y-54991500D01*
X186820000Y-54991500D01*
X186887039Y-55011185D01*
G37*
%TD.AperFunction*%
%TD*%
M02*
